<svg width="385" height="91" viewBox="0 0 385 91" fill="none" xmlns="http://www.w3.org/2000/svg">
<g filter="url(#filter0_d_2476_3111)">
<rect x="8" y="4" width="369" height="75" rx="8" fill="white"/>
<path d="M75.097 52.0454H32.7244V53.4999H75.097V52.0454Z" fill="#333333"/>
<path d="M71.566 49.1359H72.9785C73.3531 49.1359 73.7123 48.9826 73.9772 48.7099C74.2421 48.4371 74.3909 48.0671 74.3909 47.6814V41.136L71.2836 33.1361L70.5067 31.1412C70.402 30.8717 70.2213 30.6406 69.988 30.4777C69.7547 30.3148 69.4793 30.2275 69.1974 30.2271H34.8431C34.4685 30.2271 34.1092 30.3803 33.8444 30.6531C33.5795 30.9258 33.4307 31.2958 33.4307 31.6816V47.6814C33.4307 48.0671 33.5795 48.4371 33.8444 48.7099C34.1092 48.9826 34.4685 49.1359 34.8431 49.1359H71.566Z" fill="#F7E646"/>
<path d="M71.2836 33.1361H33.4307V31.6816C33.4307 31.2958 33.5795 30.9258 33.8444 30.6531C34.1092 30.3803 34.4685 30.2271 34.8431 30.2271H69.1974C69.4793 30.2275 69.7547 30.3148 69.988 30.4777C70.2213 30.6406 70.402 30.8717 70.5067 31.1412L71.2836 33.1361Z" fill="#F7931E"/>
<path d="M74.2862 41.1361H65.9162C65.7289 41.1361 65.5493 41.0595 65.4169 40.9231C65.2844 40.7867 65.21 40.6017 65.21 40.4089V33.1362H71.2834L74.3519 41.0365C74.3562 41.0475 74.3578 41.0595 74.3565 41.0713C74.3553 41.0831 74.3512 41.0944 74.3447 41.1042C74.3382 41.1141 74.3295 41.1221 74.3193 41.1277C74.3091 41.1332 74.2978 41.1361 74.2862 41.1361ZM36.6085 36.0453H40.4926V41.8634H36.6085C36.5148 41.8634 36.425 41.8251 36.3588 41.7569C36.2926 41.6887 36.2554 41.5962 36.2554 41.4998V36.4089C36.2554 36.3125 36.2926 36.22 36.3588 36.1518C36.425 36.0836 36.5148 36.0453 36.6085 36.0453Z" fill="#75D7F9"/>
<path d="M41.199 42.5905H36.6086C36.3277 42.5905 36.0582 42.4756 35.8596 42.271C35.6609 42.0664 35.5493 41.7889 35.5493 41.4996V36.4088C35.5493 36.1194 35.6609 35.842 35.8596 35.6374C36.0582 35.4328 36.3277 35.3179 36.6086 35.3179H41.199V42.5905ZM36.9617 41.136H39.7866V36.7724H36.9617V41.136Z" fill="#F7E646"/>
<path d="M44.7299 36.0454H40.4927V41.8635H44.7299V36.0454Z" fill="#75D7F9"/>
<path d="M45.4363 42.5905H39.7866V35.3179H45.4363V42.5905ZM41.199 41.136H44.0239V36.7724H41.199V41.136Z" fill="#F7E646"/>
<path d="M48.9672 36.0454H44.73V41.8635H48.9672V36.0454Z" fill="#75D7F9"/>
<path d="M49.6736 42.5905H44.0239V35.3179H49.6736V42.5905ZM45.4363 41.136H48.2612V36.7724H45.4363V41.136Z" fill="#F7E646"/>
<path d="M58.1479 36.0454H53.9106V41.8635H58.1479V36.0454Z" fill="#75D7F9"/>
<path d="M58.8543 42.5905H53.2046V35.3179H58.8543V42.5905ZM54.617 41.136H57.4419V36.7724H54.617V41.136Z" fill="#F7E646"/>
<path d="M58.1479 36.0454H62.0321C62.1258 36.0454 62.2156 36.0837 62.2818 36.1519C62.348 36.2201 62.3852 36.3126 62.3852 36.409V41.4999C62.3852 41.5963 62.348 41.6888 62.2818 41.757C62.2156 41.8252 62.1258 41.8635 62.0321 41.8635H58.1479V36.0454Z" fill="#75D7F9"/>
<path d="M62.0323 42.5905H57.4419V35.3179H62.0323C62.3132 35.3179 62.5827 35.4328 62.7813 35.6374C62.98 35.842 63.0916 36.1194 63.0916 36.4088V41.4996C63.0916 41.7889 62.98 42.0664 62.7813 42.271C62.5827 42.4756 62.3132 42.5905 62.0323 42.5905ZM58.8543 41.136H61.6792V36.7724H58.8543V41.136Z" fill="#F7E646"/>
<path d="M39.7864 52.7726C41.7366 52.7726 43.3175 51.1446 43.3175 49.1363C43.3175 47.128 41.7366 45.5 39.7864 45.5C37.8363 45.5 36.2554 47.128 36.2554 49.1363C36.2554 51.1446 37.8363 52.7726 39.7864 52.7726Z" fill="#545656"/>
<path d="M39.7865 49.8637C40.1766 49.8637 40.4927 49.5381 40.4927 49.1364C40.4927 48.7348 40.1766 48.4092 39.7865 48.4092C39.3965 48.4092 39.0803 48.7348 39.0803 49.1364C39.0803 49.5381 39.3965 49.8637 39.7865 49.8637Z" fill="#F2F2F2"/>
<path d="M39.7864 50.5907C39.5071 50.5907 39.234 50.5054 39.0017 50.3456C38.7695 50.1857 38.5884 49.9586 38.4815 49.6928C38.3746 49.427 38.3467 49.1346 38.4012 48.8524C38.4557 48.5703 38.5902 48.3111 38.7877 48.1077C38.9852 47.9042 39.2369 47.7657 39.5109 47.7096C39.7849 47.6535 40.0689 47.6823 40.327 47.7924C40.585 47.9025 40.8056 48.0889 40.9608 48.3281C41.116 48.5673 41.1989 48.8485 41.1989 49.1362C41.1989 49.5219 41.0501 49.8919 40.7852 50.1647C40.5203 50.4375 40.161 50.5907 39.7864 50.5907Z" fill="#F2F2F2"/>
<path d="M68.035 52.7726C69.9851 52.7726 71.566 51.1446 71.566 49.1363C71.566 47.128 69.9851 45.5 68.035 45.5C66.0848 45.5 64.5039 47.128 64.5039 49.1363C64.5039 51.1446 66.0848 52.7726 68.035 52.7726Z" fill="#545656"/>
<path d="M68.0351 49.8637C68.4251 49.8637 68.7413 49.5381 68.7413 49.1364C68.7413 48.7348 68.4251 48.4092 68.0351 48.4092C67.645 48.4092 67.3289 48.7348 67.3289 49.1364C67.3289 49.5381 67.645 49.8637 68.0351 49.8637Z" fill="#F2F2F2"/>
<path d="M68.035 50.5907C67.7556 50.5907 67.4826 50.5054 67.2503 50.3456C67.018 50.1857 66.837 49.9586 66.7301 49.6928C66.6232 49.427 66.5952 49.1346 66.6497 48.8524C66.7042 48.5703 66.8387 48.3111 67.0362 48.1077C67.2338 47.9042 67.4854 47.7657 67.7594 47.7096C68.0334 47.6535 68.3174 47.6823 68.5755 47.7924C68.8336 47.9025 69.0542 48.0889 69.2094 48.3281C69.3646 48.5673 69.4474 48.8485 69.4474 49.1362C69.4474 49.5219 69.2986 49.8919 69.0337 50.1647C68.7688 50.4375 68.4096 50.5907 68.035 50.5907Z" fill="#F2F2F2"/>
<path d="M74.3908 43.3179H71.5659V44.7724H74.3908V43.3179Z" fill="#F2F2F2"/>
<path d="M53.9108 36.0454H48.9673V49.1361H53.9108V36.0454Z" fill="#EFD30A"/>
<path d="M52.4983 41.8633H50.3796V43.3178H52.4983V41.8633Z" fill="#CCCCCC"/>
<path d="M71.7616 32.4091L71.1648 30.8716C71.0086 30.4659 70.7374 30.1181 70.3864 29.8734C70.0355 29.6288 69.6211 29.4987 69.1973 29.5H34.843C34.2811 29.5 33.7422 29.7299 33.3449 30.139C32.9476 30.5482 32.7244 31.1032 32.7244 31.6818V47.6816C32.7244 48.2602 32.9476 48.8152 33.3449 49.2243C33.7422 49.6335 34.2811 49.8634 34.843 49.8634H35.6128C35.7464 50.6759 36.1016 51.4325 36.6368 52.0452H32.7244V53.4997H75.097V52.0452H71.1846C71.7198 51.4325 72.0749 50.6759 72.2086 49.8634H72.9784C73.5403 49.8634 74.0792 49.6335 74.4765 49.2243C74.8738 48.8152 75.097 48.2602 75.097 47.6816V41.2155L75.1479 41.126L71.7616 32.4091ZM73.3477 40.409H65.9163V33.8636H70.8054L72.3513 37.8432L73.3477 40.409ZM34.1368 31.6818C34.1368 31.4889 34.2112 31.3039 34.3436 31.1675C34.4761 31.0312 34.6557 30.9545 34.843 30.9545H69.1973C69.2691 30.9541 69.3405 30.9649 69.4092 30.9865C69.5095 31.0188 69.6016 31.0738 69.6787 31.1474C69.7558 31.221 69.816 31.3114 69.8548 31.412L70.2404 32.4091H34.1368V31.6818ZM36.9616 49.1361C36.9616 48.5608 37.1273 47.9983 37.4377 47.5199C37.7481 47.0415 38.1893 46.6687 38.7055 46.4485C39.2216 46.2283 39.7896 46.1707 40.3376 46.283C40.8855 46.3952 41.3889 46.6723 41.7839 47.0791C42.179 47.4859 42.448 48.0043 42.557 48.5686C42.666 49.1329 42.6101 49.7178 42.3963 50.2494C42.1825 50.7809 41.8204 51.2353 41.3559 51.5549C40.8913 51.8746 40.3452 52.0452 39.7865 52.0452C39.0373 52.0452 38.3188 51.7387 37.789 51.1931C37.2592 50.6476 36.9616 49.9076 36.9616 49.1361ZM43.9602 49.8634H63.8612C63.9949 50.6759 64.35 51.4325 64.8852 52.0452H42.9362C43.4714 51.4325 43.8265 50.6759 43.9602 49.8634ZM48.261 41.1362H45.4362V36.7726H48.261V41.1362ZM49.6734 42.5907V36.7726H53.2045V48.4088H49.6734V42.5907ZM54.6169 36.7726H57.4417V41.1362H54.6169V36.7726ZM65.2101 49.1361C65.2101 48.5608 65.3757 47.9983 65.6861 47.5199C65.9965 47.0415 66.4377 46.6687 66.9539 46.4485C67.4701 46.2283 68.038 46.1707 68.586 46.283C69.134 46.3952 69.6373 46.6723 70.0324 47.0791C70.4274 47.4859 70.6965 48.0043 70.8055 48.5686C70.9145 49.1329 70.8585 49.7178 70.6447 50.2494C70.4309 50.7809 70.0688 51.2353 69.6043 51.5549C69.1398 51.8746 68.5936 52.0452 68.0349 52.0452C67.2857 52.0452 66.5672 51.7387 66.0374 51.1931C65.5077 50.6476 65.2101 49.9076 65.2101 49.1361ZM72.9784 48.4088H72.2086C72.0426 47.3925 71.5323 46.4696 70.7682 45.804C70.0041 45.1384 69.0357 44.7732 68.0349 44.7732C67.0341 44.7732 66.0657 45.1384 65.3016 45.804C64.5375 46.4696 64.0272 47.3925 63.8612 48.4088H54.6169V42.5907H62.0321C62.3131 42.5907 62.5825 42.4758 62.7812 42.2712C62.9798 42.0666 63.0914 41.7892 63.0914 41.4999V36.409C63.0914 36.1197 62.9798 35.8422 62.7812 35.6376C62.5825 35.433 62.3131 35.3181 62.0321 35.3181H36.6085C36.3276 35.3181 36.0581 35.433 35.8595 35.6376C35.6608 35.8422 35.5492 36.1197 35.5492 36.409V41.4999C35.5492 41.7892 35.6608 42.0666 35.8595 42.2712C36.0581 42.4758 36.3276 42.5907 36.6085 42.5907H48.261V48.4088H43.9602C43.7942 47.3925 43.2839 46.4696 42.5198 45.804C41.7557 45.1384 40.7873 44.7732 39.7865 44.7732C38.7857 44.7732 37.8173 45.1384 37.0532 45.804C36.2891 46.4696 35.7788 47.3925 35.6128 48.4088H34.843C34.6557 48.4088 34.4761 48.3322 34.3436 48.1958C34.2112 48.0595 34.1368 47.8745 34.1368 47.6816V33.8636H64.5038V40.409C64.5038 40.7947 64.6527 41.1647 64.9175 41.4375C65.1824 41.7102 65.5417 41.8635 65.9163 41.8635H73.6846V43.318H71.566V44.7725H73.6846V47.6816C73.6846 47.8745 73.6102 48.0595 73.4777 48.1958C73.3453 48.3322 73.1657 48.4088 72.9784 48.4088ZM58.8542 41.1362V36.7726H61.679V41.1362H58.8542ZM44.0237 36.7726V41.1362H41.1989V36.7726H44.0237ZM39.7865 36.7726V41.1362H36.9616V36.7726H39.7865Z" fill="black"/>
<path d="M39.7864 47.6816C39.5071 47.6816 39.234 47.7669 39.0017 47.9268C38.7695 48.0866 38.5884 48.3138 38.4815 48.5795C38.3746 48.8453 38.3467 49.1378 38.4012 49.4199C38.4557 49.7021 38.5902 49.9613 38.7877 50.1647C38.9852 50.3681 39.2369 50.5066 39.5109 50.5627C39.7849 50.6189 40.0689 50.5901 40.327 50.48C40.585 50.3699 40.8056 50.1835 40.9608 49.9443C41.116 49.7051 41.1989 49.4238 41.1989 49.1362C41.1989 48.7504 41.0501 48.3804 40.7852 48.1077C40.5203 47.8349 40.161 47.6816 39.7864 47.6816ZM68.0349 47.6816C67.7555 47.6816 67.4824 47.7669 67.2502 47.9268C67.0179 48.0866 66.8369 48.3138 66.73 48.5795C66.6231 48.8453 66.5951 49.1378 66.6496 49.4199C66.7041 49.7021 66.8386 49.9613 67.0361 50.1647C67.2337 50.3681 67.4853 50.5066 67.7593 50.5627C68.0333 50.6189 68.3173 50.5901 68.5754 50.48C68.8335 50.3699 69.0541 50.1835 69.2093 49.9443C69.3645 49.7051 69.4473 49.4238 69.4473 49.1362C69.4473 48.7504 69.2985 48.3804 69.0336 48.1077C68.7687 47.8349 68.4095 47.6816 68.0349 47.6816Z" fill="black"/>
<path d="M52.4983 41.8633H50.3796V43.3178H52.4983V41.8633Z" fill="black"/>
<path d="M136.875 51V33.72H144.015C144.183 33.72 144.399 33.728 144.663 33.744C144.927 33.752 145.171 33.776 145.395 33.816C146.395 33.968 147.219 34.3 147.867 34.812C148.523 35.324 149.007 35.972 149.319 36.756C149.639 37.532 149.799 38.396 149.799 39.348C149.799 40.756 149.443 41.968 148.731 42.984C148.019 43.992 146.927 44.616 145.455 44.856L144.219 44.964H139.767V51H136.875ZM146.799 51L143.391 43.968L146.331 43.32L150.075 51H146.799ZM139.767 42.264H143.895C144.055 42.264 144.235 42.256 144.435 42.24C144.635 42.224 144.819 42.192 144.987 42.144C145.467 42.024 145.843 41.812 146.115 41.508C146.395 41.204 146.591 40.86 146.703 40.476C146.823 40.092 146.883 39.716 146.883 39.348C146.883 38.98 146.823 38.604 146.703 38.22C146.591 37.828 146.395 37.48 146.115 37.176C145.843 36.872 145.467 36.66 144.987 36.54C144.819 36.492 144.635 36.464 144.435 36.456C144.235 36.44 144.055 36.432 143.895 36.432H139.767V42.264ZM158.443 51.36C157.147 51.36 156.015 51.068 155.047 50.484C154.079 49.9 153.327 49.096 152.791 48.072C152.263 47.04 151.999 45.856 151.999 44.52C151.999 43.16 152.271 41.968 152.815 40.944C153.359 39.92 154.115 39.12 155.083 38.544C156.051 37.968 157.171 37.68 158.443 37.68C159.747 37.68 160.883 37.972 161.851 38.556C162.819 39.14 163.571 39.948 164.107 40.98C164.643 42.004 164.911 43.184 164.911 44.52C164.911 45.864 164.639 47.052 164.095 48.084C163.559 49.108 162.807 49.912 161.839 50.496C160.871 51.072 159.739 51.36 158.443 51.36ZM158.443 48.648C159.595 48.648 160.451 48.264 161.011 47.496C161.571 46.728 161.851 45.736 161.851 44.52C161.851 43.264 161.567 42.264 160.999 41.52C160.431 40.768 159.579 40.392 158.443 40.392C157.667 40.392 157.027 40.568 156.523 40.92C156.027 41.264 155.659 41.748 155.419 42.372C155.179 42.988 155.059 43.704 155.059 44.52C155.059 45.776 155.343 46.78 155.911 47.532C156.487 48.276 157.331 48.648 158.443 48.648ZM172.415 51.372C171.455 51.372 170.663 51.212 170.039 50.892C169.415 50.572 168.919 50.164 168.551 49.668C168.183 49.172 167.911 48.644 167.735 48.084C167.559 47.524 167.443 46.996 167.387 46.5C167.339 45.996 167.315 45.588 167.315 45.276V38.04H170.243V44.28C170.243 44.68 170.271 45.132 170.327 45.636C170.383 46.132 170.511 46.612 170.711 47.076C170.919 47.532 171.223 47.908 171.623 48.204C172.031 48.5 172.579 48.648 173.267 48.648C173.635 48.648 173.999 48.588 174.359 48.468C174.719 48.348 175.043 48.144 175.331 47.856C175.627 47.56 175.863 47.156 176.039 46.644C176.215 46.132 176.303 45.484 176.303 44.7L178.019 45.432C178.019 46.536 177.803 47.536 177.371 48.432C176.947 49.328 176.319 50.044 175.487 50.58C174.655 51.108 173.631 51.372 172.415 51.372ZM176.651 51V46.98H176.303V38.04H179.207V51H176.651ZM190.174 51C189.318 51.16 188.478 51.228 187.654 51.204C186.838 51.188 186.106 51.04 185.458 50.76C184.81 50.472 184.318 50.02 183.982 49.404C183.686 48.844 183.53 48.272 183.514 47.688C183.498 47.104 183.49 46.444 183.49 45.708V34.44H186.37V45.54C186.37 46.06 186.374 46.516 186.382 46.908C186.398 47.3 186.482 47.62 186.634 47.868C186.922 48.348 187.382 48.616 188.014 48.672C188.646 48.728 189.366 48.696 190.174 48.576V51ZM181.138 40.308V38.04H190.174V40.308H181.138ZM198.197 51.36C196.885 51.36 195.733 51.076 194.741 50.508C193.749 49.94 192.973 49.152 192.413 48.144C191.861 47.136 191.585 45.976 191.585 44.664C191.585 43.248 191.857 42.02 192.401 40.98C192.945 39.932 193.701 39.12 194.669 38.544C195.637 37.968 196.757 37.68 198.029 37.68C199.373 37.68 200.513 37.996 201.449 38.628C202.393 39.252 203.093 40.136 203.549 41.28C204.005 42.424 204.177 43.772 204.065 45.324H201.197V44.268C201.189 42.86 200.941 41.832 200.453 41.184C199.965 40.536 199.197 40.212 198.149 40.212C196.965 40.212 196.085 40.58 195.509 41.316C194.933 42.044 194.645 43.112 194.645 44.52C194.645 45.832 194.933 46.848 195.509 47.568C196.085 48.288 196.925 48.648 198.029 48.648C198.741 48.648 199.353 48.492 199.865 48.18C200.385 47.86 200.785 47.4 201.065 46.8L203.921 47.664C203.425 48.832 202.657 49.74 201.617 50.388C200.585 51.036 199.445 51.36 198.197 51.36ZM193.733 45.324V43.14H202.649V45.324H193.733ZM211.547 51V33.72H214.475L222.491 45.9V33.72H225.419V51H222.491L214.475 38.82V51H211.547ZM234.497 51.36C233.201 51.36 232.069 51.068 231.101 50.484C230.133 49.9 229.381 49.096 228.845 48.072C228.317 47.04 228.053 45.856 228.053 44.52C228.053 43.16 228.325 41.968 228.869 40.944C229.413 39.92 230.169 39.12 231.137 38.544C232.105 37.968 233.225 37.68 234.497 37.68C235.801 37.68 236.937 37.972 237.905 38.556C238.873 39.14 239.625 39.948 240.161 40.98C240.697 42.004 240.965 43.184 240.965 44.52C240.965 45.864 240.693 47.052 240.149 48.084C239.613 49.108 238.861 49.912 237.893 50.496C236.925 51.072 235.793 51.36 234.497 51.36ZM234.497 48.648C235.649 48.648 236.505 48.264 237.065 47.496C237.625 46.728 237.905 45.736 237.905 44.52C237.905 43.264 237.621 42.264 237.053 41.52C236.485 40.768 235.633 40.392 234.497 40.392C233.721 40.392 233.081 40.568 232.577 40.92C232.081 41.264 231.713 41.748 231.473 42.372C231.233 42.988 231.113 43.704 231.113 44.52C231.113 45.776 231.397 46.78 231.965 47.532C232.541 48.276 233.385 48.648 234.497 48.648ZM253.994 33.384C255.122 33.384 256.138 33.652 257.042 34.188C257.946 34.716 258.658 35.452 259.178 36.396C259.706 37.332 259.97 38.412 259.97 39.636V44.904C259.97 46.208 259.706 47.348 259.178 48.324C258.658 49.292 257.926 50.04 256.982 50.568C256.038 51.096 254.934 51.36 253.67 51.36C252.798 51.36 251.974 51.212 251.198 50.916C250.422 50.612 249.726 50.148 249.11 49.524L251.186 47.496C251.498 47.856 251.87 48.14 252.302 48.348C252.742 48.548 253.198 48.648 253.67 48.648C254.342 48.648 254.93 48.492 255.434 48.18C255.938 47.86 256.33 47.448 256.61 46.944C256.89 46.432 257.03 45.884 257.03 45.3V42.432L257.546 43.008C257.058 43.584 256.466 44.036 255.77 44.364C255.074 44.684 254.342 44.844 253.574 44.844C252.494 44.844 251.534 44.596 250.694 44.1C249.862 43.604 249.206 42.932 248.726 42.084C248.254 41.228 248.018 40.26 248.018 39.18C248.018 38.1 248.29 37.124 248.834 36.252C249.378 35.372 250.102 34.676 251.006 34.164C251.918 33.644 252.914 33.384 253.994 33.384ZM253.994 36.144C253.434 36.144 252.922 36.28 252.458 36.552C251.994 36.824 251.626 37.192 251.354 37.656C251.082 38.112 250.946 38.62 250.946 39.18C250.946 39.74 251.078 40.252 251.342 40.716C251.614 41.18 251.978 41.548 252.434 41.82C252.898 42.092 253.41 42.228 253.97 42.228C254.53 42.228 255.042 42.092 255.506 41.82C255.97 41.548 256.338 41.18 256.61 40.716C256.89 40.252 257.03 39.74 257.03 39.18C257.03 38.636 256.894 38.136 256.622 37.68C256.35 37.216 255.982 36.844 255.518 36.564C255.062 36.284 254.554 36.144 253.994 36.144Z" fill="black"/>
</g>
<defs>
<filter id="filter0_d_2476_3111" x="0" y="0" width="385" height="91" filterUnits="userSpaceOnUse" color-interpolation-filters="sRGB">
<feFlood flood-opacity="0" result="BackgroundImageFix"/>
<feColorMatrix in="SourceAlpha" type="matrix" values="0 0 0 0 0 0 0 0 0 0 0 0 0 0 0 0 0 0 127 0" result="hardAlpha"/>
<feOffset dy="4"/>
<feGaussianBlur stdDeviation="4"/>
<feComposite in2="hardAlpha" operator="out"/>
<feColorMatrix type="matrix" values="0 0 0 0 0 0 0 0 0 0 0 0 0 0 0 0 0 0 0.1 0"/>
<feBlend mode="normal" in2="BackgroundImageFix" result="effect1_dropShadow_2476_3111"/>
<feBlend mode="normal" in="SourceGraphic" in2="effect1_dropShadow_2476_3111" result="shape"/>
</filter>
</defs>
</svg>
