<svg width="112" height="49" viewBox="0 0 112 49" fill="none" xmlns="http://www.w3.org/2000/svg">
<path d="M36.9794 7.5V1.57H34.7094V0.3H40.6094V1.57H38.3394V7.5H36.9794ZM40.9148 7.5V2.1H42.1148V3.42L41.9848 3.25C42.0548 3.06333 42.1482 2.89333 42.2648 2.74C42.3815 2.58667 42.5248 2.46 42.6948 2.36C42.8248 2.28 42.9665 2.21833 43.1198 2.175C43.2732 2.12833 43.4315 2.1 43.5948 2.09C43.7582 2.07667 43.9215 2.08 44.0848 2.1V3.37C43.9348 3.32333 43.7598 3.30833 43.5598 3.325C43.3632 3.33833 43.1848 3.38333 43.0248 3.46C42.8648 3.53333 42.7298 3.63167 42.6198 3.755C42.5098 3.875 42.4265 4.01833 42.3698 4.185C42.3132 4.34833 42.2848 4.53333 42.2848 4.74V7.5H40.9148ZM46.4285 7.65C46.0418 7.65 45.7135 7.57667 45.4435 7.43C45.1768 7.28 44.9735 7.08167 44.8335 6.835C44.6968 6.585 44.6285 6.31 44.6285 6.01C44.6285 5.76 44.6668 5.53167 44.7435 5.325C44.8202 5.11833 44.9435 4.93667 45.1135 4.78C45.2868 4.62 45.5185 4.48667 45.8085 4.38C46.0085 4.30667 46.2468 4.24167 46.5235 4.185C46.8002 4.12833 47.1135 4.075 47.4635 4.025C47.8135 3.97167 48.1985 3.91333 48.6185 3.85L48.1285 4.12C48.1285 3.8 48.0518 3.565 47.8985 3.415C47.7452 3.265 47.4885 3.19 47.1285 3.19C46.9285 3.19 46.7202 3.23833 46.5035 3.335C46.2868 3.43167 46.1352 3.60333 46.0485 3.85L44.8185 3.46C44.9552 3.01333 45.2118 2.65 45.5885 2.37C45.9652 2.09 46.4785 1.95 47.1285 1.95C47.6052 1.95 48.0285 2.02333 48.3985 2.17C48.7685 2.31667 49.0485 2.57 49.2385 2.93C49.3452 3.13 49.4085 3.33 49.4285 3.53C49.4485 3.73 49.4585 3.95333 49.4585 4.2V7.5H48.2685V6.39L48.4385 6.62C48.1752 6.98333 47.8902 7.24667 47.5835 7.41C47.2802 7.57 46.8952 7.65 46.4285 7.65ZM46.7185 6.58C46.9685 6.58 47.1785 6.53667 47.3485 6.45C47.5218 6.36 47.6585 6.25833 47.7585 6.145C47.8618 6.03167 47.9318 5.93667 47.9685 5.86C48.0385 5.71333 48.0785 5.54333 48.0885 5.35C48.1018 5.15333 48.1085 4.99 48.1085 4.86L48.5085 4.96C48.1052 5.02667 47.7785 5.08333 47.5285 5.13C47.2785 5.17333 47.0768 5.21333 46.9235 5.25C46.7702 5.28667 46.6352 5.32667 46.5185 5.37C46.3852 5.42333 46.2768 5.48167 46.1935 5.545C46.1135 5.605 46.0535 5.67167 46.0135 5.745C45.9768 5.81833 45.9585 5.9 45.9585 5.99C45.9585 6.11333 45.9885 6.22 46.0485 6.31C46.1118 6.39667 46.2002 6.46333 46.3135 6.51C46.4268 6.55667 46.5618 6.58 46.7185 6.58ZM53.1386 7.65C52.5786 7.65 52.0986 7.525 51.6986 7.275C51.2986 7.025 50.9919 6.685 50.7786 6.255C50.5653 5.825 50.4586 5.34 50.4586 4.8C50.4586 4.25333 50.5686 3.765 50.7886 3.335C51.0119 2.905 51.3253 2.56667 51.7286 2.32C52.1319 2.07333 52.6086 1.95 53.1586 1.95C53.7953 1.95 54.3286 2.11167 54.7586 2.435C55.1919 2.755 55.4686 3.19333 55.5886 3.75L54.2286 4.11C54.1486 3.83 54.0086 3.61167 53.8086 3.455C53.6119 3.29833 53.3886 3.22 53.1386 3.22C52.8519 3.22 52.6169 3.29 52.4336 3.43C52.2503 3.56667 52.1153 3.755 52.0286 3.995C51.9419 4.23167 51.8986 4.5 51.8986 4.8C51.8986 5.27 52.0019 5.65167 52.2086 5.945C52.4186 6.235 52.7286 6.38 53.1386 6.38C53.4453 6.38 53.6786 6.31 53.8386 6.17C53.9986 6.03 54.1186 5.83 54.1986 5.57L55.5886 5.86C55.4353 6.43333 55.1453 6.875 54.7186 7.185C54.2919 7.495 53.7653 7.65 53.1386 7.65ZM56.5787 7.5L56.5887 0.3H57.9687V4.7L59.7987 2.1H61.4787L59.5287 4.8L61.6087 7.5H59.8387L57.9687 4.9V7.5H56.5787ZM62.2063 1.35V0.15H63.5663V1.35H62.2063ZM62.2063 7.5V2.1H63.5663V7.5H62.2063ZM68.7452 7.5V4.95C68.7452 4.82667 68.7386 4.67 68.7252 4.48C68.7119 4.28667 68.6702 4.09333 68.6002 3.9C68.5302 3.70667 68.4152 3.545 68.2552 3.415C68.0986 3.285 67.8752 3.22 67.5852 3.22C67.4686 3.22 67.3436 3.23833 67.2102 3.275C67.0769 3.31167 66.9519 3.38333 66.8352 3.49C66.7186 3.59333 66.6219 3.74667 66.5452 3.95C66.4719 4.15333 66.4352 4.42333 66.4352 4.76L65.6552 4.39C65.6552 3.96333 65.7419 3.56333 65.9152 3.19C66.0886 2.81667 66.3486 2.515 66.6952 2.285C67.0452 2.055 67.4852 1.94 68.0152 1.94C68.4386 1.94 68.7836 2.01167 69.0502 2.155C69.3169 2.29833 69.5236 2.48 69.6702 2.7C69.8202 2.92 69.9269 3.15 69.9902 3.39C70.0536 3.62667 70.0919 3.84333 70.1052 4.04C70.1186 4.23667 70.1252 4.38 70.1252 4.47V7.5H68.7452ZM65.0552 7.5V2.1H66.2652V3.89H66.4352V7.5H65.0552ZM73.7327 10.05C73.426 10.05 73.1343 10 72.8577 9.9C72.581 9.80333 72.3327 9.66667 72.1127 9.49C71.896 9.31667 71.7193 9.11333 71.5827 8.88L72.8427 8.27C72.9293 8.43 73.0527 8.55167 73.2127 8.635C73.376 8.71833 73.5527 8.76 73.7427 8.76C73.946 8.76 74.1377 8.725 74.3177 8.655C74.4977 8.58833 74.641 8.48667 74.7477 8.35C74.8577 8.21667 74.9093 8.05 74.9027 7.85V6.28H75.0727V2.1H76.2627V7.87C76.2627 8.00333 76.256 8.12833 76.2427 8.245C76.2327 8.365 76.2127 8.48333 76.1827 8.6C76.096 8.93 75.9343 9.20167 75.6977 9.415C75.4643 9.62833 75.1777 9.78667 74.8377 9.89C74.4977 9.99667 74.1293 10.05 73.7327 10.05ZM73.6127 7.65C73.116 7.65 72.681 7.525 72.3077 7.275C71.9343 7.025 71.6427 6.685 71.4327 6.255C71.226 5.825 71.1227 5.34 71.1227 4.8C71.1227 4.25 71.2277 3.76167 71.4377 3.335C71.651 2.905 71.9493 2.56667 72.3327 2.32C72.716 2.07333 73.166 1.95 73.6827 1.95C74.196 1.95 74.6277 2.075 74.9777 2.325C75.3277 2.575 75.5927 2.915 75.7727 3.345C75.9527 3.775 76.0427 4.26 76.0427 4.8C76.0427 5.34 75.951 5.825 75.7677 6.255C75.5877 6.685 75.3177 7.025 74.9577 7.275C74.5977 7.525 74.1493 7.65 73.6127 7.65ZM73.8327 6.44C74.136 6.44 74.3777 6.37167 74.5577 6.235C74.741 6.09833 74.8727 5.90667 74.9527 5.66C75.0327 5.41333 75.0727 5.12667 75.0727 4.8C75.0727 4.47333 75.0327 4.18667 74.9527 3.94C74.8727 3.69333 74.7443 3.50167 74.5677 3.365C74.3943 3.22833 74.166 3.16 73.8827 3.16C73.5793 3.16 73.3293 3.235 73.1327 3.385C72.9393 3.53167 72.796 3.73 72.7027 3.98C72.6093 4.22667 72.5627 4.5 72.5627 4.8C72.5627 5.10333 72.6077 5.38 72.6977 5.63C72.7877 5.87667 72.926 6.07333 73.1127 6.22C73.2993 6.36667 73.5393 6.44 73.8327 6.44Z" fill="#949494"/>
<path d="M14.2894 29.5V12.22H21.5854C21.7534 12.22 21.9774 12.228 22.2574 12.244C22.5454 12.252 22.8014 12.276 23.0254 12.316C24.0574 12.476 24.9014 12.816 25.5574 13.336C26.2214 13.856 26.7094 14.512 27.0214 15.304C27.3334 16.088 27.4894 16.964 27.4894 17.932C27.4894 19.38 27.1294 20.62 26.4094 21.652C25.6894 22.676 24.5614 23.308 23.0254 23.548L21.5854 23.644H17.5534V29.5H14.2894ZM24.0334 29.5L20.6254 22.468L23.9854 21.82L27.7294 29.5H24.0334ZM17.5534 20.596H21.4414C21.6094 20.596 21.7934 20.588 21.9934 20.572C22.1934 20.556 22.3774 20.524 22.5454 20.476C22.9854 20.356 23.3254 20.156 23.5654 19.876C23.8054 19.588 23.9694 19.272 24.0574 18.928C24.1534 18.576 24.2014 18.244 24.2014 17.932C24.2014 17.62 24.1534 17.292 24.0574 16.948C23.9694 16.596 23.8054 16.28 23.5654 16C23.3254 15.712 22.9854 15.508 22.5454 15.388C22.3774 15.34 22.1934 15.308 21.9934 15.292C21.7934 15.276 21.6094 15.268 21.4414 15.268H17.5534V20.596ZM36.1995 29.86C34.8955 29.86 33.7515 29.568 32.7675 28.984C31.7835 28.4 31.0155 27.596 30.4635 26.572C29.9195 25.54 29.6475 24.356 29.6475 23.02C29.6475 21.668 29.9275 20.48 30.4875 19.456C31.0475 18.424 31.8195 17.62 32.8035 17.044C33.7875 16.468 34.9195 16.18 36.1995 16.18C37.5035 16.18 38.6475 16.472 39.6315 17.056C40.6235 17.64 41.3955 18.448 41.9475 19.48C42.4995 20.504 42.7755 21.684 42.7755 23.02C42.7755 24.364 42.4955 25.552 41.9355 26.584C41.3835 27.608 40.6115 28.412 39.6195 28.996C38.6355 29.572 37.4955 29.86 36.1995 29.86ZM36.1995 26.812C37.2475 26.812 38.0275 26.46 38.5395 25.756C39.0595 25.044 39.3195 24.132 39.3195 23.02C39.3195 21.868 39.0555 20.948 38.5275 20.26C38.0075 19.572 37.2315 19.228 36.1995 19.228C35.4875 19.228 34.9035 19.388 34.4475 19.708C33.9915 20.028 33.6515 20.472 33.4275 21.04C33.2115 21.608 33.1035 22.268 33.1035 23.02C33.1035 24.18 33.3635 25.104 33.8835 25.792C34.4115 26.472 35.1835 26.812 36.1995 26.812ZM50.2384 29.884C49.2224 29.884 48.3944 29.712 47.7544 29.368C47.1144 29.024 46.6144 28.588 46.2544 28.06C45.9024 27.532 45.6504 26.984 45.4984 26.416C45.3464 25.84 45.2544 25.316 45.2224 24.844C45.1904 24.372 45.1744 24.028 45.1744 23.812V16.54H48.4864V22.66C48.4864 22.956 48.5024 23.336 48.5344 23.8C48.5664 24.256 48.6664 24.716 48.8344 25.18C49.0024 25.644 49.2744 26.032 49.6504 26.344C50.0344 26.656 50.5744 26.812 51.2704 26.812C51.5504 26.812 51.8504 26.768 52.1704 26.68C52.4904 26.592 52.7904 26.424 53.0704 26.176C53.3504 25.92 53.5784 25.548 53.7544 25.06C53.9384 24.564 54.0304 23.916 54.0304 23.116L55.9024 24.004C55.9024 25.028 55.6944 25.988 55.2784 26.884C54.8624 27.78 54.2344 28.504 53.3944 29.056C52.5624 29.608 51.5104 29.884 50.2384 29.884ZM54.4384 29.5V25.204H54.0304V16.54H57.3184V29.5H54.4384ZM68.4482 29.5C67.5522 29.668 66.6722 29.74 65.8082 29.716C64.9522 29.7 64.1842 29.552 63.5042 29.272C62.8322 28.984 62.3202 28.524 61.9682 27.892C61.6482 27.3 61.4802 26.7 61.4642 26.092C61.4482 25.476 61.4402 24.78 61.4402 24.004V12.94H64.7042V23.812C64.7042 24.316 64.7082 24.772 64.7162 25.18C64.7322 25.58 64.8162 25.9 64.9682 26.14C65.2562 26.596 65.7162 26.844 66.3482 26.884C66.9802 26.924 67.6802 26.892 68.4482 26.788V29.5ZM59.2322 19.06V16.54H68.4482V19.06H59.2322ZM76.6571 29.86C75.3291 29.86 74.1571 29.576 73.1411 29.008C72.1331 28.432 71.3411 27.644 70.7651 26.644C70.1971 25.636 69.9131 24.484 69.9131 23.188C69.9131 21.772 70.1931 20.54 70.7531 19.492C71.3131 18.444 72.0851 17.632 73.0691 17.056C74.0531 16.472 75.1851 16.18 76.4651 16.18C77.8251 16.18 78.9811 16.5 79.9331 17.14C80.8851 17.78 81.5891 18.68 82.0451 19.84C82.5011 21 82.6611 22.364 82.5251 23.932H79.2971V22.732C79.2971 21.412 79.0851 20.464 78.6611 19.888C78.2451 19.304 77.5611 19.012 76.6091 19.012C75.4971 19.012 74.6771 19.352 74.1491 20.032C73.6291 20.704 73.3691 21.7 73.3691 23.02C73.3691 24.228 73.6291 25.164 74.1491 25.828C74.6771 26.484 75.4491 26.812 76.4651 26.812C77.1051 26.812 77.6531 26.672 78.1091 26.392C78.5651 26.112 78.9131 25.708 79.1531 25.18L82.4171 26.116C81.9291 27.3 81.1571 28.22 80.1011 28.876C79.0531 29.532 77.9051 29.86 76.6571 29.86ZM72.3611 23.932V21.508H80.9531V23.932H72.3611ZM93.0394 29.5V15.772L89.7994 17.764V14.164L93.0394 12.22H96.3754V29.5H93.0394Z" fill="black"/>
<path d="M37.6574 45.68C36.7934 45.68 36.0474 45.492 35.4194 45.116C34.7954 44.74 34.3134 44.214 33.9734 43.538C33.6374 42.862 33.4694 42.076 33.4694 41.18C33.4694 40.284 33.6374 39.498 33.9734 38.822C34.3134 38.146 34.7954 37.62 35.4194 37.244C36.0474 36.868 36.7934 36.68 37.6574 36.68C38.6494 36.68 39.4814 36.926 40.1534 37.418C40.8294 37.91 41.3054 38.576 41.5814 39.416L39.9374 39.872C39.7774 39.348 39.5074 38.942 39.1274 38.654C38.7474 38.362 38.2574 38.216 37.6574 38.216C37.1094 38.216 36.6514 38.338 36.2834 38.582C35.9194 38.826 35.6454 39.17 35.4614 39.614C35.2774 40.058 35.1854 40.58 35.1854 41.18C35.1854 41.78 35.2774 42.302 35.4614 42.746C35.6454 43.19 35.9194 43.534 36.2834 43.778C36.6514 44.022 37.1094 44.144 37.6574 44.144C38.2574 44.144 38.7474 43.998 39.1274 43.706C39.5074 43.414 39.7774 43.008 39.9374 42.488L41.5814 42.944C41.3054 43.784 40.8294 44.45 40.1534 44.942C39.4814 45.434 38.6494 45.68 37.6574 45.68ZM47.3185 45.5V42.44C47.3185 42.292 47.3105 42.104 47.2945 41.876C47.2785 41.644 47.2285 41.412 47.1445 41.18C47.0605 40.948 46.9225 40.754 46.7305 40.598C46.5425 40.442 46.2745 40.364 45.9265 40.364C45.7865 40.364 45.6365 40.386 45.4765 40.43C45.3165 40.474 45.1665 40.56 45.0265 40.688C44.8865 40.812 44.7705 40.996 44.6785 41.24C44.5905 41.484 44.5465 41.808 44.5465 42.212L43.6105 41.768C43.6105 41.256 43.7145 40.776 43.9225 40.328C44.1305 39.88 44.4425 39.518 44.8585 39.242C45.2785 38.966 45.8065 38.828 46.4425 38.828C46.9505 38.828 47.3645 38.914 47.6845 39.086C48.0045 39.258 48.2525 39.476 48.4285 39.74C48.6085 40.004 48.7365 40.28 48.8125 40.568C48.8885 40.852 48.9345 41.112 48.9505 41.348C48.9665 41.584 48.9745 41.756 48.9745 41.864V45.5H47.3185ZM42.8905 45.5V36.86H44.3425V41.3H44.5465V45.5H42.8905ZM52.3314 45.68C51.8674 45.68 51.4734 45.592 51.1494 45.416C50.8294 45.236 50.5854 44.998 50.4174 44.702C50.2534 44.402 50.1714 44.072 50.1714 43.712C50.1714 43.412 50.2174 43.138 50.3094 42.89C50.4014 42.642 50.5494 42.424 50.7534 42.236C50.9614 42.044 51.2394 41.884 51.5874 41.756C51.8274 41.668 52.1134 41.59 52.4454 41.522C52.7774 41.454 53.1534 41.39 53.5734 41.33C53.9934 41.266 54.4554 41.196 54.9594 41.12L54.3714 41.444C54.3714 41.06 54.2794 40.778 54.0954 40.598C53.9114 40.418 53.6034 40.328 53.1714 40.328C52.9314 40.328 52.6814 40.386 52.4214 40.502C52.1614 40.618 51.9794 40.824 51.8754 41.12L50.3994 40.652C50.5634 40.116 50.8714 39.68 51.3234 39.344C51.7754 39.008 52.3914 38.84 53.1714 38.84C53.7434 38.84 54.2514 38.928 54.6954 39.104C55.1394 39.28 55.4754 39.584 55.7034 40.016C55.8314 40.256 55.9074 40.496 55.9314 40.736C55.9554 40.976 55.9674 41.244 55.9674 41.54V45.5H54.5394V44.168L54.7434 44.444C54.4274 44.88 54.0854 45.196 53.7174 45.392C53.3534 45.584 52.8914 45.68 52.3314 45.68ZM52.6794 44.396C52.9794 44.396 53.2314 44.344 53.4354 44.24C53.6434 44.132 53.8074 44.01 53.9274 43.874C54.0514 43.738 54.1354 43.624 54.1794 43.532C54.2634 43.356 54.3114 43.152 54.3234 42.92C54.3394 42.684 54.3474 42.488 54.3474 42.332L54.8274 42.452C54.3434 42.532 53.9514 42.6 53.6514 42.656C53.3514 42.708 53.1094 42.756 52.9254 42.8C52.7414 42.844 52.5794 42.892 52.4394 42.944C52.2794 43.008 52.1494 43.078 52.0494 43.154C51.9534 43.226 51.8814 43.306 51.8334 43.394C51.7894 43.482 51.7674 43.58 51.7674 43.688C51.7674 43.836 51.8034 43.964 51.8754 44.072C51.9514 44.176 52.0574 44.256 52.1934 44.312C52.3294 44.368 52.4914 44.396 52.6794 44.396ZM61.9435 45.5V42.44C61.9435 42.292 61.9355 42.104 61.9195 41.876C61.9035 41.644 61.8535 41.412 61.7695 41.18C61.6855 40.948 61.5475 40.754 61.3555 40.598C61.1675 40.442 60.8995 40.364 60.5515 40.364C60.4115 40.364 60.2615 40.386 60.1015 40.43C59.9415 40.474 59.7915 40.56 59.6515 40.688C59.5115 40.812 59.3955 40.996 59.3035 41.24C59.2155 41.484 59.1715 41.808 59.1715 42.212L58.2355 41.768C58.2355 41.256 58.3395 40.776 58.5475 40.328C58.7555 39.88 59.0675 39.518 59.4835 39.242C59.9035 38.966 60.4315 38.828 61.0675 38.828C61.5755 38.828 61.9895 38.914 62.3095 39.086C62.6295 39.258 62.8775 39.476 63.0535 39.74C63.2335 40.004 63.3615 40.28 63.4375 40.568C63.5135 40.852 63.5595 41.112 63.5755 41.348C63.5915 41.584 63.5995 41.756 63.5995 41.864V45.5H61.9435ZM57.5155 45.5V39.02H58.9675V41.168H59.1715V45.5H57.5155ZM67.9284 48.56C67.5604 48.56 67.2104 48.5 66.8784 48.38C66.5464 48.264 66.2484 48.1 65.9844 47.888C65.7244 47.68 65.5124 47.436 65.3484 47.156L66.8604 46.424C66.9644 46.616 67.1124 46.762 67.3044 46.862C67.5004 46.962 67.7124 47.012 67.9404 47.012C68.1844 47.012 68.4144 46.97 68.6304 46.886C68.8464 46.806 69.0184 46.684 69.1464 46.52C69.2784 46.36 69.3404 46.16 69.3324 45.92V44.036H69.5364V39.02H70.9644V45.944C70.9644 46.104 70.9564 46.254 70.9404 46.394C70.9284 46.538 70.9044 46.68 70.8684 46.82C70.7644 47.216 70.5704 47.542 70.2864 47.798C70.0064 48.054 69.6624 48.244 69.2544 48.368C68.8464 48.496 68.4044 48.56 67.9284 48.56ZM67.7844 45.68C67.1884 45.68 66.6664 45.53 66.2184 45.23C65.7704 44.93 65.4204 44.522 65.1684 44.006C64.9204 43.49 64.7964 42.908 64.7964 42.26C64.7964 41.6 64.9224 41.014 65.1744 40.502C65.4304 39.986 65.7884 39.58 66.2484 39.284C66.7084 38.988 67.2484 38.84 67.8684 38.84C68.4844 38.84 69.0024 38.99 69.4224 39.29C69.8424 39.59 70.1604 39.998 70.3764 40.514C70.5924 41.03 70.7004 41.612 70.7004 42.26C70.7004 42.908 70.5904 43.49 70.3704 44.006C70.1544 44.522 69.8304 44.93 69.3984 45.23C68.9664 45.53 68.4284 45.68 67.7844 45.68ZM68.0484 44.228C68.4124 44.228 68.7024 44.146 68.9184 43.982C69.1384 43.818 69.2964 43.588 69.3924 43.292C69.4884 42.996 69.5364 42.652 69.5364 42.26C69.5364 41.868 69.4884 41.524 69.3924 41.228C69.2964 40.932 69.1424 40.702 68.9304 40.538C68.7224 40.374 68.4484 40.292 68.1084 40.292C67.7444 40.292 67.4444 40.382 67.2084 40.562C66.9764 40.738 66.8044 40.976 66.6924 41.276C66.5804 41.572 66.5244 41.9 66.5244 42.26C66.5244 42.624 66.5784 42.956 66.6864 43.256C66.7944 43.552 66.9604 43.788 67.1844 43.964C67.4084 44.14 67.6964 44.228 68.0484 44.228ZM75.6567 45.68C74.9927 45.68 74.4067 45.538 73.8987 45.254C73.3947 44.966 72.9987 44.572 72.7107 44.072C72.4267 43.568 72.2847 42.992 72.2847 42.344C72.2847 41.636 72.4247 41.02 72.7047 40.496C72.9847 39.972 73.3707 39.566 73.8627 39.278C74.3547 38.986 74.9207 38.84 75.5607 38.84C76.2407 38.84 76.8187 39 77.2947 39.32C77.7707 39.64 78.1227 40.09 78.3507 40.67C78.5787 41.25 78.6587 41.932 78.5907 42.716H76.9767V42.116C76.9767 41.456 76.8707 40.982 76.6587 40.694C76.4507 40.402 76.1087 40.256 75.6327 40.256C75.0767 40.256 74.6667 40.426 74.4027 40.766C74.1427 41.102 74.0127 41.6 74.0127 42.26C74.0127 42.864 74.1427 43.332 74.4027 43.664C74.6667 43.992 75.0527 44.156 75.5607 44.156C75.8807 44.156 76.1547 44.086 76.3827 43.946C76.6107 43.806 76.7847 43.604 76.9047 43.34L78.5367 43.808C78.2927 44.4 77.9067 44.86 77.3787 45.188C76.8547 45.516 76.2807 45.68 75.6567 45.68ZM73.5087 42.716V41.504H77.8047V42.716H73.5087Z" fill="#DDB948"/>
<path d="M33.1094 46.25H79.1007V46.55H33.1094V46.25Z" fill="#DDB948"/>
</svg>
