<?xml version="1.0" encoding="UTF-8"?>
<svg version="1.1" xmlns="http://www.w3.org/2000/svg" width="512" height="512">
<path d="M0 0 C8.15695156 6.48848419 12.89684905 13.05999635 15.5625 23.3125 C16.42995289 36.6134443 14.26438251 47.3428655 5.4976635 57.89976883 C2.81420404 60.7624151 0.0605214 63.54283432 -2.73071289 66.29931641 C-3.78542445 67.359179 -4.8390643 68.42010899 -5.89172363 69.48200989 C-8.72986934 72.33853247 -11.58332508 75.17927149 -14.44052434 78.01672029 C-17.44650179 81.00618514 -20.43973096 84.00837122 -23.43492126 87.00863647 C-28.4672991 92.045523 -33.50972665 97.07217332 -38.55834961 102.09277344 C-44.36805728 107.87047862 -50.16161842 113.66399339 -55.94670492 119.46634352 C-61.54265446 125.07824616 -67.14995997 130.67867111 -72.76238823 136.27408981 C-75.13612208 138.64100923 -77.50594 141.01174535 -79.87254524 143.38579178 C-82.66978685 146.19078559 -85.47696776 148.98546436 -88.29160309 151.77300072 C-89.31354881 152.7881524 -90.33225867 153.80657568 -91.34715843 154.82877159 C-100.04837347 163.58523237 -109.14006839 170.72282459 -120.25 176.1875 C-119.48993216 176.18847681 -118.72986431 176.18945362 -117.94676411 176.19046003 C-72.89542468 176.24873651 -27.8441336 176.3225367 17.20714628 176.41648628 C22.61693843 176.4277544 28.02673085 176.43889286 33.43652344 176.44995117 C34.51351227 176.45215486 35.59050109 176.45435854 36.70012595 176.456629 C54.1368179 176.49199796 71.57350981 176.51686437 89.01022433 176.53784702 C106.90291767 176.55961225 124.79556448 176.59266957 142.68821824 176.63620156 C153.72825123 176.66270578 164.76822625 176.68041022 175.80828948 176.68684604 C183.37965729 176.69210366 190.95095215 176.70833329 198.52228086 176.73316566 C202.89002999 176.74716774 207.25764856 176.75635628 211.62542152 176.75250816 C215.62790459 176.74908886 219.63010917 176.75951482 223.63253523 176.78073552 C225.0768394 176.78598808 226.5211726 176.78625448 227.96547638 176.78089563 C241.53606731 176.73569163 251.82586352 178.84043207 261.94921875 188.2265625 C270.21255076 196.87174904 272.33764401 204.9416348 272.22753906 216.63549805 C272.00655406 222.53815639 270.98850539 227.16612404 267.75 232.1875 C267.193125 233.198125 266.63625 234.20875 266.0625 235.25 C259.13720082 244.04700166 250.56270588 250.16337892 239.25399351 251.64577067 C235.31453958 251.83047891 231.39209108 251.85833154 227.45013428 251.82673645 C225.93421517 251.83305993 224.41830391 251.84156998 222.90240788 251.85205668 C218.76776356 251.8744176 214.63368203 251.86605185 210.49902129 251.8523711 C206.0287946 251.84306701 201.55868043 251.86268078 197.08848572 251.87869263 C189.35385696 251.90248156 181.61938751 251.90815423 173.88472748 251.90134621 C162.70189344 251.89152958 151.51923551 251.90930826 140.33642998 251.93371352 C122.19091685 251.97256962 104.04545423 251.98926408 85.89990234 251.99194336 C68.27845673 251.99459289 50.65707011 252.0077284 33.03564453 252.03491211 C31.40499348 252.03742218 31.40499348 252.03742218 29.74139997 252.03998295 C24.2874613 252.04844273 18.83352298 252.05710809 13.37958479 252.06587565 C-31.83026651 252.13828766 -77.04009515 252.17470039 -122.25 252.1875 C-120.79948964 252.89941027 -120.79948964 252.89941027 -119.31967604 253.62570256 C-118.04136237 254.25766425 -116.76313474 254.88980001 -115.48497963 255.52208233 C-114.84874721 255.83377321 -114.21251479 256.14546409 -113.5570026 256.46660015 C-109.04341075 258.70539138 -105.42820871 260.99968897 -101.67724609 264.3371582 C-101.15234777 264.80032346 -100.62744946 265.26348871 -100.08664513 265.74068928 C-93.97791702 271.19652354 -88.18361893 276.98360121 -82.4140625 282.79296875 C-81.23908599 283.9691425 -80.06373391 285.14494116 -78.88803101 286.32038879 C-76.44974017 288.76022687 -74.01479138 291.20333177 -71.58251953 293.64916992 C-68.48470961 296.76405245 -65.38027315 299.87222706 -62.27353859 302.97820568 C-59.85558104 305.39643653 -57.44024826 307.81727482 -55.02576828 310.23897743 C-53.88222005 311.38567674 -52.73809257 312.53179874 -51.59334183 313.67729759 C-46.22242586 319.05558067 -40.94361151 324.44970363 -35.99795532 330.22731018 C-32.31585255 334.35648915 -28.29227289 338.15990122 -24.3359375 342.0234375 C-22.91052371 343.42856541 -21.48512534 344.83370934 -20.06061745 346.23975563 C-16.58659793 349.66848548 -13.10868767 353.09303898 -9.61425781 356.50097656 C-7.64206524 358.42497144 -5.67690073 360.35565938 -3.71890259 362.2940979 C-1.88693552 364.10747196 -0.04543681 365.91128516 1.80703735 367.70370483 C10.39536521 376.25507944 15.51609577 385.6772734 16.125 397.875 C15.88520319 407.60175824 12.66226874 417.22756044 5.75 424.1875 C-3.10275094 432.08465868 -12.07447206 434.58441215 -23.83203125 434.46484375 C-36.82311248 433.4107103 -45.51894513 425.22285299 -54.31559753 416.39605713 C-55.08661295 415.63027839 -55.85762836 414.86449966 -56.65200788 414.07551551 C-59.21831025 411.52414075 -61.77748648 408.96574047 -64.33666992 406.40722656 C-66.18154066 404.56998195 -68.02681168 402.73313921 -69.87245178 400.89666748 C-74.87343061 395.91844796 -79.86701942 390.93285982 -84.85916305 385.94578266 C-87.97975723 382.82845441 -91.10197921 379.71276005 -94.22454262 376.59740448 C-102.88114243 367.96035444 -111.53617211 359.3217399 -120.18445873 350.6763649 C-120.73683087 350.12418033 -121.28920301 349.57199576 -121.8583137 349.00307833 C-122.97791977 347.88383849 -124.09752457 346.76459738 -125.21712812 345.64535502 C-125.77284645 345.0898195 -126.32856477 344.53428399 -126.90112305 343.96191406 C-127.73572307 343.12758487 -127.73572307 343.12758487 -128.58718369 342.27640054 C-137.60750805 333.25961954 -146.63952102 324.25464641 -155.67673679 315.2547982 C-164.96950242 306.00014827 -174.25284593 296.73613539 -183.52672464 287.46255851 C-188.72815129 282.26171549 -193.93343097 277.06486802 -199.14903831 271.87824249 C-204.05335556 267.00105422 -208.94459616 262.11107563 -213.82733727 257.2122879 C-215.61887106 255.41893906 -217.4146685 253.62983767 -219.21506119 251.84538269 C-221.67692719 249.40398332 -224.12278394 246.94756135 -226.56535339 244.48687744 C-227.63256907 243.43946172 -227.63256907 243.43946172 -228.72134465 242.37088609 C-237.36481988 233.58086028 -240.62016342 224.47153525 -240.6262207 212.29638672 C-240.18078799 191.25439618 -220.52905541 177.31401417 -206.6965332 163.47290039 C-204.94417746 161.71590706 -203.19201612 159.95871982 -201.44003296 158.20135498 C-196.71346891 153.461767 -191.9836785 148.72541495 -187.25281167 143.99012303 C-184.29377268 141.02830482 -181.33546475 138.06575713 -178.37727928 135.10308647 C-170.16827313 126.88191344 -161.95833932 118.66166933 -153.74494648 110.44487858 C-152.9599911 109.65959385 -152.9599911 109.65959385 -152.15917803 108.85844478 C-151.37251366 108.07145299 -151.37251366 108.07145299 -150.56995708 107.26856238 C-149.50749262 106.20565447 -148.44502971 105.142745 -147.38256836 104.07983398 C-146.59206679 103.28900027 -146.59206679 103.28900027 -145.7855955 102.48219012 C-137.22777198 93.92041006 -128.67673716 85.35188362 -120.12856374 76.78046984 C-111.32876057 67.95693703 -102.52332653 59.13905636 -93.71223325 50.32679743 C-88.77436211 45.38801143 -83.8389145 40.4468574 -78.90969276 35.49943733 C-74.27982205 30.85253126 -69.64228027 26.21338297 -64.99949265 21.57937622 C-63.29896589 19.87962011 -61.60099489 18.17730257 -59.90580177 16.4722271 C-57.58860814 14.14232008 -55.26231079 11.82189067 -52.93354797 9.5035553 C-52.26787428 8.8298252 -51.60220058 8.1560951 -50.91635495 7.46194893 C-36.38651632 -6.91654857 -18.16901105 -10.1327177 0 0 Z " fill="#FFFFFF" transform="translate(240.25,41.8125)"/>
</svg>
