<?xml version="1.0" encoding="UTF-8"?>
<svg version="1.1" xmlns="http://www.w3.org/2000/svg" width="512" height="512">
<path d="M0 0 C0.76024475 0.00182281 1.5204895 0.00364563 2.30377197 0.00552368 C50.24852657 0.19802505 96.41831794 16.32882817 133.875 46.3125 C134.68880127 46.95276123 134.68880127 46.95276123 135.51904297 47.60595703 C150.47029123 59.42473985 164.47561836 73.24288597 175.68066406 88.67822266 C176.87351908 90.31047358 178.10051488 91.91152906 179.3359375 93.51171875 C200.61510296 121.54264466 213.4615689 156.55217073 217.875 191.3125 C217.9685376 192.0247876 218.0620752 192.7370752 218.15844727 193.47094727 C224.52215104 248.13235602 209.55629182 304.7578981 175.875 348.3125 C175.26527344 349.11429687 174.65554688 349.91609375 174.02734375 350.7421875 C152.4079491 378.53221019 124.84151267 399.66836019 92.875 414.3125 C92.21209961 414.61639648 91.54919922 414.92029297 90.86621094 415.23339844 C64.00236733 427.34086427 34.97049782 432.53872606 5.625 432.5625 C4.87344635 432.56317474 4.1218927 432.56384949 3.3475647 432.56454468 C-9.34640353 432.5465185 -21.64543096 431.79292627 -34.125 429.3125 C-34.99334473 429.14089355 -35.86168945 428.96928711 -36.75634766 428.79248047 C-70.01952791 421.98408488 -101.8698757 407.991043 -128.125 386.3125 C-129.11886719 385.52101563 -130.11273438 384.72953125 -131.13671875 383.9140625 C-145.53033311 372.28626206 -159.04950895 358.93594357 -169.93066406 343.94677734 C-171.12351908 342.31452642 -172.35051488 340.71347094 -173.5859375 339.11328125 C-194.86760148 311.07906405 -207.70471897 276.07456327 -212.125 241.3125 C-212.2192627 240.60383789 -212.31352539 239.89517578 -212.41064453 239.16503906 C-213.3718975 230.99008984 -213.36855113 222.78229755 -213.375 214.5625 C-213.37567474 213.7872699 -213.37634949 213.01203979 -213.37704468 212.21331787 C-213.31337235 165.99910907 -198.48786876 120.97239053 -170.125 84.3125 C-169.50367188 83.49910156 -168.88234375 82.68570313 -168.2421875 81.84765625 C-162.89643943 74.9977402 -157.07654499 68.63326935 -151.125 62.3125 C-150.46886719 61.60222656 -149.81273437 60.89195313 -149.13671875 60.16015625 C-143.07666945 53.81462283 -136.09692887 48.60251611 -129.125 43.3125 C-128.19429688 42.59835938 -127.26359375 41.88421875 -126.3046875 41.1484375 C-101.89661381 22.86059721 -72.79359449 10.1027671 -42.9375 4.0625 C-42.19153564 3.91151855 -41.44557129 3.76053711 -40.67700195 3.60498047 C-27.12514294 1.03347572 -13.77329473 -0.06919063 0 0 Z M-124.6875 103 C-156.18752774 139.12388502 -169.35973028 183.9508503 -167.125 231.3125 C-164.08526171 273.93216398 -142.09020583 316.15041206 -110.125 344.3125 C-73.02895133 375.45792287 -29.26718669 388.86284485 18.875 386.3125 C39.77889708 384.45564938 59.08511191 378.43326419 77.875 369.3125 C78.87708496 368.82692627 78.87708496 368.82692627 79.89941406 368.33154297 C119.95329571 348.62519349 150.16758604 312.52596036 164.75 270.5625 C167.21748805 262.57586023 169.21398587 254.50191783 170.875 246.3125 C171.21724609 244.65154297 171.21724609 244.65154297 171.56640625 242.95703125 C178.71042015 200.34273855 167.57014308 155.6447679 143.66015625 120.01171875 C141.47971774 117.03480903 139.21575046 114.16493164 136.875 111.3125 C136.43462402 110.76674316 135.99424805 110.22098633 135.54052734 109.65869141 C107.75413097 75.35819724 68.57484824 53.43429163 24.875 47.3125 C24.19211914 47.21678711 23.50923828 47.12107422 22.80566406 47.02246094 C-32.94124125 40.00695053 -86.68073962 62.74954894 -124.6875 103 Z " fill="#FFFFFF" transform="translate(253.125,39.6875)"/>
<path d="M0 0 C6.67957482 3.51734749 11.64674139 8.80694246 16.85400391 14.15161133 C17.91477879 15.22173308 18.97667893 16.29074045 20.03964233 17.35868835 C22.80939734 20.14736571 25.56379188 22.95073099 28.31506348 25.75762939 C31.13517695 28.62925692 33.96982866 31.48645685 36.80322266 34.3449707 C42.34214197 39.93721645 47.86488827 45.54509259 53.37744141 51.16333008 C56.95519751 49.64931686 59.19486712 47.56136401 61.89550781 44.79296875 C63.22807114 43.43597115 63.22807114 43.43597115 64.58755493 42.05155945 C65.05818989 41.56782049 65.52882484 41.08408154 66.01372147 40.58568382 C67.49794565 39.06185161 68.98973015 37.54581513 70.48397827 36.03181458 C74.73074752 31.72720651 78.96790772 27.41333807 83.18945312 23.08398438 C85.77668972 20.43178103 88.37641342 17.7923523 90.98405075 15.16021156 C91.96864409 14.1614847 92.94856625 13.15812771 93.92338943 12.14986229 C100.93983824 4.89627755 107.90578601 -1.64181372 118.37744141 -2.46166992 C124.07499218 -2.11229181 128.81421005 -0.25320287 133.37744141 3.16333008 C138.44386497 9.0313379 140.8856684 14.54226151 140.68608093 22.30776978 C139.56473989 32.68251665 131.4629151 39.74799714 124.38916016 46.63989258 C123.31903841 47.70066746 122.25003103 48.76256761 121.18208313 49.82553101 C118.39340578 52.59528601 115.59004049 55.34968055 112.78314209 58.10095215 C109.91151457 60.92106563 107.05431463 63.75571733 104.19580078 66.58911133 C98.60355504 72.12803064 92.99567889 77.65077694 87.37744141 83.16333008 C88.89145462 86.74108618 90.97940748 88.98075579 93.74780273 91.68139648 C95.10480034 93.01395981 95.10480034 93.01395981 96.48921204 94.3734436 C96.97295099 94.84407856 97.45668995 95.31471352 97.95508766 95.79961014 C99.47891988 97.28383432 100.99495636 98.77561883 102.50895691 100.26986694 C106.81356497 104.51663619 111.12743342 108.75379639 115.45678711 112.9753418 C118.10899046 115.56257839 120.74841919 118.16230209 123.38055992 120.76993942 C124.37928679 121.75453276 125.38264378 122.73445492 126.39090919 123.70927811 C133.64449394 130.72572692 140.1825852 137.69167468 141.00244141 148.16333008 C140.65306329 153.86088085 138.79397435 158.60009872 135.37744141 163.16333008 C129.50943359 168.22975364 123.99850997 170.67155707 116.23300171 170.4719696 C105.85825483 169.35062856 98.79277434 161.24880377 91.90087891 154.17504883 C90.84010402 153.10492708 89.77820388 152.03591971 88.71524048 150.9679718 C85.94548547 148.17929445 83.19109094 145.37592917 80.43981934 142.56903076 C77.61970586 139.69740324 74.78505416 136.8402033 71.95166016 133.98168945 C66.41274084 128.38944371 60.88999455 122.78156757 55.37744141 117.16333008 C51.7996853 118.6773433 49.56001569 120.76529615 46.859375 123.53369141 C45.52681168 124.89068901 45.52681168 124.89068901 44.16732788 126.27510071 C43.69669292 126.75883966 43.22605797 127.24257862 42.74116135 127.74097633 C41.25693717 129.26480855 39.76515266 130.78084503 38.27090454 132.29484558 C34.02413529 136.59945364 29.7869751 140.91332209 25.56542969 145.24267578 C22.97819309 147.89487913 20.37846939 150.53430786 17.77083206 153.16644859 C16.78623872 154.16517546 15.80631657 155.16853245 14.83149338 156.17679787 C7.81504457 163.43038261 0.8490968 169.96847387 -9.62255859 170.78833008 C-15.32010936 170.43895196 -20.05932723 168.57986302 -24.62255859 165.16333008 C-29.68898216 159.29532226 -32.13078559 153.78439864 -31.93119812 146.01889038 C-30.80985708 135.6441435 -22.70803229 128.57866301 -15.63427734 121.68676758 C-14.56415559 120.62599269 -13.49514822 119.56409255 -12.42720032 118.50112915 C-9.63852297 115.73137414 -6.83515768 112.97697961 -4.02825928 110.22570801 C-1.15663175 107.40559453 1.70056818 104.57094283 4.55908203 101.73754883 C10.15132777 96.19862951 15.75920392 90.67588322 21.37744141 85.16333008 C19.86342819 81.58557398 17.77547533 79.34590436 15.00708008 76.64526367 C13.65008247 75.31270035 13.65008247 75.31270035 12.26567078 73.95321655 C11.78193182 73.4825816 11.29819286 73.01194664 10.79979515 72.52705002 C9.27596294 71.04282584 7.75992646 69.55104133 6.2459259 68.05679321 C1.94131784 63.81002396 -2.3725506 59.57286377 -6.7019043 55.35131836 C-9.35410764 52.76408177 -11.99353637 50.16435807 -14.62567711 47.55672073 C-15.62440398 46.57212739 -16.62776096 45.59220524 -17.63602638 44.61738205 C-24.88961112 37.60093324 -31.42770239 30.63498548 -32.24755859 20.16333008 C-31.89818048 14.46577931 -30.03909154 9.72656144 -26.62255859 5.16333008 C-18.86929843 -1.53081574 -9.68713668 -4.58682649 0 0 Z " fill="#FFFFFF" transform="translate(201.62255859375,171.836669921875)"/>
</svg>
