<?xml version="1.0" encoding="UTF-8"?>
<svg version="1.1" xmlns="http://www.w3.org/2000/svg" width="512" height="512">
<path d="M0 0 C0.8827359 0.00182281 1.7654718 0.00364563 2.67495728 0.00552368 C15.79377856 0.05112311 28.51071808 0.54119084 41.375 3.3125 C42.21901367 3.48410645 43.06302734 3.65571289 43.93261719 3.83251953 C76.72180388 10.58465422 108.82487676 24.37595492 134.375 46.3125 C135.30441406 47.06015625 136.23382813 47.8078125 137.19140625 48.578125 C151.6386938 60.27793859 165.23343197 73.59808885 176.171875 88.66064453 C177.39584766 90.34112323 178.64865188 91.99692414 179.90625 93.65234375 C204.04258335 125.86970717 219.20534082 167.70759013 219.61328125 208.0625 C219.62302979 208.8702034 219.63277832 209.6779068 219.64282227 210.51008606 C219.81841963 228.83487872 219.4592453 246.35792943 215.375 264.3125 C215.19308105 265.14362305 215.01116211 265.97474609 214.82373047 266.83105469 C213.57731923 272.40259092 212.07751982 277.86376979 210.375 283.3125 C210.11267578 284.15280762 209.85035156 284.99311523 209.58007812 285.85888672 C202.61021903 307.59341845 192.14488967 328.09637511 178.375 346.3125 C177.69050781 347.22644531 177.00601562 348.14039063 176.30078125 349.08203125 C171.055089 355.83865312 165.25702134 362.11125338 159.375 368.3125 C158.90046387 368.81571777 158.42592773 369.31893555 157.93701172 369.83740234 C150.35009678 377.83052961 142.21536927 384.74302621 133.375 391.3125 C132.13169922 392.24835938 132.13169922 392.24835938 130.86328125 393.203125 C104.68720284 412.22411237 73.32458842 425.29451693 41.375 430.3125 C39.79549561 430.5741394 39.79549561 430.5741394 38.18408203 430.84106445 C27.67943133 432.43167179 17.3560245 432.67047237 6.75 432.625 C5.8672641 432.62317719 4.9845282 432.62135437 4.07504272 432.61947632 C-9.04377856 432.57387689 -21.76071808 432.08380916 -34.625 429.3125 C-35.46901367 429.14089355 -36.31302734 428.96928711 -37.18261719 428.79248047 C-73.24337436 421.36664549 -105.76847665 405.34333976 -133.625 381.3125 C-134.50027344 380.56742187 -135.37554687 379.82234375 -136.27734375 379.0546875 C-147.93417811 368.85253297 -159.3471812 357.73785591 -168.625 345.3125 C-169.07794434 344.70889648 -169.53088867 344.10529297 -169.99755859 343.48339844 C-195.33246458 309.46438408 -212.58091239 267.26753016 -212.828125 224.421875 C-212.83513931 223.60328003 -212.84215363 222.78468506 -212.84938049 221.94128418 C-212.86678167 219.31496613 -212.87323247 216.68887358 -212.875 214.0625 C-212.87567474 213.16511108 -212.87634949 212.26772217 -212.87704468 211.34313965 C-212.86122668 198.11456513 -212.47654663 185.27938669 -209.625 172.3125 C-209.45339355 171.50087402 -209.28178711 170.68924805 -209.10498047 169.85302734 C-200.64557243 130.70086092 -182.03318921 94.63940217 -154.11621094 65.85058594 C-152.63164402 64.31935287 -151.16363762 62.77335523 -149.6953125 61.2265625 C-142.57005114 53.81832715 -134.86810231 47.43813152 -126.625 41.3125 C-125.79613281 40.68859375 -124.96726562 40.0646875 -124.11328125 39.421875 C-97.93720284 20.40088763 -66.57458842 7.33048307 -34.625 2.3125 C-33.57199707 2.13807373 -32.51899414 1.96364746 -31.43408203 1.78393555 C-20.92943133 0.19332821 -10.6060245 -0.04547237 0 0 Z M-123.17919922 101.95263672 C-144.65899497 125.36896029 -158.69376233 155.22032781 -164.625 186.3125 C-164.84929687 187.41078125 -165.07359375 188.5090625 -165.3046875 189.640625 C-172.39212998 231.38857383 -161.84336611 277.11414034 -137.91723633 311.96337891 C-110.05705176 351.0240546 -70.18105724 376.80227261 -22.81152344 384.95288086 C4.38012308 389.42511124 33.53866264 386.76549468 59.375 377.3125 C60.57640625 376.88324219 61.7778125 376.45398438 63.015625 376.01171875 C107.24651311 359.30750037 140.69110167 326.08915911 160.18359375 283.35546875 C165.44959903 271.4505912 168.7930971 259.04224214 171.375 246.3125 C171.71724609 244.65154297 171.71724609 244.65154297 172.06640625 242.95703125 C179.17224499 200.57045474 168.20383313 155.53979545 144.2265625 120.140625 C142.01861328 117.12761126 139.73149043 114.21075591 137.375 111.3125 C136.71226074 110.48951416 136.71226074 110.48951416 136.03613281 109.64990234 C108.24847008 75.35524691 69.07097301 53.43374876 25.375 47.3125 C24.69211914 47.21678711 24.00923828 47.12107422 23.30566406 47.02246094 C-31.71571445 40.09825498 -85.50359376 62.19380582 -123.17919922 101.95263672 Z " fill="#000000" transform="translate(252.625,39.6875)"/>
<path d="M0 0 C8.4261605 4.769753 15.36638406 13.27238752 22.14596558 20.09336853 C23.04185394 20.99067184 23.93774231 21.88797516 24.86077881 22.81246948 C27.20679101 25.16308291 29.55061812 27.51584497 31.89334106 29.86973572 C34.29859374 32.2853404 36.70678975 34.69800714 39.11471558 37.11094666 C43.81269923 41.8198779 48.50780693 46.53166134 53.20065308 51.24571228 C56.77840918 49.73169906 59.01807879 47.64374621 61.71871948 44.87535095 C63.05128281 43.51835335 63.05128281 43.51835335 64.4107666 42.13394165 C64.88140156 41.65020269 65.35203651 41.16646374 65.83693314 40.66806602 C67.32115732 39.14423381 68.81294182 37.62819733 70.30718994 36.11419678 C74.55395919 31.80958871 78.79111939 27.49572027 83.01266479 23.16636658 C85.59990139 20.51416323 88.19962509 17.8747345 90.80726242 15.24259377 C91.79185576 14.2438669 92.77177792 13.24050991 93.7466011 12.23224449 C100.76304991 4.97865975 107.72899768 -1.55943152 118.20065308 -2.37928772 C123.89820385 -2.02990961 128.63742172 -0.17082067 133.20065308 3.24571228 C138.26707664 9.1137201 140.70888007 14.62464372 140.5092926 22.39015198 C139.38795156 32.76489886 131.28612677 39.83037935 124.21237183 46.72227478 C123.14225008 47.78304967 122.0732427 48.84494981 121.0052948 49.90791321 C118.21661745 52.67766822 115.41325216 55.43206275 112.60635376 58.18333435 C109.73472624 61.00344783 106.8775263 63.83809953 104.01901245 66.67149353 C98.42676671 72.21041285 92.81889056 77.73315914 87.20065308 83.24571228 C88.71466629 86.82346838 90.80261915 89.063138 93.5710144 91.76377869 C94.92801201 93.09634201 94.92801201 93.09634201 96.31242371 94.45582581 C96.79616266 94.92646076 97.27990162 95.39709572 97.77829933 95.88199234 C99.30213155 97.36621652 100.81816803 98.85800103 102.33216858 100.35224915 C106.63677664 104.5990184 110.95064509 108.83617859 115.27999878 113.057724 C117.93220213 115.64496059 120.57163086 118.24468429 123.20377159 120.85232162 C124.20249846 121.83691497 125.20585545 122.81683712 126.21412086 123.79166031 C133.46770561 130.80810912 140.00579687 137.77405688 140.82565308 148.24571228 C140.47627496 153.94326305 138.61718602 158.68248092 135.20065308 163.24571228 C129.33264526 168.31213584 123.82172164 170.75393927 116.05621338 170.55435181 C105.6814665 169.43301077 98.61598601 161.33118597 91.72409058 154.25743103 C90.66331569 153.18730928 89.60141555 152.11830191 88.53845215 151.050354 C85.76869714 148.26167665 83.01430261 145.45831137 80.26303101 142.65141296 C77.44291753 139.77978544 74.60826583 136.92258551 71.77487183 134.06407166 C66.23595251 128.47182591 60.71320622 122.86394977 55.20065308 117.24571228 C51.62289697 118.7597255 49.38322736 120.84767835 46.68258667 123.61607361 C45.35002335 124.97307121 45.35002335 124.97307121 43.99053955 126.35748291 C43.51990459 126.84122187 43.04926964 127.32496082 42.56437302 127.82335854 C41.08014884 129.34719075 39.58836433 130.86322723 38.09411621 132.37722778 C33.84734696 136.68183585 29.61018677 140.99570429 25.38864136 145.32505798 C22.80140476 147.97726133 20.20168106 150.61669006 17.59404373 153.2488308 C16.60945039 154.24755766 15.62952824 155.25091465 14.65470505 156.25918007 C7.63825624 163.51276481 0.67230847 170.05085608 -9.79934692 170.87071228 C-15.49689769 170.52133417 -20.23611556 168.66224523 -24.79934692 165.24571228 C-29.86577049 159.37770446 -32.30757392 153.86678084 -32.10798645 146.10127258 C-30.98664541 135.7265257 -22.88482062 128.66104521 -15.81106567 121.76914978 C-14.74094392 120.7083749 -13.67193655 119.64647475 -12.60398865 118.58351135 C-9.8153113 115.81375634 -7.01194601 113.05936181 -4.20504761 110.30809021 C-1.33342008 107.48797673 1.52377985 104.65332503 4.3822937 101.81993103 C9.97453944 96.28101171 15.58241559 90.75826542 21.20065308 85.24571228 C19.68663986 81.66795618 17.598687 79.42828657 14.83029175 76.72764587 C13.47329414 75.39508255 13.47329414 75.39508255 12.08888245 74.03559875 C11.60514349 73.5649638 11.12140453 73.09432884 10.62300682 72.60943222 C9.09917461 71.12520804 7.58313813 69.63342353 6.06913757 68.13917542 C1.76452951 63.89240616 -2.54933893 59.65524597 -6.87869263 55.43370056 C-9.53089597 52.84646397 -12.1703247 50.24674027 -14.80246544 47.63910294 C-15.80119231 46.65450959 -16.80454929 45.67458744 -17.81281471 44.69976425 C-25.06639945 37.68331544 -31.60449072 30.71736768 -32.42434692 20.24571228 C-32.07496881 14.54816151 -30.21587987 9.80894364 -26.79934692 5.24571228 C-19.01768583 -1.47295483 -9.76927973 -4.28575927 0 0 Z " fill="#000000" transform="translate(201.79934692382813,171.75428771972656)"/>
</svg>
