<?xml version="1.0" encoding="UTF-8"?>
<!DOCTYPE svg PUBLIC "-//W3C//DTD SVG 1.1//EN" "http://www.w3.org/Graphics/SVG/1.1/DTD/svg11.dtd">
<svg xmlns="http://www.w3.org/2000/svg" version="1.1" width="512px" height="512px" style="shape-rendering:geometricPrecision; text-rendering:geometricPrecision; image-rendering:optimizeQuality; fill-rule:evenodd; clip-rule:evenodd" xmlns:xlink="http://www.w3.org/1999/xlink">
<g><path style="opacity:0.988" fill="#000000" d="M 87.5,22.5 C 99.5831,20.3665 110.25,23.1998 119.5,31C 146,57.5 172.5,84 199,110.5C 210.813,125.316 211.48,140.649 201,156.5C 189.667,167.833 178.333,179.167 167,190.5C 163.768,201.797 163.768,213.13 167,224.5C 176.789,253.269 192.623,278.102 214.5,299C 234.931,319.557 258.931,334.557 286.5,344C 297.87,347.232 309.203,347.232 320.5,344C 331.833,332.667 343.167,321.333 354.5,310C 370.351,299.52 385.684,300.187 400.5,312C 429.392,340.224 457.559,369.057 485,398.5C 490.439,411.728 489.439,424.394 482,436.5C 469.833,448.667 457.667,460.833 445.5,473C 420.248,486.871 393.248,491.871 364.5,488C 335.219,484.462 307.219,476.462 280.5,464C 194.377,421.214 125.21,359.381 73,278.5C 54.9614,250.086 40.9614,219.753 31,187.5C 22.6622,160.334 20.3289,132.668 24,104.5C 26.0014,91.829 30.0014,79.829 36,68.5C 48.4705,55.0289 61.3038,41.8622 74.5,29C 78.657,26.2548 82.9904,24.0881 87.5,22.5 Z"/></g>
</svg>
