<?xml version="1.0" encoding="UTF-8"?>
<svg version="1.1" xmlns="http://www.w3.org/2000/svg" width="512" height="512">
<path d="M0 0 C2.47980387 2.19672124 4.90517849 4.439372 7.31640625 6.7109375 C7.98027344 7.31035156 8.64414062 7.90976562 9.328125 8.52734375 C33.32985845 31.06852547 45.08013044 64.38802058 46.44140625 96.67578125 C46.8707878 118.38638599 42.02665684 139.32896906 32.31640625 158.7109375 C31.98125 159.38253906 31.64609375 160.05414063 31.30078125 160.74609375 C26.15566233 170.86354775 20.06448798 179.43682988 12.31640625 187.7109375 C11.81093262 188.25878906 11.30545898 188.80664062 10.78466797 189.37109375 C-9.81923572 211.52334193 -37.54130336 226.03189991 -67.68359375 229.7109375 C-70.35191406 229.76602895 -73.0142713 229.73063347 -75.68359375 229.7109375 C-75.6766803 231.61348187 -75.6766803 231.61348187 -75.66962719 233.55446148 C-75.56136683 263.65448593 -75.47890574 293.75446023 -75.4282671 323.85463161 C-75.42201348 327.5584429 -75.41554187 331.26225378 -75.40893555 334.96606445 C-75.40696822 336.0721199 -75.40696822 336.0721199 -75.40496115 337.2005199 C-75.38319724 349.14411353 -75.34377035 361.08758699 -75.29782977 373.0311093 C-75.25109243 385.2838504 -75.22330414 397.53652851 -75.21315128 409.7893551 C-75.20628641 417.35169449 -75.18459528 424.91369421 -75.14401142 432.47592906 C-75.11448768 438.27208624 -75.11131273 444.06802517 -75.11805534 449.86424255 C-75.11667678 452.24391079 -75.1066912 454.62359158 -75.08756638 457.00318336 C-75.06277031 460.24679653 -75.06864052 463.48894422 -75.08232117 466.73258972 C-75.06775696 467.67908974 -75.05319275 468.62558977 -75.03818721 469.60077161 C-75.09049001 474.17343324 -75.19352912 476.08384989 -78.09226704 479.79308033 C-80.5934897 481.64425093 -81.63525645 482.39739591 -84.68359375 482.3359375 C-85.32296875 482.34882812 -85.96234375 482.36171875 -86.62109375 482.375 C-90.05383816 481.26976032 -91.46972699 479.54380553 -93.68359375 476.7109375 C-94.41558941 473.38627276 -94.33707255 470.12537234 -94.28486633 466.73258972 C-94.28913846 465.71968016 -94.29341058 464.70677061 -94.29781216 463.66316682 C-94.30605621 460.26482396 -94.27853234 456.86771182 -94.2512207 453.46948242 C-94.24981055 451.03527862 -94.25060157 448.60107268 -94.25343323 446.16687012 C-94.25457227 440.92409018 -94.24037974 435.6815892 -94.21224403 430.43889427 C-94.17159132 422.85889133 -94.15858505 415.27903879 -94.15230408 407.69893865 C-94.14136363 395.40052546 -94.10809633 383.10227819 -94.06079102 370.80395508 C-94.01488889 358.85799998 -93.97950021 346.91208995 -93.95825195 334.96606445 C-93.95693834 334.22959016 -93.95562472 333.49311587 -93.95427129 332.73432418 C-93.94774606 329.03961204 -93.94142753 325.34489957 -93.93521178 321.6501869 C-93.88338657 291.00365165 -93.79495627 260.35731761 -93.68359375 229.7109375 C-94.30413856 229.71409281 -94.92468336 229.71724812 -95.56403255 229.72049904 C-96.37667851 229.72295317 -97.18932447 229.7254073 -98.02659607 229.72793579 C-98.83276587 229.7310911 -99.63893568 229.73424641 -100.46953487 229.73749733 C-102.76579707 229.70995139 -104.90458892 229.49715114 -107.15625 229.046875 C-107.90197266 228.89782715 -108.64769531 228.7487793 -109.41601562 228.59521484 C-110.18494141 228.42715332 -110.95386719 228.2590918 -111.74609375 228.0859375 C-112.57044922 227.90627441 -113.39480469 227.72661133 -114.24414062 227.54150391 C-148.10847357 219.79233303 -176.89025081 198.76833696 -195.68359375 169.7109375 C-196.23015625 168.92203125 -196.77671875 168.133125 -197.33984375 167.3203125 C-215.88620344 139.10616957 -218.66589282 103.01654063 -212.68359375 70.7109375 C-209.07971893 53.4022374 -201.20480603 36.86598213 -190.68359375 22.7109375 C-190.08289063 21.88851562 -189.4821875 21.06609375 -188.86328125 20.21875 C-170.34727852 -4.03024102 -145.77919506 -19.01064304 -116.68359375 -27.2890625 C-115.4409375 -27.65128906 -114.19828125 -28.01351563 -112.91796875 -28.38671875 C-73.58186922 -37.70088329 -30.36775036 -25.90320482 0 0 Z M-155.99609375 44.5859375 C-161.69373364 52.76081212 -163.6637143 61.91341127 -162.05859375 71.7734375 C-159.92154949 80.75745911 -154.97932839 88.06381743 -147.68359375 93.7109375 C-137.84348175 99.27273993 -129.2405061 101.12986814 -118.30859375 98.1484375 C-108.31807763 94.86796952 -101.47607271 89.0962088 -96.68359375 79.7109375 C-92.93645742 70.69793912 -92.55370423 62.44428815 -95.65234375 53.19140625 C-98.98047035 45.18625326 -104.13840037 39.03849269 -111.68359375 34.7109375 C-128.04156949 28.00912441 -144.5779517 30.38288275 -155.99609375 44.5859375 Z " fill="#000000" transform="translate(340.68359375,30.2890625)"/>
</svg>
