<svg width="27" height="20" viewBox="0 0 27 20" fill="none" xmlns="http://www.w3.org/2000/svg">
<path d="M20.6924 12.8673C21.7633 12.8673 22.6314 11.9992 22.6314 10.9283C22.6314 9.85748 21.7633 8.98938 20.6924 8.98938C19.6216 8.98938 18.7535 9.85748 18.7535 10.9283C18.7535 11.9992 19.6216 12.8673 20.6924 12.8673Z" fill="black"/>
<path d="M6.44447 7.31236C7.51269 7.23642 8.3171 6.3089 8.24117 5.24068C8.16523 4.17245 7.23771 3.36804 6.16949 3.44398C5.10126 3.51991 4.29685 4.44743 4.37279 5.51566C4.44872 6.58388 5.37624 7.38829 6.44447 7.31236Z" fill="black"/>
<path d="M24.6122 7.18001C24.0988 6.66343 23.4882 6.25348 22.8158 5.97373C22.1433 5.69398 21.4222 5.54996 20.6938 5.54996C19.9655 5.54996 19.2444 5.69398 18.5719 5.97373C17.8994 6.25348 17.2889 6.66343 16.7755 7.18001C15.7781 8.18236 15.1752 9.51041 15.077 10.921C14.9825 12.2434 15.4015 13.612 16.2589 14.7783L17.9787 17.0755C17.0978 16.8053 16.5393 16.9875 16.0905 17.134C15.6877 17.2656 15.3967 17.3606 14.8299 17.1856C14.2542 17.008 14.0336 16.7411 13.7545 16.403C13.4431 16.0262 13.0556 15.5566 12.1805 15.2867C11.2963 15.014 10.7364 15.1968 10.2867 15.3437C9.88365 15.4751 9.59295 15.5701 9.02626 15.3953C8.45051 15.2177 8.23 14.9507 7.95087 14.6128C7.76767 14.3906 7.55674 14.1368 7.23647 13.9103L10.7442 9.22455C11.5991 8.06185 12.0179 6.69324 11.9235 5.37174C11.8255 3.9609 11.2226 2.63257 10.2251 1.63C9.71168 1.11344 9.10117 0.703491 8.4287 0.423752C7.75623 0.144012 7.03509 0 6.30676 0C5.57843 0 4.85729 0.144012 4.18483 0.423752C3.51236 0.703491 2.90184 1.11344 2.3884 1.63C1.39114 2.63232 0.788244 3.96029 0.690098 5.3708C0.595623 6.69319 1.01461 8.0618 1.87201 9.22832L5.45636 14.0163C5.55066 14.1428 5.67198 14.2466 5.81149 14.3203C5.87705 14.404 5.96666 14.4656 6.06827 14.4968C6.64402 14.6745 6.86453 14.9414 7.14367 15.2794C7.45504 15.6563 7.84263 16.1258 8.71766 16.3958C9.6019 16.6686 10.1617 16.4858 10.6116 16.3389C11.0143 16.2073 11.3053 16.1123 11.8719 16.2872C12.4477 16.4648 12.6682 16.7317 12.9473 17.0698C13.2587 17.4466 13.6463 17.9162 14.5213 18.1861C15.4059 18.4589 15.9655 18.2762 16.4154 18.1292C16.8181 17.9978 17.1091 17.9028 17.6759 18.0776C18.2516 18.2553 18.4724 18.5225 18.7515 18.8602C19.0629 19.2371 19.4506 19.7067 20.3257 19.9766C20.4126 20.0037 20.5052 20.0073 20.5939 19.9871C20.6269 19.9901 20.66 19.9923 20.6934 19.9923C20.8586 19.993 21.0216 19.9548 21.1694 19.8809C21.3171 19.8069 21.4453 19.6993 21.5438 19.5666L25.1308 14.7749C25.9857 13.6122 26.4046 12.2437 26.3101 10.9222C26.2124 9.51123 25.6096 8.18272 24.6122 7.18001ZM6.30674 8.36401C5.61878 8.36157 4.95292 8.12082 4.42247 7.68273C3.89203 7.24465 3.52977 6.63629 3.39735 5.96119C3.26494 5.28609 3.37054 4.58596 3.69619 3.97995C4.02184 3.37395 4.54742 2.8995 5.18348 2.63736C5.81955 2.37522 6.52679 2.34158 7.18487 2.54217C7.84294 2.74276 8.41117 3.16517 8.79287 3.73754C9.17457 4.3099 9.34615 4.99685 9.2784 5.68147C9.21066 6.36609 8.90778 7.00608 8.4213 7.49254C8.14398 7.77041 7.81429 7.99052 7.45132 8.1401C7.08835 8.28969 6.69932 8.3658 6.30674 8.36401ZM22.808 13.0425C22.3185 13.5354 21.6732 13.8432 20.9821 13.9134C20.2911 13.9835 19.5971 13.8118 19.0185 13.4274C18.4399 13.043 18.0127 12.4697 17.8096 11.8055C17.6065 11.1412 17.6401 10.427 17.9048 9.7848C18.1695 9.14258 18.6488 8.6121 19.261 8.28383C19.8732 7.95557 20.5803 7.84987 21.2617 7.98476C21.9431 8.11965 22.5566 8.48678 22.9975 9.02352C23.4384 9.56026 23.6795 10.2334 23.6795 10.928C23.6813 11.3206 23.6052 11.7096 23.4556 12.0726C23.306 12.4355 23.0859 12.7652 22.808 13.0425Z" fill="black"/>
</svg>
