<svg width="37" height="36" viewBox="0 0 37 36" fill="none" xmlns="http://www.w3.org/2000/svg">
<path d="M29.0792 29.5234V31.8677C29.0793 32.0093 29.0514 32.1495 28.9973 32.2803C28.9432 32.411 28.8639 32.5298 28.7638 32.6298C28.6636 32.7298 28.5446 32.8091 28.4138 32.8631C28.283 32.9171 28.1428 32.9448 28.0013 32.9445H25.8457C25.7042 32.9448 25.564 32.9171 25.4332 32.8631C25.3023 32.8091 25.1835 32.7298 25.0833 32.6298C24.9832 32.5298 24.9038 32.411 24.8497 32.2803C24.7956 32.1495 24.7678 32.0093 24.7679 31.8677V29.5234M12.3764 29.5234V31.8677C12.3766 32.0093 12.3488 32.1495 12.2947 32.2803C12.2406 32.411 12.1612 32.5298 12.061 32.6298C11.9609 32.7298 11.842 32.8091 11.7112 32.8631C11.5804 32.9171 11.4401 32.9448 11.2985 32.9445H9.14295C9.00142 32.9448 8.86125 32.9171 8.73042 32.8631C8.5996 32.8091 8.48073 32.7298 8.3806 32.6298C8.28048 32.5298 8.20107 32.411 8.14694 32.2803C8.09281 32.1495 8.06507 32.0093 8.06521 31.8677V29.5234" fill="#2B4255"/>
<path d="M31.2337 29.6519H5.90961V6.04099C5.90932 5.67973 5.98031 5.32204 6.11862 4.98831C6.25693 4.65457 6.45975 4.35141 6.7155 4.09627C6.97126 3.84113 7.27495 3.63891 7.60901 3.5014C7.94308 3.36389 8.30097 3.29378 8.66223 3.29494H28.4809C28.8422 3.29378 29.2001 3.36389 29.5341 3.5014C29.8682 3.63891 30.1719 3.84113 30.4277 4.09627C30.6834 4.35141 30.8862 4.65457 31.0245 4.98831C31.1629 5.32204 31.234 5.67973 31.2337 6.04099V29.6519Z" fill="#F8B84E"/>
<path d="M4.85264 24.1706H32.2917V27.4633H4.85264V24.1706Z" fill="#34485C"/>
<path d="M6.55603 8.89357H18.4097V19.8692H6.55603V8.89357ZM18.7917 8.89357H30.3732V19.8692H18.7917V8.89357Z" fill="#4BBFEB"/>
<path fill-rule="evenodd" clip-rule="evenodd" d="M5.90961 8.13521V9.23278H31.2238V8.13521H5.90961ZM5.90961 19.4489V20.5464H31.2523V19.4489H5.90961Z" fill="#34485C"/>
<path fill-rule="evenodd" clip-rule="evenodd" d="M7.73482 21.6045V22.702H11.0275V21.6045H7.73482ZM26.0554 21.6045V22.702H29.3481V21.6045H26.0554Z" fill="#F05542"/>
<path fill-rule="evenodd" clip-rule="evenodd" d="M18.0234 8.58512V19.8901H19.121V8.58512H18.0234Z" fill="#34485C"/>
<path fill-rule="evenodd" clip-rule="evenodd" d="M3.2063 10.2963V14.8874H4.30386V11.3939H5.95021V10.2963H3.2063ZM31.1942 10.2963V11.3939H32.8405V14.8874H33.9381V10.2963H31.1942Z" fill="#576D7E"/>
<path fill-rule="evenodd" clip-rule="evenodd" d="M5.90961 8.58512V19.8901H7.00717V8.58512H5.90961ZM30.1547 8.58512V19.8901H31.2523V8.58512H30.1547Z" fill="#34485C"/>
</svg>
