<svg width="304" height="135" viewBox="0 0 304 135" fill="none" xmlns="http://www.w3.org/2000/svg">
<g clip-path="url(#clip0_2504_3142)">
<rect width="304" height="135" rx="30" fill="#FFEF9D"/>
<path d="M82.9 94.8C82.8333 95.6 82.7333 96.4333 82.6 97.3C82.4667 98.1667 82.2333 98.9667 81.9 99.7C81.5667 100.5 81.1333 101.1 80.6 101.5C79.8667 102.167 79 102.533 78 102.6C77.0667 102.933 76.1667 103.033 75.3 102.9C74.4333 102.767 73.6333 102.533 72.9 102.2C71.9667 101.6 71.2667 100.9 70.8 100.1C70.4 99.2333 70.1 98.3333 69.9 97.4C69.7 96.4667 69.6 95.5 69.6 94.5C69.6 93.5 69.6 92.5667 69.6 91.7V83.9L69.5 68.6C69.5 67.5333 69.5 66.7 69.5 66.1C69.5 65.5 69.5 64.9667 69.5 64.5C69.5 63.9667 69.4667 63.4 69.4 62.8C69.4 62.1333 69.4 61.2 69.4 60C69.4 59.8 69.4 59.4667 69.4 59C69.4667 58.4667 69.4333 57.1 69.3 54.9C66.7 59.2333 64.5333 62.7333 62.8 65.4C61.1333 68 59.7 70.0333 58.5 71.5C57.3667 72.9 56.3667 73.8667 55.5 74.4C54.6333 74.8667 53.7333 75.1333 52.8 75.2C52.2667 75.2667 51.7333 75.1667 51.2 74.9C50.6667 74.6333 50.1333 74.3 49.6 73.9C49.1333 73.5 48.6667 73.1 48.2 72.7C47.8 72.2333 47.4667 71.8 47.2 71.4C45.6 69.4 43.8 67 41.8 64.2C39.8 61.4 37.7333 58 35.6 54C35.6 54.0667 35.5667 55.1667 35.5 57.3C35.5 59.4333 35.5 62.1 35.5 65.3C35.5 68.4333 35.4667 71.8333 35.4 75.5C35.4 79.1 35.3667 82.4667 35.3 85.6C35.3 88.7333 35.2667 91.3667 35.2 93.5C35.1333 95.5667 35.0667 96.6 35 96.6C35 97.7333 34.7333 98.8 34.2 99.8C33.6667 100.733 32.9333 101.5 32 102.1C31.1333 102.7 30.1 103.033 28.9 103.1C27.7 103.167 26.4 102.833 25 102.1C24.1333 101.567 23.4667 100.8 23 99.8C22.6 98.8 22.3333 97.8667 22.2 97C22.1333 96.0667 22.0667 95.1667 22 94.3C22 93.4333 22 92.5333 22 91.6L22.1 83.8L22.2 68.4V55C22.2 49.2 22.4 43.5 22.8 37.9C22.8 37.1667 22.8667 36.5 23 35.9C23.2 35.2333 23.4333 34.6 23.7 34C24.2333 32.9333 24.9333 32.1333 25.8 31.6C26.8 31 27.8667 30.7 29 30.7C29.4667 30.7 29.9 30.7333 30.3 30.8C30.7667 30.8 31.2 30.8333 31.6 30.9C32.9333 31.1667 34.0667 31.9667 35 33.3C36 34.5667 36.9333 35.6667 37.8 36.6C38.3333 37.2 38.9 37.9333 39.5 38.8C40.1 39.6667 40.7 40.5667 41.3 41.5C41.9 42.4333 42.4667 43.3333 43 44.2C43.5333 45.0667 44 45.8333 44.4 46.5C46.1333 49.3 47.6667 51.8667 49 54.2C50.4 56.5333 51.7 58.5333 52.9 60.2C53.1 60 53.3333 59.7333 53.6 59.4C53.8667 59 54.1333 58.6 54.4 58.2C54.7333 57.7333 55 57.3 55.2 56.9C55.4667 56.5 55.6667 56.1667 55.8 55.9C56.4667 54.8333 57.1333 53.8 57.8 52.8C58.4667 51.7333 59.1667 50.6333 59.9 49.5C60.7 48.3 61.5 47 62.3 45.6C63.1667 44.2 64.1667 42.6 65.3 40.8C65.7667 40 66.3667 39.0333 67.1 37.9C67.8333 36.7667 68.6667 35.6667 69.6 34.6C70.5333 33.5333 71.5 32.6333 72.5 31.9C73.5667 31.1 74.6333 30.7 75.7 30.7C76.2333 30.7 76.7 30.7333 77.1 30.8C77.5 30.8 77.9 30.8333 78.3 30.9C79.1 30.9667 79.8667 31.3333 80.6 32C81.1333 32.5333 81.5333 33.1 81.8 33.7C82.0667 34.5667 82.2333 35.3 82.3 35.9C82.3667 36.3667 82.4 36.8 82.4 37.2C82.4667 37.6 82.5 38 82.5 38.4C82.5 42.1333 82.5333 45.8333 82.6 49.5C82.6667 53.1667 82.7 56.8667 82.7 60.6C82.7 65.1333 82.7 69.8 82.7 74.6C82.7667 79.4 82.8 84.0667 82.8 88.6C82.8 89.5333 82.8333 90.5333 82.9 91.6C82.9667 92.6667 82.9667 93.7333 82.9 94.8ZM140.27 94.4C140.404 94.7333 140.47 95.2333 140.47 95.9C140.47 96.5 140.47 97 140.47 97.4C140.47 97.9333 140.37 98.4333 140.17 98.9C139.97 99.3667 139.704 99.8 139.37 100.2C138.77 101 137.904 101.6 136.77 102C135.17 102.533 133.67 102.8 132.27 102.8C131.537 102.867 130.77 102.9 129.97 102.9C129.17 102.9 128.37 102.967 127.57 103.1H127.17C122.037 103.167 116.737 103.167 111.27 103.1C109.937 103.033 108.437 103.033 106.77 103.1C105.104 103.233 103.47 103.2 101.87 103C100.27 102.867 98.8036 102.5 97.4703 101.9C96.2036 101.233 95.3036 100.2 94.7703 98.8C94.637 98.4667 94.537 98.1667 94.4703 97.9C94.4036 97.5667 94.3703 97.2333 94.3703 96.9C94.1036 94.6333 94.0036 92.4 94.0703 90.2C94.137 88 94.1703 85.8333 94.1703 83.7L94.3703 69.2V55.8C94.3703 53.4 94.3703 51.2667 94.3703 49.4C94.437 47.5333 94.5036 45.4667 94.5703 43.2V42.7C94.637 42.0333 94.6703 41.3667 94.6703 40.7C94.737 40.0333 94.7703 39.3667 94.7703 38.7C94.9036 37.1667 95.2703 35.8667 95.8703 34.8C96.2703 33.8 96.9703 33 97.9703 32.4C98.837 31.8 99.8703 31.5 101.07 31.5C101.537 31.5 101.97 31.5333 102.37 31.6C102.837 31.6 103.27 31.6333 103.67 31.7C104.07 31.7667 104.437 31.9 104.77 32.1C105.17 32.3 105.57 32.5667 105.97 32.9C106.37 33.3667 106.737 33.9333 107.07 34.6C107.337 35.3333 107.504 36.0667 107.57 36.8C107.637 37.2667 107.704 37.7 107.77 38.1C107.837 38.5 107.87 38.9 107.87 39.3C107.737 39.7 107.67 40.1 107.67 40.5C107.67 40.9 107.67 41.2667 107.67 41.6V43.4L107.27 90.5L127.07 90.7H131.77C132.17 90.7 132.604 90.7333 133.07 90.8C133.537 90.8 134.004 90.8333 134.47 90.9C135.004 90.9667 135.47 91.0333 135.87 91.1C136.27 91.1667 136.67 91.2667 137.07 91.4C137.804 91.6 138.404 91.9333 138.87 92.4C139.604 93.0667 140.07 93.7333 140.27 94.4ZM200.065 97.6C200.132 98.2667 200.065 98.9 199.865 99.5C199.732 99.9 199.532 100.233 199.265 100.5C199.065 100.767 198.798 101.033 198.465 101.3C197.865 101.7 197.132 102.067 196.265 102.4C195.732 102.533 195.198 102.633 194.665 102.7C194.198 102.833 193.698 102.833 193.165 102.7C192.098 102.633 191.165 102.233 190.365 101.5C189.232 100.567 188.298 99.5333 187.565 98.4C187.232 97.8667 186.865 97.2667 186.465 96.6C186.065 95.9333 185.698 95.2333 185.365 94.5L174.265 73.4C173.732 73.4 173.198 73.4333 172.665 73.5C172.132 73.5 171.598 73.5333 171.065 73.6C169.665 73.7333 168.332 73.7667 167.065 73.7C165.865 73.6333 164.598 73.6333 163.265 73.7H161.365V91.8C161.365 92.3333 161.332 92.8333 161.265 93.3C161.265 93.7667 161.265 94.2667 161.265 94.8C161.265 95.1333 161.232 95.5667 161.165 96.1C161.165 96.6333 161.132 97.1333 161.065 97.6C160.932 98.3333 160.632 99.1 160.165 99.9C159.698 100.633 159.065 101.267 158.265 101.8C156.865 102.667 155.165 102.9 153.165 102.5C152.298 102.3 151.465 101.967 150.665 101.5C150.398 101.3 150.165 101.067 149.965 100.8C149.765 100.467 149.598 100.133 149.465 99.8C149.332 99.4667 149.198 99.1333 149.065 98.8C148.998 98.4 148.898 98.0333 148.765 97.7C148.565 97.0333 148.465 96.4 148.465 95.8V39C148.465 38.6 148.465 38.2 148.465 37.8C148.532 37.3333 148.598 36.9333 148.665 36.6C148.732 35.8667 148.965 35.1333 149.365 34.4C149.565 33.6 149.898 33.0333 150.365 32.7C150.765 32.3 151.365 31.9667 152.165 31.7C153.032 31.3667 154.265 31.2333 155.865 31.3C158.865 31.3667 161.832 31.4 164.765 31.4C167.698 31.4 170.632 31.4667 173.565 31.6C175.498 31.7333 177.532 31.9667 179.665 32.3C181.865 32.5667 183.898 33.0667 185.765 33.8C186.965 34.2667 188.065 34.7333 189.065 35.2C190.332 35.9333 191.332 36.6333 192.065 37.3C194.398 39.4333 196.165 42 197.365 45C198.565 48 199.165 51.0333 199.165 54.1C199.165 57.7 198.298 61 196.565 64C194.898 67 192.198 69.2333 188.465 70.7C188.332 70.8333 188.132 70.9333 187.865 71C187.665 71 187.498 71.0333 187.365 71.1L196.565 89.6L197.465 91.2C197.598 91.4667 197.765 91.7667 197.965 92.1C198.165 92.4333 198.332 92.7667 198.465 93.1C198.665 93.4333 198.832 93.8 198.965 94.2C199.165 94.6 199.365 94.9667 199.565 95.3C199.765 96.2333 199.932 97 200.065 97.6ZM175.065 62C176.265 62 177.398 61.8 178.465 61.4C179.598 60.9333 180.598 60.3333 181.465 59.6C182.398 58.8667 183.165 58.0333 183.765 57.1C184.365 56.1 184.698 55.0333 184.765 53.9C185.032 50.5667 184.165 48.1 182.165 46.5C180.165 44.8333 177.532 43.9333 174.265 43.8C172.332 43.6667 170.198 43.6 167.865 43.6C165.598 43.6 163.432 43.6 161.365 43.6C161.432 46.3333 161.432 49.1333 161.365 52C161.365 54.8 161.365 58.1333 161.365 62H175.065ZM211.233 91.4L211.333 83.5L211.433 68.8C211.499 66.6667 211.533 64.4667 211.533 62.2C211.533 59.9333 211.533 57.6 211.533 55.2C211.533 52.8 211.533 50.6667 211.533 48.8C211.533 46.9333 211.599 44.8333 211.733 42.5V42.1C211.799 41.4333 211.833 40.7667 211.833 40.1C211.899 39.3667 211.933 38.6333 211.933 37.9C211.999 36.7 212.366 35.4 213.033 34C213.499 33.0667 214.199 32.2667 215.133 31.6C216.199 31.0667 217.233 30.8 218.233 30.8C218.766 30.8 219.233 30.8333 219.633 30.9C220.099 30.9 220.533 30.9333 220.933 31C221.799 31.1333 222.566 31.5333 223.233 32.2C223.633 32.5333 223.999 33.0667 224.333 33.8C224.466 34.2 224.566 34.6 224.633 35C224.766 35.3333 224.866 35.7 224.933 36.1C224.999 36.5667 225.033 37 225.033 37.4C225.099 37.8 225.133 38.2 225.133 38.6C225.133 39.0667 225.099 39.5 225.033 39.9C225.033 40.2333 225.033 40.6 225.033 41V42.7L224.433 94.6V95.6C224.433 95.8 224.399 96.0667 224.333 96.4C224.333 96.6667 224.299 97 224.233 97.4C224.099 97.7333 223.966 98.1 223.833 98.5C223.766 98.8333 223.666 99.2 223.533 99.6C223.333 99.9333 223.099 100.267 222.833 100.6C222.633 100.867 222.366 101.133 222.033 101.4C221.499 101.933 220.633 102.3 219.433 102.5C217.633 102.9 215.933 102.733 214.333 102C213.533 101.467 212.966 100.8 212.633 100C212.433 99.8 212.333 99.6 212.333 99.4C212.266 99.2667 212.199 99.1667 212.133 99.1C212.066 99.0333 211.999 98.9333 211.933 98.8C211.799 98.4667 211.699 98.1333 211.633 97.8C211.566 97.4 211.533 97 211.533 96.6C211.466 96.2667 211.399 95.9333 211.333 95.6C211.333 95.2667 211.299 94.9333 211.233 94.6C211.166 94.0667 211.166 93.5 211.233 92.9V91.4ZM287.356 34.3C288.09 35.1667 288.456 36.0667 288.456 37C288.456 37.4 288.423 37.8333 288.356 38.3C288.356 38.7 288.323 39.0667 288.256 39.4C288.056 40.1333 287.623 40.8333 286.956 41.5C286.423 41.9 285.69 42.2 284.756 42.4C284.29 42.5333 283.823 42.6333 283.356 42.7C282.89 42.7667 282.39 42.8667 281.856 43C281.39 43.0667 280.923 43.1 280.456 43.1C279.99 43.1 279.49 43.1 278.956 43.1H273.856C272.656 43.1667 271.456 43.2 270.256 43.2C269.123 43.2 267.99 43.2 266.856 43.2C266.923 45.2667 266.956 47.5 266.956 49.9C266.956 52.2333 266.923 54.9667 266.856 58.1C266.856 61.2333 266.823 64.8667 266.756 69C266.756 73.1333 266.756 77.9333 266.756 83.4V91C266.756 91.6667 266.79 92.1667 266.856 92.5C266.856 92.7667 266.856 93.0333 266.856 93.3C266.856 93.5 266.823 93.7667 266.756 94.1C266.623 94.7 266.523 95.4 266.456 96.2C266.456 96.5333 266.423 96.8667 266.356 97.2C266.29 97.4667 266.19 97.7667 266.056 98.1C265.79 98.3667 265.656 98.5667 265.656 98.7L265.356 99.3C265.023 99.9667 264.39 100.6 263.456 101.2C261.99 101.933 260.356 102.1 258.556 101.7C257.423 101.567 256.556 101.267 255.956 100.8C255.356 100.2 254.923 99.6 254.656 99C254.256 98.2667 254.023 97.5667 253.956 96.9C253.756 96.3 253.656 95.6667 253.656 95V43.6C253.256 43.6 252.423 43.6 251.156 43.6C249.89 43.6 248.523 43.6 247.056 43.6C245.656 43.5333 244.323 43.4667 243.056 43.4C241.79 43.3333 240.923 43.2667 240.456 43.2C240.056 43.1333 239.423 43.0333 238.556 42.9C237.756 42.7667 237.09 42.6333 236.556 42.5C235.156 42.1 234.056 41.4667 233.256 40.6C232.523 39.7333 232.156 38.7667 232.156 37.7C232.156 37.3 232.156 36.9 232.156 36.5C232.156 36.1 232.223 35.7333 232.356 35.4C232.556 34.6 233.09 33.9333 233.956 33.4C234.223 33.2 234.623 32.9667 235.156 32.7C235.756 32.3667 236.323 32.1333 236.856 32C237.656 31.7333 238.656 31.5333 239.856 31.4C240.39 31.3333 240.923 31.3 241.456 31.3C241.99 31.3 242.556 31.3 243.156 31.3C245.49 31.3 247.69 31.3 249.756 31.3C251.89 31.3 254.123 31.2667 256.456 31.2C260.323 31.1333 264.156 31.1333 267.956 31.2C271.823 31.2 275.656 31.2667 279.456 31.4C280.323 31.4667 281.156 31.5667 281.956 31.7C282.756 31.8333 283.556 32.0667 284.356 32.4C284.956 32.6 285.523 32.8667 286.056 33.2C286.59 33.4667 287.023 33.8333 287.356 34.3Z" fill="#3D408A"/>
</g>
<defs>
<clipPath id="clip0_2504_3142">
<rect width="304" height="135" rx="30" fill="white"/>
</clipPath>
</defs>
</svg>
