<?xml version="1.0" encoding="UTF-8"?>
<svg version="1.1" xmlns="http://www.w3.org/2000/svg" width="512" height="512">
<path d="M0 0 C10.61181276 7.89458013 17.92318314 18.94773318 20.44897461 32.0090332 C22.21748865 46.37548062 19.96132911 59.54360414 11.76538086 71.5793457 C10.0141995 73.6197519 8.2544021 75.5937479 6.41387939 77.54875183 C5.62771787 78.39137724 5.62771787 78.39137724 4.8256743 79.25102538 C-1.36785171 85.84896658 -7.7653199 92.2426519 -14.1730957 98.63134766 C-15.52481745 99.9827865 -16.8763174 101.33444723 -18.22761536 102.68630981 C-21.8547201 106.3136985 -25.48487379 109.9380213 -29.11563206 113.56175256 C-32.92507173 117.36489093 -36.73163168 121.17090953 -40.53851318 124.97660828 C-47.72908686 132.16408845 -54.92220311 139.34901832 -62.11626315 146.53300875 C-70.31426937 154.71979192 -78.50939629 162.90945478 -86.70429659 171.09934676 C-103.54456203 187.92919273 -120.38839465 204.75546472 -137.23461914 221.5793457 C-135.61311124 225.66640191 -132.68405732 228.39453138 -129.61238098 231.42190552 C-129.0316631 232.00221555 -128.45094523 232.58252558 -127.85262984 233.18042076 C-125.90368717 235.12563022 -123.94769445 237.06359326 -121.99169922 239.00170898 C-120.59346228 240.39447078 -119.195687 241.7876962 -117.79833984 243.18135071 C-114.78638018 246.18359274 -111.77139097 249.18274755 -108.75409889 252.17963028 C-103.97842299 256.92349436 -99.2109128 261.67550738 -94.44474792 266.42892456 C-82.60030915 278.23926982 -70.74668015 290.04037988 -58.88806152 301.83648682 C-49.68090595 310.99512475 -40.47699468 320.15696517 -31.28361052 329.32942951 C-26.55181029 334.04973902 -21.81316296 338.76302922 -17.06918967 343.47110295 C-14.10972868 346.4112873 -11.15662026 349.3577898 -8.20519257 352.306036 C-6.84172491 353.66550527 -5.47569057 355.02240627 -4.10682487 356.37644005 C9.71393732 370.05290437 20.56674767 383.16874996 21.07788086 403.3918457 C20.83813948 416.50710913 16.74024376 429.03722925 7.70678711 438.82543945 C-5.09380077 450.38975325 -17.96564571 454.64971477 -35.10180664 454.01293945 C-56.5931348 452.58833985 -70.95820494 435.29943747 -85.21459961 420.98754883 C-86.98777003 419.21845077 -88.76157643 417.44998995 -90.53596497 415.68211365 C-94.82631831 411.4039507 -99.10967765 407.11890345 -103.38956337 402.83027732 C-106.8705105 399.34251937 -110.35441807 395.85774392 -113.84039688 392.37501526 C-114.33895484 391.876917 -114.83751279 391.37881875 -115.35117856 390.8656266 C-116.36436885 389.8533956 -117.37756582 388.84117128 -118.39076938 387.82895356 C-127.85929074 378.36895788 -137.31864598 368.89983986 -146.77481891 359.42750293 C-154.87242808 351.31648072 -162.97788733 343.21337304 -171.08911133 335.1159668 C-180.53517767 325.68598489 -189.97632037 316.25111755 -199.40974915 306.80849218 C-200.41707186 305.80021394 -201.42440078 304.7919419 -202.43173599 303.78367615 C-202.92722013 303.28772919 -203.42270426 302.79178223 -203.93320306 302.28080657 C-207.4098414 298.80158786 -210.889928 295.32584184 -214.37139511 291.85145569 C-219.06206719 287.17011568 -223.74466132 282.48080014 -228.42201805 277.78614998 C-230.13546584 276.06874883 -231.85144681 274.35387058 -233.57018852 272.6417675 C-235.92344437 270.29676207 -238.26718329 267.94262376 -240.6088562 265.58605957 C-241.2838604 264.91774754 -241.95886459 264.24943551 -242.65432346 263.5608716 C-254.13518341 251.93888115 -261.13132649 239.21777237 -261.54711914 222.7668457 C-261.28805735 208.59464166 -256.80853968 197.15468695 -247.08824158 186.81903076 C-246.56927903 186.26253334 -246.05031649 185.70603591 -245.5156278 185.13267493 C-238.1799245 177.32221203 -230.58395641 169.76405706 -223.01416016 162.18188477 C-221.30918771 160.47063238 -219.60439966 158.75919624 -217.89978027 157.04759216 C-212.82803004 151.9567978 -207.75213184 146.8701512 -202.67532077 141.78440487 C-200.75650914 139.86206919 -198.83800787 137.93942392 -196.91952034 136.01676477 C-188.43894747 127.51776151 -179.95703434 119.02009842 -171.47110081 110.5264473 C-169.40585434 108.45929165 -167.34061352 106.39213036 -165.27539062 104.32495117 C-164.76222909 103.8113059 -164.24906756 103.29766063 -163.72035568 102.76845035 C-155.39736722 94.43715114 -147.08294496 86.09735728 -138.77203298 77.75401285 C-130.20571548 69.15454289 -121.63180804 60.56269923 -113.0504927 51.97819495 C-108.24584423 47.17139121 -103.44447367 42.3614146 -98.65161324 37.54285431 C-94.14510513 33.01298607 -89.62907201 28.49283129 -85.10575104 23.97975349 C-83.45482095 22.32931673 -81.80726268 20.67549859 -80.16348839 19.0179348 C-58.1468821 -3.17289421 -29.90477267 -20.87580747 0 0 Z " fill="#FEF8F7" transform="translate(376.234619140625,33.420654296875)"/>
<path d="M0 0 C10.61181276 7.89458013 17.92318314 18.94773318 20.44897461 32.0090332 C22.21748865 46.37548062 19.96132911 59.54360414 11.76538086 71.5793457 C10.0141995 73.6197519 8.2544021 75.5937479 6.41387939 77.54875183 C5.62771787 78.39137724 5.62771787 78.39137724 4.8256743 79.25102538 C-1.36785171 85.84896658 -7.7653199 92.2426519 -14.1730957 98.63134766 C-15.52481745 99.9827865 -16.8763174 101.33444723 -18.22761536 102.68630981 C-21.8547201 106.3136985 -25.48487379 109.9380213 -29.11563206 113.56175256 C-32.92507173 117.36489093 -36.73163168 121.17090953 -40.53851318 124.97660828 C-47.72908686 132.16408845 -54.92220311 139.34901832 -62.11626315 146.53300875 C-70.31426937 154.71979192 -78.50939629 162.90945478 -86.70429659 171.09934676 C-103.54456203 187.92919273 -120.38839465 204.75546472 -137.23461914 221.5793457 C-135.61311124 225.66640191 -132.68405732 228.39453138 -129.61238098 231.42190552 C-129.0316631 232.00221555 -128.45094523 232.58252558 -127.85262984 233.18042076 C-125.90368717 235.12563022 -123.94769445 237.06359326 -121.99169922 239.00170898 C-120.59346228 240.39447078 -119.195687 241.7876962 -117.79833984 243.18135071 C-114.78638018 246.18359274 -111.77139097 249.18274755 -108.75409889 252.17963028 C-103.97842299 256.92349436 -99.2109128 261.67550738 -94.44474792 266.42892456 C-82.60030915 278.23926982 -70.74668015 290.04037988 -58.88806152 301.83648682 C-49.68090595 310.99512475 -40.47699468 320.15696517 -31.28361052 329.32942951 C-26.55181029 334.04973902 -21.81316296 338.76302922 -17.06918967 343.47110295 C-14.10972868 346.4112873 -11.15662026 349.3577898 -8.20519257 352.306036 C-6.84172491 353.66550527 -5.47569057 355.02240627 -4.10682487 356.37644005 C9.71393732 370.05290437 20.56674767 383.16874996 21.07788086 403.3918457 C20.83813948 416.50710913 16.74024376 429.03722925 7.70678711 438.82543945 C-5.09380077 450.38975325 -17.96564571 454.64971477 -35.10180664 454.01293945 C-56.5931348 452.58833985 -70.95820494 435.29943747 -85.21459961 420.98754883 C-86.98777003 419.21845077 -88.76157643 417.44998995 -90.53596497 415.68211365 C-94.82631831 411.4039507 -99.10967765 407.11890345 -103.38956337 402.83027732 C-106.8705105 399.34251937 -110.35441807 395.85774392 -113.84039688 392.37501526 C-114.33895484 391.876917 -114.83751279 391.37881875 -115.35117856 390.8656266 C-116.36436885 389.8533956 -117.37756582 388.84117128 -118.39076938 387.82895356 C-127.85929074 378.36895788 -137.31864598 368.89983986 -146.77481891 359.42750293 C-154.87242808 351.31648072 -162.97788733 343.21337304 -171.08911133 335.1159668 C-180.53517767 325.68598489 -189.97632037 316.25111755 -199.40974915 306.80849218 C-200.41707186 305.80021394 -201.42440078 304.7919419 -202.43173599 303.78367615 C-202.92722013 303.28772919 -203.42270426 302.79178223 -203.93320306 302.28080657 C-207.4098414 298.80158786 -210.889928 295.32584184 -214.37139511 291.85145569 C-219.06206719 287.17011568 -223.74466132 282.48080014 -228.42201805 277.78614998 C-230.13546584 276.06874883 -231.85144681 274.35387058 -233.57018852 272.6417675 C-235.92344437 270.29676207 -238.26718329 267.94262376 -240.6088562 265.58605957 C-241.2838604 264.91774754 -241.95886459 264.24943551 -242.65432346 263.5608716 C-254.13518341 251.93888115 -261.13132649 239.21777237 -261.54711914 222.7668457 C-261.28805735 208.59464166 -256.80853968 197.15468695 -247.08824158 186.81903076 C-246.56927903 186.26253334 -246.05031649 185.70603591 -245.5156278 185.13267493 C-238.1799245 177.32221203 -230.58395641 169.76405706 -223.01416016 162.18188477 C-221.30918771 160.47063238 -219.60439966 158.75919624 -217.89978027 157.04759216 C-212.82803004 151.9567978 -207.75213184 146.8701512 -202.67532077 141.78440487 C-200.75650914 139.86206919 -198.83800787 137.93942392 -196.91952034 136.01676477 C-188.43894747 127.51776151 -179.95703434 119.02009842 -171.47110081 110.5264473 C-169.40585434 108.45929165 -167.34061352 106.39213036 -165.27539062 104.32495117 C-164.76222909 103.8113059 -164.24906756 103.29766063 -163.72035568 102.76845035 C-155.39736722 94.43715114 -147.08294496 86.09735728 -138.77203298 77.75401285 C-130.20571548 69.15454289 -121.63180804 60.56269923 -113.0504927 51.97819495 C-108.24584423 47.17139121 -103.44447367 42.3614146 -98.65161324 37.54285431 C-94.14510513 33.01298607 -89.62907201 28.49283129 -85.10575104 23.97975349 C-83.45482095 22.32931673 -81.80726268 20.67549859 -80.16348839 19.0179348 C-58.1468821 -3.17289421 -29.90477267 -20.87580747 0 0 Z M-67.48930359 16.42616272 C-68.25653317 17.18589006 -69.02376275 17.94561741 -69.81424171 18.72836679 C-72.35820133 21.25116085 -74.89148669 23.78439468 -77.42480469 26.31787109 C-79.25667704 28.13911921 -81.08915167 29.95976171 -82.92218018 31.77984619 C-87.88241584 36.70813076 -92.83163337 41.64738094 -97.77877784 46.58880162 C-100.87360746 49.67986567 -103.97095777 52.76839529 -107.06885719 55.85638237 C-115.66356842 64.4241803 -124.25608138 72.99416331 -132.83856487 81.57421207 C-133.38639603 82.12188766 -133.9342272 82.66956325 -134.4986593 83.23383507 C-135.60897144 84.34385617 -136.71928075 85.45388011 -137.82958724 86.56390686 C-138.38066232 87.11483908 -138.9317374 87.6657713 -139.49951172 88.23339844 C-140.05126549 88.78501254 -140.60301927 89.33662665 -141.17149285 89.90495633 C-150.1119197 98.84224796 -159.06895812 107.76268575 -168.03351595 116.67576642 C-177.26011717 125.84981093 -186.47345955 135.03699485 -195.67354041 144.23763651 C-200.83018962 149.39403392 -205.9921057 154.54488564 -211.16852379 159.68144417 C-216.03819777 164.51380716 -220.88932128 169.36415138 -225.72872925 174.2268219 C-227.50155673 176.00250068 -229.28031421 177.772283 -231.06556129 179.53547478 C-243.48441092 191.8104279 -254.37799186 203.100556 -254.60961914 221.4543457 C-254.68358703 237.08376177 -248.3874144 247.59732012 -237.6385529 258.45222294 C-236.93913477 259.14854388 -236.23971663 259.84486481 -235.519104 260.56228638 C-234.76149237 261.32442912 -234.00388074 262.08657186 -233.22331119 262.87180984 C-230.6995743 265.40814263 -228.16880901 267.93733873 -225.63793945 270.46655273 C-223.82039144 272.29008888 -222.00325309 274.11403343 -220.18649292 275.93835449 C-215.77271755 280.36868419 -211.35345468 284.7934997 -206.93195394 289.21611823 C-203.33617281 292.81285222 -199.74198068 296.41116647 -196.14888763 300.01058578 C-185.946785 310.23028347 -175.74051842 320.44579626 -165.52886334 330.65594913 C-164.97930182 331.20543074 -164.42974029 331.75491235 -163.86352539 332.32104492 C-163.31328716 332.87120139 -162.76304892 333.42135787 -162.1961368 333.98818575 C-153.27775519 342.90575434 -144.36939553 351.83326046 -135.46552816 360.76531889 C-126.30846538 369.95114388 -117.14393023 379.12945536 -107.97161174 388.30004776 C-102.82798894 393.44300795 -97.6874598 398.58897321 -92.55496979 403.74304581 C-87.72807431 408.59010978 -82.8908572 413.42666244 -78.04660416 418.25637817 C-76.27348729 420.02740649 -74.50376081 421.80183692 -72.73775101 423.57995224 C-70.32036989 426.01282346 -67.89087809 428.43294253 -65.45806885 430.85037231 C-64.42232597 431.90154588 -64.42232597 431.90154588 -63.365659 432.97395527 C-53.63486082 442.56998917 -42.99458992 447.54971524 -29.29711914 448.0168457 C-16.15224769 447.68606666 -4.91579012 442.14860913 4.13256836 432.70043945 C13.14175073 420.9971236 15.27411811 407.88654621 13.76538086 393.5793457 C11.05495909 382.77255678 4.1119186 374.60549895 -3.65072632 366.92272949 C-4.26838572 366.30336124 -4.88604512 365.68399299 -5.52242148 365.045856 C-7.57200597 362.99300429 -9.62860547 360.94733494 -11.68530273 358.90161133 C-13.1644313 357.42304747 -14.64311849 355.94404195 -16.12139893 354.46463013 C-20.12058315 350.46487373 -24.12588945 346.47129979 -28.13234663 342.47883034 C-32.32396661 338.29974038 -36.50989714 334.11495948 -40.69644165 329.93078613 C-48.61832951 322.01510636 -56.54530036 314.10453728 -64.47412264 306.19580412 C-73.50343927 297.18886736 -82.52705554 288.17622891 -91.55020404 279.16311359 C-110.10535228 260.62885216 -128.6676263 242.10174108 -147.23461914 223.5793457 C-145.59335189 219.3628635 -142.47137872 216.56458874 -139.30867004 213.45999146 C-138.69528375 212.84983527 -138.08189745 212.23967909 -137.44992369 211.61103332 C-135.39039529 209.56461636 -133.32383531 207.52544764 -131.25732422 205.48608398 C-129.78024285 204.02102536 -128.3036515 202.55547256 -126.82751465 201.08946228 C-123.64507213 197.93030681 -120.45980559 194.77403548 -117.27253151 191.61975479 C-112.22632965 186.62446208 -107.19043141 181.61887035 -102.15666199 176.61105347 C-87.84006709 162.37058851 -73.51727686 148.13645497 -59.16699219 133.92993164 C-51.24353527 126.08568376 -43.3327739 118.22886474 -35.43587416 110.35787952 C-31.25941366 106.19621878 -27.07671103 102.04129649 -22.87818336 97.9018898 C-18.92240218 94.00175033 -14.98347302 90.0853396 -11.05640411 86.15629768 C-9.6190384 84.72401581 -8.17572613 83.29767067 -6.72582817 81.87807655 C5.26831202 70.12385404 13.91952435 58.98453769 14.14038086 41.5793457 C14.20151071 28.69195137 9.91089762 18.95635869 0.95678711 9.7121582 C-8.69694877 0.66056681 -19.74630168 -2.98603496 -32.79711914 -2.72924805 C-47.35544689 -1.42230726 -57.4922004 6.37193808 -67.48930359 16.42616272 Z " fill="#3D464C" transform="translate(376.234619140625,33.420654296875)"/>
<path d="M0 0 C0.99 0.33 1.98 0.66 3 1 C2.67 2.32 2.34 3.64 2 5 C0.68 4.34 -0.64 3.68 -2 3 C-1.34 2.01 -0.68 1.02 0 0 Z " fill="#FCAE9A" transform="translate(317,465)"/>
<path d="M0 0 C0.99 0.33 1.98 0.66 3 1 C2.67 2.32 2.34 3.64 2 5 C0.68 4.34 -0.64 3.68 -2 3 C-1.34 2.01 -0.68 1.02 0 0 Z " fill="#FDAE9B" transform="translate(302,450)"/>
<path d="M0 0 C0.99 0.33 1.98 0.66 3 1 C2.67 2.32 2.34 3.64 2 5 C0.68 4.34 -0.64 3.68 -2 3 C-1.34 2.01 -0.68 1.02 0 0 Z " fill="#FDAE9B" transform="translate(287,435)"/>
<path d="M0 0 C0.99 0.33 1.98 0.66 3 1 C2.67 2.32 2.34 3.64 2 5 C0.68 4.34 -0.64 3.68 -2 3 C-1.34 2.01 -0.68 1.02 0 0 Z " fill="#FDAE9B" transform="translate(257,405)"/>
<path d="M0 0 C0.99 0.33 1.98 0.66 3 1 C2.67 2.32 2.34 3.64 2 5 C0.68 4.34 -0.64 3.68 -2 3 C-1.34 2.01 -0.68 1.02 0 0 Z " fill="#FDAE9B" transform="translate(242,390)"/>
<path d="M0 0 C0.99 0.33 1.98 0.66 3 1 C2.67 2.32 2.34 3.64 2 5 C0.68 4.34 -0.64 3.68 -2 3 C-1.34 2.01 -0.68 1.02 0 0 Z " fill="#FDAE9B" transform="translate(227,375)"/>
<path d="M0 0 C0.99 0.33 1.98 0.66 3 1 C2.67 2.32 2.34 3.64 2 5 C0.68 4.34 -0.64 3.68 -2 3 C-1.34 2.01 -0.68 1.02 0 0 Z " fill="#FDAE9B" transform="translate(212,360)"/>
<path d="M0 0 C0.99 0.33 1.98 0.66 3 1 C2.67 2.32 2.34 3.64 2 5 C0.68 4.34 -0.64 3.68 -2 3 C-1.34 2.01 -0.68 1.02 0 0 Z " fill="#FDAE9B" transform="translate(197,345)"/>
<path d="M0 0 C0.99 0.33 1.98 0.66 3 1 C2.67 2.32 2.34 3.64 2 5 C0.68 4.34 -0.64 3.68 -2 3 C-1.34 2.01 -0.68 1.02 0 0 Z " fill="#FDAE9B" transform="translate(182,330)"/>
<path d="M0 0 C0.99 0.33 1.98 0.66 3 1 C2.67 2.32 2.34 3.64 2 5 C0.68 4.34 -0.64 3.68 -2 3 C-1.34 2.01 -0.68 1.02 0 0 Z " fill="#FDAE9B" transform="translate(167,315)"/>
<path d="M0 0 C0.99 0.33 1.98 0.66 3 1 C2.67 2.32 2.34 3.64 2 5 C0.68 4.34 -0.64 3.68 -2 3 C-1.34 2.01 -0.68 1.02 0 0 Z " fill="#FDAE9B" transform="translate(152,300)"/>
</svg>
