<svg width="280" height="180" viewBox="0 0 280 180" fill="none" xmlns="http://www.w3.org/2000/svg">
<rect width="280" height="180" rx="50" fill="#FFEF9D"/>
<path d="M69.258 47.4478C69.4039 48.1409 69.4039 48.8705 69.258 49.6365C69.1851 50.0013 69.1121 50.3661 69.0392 50.7309C69.0027 51.0592 68.948 51.4058 68.875 51.7706L68.8203 51.9895C68.3096 54.2512 67.7259 56.6406 67.0693 59.1576C66.4491 61.6382 65.8837 63.9911 65.373 66.2164C64.9352 68.0403 64.4792 70.0467 64.005 72.2354C63.5308 74.4242 63.0383 76.4306 62.5276 78.2545C62.3452 78.8747 62.1446 79.4948 61.9257 80.115C61.7433 80.7351 61.5062 81.3553 61.2144 81.9754C60.959 82.5226 60.6489 83.0151 60.2841 83.4528C59.9558 83.8541 59.5728 84.1459 59.135 84.3283C58.6973 84.5472 58.2231 84.6201 57.7123 84.5472C57.2381 84.5107 56.7092 84.2918 56.1255 83.8906C55.25 83.2704 54.5934 82.4132 54.1556 81.3188C53.7543 80.2244 53.3348 79.2212 52.8971 78.3092C52.7512 78.0539 52.5323 77.4885 52.2405 76.613C51.9486 75.7375 51.6386 74.789 51.3102 73.7676C50.9819 72.7097 50.6536 71.7065 50.3253 70.758C50.0335 69.7731 49.7781 69.0435 49.5592 68.5693C49.2309 69.3718 48.9026 70.2838 48.5743 71.3052C48.246 72.3266 47.9359 73.3298 47.6441 74.3148C47.3522 75.2997 47.0786 76.1934 46.8233 76.996C46.6044 77.762 46.4403 78.3275 46.3308 78.6923C46.039 79.4219 45.7107 80.2244 45.3459 81.0999C45.0176 81.9754 44.5981 82.7232 44.0873 83.3434C43.6131 83.9635 43.0295 84.3648 42.3363 84.5472C41.6432 84.7661 40.8225 84.5654 39.874 83.9453C39.1444 83.5075 38.6337 82.8874 38.3419 82.0848C38.1595 81.5741 37.9771 81.0817 37.7947 80.6074C37.6123 80.1332 37.4664 79.6407 37.3569 79.13L36.2625 75.0261L34.0191 66.2164C33.7272 65.0855 33.4354 63.9364 33.1436 62.7691C32.8882 61.5653 32.5781 60.325 32.2134 59.0482C32.031 58.428 31.8668 57.8261 31.7209 57.2425C31.6114 56.6223 31.4838 55.9657 31.3379 55.2726C31.2284 54.543 31.0825 53.7222 30.9001 52.8102C30.7542 51.8983 30.5718 50.8404 30.3529 49.6365C30.28 49.2353 30.2252 48.8705 30.1888 48.5422C30.1888 48.1774 30.2252 47.8126 30.2982 47.4478C30.3712 46.9006 30.6265 46.4264 31.0643 46.0251C31.2467 45.8427 31.4655 45.6968 31.7209 45.5874C31.9762 45.4779 32.2498 45.3867 32.5417 45.3138C32.9794 45.1678 33.4354 45.0949 33.9096 45.0949C34.3474 45.0949 34.8034 45.2408 35.2776 45.5326C35.6059 45.715 35.8613 45.9521 36.0437 46.244L36.7003 47.3931C36.7733 47.6484 36.8462 47.8855 36.9192 48.1044C36.9921 48.2868 37.0651 48.4875 37.1381 48.7063C37.211 48.9617 37.2657 49.1988 37.3022 49.4177C37.3387 49.6001 37.3752 49.7825 37.4116 49.9649C37.74 51.8618 38.1412 53.704 38.6155 55.4915C39.0897 57.279 39.5274 58.9935 39.9287 60.635C40.0746 61.2917 40.257 62.1125 40.4759 63.0974C40.6948 64.0459 40.9137 65.049 41.1325 66.1069C41.3514 67.1283 41.5703 68.1133 41.7892 69.0617C42.008 70.0102 42.2269 70.758 42.4458 71.3052C42.92 69.6637 43.3942 68.0221 43.8685 66.3805C44.3792 64.739 44.9264 63.0792 45.51 61.4011C45.8019 60.5256 46.0937 59.7413 46.3855 59.0482C46.7139 58.3186 47.0786 57.7167 47.4799 57.2425C47.8812 56.7682 48.3372 56.4582 48.8479 56.3123C49.3586 56.1663 49.9605 56.2211 50.6536 56.4764C51.2738 56.7318 51.8209 57.279 52.2952 58.118C52.7694 58.957 53.1889 59.8143 53.5537 60.6898C53.882 61.4923 54.1921 62.3496 54.4839 63.2615C54.8122 64.137 55.1223 65.0126 55.4142 65.8881C55.7425 66.7271 56.0525 67.5296 56.3444 68.2957C56.6362 69.0617 56.928 69.7184 57.2199 70.2656C57.3293 69.8643 57.457 69.3536 57.6029 68.7334C57.7488 68.1133 57.8947 67.4567 58.0407 66.7636C58.2231 66.034 58.3872 65.3226 58.5331 64.6295C58.679 63.9364 58.825 63.298 58.9709 62.7144C59.4451 60.7445 59.9376 58.7746 60.4483 56.8047C60.959 54.7984 61.4515 52.8285 61.9257 50.8951L62.1993 49.9649C62.2723 49.7825 62.3087 49.6001 62.3087 49.4177C62.3452 49.1988 62.3999 48.9617 62.4729 48.7063C62.5458 48.4875 62.6188 48.2868 62.6918 48.1044C62.7647 47.8855 62.8377 47.6484 62.9106 47.3931C62.9836 47.2107 63.0566 47.0283 63.1295 46.8459C63.239 46.627 63.3666 46.4264 63.5125 46.244C63.622 46.0616 63.7497 45.9157 63.8956 45.8062C64.0415 45.6968 64.1874 45.6056 64.3333 45.5326C64.844 45.2408 65.2818 45.0949 65.6466 45.0949C66.1208 45.0949 66.5768 45.1678 67.0146 45.3138C67.5982 45.4232 68.1272 45.6603 68.6014 46.0251C68.9662 46.3899 69.1851 46.8641 69.258 47.4478ZM91.3029 73.2204C91.3394 73.95 91.3576 74.716 91.3576 75.5186C91.3576 76.2846 91.3394 76.996 91.3029 77.6526C91.2664 78.6376 91.2117 79.5495 91.1387 80.3886C91.0658 81.1911 90.9199 81.8842 90.701 82.4679C90.4821 83.0151 90.1356 83.4346 89.6613 83.7264C89.2236 83.9818 88.6034 84.0547 87.8009 83.9453C86.9619 83.8358 86.36 83.4346 85.9952 82.7415C85.6304 82.0484 85.375 81.2641 85.2291 80.3886C85.1197 79.4766 85.0832 78.5646 85.1197 77.6526C85.1561 76.7406 85.1561 76.0293 85.1197 75.5186C85.0832 74.716 85.0467 73.8041 85.0102 72.7826C85.0102 71.7247 84.9008 70.7398 84.6819 69.8278C84.4995 68.8794 84.1712 68.0768 83.697 67.4202C83.2227 66.7636 82.5114 66.417 81.5629 66.3805C80.3591 66.3076 79.4289 66.3988 78.7723 66.6541C78.1521 66.9095 77.6961 67.2925 77.4043 67.8032C77.1125 68.2774 76.9301 68.8611 76.8571 69.5542C76.8206 70.2473 76.7477 70.9951 76.6382 71.7977L76.5835 73.9317V77.9262C76.5835 78.5828 76.5653 79.2759 76.5288 80.0055C76.5288 80.6986 76.4194 81.337 76.2005 81.9207C75.9816 82.5044 75.6351 82.9968 75.1608 83.3981C74.7231 83.7994 74.0664 84 73.1909 84C72.0966 84 71.2758 83.6534 70.7286 82.9603C70.2179 82.2308 69.9625 81.337 69.9625 80.2791V48.8158C69.9625 48.5969 69.9625 48.3963 69.9625 48.2139C69.999 47.995 70.0355 47.7761 70.072 47.5572C70.1449 47.3384 70.1996 47.1377 70.2361 46.9553C70.2726 46.7364 70.3273 46.5358 70.4003 46.3534C70.5097 45.9886 70.6921 45.715 70.9475 45.5326C71.1299 45.3502 71.3123 45.2043 71.4947 45.0949C71.6771 44.9854 71.8777 44.9125 72.0966 44.876C72.279 44.8395 72.4796 44.8213 72.6985 44.8213C72.9174 44.7848 73.1362 44.7666 73.3551 44.7666C73.9023 44.7666 74.4312 44.9307 74.9419 45.259C75.1608 45.405 75.3615 45.5691 75.5439 45.7515C75.7263 45.8974 75.8722 46.1163 75.9816 46.4081C76.2734 47.1012 76.4194 47.7579 76.4194 48.378C76.4558 48.5604 76.4741 48.834 76.4741 49.1988C76.5106 49.5271 76.5288 49.8737 76.5288 50.2385C76.5288 50.6032 76.5288 50.968 76.5288 51.3328C76.5653 51.6611 76.5835 51.9165 76.5835 52.0989V52.3725C76.62 53.5398 76.6382 54.7254 76.6382 55.9292C76.6382 57.133 76.6382 58.3551 76.6382 59.5954V60.5256C78.1704 60.0149 79.7754 59.7778 81.4535 59.8143C83.1315 59.8143 84.6272 60.1426 85.9404 60.7992C87.2902 61.4923 88.3116 62.2766 89.0047 63.1521C89.7343 64.0276 90.2632 64.9943 90.5915 66.0522C90.9199 67.1101 91.1023 68.241 91.1387 69.4448C91.2117 70.6486 91.2664 71.9071 91.3029 73.2204ZM110.821 76.5035C111.259 76.3941 111.697 76.3211 112.135 76.2846C112.609 76.2482 113.028 76.3029 113.393 76.4488C113.794 76.5947 114.123 76.8501 114.378 77.2149C114.633 77.5432 114.761 78.0174 114.761 78.6376C114.761 79.0753 114.652 79.4948 114.433 79.8961C114.214 80.2974 113.94 80.6621 113.612 80.9905C113.284 81.3188 112.919 81.6106 112.518 81.866C112.116 82.0848 111.733 82.2672 111.368 82.4132C110.311 82.8874 109.089 83.2522 107.702 83.5075C106.353 83.7629 104.948 83.8541 103.489 83.7811C101.519 83.7082 99.6222 83.3251 97.7982 82.632C96.0107 81.9024 94.6063 80.7169 93.5848 79.0753C92.6364 77.4702 92.0709 75.6827 91.8886 73.7129C91.7062 71.743 91.7974 69.8825 92.1621 68.1315C92.5634 66.0157 93.2383 64.3012 94.1867 62.988C95.1717 61.6382 96.339 60.5621 97.6888 59.7595C99.3303 58.8111 101.173 58.3186 103.215 58.2821C105.258 58.2457 107.21 58.6469 109.07 59.4859C110.311 60.0331 111.423 60.781 112.408 61.7294C113.393 62.6414 114.141 63.754 114.652 65.0673C114.798 65.3956 114.907 65.7969 114.98 66.2711C115.089 66.7453 115.162 67.256 115.199 67.8032C115.235 68.3139 115.235 68.8246 115.199 69.3353C115.162 69.8461 115.071 70.302 114.925 70.7033C114.706 71.3599 114.433 71.8707 114.104 72.2354C113.776 72.6002 113.357 72.8738 112.846 73.0562C112.335 73.2386 111.715 73.3663 110.985 73.4393C110.292 73.4757 109.453 73.5122 108.468 73.5487C107.593 73.5852 106.772 73.6034 106.006 73.6034C105.24 73.6034 104.456 73.6034 103.653 73.6034C102.851 73.5669 102.012 73.5487 101.136 73.5487C100.297 73.5122 99.3486 73.4757 98.2907 73.4393C98.1812 74.1688 98.2724 74.8072 98.5643 75.3544C98.8926 75.8651 99.3303 76.3029 99.8775 76.6677C100.425 76.996 101.045 77.2513 101.738 77.4337C102.431 77.6161 103.106 77.7256 103.763 77.762C105.003 77.835 106.188 77.7438 107.319 77.4885C108.45 77.1966 109.617 76.8683 110.821 76.5035ZM108.468 65.8881C107.775 65.0855 107.046 64.5018 106.28 64.1371C105.696 63.8817 105.076 63.7723 104.419 63.8087C103.799 63.8087 103.197 63.8999 102.613 64.0823C101.556 64.3377 100.662 64.8849 99.9322 65.7239C99.8593 65.7969 99.7316 65.9793 99.5492 66.2711C99.3668 66.5264 99.1844 66.8 99.002 67.0919C98.8561 67.3837 98.7467 67.6573 98.6737 67.9127C98.6007 68.168 98.6372 68.2957 98.7831 68.2957H109.508C109.472 67.785 109.38 67.3655 109.234 67.0372C109.089 66.6724 108.833 66.2893 108.468 65.8881ZM115.846 64.6295C115.846 64.1918 115.846 63.6993 115.846 63.1521C115.846 62.5684 115.865 61.9848 115.901 61.4011C115.938 60.781 115.992 60.1973 116.065 59.6501C116.175 59.0664 116.321 58.5557 116.503 58.118C116.795 57.4613 117.251 57.0236 117.871 56.8047C118.491 56.5494 119.166 56.4399 119.896 56.4764C120.662 56.4764 121.264 56.6041 121.701 56.8594C122.139 57.1148 122.467 57.4613 122.686 57.8991C122.905 58.3004 123.033 58.7746 123.069 59.3218C123.142 59.8325 123.179 60.3797 123.179 60.9634C123.507 60.3797 123.945 59.9055 124.492 59.5407C125.076 59.1759 125.659 58.884 126.243 58.6652C126.827 58.4463 127.356 58.3004 127.83 58.2274C128.304 58.118 128.578 58.0633 128.651 58.0633C129.563 57.9903 130.383 57.9721 131.113 58.0085C131.879 58.045 132.718 58.2092 133.63 58.501C134.214 58.7199 134.816 59.03 135.436 59.4312C136.056 59.796 136.603 60.2338 137.077 60.7445C137.552 61.2552 137.862 61.8206 138.008 62.4408C138.19 63.0244 138.117 63.6446 137.789 64.3012C137.278 65.2132 136.713 65.6692 136.092 65.6692C135.472 65.6327 134.797 65.5233 134.068 65.3409C133.667 65.2679 133.192 65.1037 132.645 64.8484C132.098 64.593 131.624 64.4289 131.222 64.3559C129.982 64.1735 128.888 64.2647 127.939 64.6295C126.991 64.9943 126.17 65.4321 125.477 65.9428C124.674 66.5629 123.981 67.2743 123.398 68.0768V75.9563C123.398 76.9413 123.379 77.9627 123.343 79.0206C123.343 80.0785 123.197 81.0452 122.905 81.9207C122.65 82.7597 122.194 83.4528 121.537 84C120.917 84.5107 120.005 84.7296 118.801 84.6566C118.145 84.6201 117.561 84.3101 117.05 83.7264C116.54 83.1063 116.229 82.5044 116.12 81.9207C116.047 81.3735 115.992 80.7169 115.956 79.9508C115.919 79.1847 115.883 78.3822 115.846 77.5432C115.846 76.7042 115.846 75.8651 115.846 75.0261C115.846 74.1506 115.846 73.3481 115.846 72.6185V64.6295ZM154.353 76.5035C154.79 76.3941 155.228 76.3211 155.666 76.2846C156.14 76.2482 156.56 76.3029 156.924 76.4488C157.326 76.5947 157.654 76.8501 157.909 77.2149C158.165 77.5432 158.292 78.0174 158.292 78.6376C158.292 79.0753 158.183 79.4948 157.964 79.8961C157.745 80.2974 157.472 80.6621 157.143 80.9905C156.815 81.3188 156.45 81.6106 156.049 81.866C155.648 82.0848 155.265 82.2672 154.9 82.4132C153.842 82.8874 152.62 83.2522 151.234 83.5075C149.884 83.7629 148.48 83.8541 147.02 83.7811C145.051 83.7082 143.154 83.3251 141.33 82.632C139.542 81.9024 138.138 80.7169 137.116 79.0753C136.168 77.4702 135.602 75.6827 135.42 73.7129C135.238 71.743 135.329 69.8825 135.694 68.1315C136.095 66.0157 136.77 64.3012 137.718 62.988C138.703 61.6382 139.87 60.5621 141.22 59.7595C142.862 58.8111 144.704 58.3186 146.747 58.2821C148.79 58.2457 150.741 58.6469 152.602 59.4859C153.842 60.0331 154.955 60.781 155.94 61.7294C156.924 62.6414 157.672 63.754 158.183 65.0673C158.329 65.3956 158.438 65.7969 158.511 66.2711C158.621 66.7453 158.694 67.256 158.73 67.8032C158.767 68.3139 158.767 68.8246 158.73 69.3353C158.694 69.8461 158.603 70.302 158.457 70.7033C158.238 71.3599 157.964 71.8707 157.636 72.2354C157.308 72.6002 156.888 72.8738 156.377 73.0562C155.867 73.2386 155.246 73.3663 154.517 73.4393C153.824 73.4757 152.985 73.5122 152 73.5487C151.124 73.5852 150.304 73.6034 149.537 73.6034C148.771 73.6034 147.987 73.6034 147.185 73.6034C146.382 73.5669 145.543 73.5487 144.667 73.5487C143.828 73.5122 142.88 73.4757 141.822 73.4393C141.713 74.1688 141.804 74.8072 142.096 75.3544C142.424 75.8651 142.862 76.3029 143.409 76.6677C143.956 76.996 144.576 77.2513 145.269 77.4337C145.962 77.6161 146.637 77.7256 147.294 77.762C148.534 77.835 149.72 77.7438 150.851 77.4885C151.982 77.1966 153.149 76.8683 154.353 76.5035ZM152 65.8881C151.307 65.0855 150.577 64.5018 149.811 64.1371C149.227 63.8817 148.607 63.7723 147.951 63.8087C147.33 63.8087 146.729 63.8999 146.145 64.0823C145.087 64.3377 144.193 64.8849 143.464 65.7239C143.391 65.7969 143.263 65.9793 143.081 66.2711C142.898 66.5264 142.716 66.8 142.533 67.0919C142.388 67.3837 142.278 67.6573 142.205 67.9127C142.132 68.168 142.169 68.2957 142.315 68.2957H153.039C153.003 67.785 152.912 67.3655 152.766 67.0372C152.62 66.6724 152.365 66.2893 152 65.8881ZM176.601 63.2615C176.601 64.283 176.601 65.4321 176.601 66.7088C176.638 67.9856 176.656 69.3171 176.656 70.7033C176.656 72.053 176.656 73.4028 176.656 74.7525C176.656 76.0658 176.638 77.2878 176.601 78.4187C176.565 78.9659 176.51 79.5678 176.437 80.2244C176.364 80.8445 176.218 81.4282 176 81.9754C175.781 82.5226 175.434 82.9786 174.96 83.3434C174.522 83.6717 173.92 83.8176 173.154 83.7811C172.023 83.7082 171.203 83.2157 170.692 82.3037C170.218 81.3917 169.944 80.115 169.871 78.4734C169.871 77.6344 169.853 76.6677 169.816 75.5733C169.816 74.4789 169.798 73.3663 169.762 72.2354C169.762 71.1046 169.762 70.0102 169.762 68.9523C169.762 67.8579 169.762 66.873 169.762 65.9975C169.762 65.4868 169.743 64.8666 169.707 64.1371C169.707 63.4075 169.725 62.6596 169.762 61.8936C169.798 61.1275 169.889 60.3979 170.035 59.7048C170.181 58.9752 170.418 58.3733 170.747 57.8991C171.002 57.6073 171.367 57.3884 171.841 57.2425C172.315 57.0601 172.808 56.9689 173.318 56.9689C173.866 56.9689 174.376 57.0601 174.85 57.2425C175.361 57.4249 175.726 57.6802 175.945 58.0085C176.091 58.2274 176.2 58.5375 176.273 58.9388C176.346 59.34 176.401 59.796 176.437 60.3067C176.51 60.781 176.547 61.2917 176.547 61.8389C176.583 62.3496 176.601 62.8238 176.601 63.2615ZM174.522 52.2083C173.391 52.5002 172.443 52.3907 171.677 51.88C170.947 51.3328 170.491 50.5303 170.309 49.4724C170.163 48.7063 170.218 48.0315 170.473 47.4478C170.728 46.8641 171.111 46.4264 171.622 46.1345C172.133 45.8062 172.716 45.6603 173.373 45.6968C174.03 45.7333 174.686 45.9886 175.343 46.4629C175.963 46.9006 176.401 47.4113 176.656 47.995C176.948 48.5787 177.039 49.1441 176.93 49.6913C176.857 50.2385 176.62 50.7492 176.218 51.2234C175.817 51.6611 175.252 51.9895 174.522 52.2083ZM190.657 74.3695C189.964 73.9317 189.18 73.5852 188.304 73.3298C187.465 73.0745 186.59 72.8374 185.678 72.6185C184.802 72.3996 183.945 72.1625 183.106 71.9071C182.267 71.6153 181.501 71.214 180.808 70.7033C179.312 69.5725 178.436 68.1862 178.181 66.5447C177.962 64.8666 178.327 63.1886 179.275 61.5105C179.786 60.635 180.461 59.9237 181.3 59.3765C182.139 58.7928 183.051 58.3551 184.036 58.0633C185.057 57.7349 186.097 57.5525 187.155 57.5161C188.213 57.4796 189.216 57.5343 190.164 57.6802C190.785 57.7897 191.441 57.9538 192.134 58.1727C192.827 58.3551 193.466 58.6104 194.05 58.9388C194.67 59.2671 195.217 59.6866 195.691 60.1973C196.202 60.6715 196.567 61.2734 196.785 62.003C196.931 62.4772 196.95 62.9332 196.84 63.371C196.767 63.8087 196.585 64.1735 196.293 64.4654C196.038 64.7572 195.691 64.9761 195.253 65.122C194.852 65.2679 194.414 65.3044 193.94 65.2314C193.393 65.122 192.882 64.9578 192.408 64.739C191.934 64.5201 191.46 64.283 190.985 64.0276C190.511 63.7723 190.019 63.5534 189.508 63.371C189.034 63.1886 188.523 63.0974 187.976 63.0974C187.137 63.0609 186.444 63.2068 185.896 63.5351C185.349 63.8635 184.966 64.2647 184.747 64.739C184.565 65.2132 184.583 65.7239 184.802 66.2711C185.057 66.8183 185.568 67.2925 186.334 67.6938C187.027 68.0586 187.793 68.3504 188.632 68.5693C189.471 68.7882 190.292 69.007 191.095 69.2259C191.934 69.4448 192.736 69.7001 193.502 69.992C194.305 70.2838 195.016 70.6851 195.636 71.1958C196.84 72.1807 197.57 73.3298 197.825 74.6431C198.117 75.9563 198.044 77.2513 197.606 78.5281C197.169 79.8049 196.402 80.9357 195.308 81.9207C194.25 82.9056 192.992 83.5622 191.532 83.8906C190.475 84.1094 189.325 84.2189 188.085 84.2189C186.881 84.2189 185.678 84.0912 184.474 83.8358C183.306 83.5805 182.176 83.1792 181.081 82.632C180.023 82.0848 179.13 81.3917 178.4 80.5527C177.889 79.969 177.616 79.3124 177.579 78.5828C177.579 77.8168 177.725 77.1601 178.017 76.613C178.345 76.0293 178.801 75.628 179.385 75.4091C179.969 75.1903 180.625 75.3179 181.355 75.7922C181.938 76.1934 182.632 76.5947 183.434 76.996C184.237 77.3608 185.039 77.6526 185.842 77.8715C186.644 78.0904 187.41 78.1998 188.14 78.1998C188.906 78.1998 189.563 78.0356 190.11 77.7073C190.912 77.1966 191.332 76.613 191.368 75.9563C191.405 75.2632 191.168 74.7343 190.657 74.3695ZM59.8464 110.251C59.9193 111.418 59.9558 112.53 59.9558 113.588C59.9558 114.61 59.9193 115.704 59.8464 116.871C59.8464 117.309 59.8464 117.802 59.8464 118.349C59.8464 118.896 59.8099 119.425 59.7369 119.936C59.664 120.446 59.5363 120.921 59.3539 121.358C59.1715 121.796 58.8979 122.143 58.5331 122.398C58.0954 122.69 57.6029 122.891 57.0557 123C56.5085 123.073 55.9978 123.036 55.5236 122.891C55.0494 122.745 54.6298 122.471 54.2651 122.07C53.9367 121.669 53.7543 121.103 53.7179 120.373C53.6084 118.695 53.5537 117.017 53.5537 115.339C53.5537 114.5 53.5355 113.698 53.499 112.932C53.499 112.166 53.5172 111.09 53.5537 109.703C53.5537 109.01 53.499 108.226 53.3896 107.35C53.2801 106.438 53.0065 105.8 52.5688 105.435C52.2405 105.143 51.8757 104.979 51.4744 104.943C51.0731 104.87 50.6719 104.906 50.2706 105.052C49.9058 105.198 49.5775 105.472 49.2856 105.873C48.9938 106.238 48.7932 106.712 48.6837 107.296C48.6837 107.77 48.6655 108.262 48.629 108.773C48.629 109.247 48.6473 109.703 48.6837 110.141C48.7202 111.308 48.7385 112.421 48.7385 113.479C48.7385 114.5 48.7202 115.595 48.6837 116.762C48.6473 117.236 48.629 117.747 48.629 118.294C48.6655 118.841 48.6655 119.389 48.629 119.936C48.5925 120.446 48.4831 120.921 48.3007 121.358C48.1548 121.796 47.8812 122.143 47.4799 122.398C47.0422 122.69 46.5679 122.872 46.0572 122.945C45.583 122.982 45.127 122.909 44.6893 122.726C44.288 122.508 43.9232 122.179 43.5949 121.741C43.303 121.304 43.1389 120.72 43.1024 119.99C43.0295 119.151 42.9747 118.385 42.9383 117.692C42.9383 116.963 42.9383 116.197 42.9383 115.394C42.9383 114.555 42.9565 113.698 42.993 112.822C43.0294 111.91 43.0112 111.035 42.9383 110.196C42.9383 109.94 42.92 109.649 42.8835 109.32C42.8835 108.955 42.8653 108.591 42.8288 108.226C42.8288 107.861 42.7923 107.515 42.7194 107.186C42.6829 106.821 42.6099 106.53 42.5005 106.311C42.2087 105.8 41.6797 105.472 40.9137 105.326C40.1841 105.18 39.5639 105.235 39.0532 105.49C38.5425 105.745 38.1595 106.074 37.9041 106.475C37.6488 106.876 37.4664 107.314 37.3569 107.788C37.2475 108.262 37.1928 108.773 37.1928 109.32C37.1928 109.831 37.1928 110.323 37.1928 110.798C37.1928 113.169 37.1928 115.23 37.1928 116.981C37.2292 118.695 37.0469 120.082 36.6456 121.14C36.4632 121.687 36.0802 122.106 35.4965 122.398C34.9493 122.69 34.3474 122.836 33.6908 122.836C33.0706 122.836 32.4869 122.69 31.9398 122.398C31.3926 122.106 31.0278 121.65 30.8454 121.03C30.7359 120.629 30.6265 120.063 30.5171 119.334C30.4441 118.568 30.3894 117.729 30.3529 116.817C30.3164 115.905 30.2982 114.993 30.2982 114.081C30.2982 113.132 30.2982 112.275 30.2982 111.509V103.63C30.2617 102.79 30.2435 101.879 30.2435 100.894C30.2435 99.9086 30.3894 99.0149 30.6812 98.2124C30.9366 97.5192 31.3379 97.0815 31.885 96.8991C32.4322 96.6802 32.9977 96.589 33.5813 96.6255C34.238 96.6255 34.7487 96.8079 35.1135 97.1727C35.5147 97.501 35.8066 97.9205 35.989 98.4312C36.1714 98.9055 36.2808 99.4526 36.3173 100.073C36.3537 100.656 36.3902 101.222 36.4267 101.769C36.828 100.857 37.3022 100.109 37.8494 99.5256C38.4331 98.9055 39.2538 98.5042 40.3117 98.3218C43.0112 97.8111 45.1635 98.5042 46.7686 100.401C47.4982 99.6715 48.4284 99.0696 49.5592 98.5954C50.4347 98.2671 51.3285 98.1212 52.2405 98.1576C53.1524 98.1576 54.0097 98.3218 54.8122 98.6501C55.6513 98.9784 56.3991 99.4526 57.0557 100.073C57.7488 100.693 58.296 101.441 58.6973 102.316C59.2445 103.484 59.5545 104.779 59.6275 106.201C59.7005 107.624 59.7734 108.974 59.8464 110.251ZM88.3818 98.5954C88.7102 99.1061 88.8561 99.6533 88.8196 100.237C88.8196 101.076 88.6737 101.806 88.3818 102.426C88.3089 102.608 88.1994 102.845 88.0535 103.137C87.9441 103.429 87.8164 103.739 87.6705 104.067C87.5611 104.396 87.4334 104.706 87.2875 104.997C87.1416 105.289 87.0321 105.508 86.9592 105.654L86.8497 105.928C86.339 107.059 85.8465 108.153 85.3723 109.211C84.8981 110.269 84.3691 111.4 83.7855 112.603C83.2018 113.771 82.6364 114.92 82.0892 116.051C81.5785 117.145 81.0678 118.221 80.557 119.279C80.4111 119.571 80.2835 119.863 80.174 120.155C80.0646 120.41 79.9187 120.684 79.7363 120.975L77.1098 126.611C76.6355 127.56 76.1795 128.49 75.7418 129.402C75.3405 130.314 74.8845 131.226 74.3738 132.138C74.2644 132.32 74.1549 132.485 74.0455 132.631C73.9725 132.813 73.8996 132.995 73.8266 133.178C73.5713 133.615 73.1882 134.035 72.6775 134.436C72.2033 134.874 71.6926 135.111 71.1454 135.148C70.1605 135.221 69.3032 134.929 68.5736 134.272C68.1359 134.017 67.7893 133.652 67.534 133.178C67.388 132.849 67.3151 132.43 67.3151 131.919C67.3516 131.7 67.3698 131.481 67.3698 131.263C67.4063 131.08 67.4428 130.898 67.4792 130.715C67.5522 130.533 67.6069 130.351 67.6434 130.168C67.6799 129.986 67.7346 129.84 67.8076 129.73C67.917 129.439 68.0082 129.293 68.0811 129.293L72.0756 120.647C71.8932 120.246 71.7108 119.845 71.5284 119.443C71.346 119.006 71.1819 118.622 71.036 118.294C70.5617 117.163 70.051 115.978 69.5038 114.737C68.9931 113.461 68.4642 112.202 67.917 110.962C67.3698 109.685 66.8044 108.445 66.2207 107.241C65.637 106.037 65.0534 104.888 64.4697 103.794C64.2508 103.429 64.0502 103.046 63.8678 102.645C63.6854 102.207 63.5395 101.787 63.43 101.386C63.3206 100.948 63.2841 100.511 63.3206 100.073C63.3571 99.635 63.5212 99.1973 63.8131 98.7595C64.1049 98.2124 64.4879 97.8293 64.9622 97.6104C65.4364 97.3551 65.9289 97.2457 66.4396 97.2821C66.9868 97.2821 67.4975 97.3916 67.9717 97.6104C68.4459 97.8293 68.829 98.1212 69.1208 98.4859C69.741 99.1426 70.2334 99.8722 70.5982 100.675C70.963 101.477 71.3096 102.298 71.6379 103.137C72.331 104.596 73.0423 106.128 73.7719 107.733C74.5015 109.339 75.2311 110.907 75.9607 112.439L78.806 106.42C79.0979 105.837 79.3532 105.271 79.5721 104.724C79.8275 104.177 80.0828 103.648 80.3382 103.137C80.63 102.517 80.9036 101.879 81.159 101.222C81.4508 100.565 81.7791 99.9634 82.1439 99.4162C82.2169 99.2702 82.2898 99.1426 82.3628 99.0331C82.4357 98.9237 82.5087 98.796 82.5816 98.6501C82.91 98.2124 83.2018 97.8658 83.4571 97.6104C83.6395 97.4645 83.7855 97.3551 83.8949 97.2821C84.0408 97.1727 84.205 97.0997 84.3874 97.0633C84.6427 96.9903 84.8798 96.9538 85.0987 96.9538C85.3541 96.9173 85.5912 96.9173 85.8101 96.9538C86.1749 97.0633 86.6126 97.2274 87.1233 97.4463C87.6705 97.6652 88.09 98.0482 88.3818 98.5954Z" fill="#3D408A"/>
<path d="M134.613 121.404C136.263 122.485 137.657 123.766 138.795 125.245C139.99 126.667 140.928 128.431 141.611 130.537C142.351 132.869 142.721 135.231 142.721 137.621C142.778 139.953 142.351 142.144 141.441 144.192C140.587 146.184 139.193 147.948 137.258 149.484C135.381 150.963 132.906 152.016 129.833 152.642C128.183 153.04 126.248 153.353 124.029 153.581C121.81 153.808 119.819 153.922 118.055 153.922C115.836 153.979 113.531 153.979 111.142 153.922C108.809 153.922 106.533 153.695 104.314 153.239C103.347 152.955 102.635 152.471 102.18 151.788C101.782 151.049 101.497 150.224 101.327 149.313C101.099 148.801 100.985 148.289 100.985 147.777V99.299C100.985 97.7058 101.298 96.4825 101.924 95.629C102.607 94.7186 103.489 94.0642 104.57 93.6659C105.651 93.2108 106.874 92.9547 108.24 92.8978C109.605 92.784 111.028 92.7271 112.507 92.7271C113.645 92.7271 114.783 92.7271 115.921 92.7271C117.116 92.6702 118.311 92.6702 119.506 92.7271C121.384 92.784 123.318 92.9547 125.31 93.2392C127.358 93.4668 129.293 93.922 131.113 94.6048C131.967 94.8893 132.877 95.2876 133.844 95.7997C134.812 96.2549 135.58 96.8238 136.149 97.5066C137.97 99.1567 139.307 101.091 140.16 103.31C141.071 105.473 141.469 107.692 141.355 109.968C141.241 112.187 140.615 114.32 139.478 116.369C138.396 118.417 136.775 120.096 134.613 121.404ZM119.677 144.022C121.44 143.908 123.233 143.709 125.054 143.424C126.874 143.14 128.126 142.599 128.809 141.803C129.549 140.892 130.061 139.84 130.345 138.645C130.687 137.393 130.772 136.141 130.601 134.889C130.487 133.581 130.118 132.357 129.492 131.219C128.923 130.024 128.155 129.086 127.187 128.403C125.879 127.379 124.371 126.724 122.664 126.44C120.957 126.098 119.278 125.928 117.628 125.928C116.832 125.928 116.092 125.956 115.409 126.013C114.783 126.013 114.214 126.098 113.702 126.269C113.247 126.383 112.906 126.639 112.678 127.037C112.45 127.436 112.337 128.033 112.337 128.83C112.45 130.309 112.45 131.788 112.337 133.268C112.223 134.747 112.166 136.17 112.166 137.535C112.166 138.332 112.137 139.214 112.081 140.181C112.081 141.091 112.394 141.86 113.019 142.485C113.645 143.111 114.556 143.538 115.751 143.766C116.945 143.993 118.254 144.079 119.677 144.022ZM121.384 103.054C119.62 102.997 118.14 102.969 116.945 102.969C115.807 102.912 114.897 102.997 114.214 103.225C113.588 103.396 113.133 103.822 112.849 104.505C112.621 105.131 112.536 106.098 112.593 107.407C112.593 108.488 112.564 109.569 112.507 110.65C112.507 111.675 112.507 112.699 112.507 113.723C112.507 114.861 112.877 115.714 113.617 116.283C114.357 116.795 115.267 117.108 116.348 117.222C117.486 117.336 118.652 117.336 119.847 117.222C121.099 117.108 122.18 116.966 123.091 116.795C125.139 116.454 126.704 115.771 127.785 114.747C128.923 113.666 129.577 112.101 129.748 110.053C129.975 107.492 129.293 105.729 127.699 104.761C126.163 103.737 124.058 103.168 121.384 103.054ZM195.094 97.1652C195.436 99.8964 195.635 103.083 195.692 106.724C195.749 110.309 195.692 113.95 195.521 117.649C195.407 121.29 195.151 124.761 194.753 128.061C194.355 131.305 193.871 133.922 193.302 135.914C192.904 137.108 192.42 138.36 191.851 139.669C191.339 140.921 190.77 142.059 190.144 143.083C189.234 144.619 188.124 145.985 186.815 147.18C185.507 148.318 184.056 149.313 182.463 150.167C180.926 150.963 179.276 151.589 177.512 152.044C175.805 152.5 174.098 152.756 172.391 152.813C169.376 152.926 166.502 152.5 163.771 151.532C161.097 150.508 158.622 148.915 156.346 146.753C154.639 145.103 153.273 143.339 152.249 141.461C151.225 139.584 150.428 137.621 149.859 135.572C149.29 133.467 148.921 131.305 148.75 129.086C148.636 126.867 148.579 124.591 148.579 122.258C148.579 121.177 148.551 119.84 148.494 118.246C148.494 116.596 148.494 114.918 148.494 113.211C148.494 111.447 148.494 109.74 148.494 108.09C148.494 106.44 148.522 105.046 148.579 103.908C148.579 103.168 148.579 102.372 148.579 101.518C148.579 100.608 148.608 99.7257 148.664 98.8722C148.778 97.9618 148.949 97.1083 149.177 96.3118C149.404 95.4583 149.746 94.6901 150.201 94.0073C150.713 93.2676 151.424 92.7271 152.334 92.3857C153.245 92.0443 154.184 91.8736 155.151 91.8736C156.175 91.8736 157.142 92.0728 158.053 92.4711C158.963 92.8694 159.703 93.4383 160.272 94.178C160.556 94.6332 160.756 95.0884 160.869 95.5436C160.983 95.9988 161.069 96.5109 161.125 97.0799C161.239 98.9576 161.296 101.091 161.296 103.481C161.353 105.871 161.353 108.204 161.296 110.48C161.296 112.699 161.268 114.747 161.211 116.625C161.154 118.502 161.125 119.896 161.125 120.807C161.125 124.221 161.296 127.322 161.637 130.11C161.979 132.841 162.775 135.117 164.027 136.938C165.165 138.588 166.502 139.64 168.039 140.096C169.575 140.551 171.111 140.693 172.647 140.522C174.07 140.352 175.492 139.84 176.915 138.986C178.394 138.076 179.561 136.767 180.414 135.06C180.756 134.434 181.04 133.723 181.268 132.926C181.495 132.13 181.666 131.39 181.78 130.707C182.007 128.545 182.207 126.042 182.377 123.197C182.548 120.295 182.69 117.336 182.804 114.32C182.918 111.305 182.975 108.346 182.975 105.444C182.975 102.542 182.946 99.9248 182.889 97.592C183.003 96.5678 183.316 95.629 183.828 94.7755C184.283 94.0358 184.938 93.3814 185.791 92.8125C186.645 92.2435 187.811 91.959 189.29 91.959C190.485 92.0159 191.453 92.3288 192.192 92.8978C192.932 93.4099 193.529 93.9789 193.985 94.6048C194.497 95.3445 194.867 96.198 195.094 97.1652ZM246.798 128.061C247.082 128.858 247.281 129.768 247.395 130.793C247.566 131.76 247.651 132.756 247.651 133.78C247.651 134.804 247.566 135.828 247.395 136.852C247.281 137.82 247.11 138.673 246.883 139.413C245.972 142.599 244.152 145.273 241.421 147.436C238.689 149.541 235.56 151.077 232.032 152.044C228.561 153.012 224.948 153.353 221.193 153.069C217.494 152.784 214.194 151.845 211.292 150.252C209.472 149.228 207.907 147.976 206.598 146.497C205.29 145.017 204.18 143.367 203.27 141.547C202.928 140.921 202.701 140.209 202.587 139.413C202.53 138.559 202.615 137.763 202.843 137.023C203.071 136.227 203.44 135.544 203.952 134.975C204.465 134.349 205.176 133.922 206.086 133.694C206.655 133.581 207.281 133.524 207.964 133.524C208.704 133.524 209.415 133.638 210.098 133.865C210.78 134.036 211.406 134.349 211.975 134.804C212.544 135.202 212.999 135.771 213.341 136.511C213.967 137.706 214.849 138.815 215.987 139.84C217.182 140.807 218.433 141.603 219.742 142.229C221.62 142.855 223.497 143.111 225.375 142.997C227.31 142.884 229.045 142.457 230.581 141.717C232.174 140.978 233.455 139.982 234.422 138.73C235.389 137.421 235.873 135.942 235.873 134.292C235.873 132.926 235.674 131.817 235.275 130.963C234.877 130.053 234.308 129.313 233.568 128.744C232.886 128.118 232.032 127.606 231.008 127.208C230.041 126.81 228.96 126.468 227.765 126.184C226.399 125.899 225.005 125.7 223.583 125.586C222.217 125.473 220.823 125.33 219.401 125.16C217.978 124.989 216.584 124.761 215.218 124.477C213.853 124.192 212.516 123.766 211.207 123.197C208.59 122.116 206.598 120.465 205.233 118.246C203.867 116.027 203.042 113.638 202.758 111.077C202.53 108.517 202.843 105.985 203.696 103.481C204.55 100.921 205.915 98.73 207.793 96.9092C209.614 95.2591 211.776 94.0927 214.28 93.4099C216.84 92.6702 219.657 92.2435 222.729 92.1297C224.436 92.0728 226.143 92.1297 227.85 92.3004C229.614 92.4711 231.292 92.7556 232.886 93.1538C234.536 93.5521 236.044 94.0642 237.409 94.6901C238.832 95.316 240.055 96.0557 241.079 96.9092C241.819 97.4782 242.559 98.2463 243.298 99.2136C244.038 100.124 244.607 101.12 245.005 102.201C245.403 103.225 245.517 104.221 245.347 105.188C245.233 106.155 244.635 106.98 243.554 107.663C242.644 108.232 241.762 108.488 240.908 108.431C240.112 108.317 239.344 108.061 238.604 107.663C237.864 107.208 237.153 106.696 236.47 106.127C235.788 105.558 235.162 105.046 234.593 104.591C233.056 103.453 231.15 102.684 228.874 102.286C226.598 101.888 224.465 101.803 222.473 102.03C221.221 102.201 220.055 102.485 218.974 102.884C217.893 103.282 216.954 103.822 216.157 104.505C215.418 105.188 214.82 106.042 214.365 107.066C213.967 108.033 213.824 109.143 213.938 110.394C213.995 111.305 214.251 112.073 214.706 112.699C215.218 113.325 215.816 113.837 216.499 114.235C217.238 114.633 218.035 114.946 218.888 115.174C219.742 115.401 220.595 115.572 221.449 115.686C224.009 116.027 226.57 116.283 229.13 116.454C231.691 116.625 234.194 117.194 236.641 118.161C239.145 119.128 241.278 120.437 243.042 122.087C244.806 123.737 246.058 125.729 246.798 128.061Z" fill="#3D408A"/>
<path d="M195.942 53.5138C195.024 52.5618 194.173 51.5312 193.39 50.4221C192.648 49.2841 192.085 48.0505 191.7 46.7214C191.166 45.0057 191.035 43.2513 191.308 41.4582C191.581 39.665 192.157 37.9963 193.036 36.452C193.969 34.8086 195.067 33.356 196.33 32.0944C197.606 30.7626 199 29.6858 200.513 28.864C202.067 28.0131 203.704 27.4111 205.424 27.058C207.157 26.6348 208.982 26.5161 210.898 26.7019C212.954 26.9118 214.813 27.5387 216.473 28.5824C218.146 29.556 219.553 30.8087 220.697 32.3407C221.881 33.8436 222.798 35.5351 223.449 37.4151C224.111 39.225 224.475 41.0917 224.541 43.0153C224.541 43.0153 224.549 43.0709 224.566 43.182C224.535 44.6199 224.343 46.0481 223.991 47.4667C223.609 48.8442 223.332 50.2399 223.161 51.6536C222.925 53.2365 223.072 54.5789 223.604 55.6807C224.107 56.7415 224.697 57.9256 225.373 59.2328C226.062 60.47 226.465 61.6939 226.581 62.9046C226.709 64.0452 226.122 65.0446 224.82 65.9027C223.928 66.4707 223.082 66.6678 222.283 66.4939C221.495 66.25 220.752 65.8513 220.053 65.2981C219.367 64.6747 218.768 63.9583 218.258 63.1488C217.719 62.2982 217.273 61.5359 216.92 60.8617C216.152 59.25 215.646 57.5754 215.405 55.8379C215.134 54.0593 215.064 52.2614 215.197 50.4441C215.296 49.4509 215.438 48.5193 215.624 47.6493C215.781 46.7382 215.883 45.8356 215.928 44.9415C215.974 44.0473 215.929 43.1556 215.794 42.2663C215.658 41.377 215.348 40.4576 214.862 39.5079C214.434 38.6405 213.821 37.9035 213.024 37.2971C212.197 36.6496 211.32 36.1917 210.392 35.9237C209.435 35.6145 208.462 35.5011 207.474 35.5834C206.456 35.6246 205.522 35.9147 204.672 36.4538C203.903 36.9348 203.196 37.5886 202.548 38.4152C201.872 39.2007 201.358 40.0864 201.008 41.0724C200.629 42.0174 200.445 42.978 200.457 43.9543C200.511 44.9016 200.848 45.7715 201.469 46.564C201.858 47.0279 202.303 47.4834 202.803 47.9304C203.316 48.3073 203.766 48.7277 204.156 49.1916C204.557 49.5855 204.855 50.0518 205.051 50.5907C205.288 51.1006 205.326 51.7204 205.164 52.4502C204.917 53.6706 204.425 54.5419 203.685 55.064C202.917 55.545 202.065 55.7771 201.13 55.7604C200.195 55.7436 199.254 55.5456 198.31 55.1663C197.377 54.717 196.588 54.1661 195.942 53.5138ZM235.398 71.7298C236.239 72.921 236.542 74.3081 236.305 75.891C236.08 77.4038 235.393 78.5663 234.243 79.3784C233.134 80.1616 231.829 80.4059 230.328 80.1113C228.77 79.7345 227.584 78.9711 226.772 77.8209C225.873 76.5475 225.55 75.175 225.803 73.7032C225.999 72.1493 226.651 70.9808 227.76 70.1977C228.91 69.3855 230.25 69.1473 231.78 69.4829C233.322 69.7485 234.528 70.4975 235.398 71.7298Z" fill="#3D408A"/>
</svg>
