<svg width="92" height="89" viewBox="0 0 92 89" fill="none" xmlns="http://www.w3.org/2000/svg">
<path d="M72.5828 73.3584V79.2897C72.5832 79.6478 72.5126 80.0026 72.3757 80.3334C72.2387 80.6643 72.0382 80.9647 71.7849 81.2178C71.5315 81.4709 71.2304 81.6713 70.8995 81.8079C70.5685 81.9445 70.2138 82.0148 69.8558 82.014H64.4021C64.044 82.0148 63.6894 81.9445 63.3584 81.8079C63.0274 81.6713 62.7266 81.4709 62.4733 81.2178C62.22 80.9647 62.0191 80.6643 61.8821 80.3334C61.7452 80.0026 61.675 79.6478 61.6754 79.2897V73.3584M30.3246 73.3584V79.2897C30.3249 79.6478 30.2548 80.0026 30.1178 80.3334C29.9809 80.6643 29.78 80.9647 29.5266 81.2178C29.2733 81.4709 28.9726 81.6713 28.6416 81.8079C28.3106 81.9445 27.9556 82.0148 27.5976 82.014H22.1438C21.7858 82.0148 21.4311 81.9445 21.1002 81.8079C20.7692 81.6713 20.4684 81.4709 20.2151 81.2178C19.9618 80.9647 19.7609 80.6643 19.6239 80.3334C19.487 80.0026 19.4168 79.6478 19.4172 79.2897V73.3584" fill="#2B4255"/>
<path d="M78.0338 73.6835H13.9635V13.9476C13.9627 13.0336 14.1423 12.1286 14.4922 11.2843C14.8422 10.4399 15.3553 9.67294 16.0024 9.02742C16.6494 8.38191 17.4178 7.8703 18.263 7.52239C19.1082 7.17448 20.0136 6.99711 20.9276 7.00004H71.0693C71.9833 6.99711 72.8888 7.17448 73.7339 7.52239C74.5791 7.8703 75.3475 8.38191 75.9945 9.02742C76.6416 9.67294 77.1547 10.4399 77.5047 11.2843C77.8546 12.1286 78.0345 13.0336 78.0338 13.9476V73.6835Z" fill="#F8B84E"/>
<path d="M11.2893 59.8158H80.7106V68.1464H11.2893V59.8158Z" fill="#34485C"/>
<path d="M15.5989 21.1647H45.5889V48.9332H15.5989V21.1647ZM46.5553 21.1647H75.8566V48.9332H46.5553V21.1647Z" fill="#4BBFEB"/>
<path fill-rule="evenodd" clip-rule="evenodd" d="M13.9634 19.246V22.0229H78.0087V19.246H13.9634ZM13.9634 47.8698V50.6466H78.0809V47.8698H13.9634Z" fill="#34485C"/>
<path fill-rule="evenodd" clip-rule="evenodd" d="M18.5813 53.3235V56.1003H26.9118V53.3235H18.5813ZM64.9325 53.3235V56.1003H73.2631V53.3235H64.9325Z" fill="#F05542"/>
<path fill-rule="evenodd" clip-rule="evenodd" d="M44.6115 20.3843V48.986H47.3884V20.3843H44.6115Z" fill="#34485C"/>
<path fill-rule="evenodd" clip-rule="evenodd" d="M7.12402 24.7136V36.3292H9.90088V27.4905H14.0662V24.7136H7.12402ZM77.9338 24.7136V27.4905H82.0991V36.3292H84.8759V24.7136H77.9338Z" fill="#576D7E"/>
<path fill-rule="evenodd" clip-rule="evenodd" d="M13.9634 20.3843V48.986H16.7403V20.3843H13.9634ZM75.3041 20.3843V48.986H78.0809V20.3843H75.3041Z" fill="#34485C"/>
</svg>
