<?xml version="1.0" encoding="UTF-8"?>
<svg version="1.1" xmlns="http://www.w3.org/2000/svg" width="512" height="512">
<path d="M0 0 C0.78052734 0.59280762 1.56105469 1.18561523 2.36523438 1.79638672 C5.88398803 4.4694693 9.39954658 7.14660715 12.90795898 9.83325195 C18.72620262 14.28660028 24.58816792 18.67181631 30.5 23 C38.12752689 28.5864476 45.65644967 34.29276646 53.1640625 40.0390625 C58.89902727 44.42064326 64.67759563 48.73542958 70.5 53 C78.12740017 58.5866242 85.65644565 64.29276338 93.1640625 70.0390625 C98.89902727 74.42064326 104.67759563 78.73542958 110.5 83 C117.22497935 87.92565377 123.88023485 92.9338594 130.5 98 C137.48502495 103.34053493 144.49562652 108.64311067 151.5625 113.875 C152.35398438 114.46410156 153.14546875 115.05320313 153.9609375 115.66015625 C154.69699219 116.20285156 155.43304688 116.74554688 156.19140625 117.3046875 C157.15348999 118.0160083 157.15348999 118.0160083 158.13500977 118.74169922 C160.02517473 120.01698528 161.93992145 121.02776396 164 122 C164.44577393 121.64921387 164.89154785 121.29842773 165.35083008 120.93701172 C174.68563006 113.60362896 184.09761387 106.40236951 193.67895508 99.39404297 C199.67440188 94.99994023 205.59806662 90.51876093 211.5 86 C218.88632009 80.34634038 226.33194732 74.78529611 233.8359375 69.2890625 C239.77671433 64.92722968 245.6475326 60.47945452 251.5 56 C258.11947282 50.93348268 264.77509458 45.92573836 271.5 41 C279.1928379 35.36401458 286.79332005 29.61488382 294.37060547 23.82470703 C301.52278053 18.35945329 308.70052256 12.93144957 315.92089844 7.55664062 C318.21924505 5.83584941 320.50388102 4.09760544 322.7890625 2.359375 C338.63535646 -9.61664035 353.25166052 -18.79519756 373.9375 -16.375 C388.79190313 -13.91007721 401.22475256 -6.67819945 410.28125 5.421875 C417.53213216 16.29819824 419.30065839 26.0210621 419.26742554 38.89805603 C419.27195665 40.18894388 419.27648776 41.47983173 419.28115618 42.8098374 C419.29334545 46.37731037 419.29313056 49.94468928 419.29076743 53.5121783 C419.29035824 57.36570282 419.30140798 61.21919758 419.31088257 65.07270813 C419.32747004 72.61586004 419.33299105 80.15898069 419.33410732 87.70214932 C419.33505866 93.83413253 419.33917319 99.96610545 419.34550858 106.0980854 C419.36311311 123.49189345 419.37234842 140.88567684 419.37084763 158.27949386 C419.37072776 159.68499816 419.37072776 159.68499816 419.37060547 161.11889648 C419.37052371 162.05704595 419.37044195 162.99519541 419.37035771 163.96177364 C419.36954453 179.17096424 419.38869215 194.38005587 419.4168822 209.58921783 C419.44561407 225.21420308 419.4594224 240.83914006 419.45769465 256.4641524 C419.45703096 265.23315746 419.46251429 274.00205871 419.48405075 282.77103996 C419.5022663 290.23548848 419.50660667 297.69978608 419.4930319 305.16424721 C419.48650474 308.97099936 419.48637582 312.777462 419.5037384 316.58418655 C419.52238367 320.71466326 419.50990861 324.84447049 419.49447632 328.97496033 C419.50476344 330.17282746 419.51505057 331.37069459 419.52564943 332.60486072 C419.43818346 343.19613871 416.16051731 351.17952717 409 359 C383.27179976 382.59307989 320.42672248 369 302 369 C301.505 271.98 301.505 271.98 301 173 C286.17037476 183.89989939 286.17037476 183.89989939 271.5 195 C264.11503204 200.65540297 256.66801745 206.2147297 249.1640625 211.7109375 C243.22328567 216.07277032 237.3524674 220.52054548 231.5 225 C224.88052718 230.06651732 218.22490542 235.07426164 211.5 240 C204.71537512 244.97060349 197.99682474 250.02033135 191.3125 255.125 C190.43722656 255.79072021 189.56195313 256.45644043 188.66015625 257.14233398 C184.51128235 260.30095926 180.38220318 263.47930086 176.29296875 266.71484375 C175.56489014 267.28251465 174.83681152 267.85018555 174.08666992 268.43505859 C172.73470085 269.48949007 171.39171704 270.55558655 170.05981445 271.63525391 C165.64674591 275.04878892 165.64674591 275.04878892 162.57275391 274.81689453 C159.70698319 273.90696202 157.94567476 272.74957432 155.5859375 270.89453125 C154.75255859 270.24806641 153.91917969 269.60160156 153.06054688 268.93554688 C152.17431641 268.23494141 151.28808594 267.53433594 150.375 266.8125 C148.47760466 265.33850126 146.57914612 263.86587021 144.6796875 262.39453125 C143.72545898 261.65283691 142.77123047 260.91114258 141.78808594 260.14697266 C137.7408982 257.03042546 133.62586311 254.0111547 129.5 251 C121.87157013 245.41481401 114.34352069 239.70721085 106.8359375 233.9609375 C101.10097273 229.57935674 95.32240437 225.26457042 89.5 221 C82.77502589 216.07435006 76.11959196 211.0663611 69.5 206 C59.7546918 198.54427379 49.90081995 191.2474002 40 184 C35.05 180.37 30.1 176.74 25 173 C24.67 237.68 24.34 302.36 24 369 C-72.10559422 369 -72.10559422 369 -84.17578125 357.92578125 C-92.2230559 349.43047846 -93.29653634 340.67826986 -93.26742554 329.36936951 C-93.27195665 328.08301277 -93.27648776 326.79665603 -93.28115618 325.47131878 C-93.29337626 321.90704964 -93.29312688 318.34287443 -93.29076743 314.77858913 C-93.290359 310.93176956 -93.30140115 307.08498 -93.31088257 303.23817444 C-93.32748954 295.70276412 -93.33299203 288.16738509 -93.33410732 280.631958 C-93.33505821 274.5037752 -93.33917057 268.37560271 -93.34550858 262.24742317 C-93.36312238 244.86206147 -93.37234756 227.47672445 -93.37084763 210.09135377 C-93.37076772 209.15427099 -93.3706878 208.21718821 -93.37060547 207.25170898 C-93.37052371 206.31347776 -93.37044195 205.37524654 -93.37035771 204.40858407 C-93.36954541 189.21490151 -93.3886686 174.02131823 -93.4168822 158.82766437 C-93.44564194 143.21628326 -93.45942071 127.60495051 -93.45769465 111.99354225 C-93.45703168 103.23332246 -93.4624829 94.47320667 -93.48405075 85.71301079 C-93.50230353 78.25155596 -93.50657659 70.79025224 -93.4930319 63.3287847 C-93.48652202 59.52560127 -93.48631261 55.72270736 -93.5037384 51.91955185 C-93.52248221 47.78598979 -93.50986266 43.65309192 -93.49447632 39.51951599 C-93.50476344 38.33193599 -93.51505057 37.14435598 -93.52564943 35.92078871 C-93.40031816 20.61905969 -88.07454968 9.17026101 -78.12890625 -2.125 C-54.49007852 -24.89961253 -23.44041148 -17.89766245 0 0 Z " fill="#FE4130" transform="translate(93,80)"/>
<path d="M0 0 C1.41472919 0.9324949 2.8280194 1.86717309 4.24072266 2.80273438 C5.42149887 3.58312073 5.42149887 3.58312073 6.62612915 4.37927246 C10.34358753 6.91731583 13.85100822 9.70272404 17.375 12.5 C23.61102729 17.4009923 29.90990029 22.19375935 36.3125 26.875 C43.10162903 31.84053902 49.82147972 36.88665246 56.5 42 C63.11938645 47.06663093 69.7751389 52.07420459 76.5 57 C112.04717726 83.04717726 112.04717726 83.04717726 117 88 C117.0977625 90.5545717 117.12995146 93.08208461 117.12025452 95.63710022 C117.12110894 96.44649801 117.12196337 97.2558958 117.12284368 98.0898208 C117.12450096 100.82300472 117.11897309 103.55612831 117.11352539 106.28930664 C117.11324355 108.24016824 117.1134012 110.19102994 117.1139679 112.14189148 C117.11425598 117.45572159 117.10835754 122.76952934 117.10139394 128.08335423 C117.09516216 133.63006685 117.09455674 139.17677991 117.09336853 144.72349548 C117.09025469 155.23492625 117.0820406 165.74634666 117.07201904 176.25777286 C117.06085953 188.22129135 117.05534786 200.18481032 117.05032361 212.14833272 C117.03985803 236.76556089 117.02225758 261.38277987 117 286 C106.36814071 286.04650216 95.73630593 286.08195963 85.10436535 286.10362434 C80.16662673 286.11402644 75.22895811 286.12811981 70.29125977 286.15087891 C65.519085 286.17273543 60.74697723 286.18459546 55.97475624 286.18975449 C54.16125752 286.19342737 52.34776214 286.2005991 50.53429222 286.21146011 C34.73641913 286.30224414 21.03680219 286.1306466 8.82421875 274.92578125 C1.403961 267.09240423 -0.302243 258.93967885 -0.24050903 248.4458313 C-0.24221788 247.38306469 -0.24392673 246.32029808 -0.24568737 245.22532642 C-0.24898128 241.66463467 -0.23797999 238.10413142 -0.22705078 234.54345703 C-0.22648665 231.99088038 -0.22680327 229.4383034 -0.22793579 226.88572693 C-0.22839121 221.39041878 -0.22271881 215.89517131 -0.21146011 210.39987564 C-0.19519265 202.45465465 -0.18999583 194.50945661 -0.18748413 186.56422077 C-0.18310898 173.67300915 -0.16980477 160.78182287 -0.15087891 147.890625 C-0.13251544 135.36946743 -0.11836122 122.84831675 -0.10986328 110.32714844 C-0.10933783 109.55509292 -0.10881239 108.78303741 -0.10827102 107.98758627 C-0.10566091 104.11433567 -0.1031335 100.24108502 -0.10064721 96.36783433 C-0.07992033 64.24520447 -0.0446997 32.12260576 0 0 Z " fill="#0084F6" transform="translate(0,163)"/>
<path d="M0 0 C0.0915923 32.84185153 0.16205737 65.68366989 0.20426132 98.52562004 C0.20926403 102.40453141 0.21444133 106.28344252 0.21972656 110.16235352 C0.2207758 110.93456195 0.22182505 111.70677038 0.22290608 112.50237907 C0.24030258 124.99936703 0.27183609 137.49628126 0.30861118 149.99322551 C0.34604166 162.82003512 0.3682403 175.64680617 0.37635398 188.47366816 C0.3818374 196.38602664 0.39914469 204.29817668 0.43166587 212.21047098 C0.45534598 218.2817087 0.45781453 224.3527678 0.45243073 230.42405701 C0.45353065 232.91169072 0.46148036 235.39933237 0.4768219 237.88691902 C0.49675907 241.28659081 0.49192467 244.68537489 0.48101807 248.08506775 C0.49266943 249.06660778 0.5043208 250.04814782 0.51632524 251.05943149 C0.43114797 260.90012728 -3.38910775 268.77980893 -10 276 C-19.53696285 284.74551365 -30.00761229 286.17375412 -42.52734375 286.11352539 C-43.33805832 286.11367142 -44.14877289 286.11381744 -44.98405457 286.1139679 C-47.63523129 286.11327718 -50.28633571 286.10552458 -52.9375 286.09765625 C-54.78694622 286.09578908 -56.63639295 286.09436659 -58.48583984 286.09336853 C-63.33222847 286.08956692 -68.17858669 286.07975694 -73.02496338 286.06866455 C-77.97887765 286.05839958 -82.93279688 286.05386005 -87.88671875 286.04882812 C-97.59115912 286.03813239 -107.29557702 286.02108452 -117 286 C-117.18686977 260.30504774 -117.32794968 234.61019729 -117.41449738 208.91470242 C-117.45575095 196.98383814 -117.51199539 185.05339604 -117.60351562 173.12280273 C-117.6832455 162.72424717 -117.73486397 152.32599732 -117.75270796 141.92714459 C-117.76313908 136.42067912 -117.78765752 130.91508829 -117.84584045 125.40890312 C-117.90017 120.22535642 -117.91688705 115.04304396 -117.90486145 109.85923958 C-117.90706113 107.95768143 -117.9229597 106.05608174 -117.9536438 104.1547699 C-118.17381989 89.80716504 -118.17381989 89.80716504 -115.30557251 85.39132881 C-113.28068951 83.58039726 -111.37091259 82.30927662 -109 81 C-107.58871491 79.95420541 -106.18753247 78.89452172 -104.80078125 77.81640625 C-103.30695226 76.72865377 -101.81075483 75.64414826 -100.3125 74.5625 C-93.30999333 69.45719695 -86.37894956 64.27056895 -79.5 59 C-72.11389609 53.34606249 -64.66804683 47.78529183 -57.1640625 42.2890625 C-50.33066631 37.27185134 -43.59353084 32.1338017 -36.86230469 26.98071289 C-30.12581183 21.83321626 -23.32603954 16.77804821 -16.47851562 11.77929688 C-11.82945772 8.37886688 -7.26916844 4.88776545 -2.75878906 1.30493164 C-1 0 -1 0 0 0 Z " fill="#00A94A" transform="translate(512,163)"/>
<path d="M0 0 C1.81747174 1.367502 3.63519737 2.73466661 5.453125 4.1015625 C9.17632182 6.91304653 12.89743378 9.72713507 16.60546875 12.55859375 C17.38043701 13.14954834 18.15540527 13.74050293 18.95385742 14.34936523 C19.62908447 14.89407471 20.30431152 15.43878418 21 16 C21.53054395 16.40415288 22.06108789 16.80830576 22.60770893 17.2247057 C24.64496266 19.82238446 24.3528743 21.78267867 24.32279968 25.05534363 C24.31636444 26.95471428 24.31636444 26.95471428 24.30979919 28.89245605 C24.28973835 30.29834385 24.26938866 31.70422756 24.2487793 33.11010742 C24.23807259 34.58835482 24.22869528 36.06661236 24.22055054 37.5448761 C24.19464225 41.56130096 24.15009011 45.57733017 24.10225272 49.59354568 C24.05542416 53.78951699 24.0256545 57.98560798 23.99409485 62.18171692 C23.93171894 70.12910084 23.85394552 78.07625693 23.77067453 86.02344638 C23.67662726 95.07040528 23.59969247 104.11748418 23.52421319 113.16461408 C23.36855087 131.77660758 23.19133955 150.38834082 23 169 C19.67167116 167.71434865 17.02980129 166.4706821 14.2421875 164.234375 C13.54440186 163.68152832 12.84661621 163.12868164 12.12768555 162.55908203 C11.38429932 161.96208496 10.64091309 161.36508789 9.875 160.75 C3.56075188 155.7566191 -2.81092822 150.87200628 -9.3125 146.125 C-16.10198226 141.15995481 -22.82149141 136.1133386 -29.5 131 C-36.11938426 125.93337075 -42.7750738 120.92570424 -49.5 116 C-58.15022844 109.663173 -66.68162788 103.1776562 -75.19921875 96.6640625 C-80.11175779 92.90838146 -85.05529434 89.19612978 -90.015625 85.50390625 C-92 84 -92 84 -93 83 C-93.11458965 81.28960243 -93.15962659 79.5744953 -93.17700195 77.86035156 C-93.18983719 76.76120422 -93.20267242 75.66205688 -93.21589661 74.52960205 C-93.22328354 73.32873962 -93.23067047 72.1278772 -93.23828125 70.890625 C-93.246353 69.65769714 -93.25442474 68.42476929 -93.26274109 67.15447998 C-93.27661186 64.53154924 -93.28732052 61.90860022 -93.29516602 59.28564453 C-93.30826687 55.30863412 -93.35609416 51.33225213 -93.40039062 47.35546875 C-93.41052867 44.80469361 -93.41904127 42.25391139 -93.42578125 39.703125 C-93.44328934 38.52655334 -93.46079742 37.34998169 -93.47883606 36.13775635 C-93.439179 20.72570035 -88.14489937 9.25015711 -78.12890625 -2.125 C-54.46599633 -24.92281429 -23.46878064 -17.86128969 0 0 Z " fill="#E41C19" transform="translate(93,80)"/>
<path d="M0 0 C14.9340122 15.57112876 15.53495749 31.94058227 15.75512695 52.4621582 C15.79335614 55.11103435 15.85486237 57.7596774 15.93969727 60.4074707 C16.06168278 64.25061111 16.11080113 68.08878373 16.14453125 71.93359375 C16.19503128 73.10885117 16.24553131 74.28410858 16.29756165 75.49497986 C16.27164279 80.63162321 16.10410336 83.74501314 12.63140869 87.692276 C9.84604855 89.99248013 7.01899241 92.02011098 4 94 C2.49623054 95.11777819 0.99744737 96.24235945 -0.4921875 97.37890625 C-1.95130799 98.44260113 -3.4122932 99.50374213 -4.875 100.5625 C-11.81315846 105.6281916 -18.68003931 110.776321 -25.5 116 C-32.88620191 121.65381168 -40.33195048 127.21470621 -47.8359375 132.7109375 C-53.77671841 137.07277332 -59.64739558 141.52071939 -65.5 146 C-72.43772693 151.30710039 -79.40761203 156.56545762 -86.4375 161.75 C-87.21222656 162.32234375 -87.98695313 162.8946875 -88.78515625 163.484375 C-89.51476562 164.020625 -90.244375 164.556875 -90.99609375 165.109375 C-91.62700928 165.57311523 -92.2579248 166.03685547 -92.90795898 166.51464844 C-95.5665748 168.40226877 -98.28469868 170.19516121 -101 172 C-101.50534531 152.39026869 -101.91751361 132.78066099 -102.22014618 113.16672897 C-102.3628313 104.05852652 -102.53546614 94.9527696 -102.77978516 85.84667969 C-102.99277128 77.90552772 -103.14836949 69.96562665 -103.23638296 62.02207112 C-103.284928 57.81856927 -103.3612723 53.6199066 -103.50648499 49.41854095 C-104.43190354 21.79535329 -104.43190354 21.79535329 -98.53118896 15.34909058 C-95.26389763 12.58111822 -91.81226522 10.6220786 -87.90662766 8.89569855 C-85.20404279 7.62607397 -83.00425103 5.86082638 -80.703125 3.9765625 C-60.30001105 -11.44716752 -60.30001105 -11.44716752 -48 -14 C-47.38640625 -14.13277344 -46.7728125 -14.26554687 -46.140625 -14.40234375 C-29.36082331 -17.20949103 -12.52968845 -11.00684939 0 0 Z " fill="#FEBC00" transform="translate(497,78)"/>
</svg>
