<?xml version="1.0" encoding="UTF-8"?>
<svg version="1.1" xmlns="http://www.w3.org/2000/svg" width="512" height="512">
<path d="M0 0 C4.27471499 4.14932335 6.78796392 8.2891478 7.25645167 14.27869934 C7.26100427 16.16458844 7.26100427 16.16458844 7.26564884 18.08857632 C7.27225614 19.14701636 7.27225614 19.14701636 7.27899691 20.22683904 C7.29133314 22.59729122 7.28944261 24.96751692 7.28761292 27.33799744 C7.29349668 29.05237982 7.30023574 30.76675945 7.30775779 32.48113543 C7.32584283 37.19727483 7.33135328 41.91335834 7.33474457 46.62952816 C7.34049985 51.71430111 7.35762554 56.79903812 7.37309265 61.88378906 C7.40785603 74.16663181 7.42343344 86.44947161 7.43721595 98.73235282 C7.44417746 104.51795194 7.4533343 110.30354749 7.46232414 116.08914375 C7.4915306 135.32456767 7.51632256 154.55998809 7.52694798 173.79543209 C7.52798402 175.64237672 7.52798402 175.64237672 7.52904099 177.52663336 C7.529733 178.76086974 7.53042502 179.99510612 7.531138 181.2667436 C7.53254999 183.7677542 7.5339708 186.2687648 7.53540039 188.76977539 C7.53645815 190.63065515 7.53645815 190.63065515 7.53753727 192.52912844 C7.54978156 212.62063923 7.59256233 232.7119611 7.64834059 252.80339354 C7.70515397 273.43539131 7.73560062 294.06729365 7.73996013 314.69937044 C7.74304004 326.28166152 7.75750441 337.86369028 7.80124092 349.44590569 C7.83838904 359.31114481 7.85149845 369.1760506 7.83353604 379.04134964 C7.82509703 384.07211233 7.82784337 389.10219477 7.86135483 394.13286781 C7.89180966 398.74566264 7.88946261 403.35727715 7.86186682 407.97007925 C7.85754705 409.63168841 7.86487119 411.29338114 7.88553984 412.95486736 C8.03022809 425.37009355 6.017849 435.19305142 -2.49861234 444.82624668 C-11.02031763 453.29221445 -21.73484854 455.64950934 -33.16015625 458.1875 C-34.4715657 458.48550297 -35.78280424 458.78425892 -37.09388733 459.08369446 C-41.4141935 460.06733138 -45.73808826 461.03459792 -50.0625 462 C-51.57591935 462.33827452 -53.08932663 462.67660309 -54.60272217 463.01498413 C-55.36526432 463.185468 -56.12780647 463.35595186 -56.91345596 463.53160191 C-60.10539493 464.24554543 -63.29713624 464.96036817 -66.48875427 465.67574501 C-68.14992897 466.04790161 -69.8112159 466.4195576 -71.47261047 466.79073143 C-83.50418479 469.48121414 -95.49725727 472.30691663 -107.4752655 475.22634888 C-114.42036285 476.91797177 -121.37458426 478.57062196 -128.33108616 480.21464729 C-133.17497854 481.36187298 -138.01243124 482.52818426 -142.84011841 483.74194336 C-147.43452125 484.89658957 -152.03910794 485.99636946 -156.65521049 487.060812 C-158.33766988 487.4583606 -160.01596191 487.87418235 -161.68843269 488.31185341 C-176.21711437 492.09505393 -188.35498827 489.86765492 -202.87913132 486.82522392 C-209.66182667 485.43765875 -216.50119799 484.3647829 -223.33355212 483.25424278 C-225.87218405 482.84108704 -228.41001991 482.42333489 -230.94767189 482.00420475 C-236.32391863 481.11650225 -241.70095465 480.23365082 -247.078125 479.3515625 C-248.0041323 479.19958641 -248.9301396 479.04761031 -249.88420773 478.89102888 C-258.64350929 477.45351244 -267.40304272 476.0174186 -276.16322708 474.58529091 C-287.27276943 472.76901464 -298.38098913 470.94504521 -309.48759007 469.11086524 C-317.36124651 467.81122157 -325.23628157 466.52016288 -333.11239314 465.23548257 C-337.79463007 464.47152781 -342.4761866 463.70386818 -347.15628815 462.92692947 C-351.53806598 462.19970046 -355.92145577 461.48313299 -360.30630493 460.77466583 C-361.90972069 460.51371658 -363.51252068 460.24894957 -365.11461639 459.9800148 C-367.30705541 459.61258608 -369.50133304 459.25919997 -371.69659424 458.90908813 C-372.92124012 458.70817881 -374.145886 458.50726948 -375.40764236 458.30027199 C-380.83344572 457.846749 -385.95633955 458.60481974 -391.23556519 459.94873047 C-392.34105209 460.22629181 -392.34105209 460.22629181 -393.46887207 460.50946045 C-394.2472644 460.71001038 -395.02565674 460.9105603 -395.82763672 461.1171875 C-396.67105621 461.33030579 -397.51447571 461.54342407 -398.38345337 461.76300049 C-400.20197247 462.22307982 -402.01994975 462.68530515 -403.83742905 463.1494751 C-406.72122946 463.88560415 -409.60659481 464.6152807 -412.49246216 465.34326172 C-420.69306108 467.41320606 -428.89060286 469.49514531 -437.08740234 471.58007812 C-442.11366657 472.85808473 -447.14166393 474.12908057 -452.17071915 475.39605713 C-454.07784521 475.87809638 -455.98428134 476.36287436 -457.88998032 476.8505249 C-460.56290628 477.5344782 -463.23794539 478.20952264 -465.91357422 478.8828125 C-466.68791809 479.08336243 -467.46226196 479.28391235 -468.2600708 479.49053955 C-476.64394679 481.57954482 -485.76425636 483.48093481 -494 480 C-499.62287547 476.3529951 -502.90360779 472.40983111 -505 466 C-505.37719816 462.47471303 -505.37719816 462.47471303 -505.38031673 458.66977215 C-505.38730661 457.60860555 -505.38730661 457.60860555 -505.3944377 456.52600124 C-505.40636499 454.16132365 -505.39700133 451.79722304 -505.38768005 449.43254089 C-505.39185398 447.71770593 -505.39733182 446.00287373 -505.40399987 444.28804666 C-505.41846569 439.58005848 -505.41420616 434.87224519 -505.40683305 430.16424739 C-505.40210646 425.085042 -505.4146068 420.00587473 -505.42485046 414.92668152 C-505.4420543 404.97736608 -505.44287511 395.02811375 -505.43763756 385.07878729 C-505.43359725 376.9916949 -505.43503777 368.90462117 -505.44038582 360.81752968 C-505.44113424 359.66681506 -505.44188266 358.51610044 -505.44265376 357.33051569 C-505.44418523 354.99287173 -505.44572358 352.65522778 -505.44726873 350.31758384 C-505.46099974 328.3906512 -505.45555207 306.46375424 -505.44408352 284.53682242 C-505.43415254 264.478356 -505.44708844 244.41998185 -505.47101771 224.36152967 C-505.49540298 203.76564415 -505.50501786 183.16980162 -505.49836498 162.57390195 C-505.49487124 151.01085656 -505.49711503 139.44788212 -505.51461601 127.88484764 C-505.52933089 118.04045341 -505.52998282 108.19618008 -505.5125451 98.35178825 C-505.50402653 93.32978921 -505.50190655 88.3080062 -505.51719666 83.28601837 C-505.53102821 78.68609827 -505.52630021 74.0865796 -505.50695742 69.48668281 C-505.50319238 67.82521889 -505.50613391 66.16372294 -505.51656907 64.50228753 C-505.59031502 51.85881485 -503.93898736 41.57606441 -495 32 C-484.05393596 21.72624699 -469.98025468 19.28967791 -455.8359375 15.83203125 C-453.87387013 15.34739525 -451.91192755 14.86225377 -449.95010376 14.37663269 C-445.85455424 13.36448029 -441.75783753 12.35724607 -437.66015625 11.35375977 C-432.42187684 10.07070994 -427.18625273 8.77719143 -421.95140648 7.48021412 C-417.90642764 6.47893557 -413.86031768 5.48229429 -409.81383133 4.4871273 C-407.88312724 4.01190313 -405.95272026 3.53547007 -404.02262497 3.05777931 C-401.32265741 2.39048189 -398.62127909 1.7292268 -395.91943359 1.06958008 C-395.13169052 0.87374329 -394.34394745 0.67790649 -393.53233337 0.47613525 C-392.78692795 0.29542984 -392.04152252 0.11472443 -391.27352905 -0.07145691 C-390.63757498 -0.22757541 -390.0016209 -0.3836939 -389.34639549 -0.54454327 C-382.68392637 -1.8377892 -377.27318708 -2.05622888 -370.6239624 -0.91213989 C-369.819573 -0.78302621 -369.01518361 -0.65391252 -368.18641877 -0.5208863 C-365.51012119 -0.08852513 -362.83674833 0.3597596 -360.16308594 0.80810547 C-358.23754262 1.12256248 -356.31183813 1.43603398 -354.38598633 1.74859619 C-349.16978298 2.5980812 -343.95596081 3.461434 -338.74247265 4.32740545 C-333.2843753 5.23167023 -327.82423674 6.12343828 -322.36431885 7.01663208 C-313.20031538 8.51756008 -304.03768512 10.02663332 -294.87597656 11.54150391 C-281.95035877 13.67871494 -269.02234923 15.80116463 -256.093822 17.92069411 C-246.05687563 19.5666999 -236.02056206 21.21655915 -225.984375 22.8671875 C-224.90720561 23.04431699 -223.83003622 23.22144649 -222.72022533 23.40394354 C-216.53335866 24.42158388 -210.34682189 25.44119133 -204.1607666 26.46375275 C-202.28551686 26.77350993 -200.41017528 27.08271171 -198.53473663 27.39132309 C-195.97892875 27.81203082 -193.42347243 28.23481095 -190.86810303 28.65817261 C-190.12258548 28.78045223 -189.37706794 28.90273185 -188.60895896 29.02871692 C-183.30225509 29.91146812 -183.30225509 29.91146812 -180.81696606 30.63942051 C-178.34811165 31.12936817 -176.50939923 30.67037867 -174.06044006 30.11109924 C-172.5673658 29.77710869 -172.5673658 29.77710869 -171.04412842 29.43637085 C-169.95714661 29.18352325 -168.87016479 28.93067566 -167.75024414 28.67016602 C-166.59965012 28.41006241 -165.44905609 28.1499588 -164.26359558 27.88197327 C-161.09876784 27.16473185 -157.93590269 26.43947577 -154.77368474 25.71083188 C-151.42662018 24.94174077 -148.0771401 24.18331859 -144.72789001 23.42381287 C-138.34247333 21.97417869 -131.95912533 20.51564583 -125.57653087 19.05364126 C-117.76406479 17.26439141 -109.9495306 15.48425592 -102.13476562 13.70507812 C-100.74305875 13.38813133 -99.35135228 13.07118277 -97.95964622 12.75423241 C-87.2225887 10.30936949 -76.48407521 7.87093927 -65.74419594 5.43850136 C-59.12254985 3.93824839 -52.50350149 2.42755065 -45.88754749 0.90240192 C-42.42818782 0.10830494 -38.96596795 -0.6725849 -35.50253105 -1.4486866 C-33.99095721 -1.79023047 -32.4806333 -2.13736903 -30.97181892 -2.49090385 C-20.07835254 -5.03990506 -9.52365461 -7.04750441 0 0 Z " fill="#F5C258" transform="translate(505,13)"/>
<path d="M0 0 C5.57446383 4.12510324 9.17442074 8.59598453 10.5715332 15.52807617 C13.07032955 32.3801634 7.84056012 43.10149085 -1.83787537 56.26670837 C-3.08386036 57.94105572 -4.34181576 59.60577583 -5.60253906 61.26904297 C-8.58730016 65.26646796 -11.2747994 69.40962957 -13.9375 73.625 C-14.97551497 75.23328975 -16.01604688 76.83995678 -17.05859375 78.4453125 C-17.64108887 79.34282227 -18.22358398 80.24033203 -18.82373047 81.16503906 C-23.35966986 88.12496892 -27.93231643 95.06088036 -32.5 102 C-33.29955612 103.21473495 -33.29955612 103.21473495 -34.11526489 104.45401001 C-37.46595159 109.54419096 -40.81756748 114.63375953 -44.16955566 119.7230835 C-46.42422556 123.14640217 -48.67864612 126.569885 -50.93307495 129.99336243 C-54.88375028 135.99268323 -58.83452777 141.99193671 -62.78564453 147.9909668 C-70.31895707 159.42915904 -77.84831911 170.86994301 -85.375 182.3125 C-95.15679637 197.18343236 -104.94398451 212.05080543 -114.73632812 226.91479492 C-120.50709703 235.67507686 -126.27303107 244.43849421 -132.03125 253.20703125 C-133.75767167 255.835 -135.48417467 258.4629153 -137.21069336 261.09082031 C-138.3109405 262.76612694 -139.41072081 264.44174026 -140.51000977 266.11767578 C-142.02637256 268.42945783 -143.54428133 270.74021776 -145.0625 273.05078125 C-145.50807251 273.73106888 -145.95364502 274.41135651 -146.41271973 275.11225891 C-148.47811854 278.25251171 -150.57086898 281.34180339 -152.875 284.3125 C-158.41409997 283.36222551 -163.88722818 282.15414047 -169.3125 280.6875 C-170.79556641 280.29691406 -170.79556641 280.29691406 -172.30859375 279.8984375 C-176.65206752 277.96694752 -180.10444103 275.37282159 -183.8972168 272.52832031 C-188.83755507 268.85212861 -193.96017639 265.44591022 -199.0625 262 C-201.27788481 260.49949581 -203.49240064 258.99771077 -205.70703125 257.49609375 C-206.76873535 256.77663574 -207.83043945 256.05717773 -208.92431641 255.31591797 C-212.70954457 252.74587144 -216.48273394 250.15877989 -220.25 247.5625 C-225.88911637 243.67762865 -231.53528704 239.80329781 -237.1875 235.9375 C-237.98333496 235.39319336 -238.77916992 234.84888672 -239.59912109 234.28808594 C-241.21660278 233.18192033 -242.83411595 232.07580076 -244.45166016 230.96972656 C-249.21599722 227.71158431 -253.97923613 224.45183688 -258.74267578 221.19238281 C-262.73823913 218.45844637 -266.73407748 215.72491359 -270.73046875 212.9921875 C-274.69022906 210.28441023 -278.64887097 207.57500421 -282.60693359 204.86474609 C-284.81649609 203.3525396 -287.02735261 201.84223936 -289.23828125 200.33203125 C-296.87362482 195.10887718 -304.4356582 189.81319976 -311.875 184.3125 C-307.31778977 177.85645217 -302.14945851 172.17722411 -296.765625 166.41796875 C-293.96580701 163.42266797 -291.25474261 160.36021058 -288.57421875 157.2578125 C-286.58093572 154.9758471 -284.54006973 152.74021426 -282.5 150.5 C-279.44641133 147.12309018 -276.53070795 143.68032868 -273.6875 140.125 C-269.37964496 134.79110593 -264.73640135 129.83734514 -260.02856445 124.8605957 C-256.66088086 121.28211956 -253.44154594 117.65712476 -250.375 113.8125 C-246.74789072 109.26507941 -242.86900084 105.03451833 -238.875 100.8125 C-234.08604408 95.74985325 -229.57333775 90.58132952 -225.22265625 85.1328125 C-221.3024265 80.42331852 -217.07380954 76.00279491 -212.8828125 71.53515625 C-210.02953222 68.49112987 -207.26311991 65.38283123 -204.5390625 62.22265625 C-202.55959874 59.95045489 -200.5291683 57.72790128 -198.5 55.5 C-195.27953083 51.93937906 -192.20323456 48.29795609 -189.1875 44.5625 C-188.43726563 43.65113281 -187.68703125 42.73976562 -186.9140625 41.80078125 C-185.71664939 40.33957023 -184.53626506 38.86354178 -183.3984375 37.35546875 C-180.4629346 33.82771527 -178.06676389 32.96795199 -173.53205872 32.34922791 C-166.66347036 31.3121501 -159.94367932 29.83683981 -153.17456055 28.28735352 C-151.84745983 27.98621111 -150.52028888 27.68537807 -149.1930542 27.38482666 C-146.35920535 26.74242777 -143.52585116 26.09790649 -140.69287682 25.45166206 C-136.19813862 24.42638025 -131.70227151 23.40611002 -127.20625305 22.38645935 C-119.27591486 20.58727954 -111.34653436 18.78390819 -103.4173584 16.97961426 C-91.49764844 14.26732608 -79.57711567 11.55866035 -67.65579826 8.85344642 C-63.20209771 7.84264224 -58.74887021 6.82978797 -54.2960304 5.81519902 C-51.507322 5.18016505 -48.7182502 4.54673798 -45.92909241 3.91368103 C-44.05316142 3.48738802 -42.17766947 3.05916436 -40.30220032 2.63084412 C-34.16880383 1.2403853 -28.02682199 -0.10842554 -21.86946106 -1.38856506 C-20.67401074 -1.63926286 -19.47856043 -1.88996065 -18.24688435 -2.14825535 C-11.90801665 -3.16199133 -5.79126751 -2.95777182 0 0 Z " fill="#44C3A0" transform="translate(501.875,10.6875)"/>
<path d="M0 0 C4.13434405 1.44098488 7.23753537 3.46381106 10.75 6.0625 C17.4636909 10.96007873 24.30820065 15.65104026 31.1875 20.3125 C32.2707959 21.04702393 33.3540918 21.78154785 34.47021484 22.53833008 C36.63184801 24.00380303 38.79362948 25.46905724 40.95556641 26.93408203 C45.26968184 29.86159164 49.57368525 32.80372633 53.875 35.75 C54.63296875 36.26908936 55.3909375 36.78817871 56.171875 37.32299805 C57.68414595 38.3587934 59.19635349 39.39468134 60.70849609 40.43066406 C63.08230572 42.05636706 65.4570354 43.68071801 67.83203125 45.3046875 C75.87799861 50.80650738 83.91869674 56.3157708 91.94873047 61.84082031 C99.48173881 67.02221509 107.02949406 72.18203308 114.57666016 77.34277344 C119.33445818 80.5964439 124.09132713 83.85147293 128.84790039 87.10693359 C132.95439117 89.91724272 137.06215508 92.72566476 141.171875 95.53125 C142.02201172 96.11197266 142.87214844 96.69269531 143.74804688 97.29101562 C145.36352148 98.39448188 146.97937954 99.49738705 148.59570312 100.59960938 C153.10363264 103.67983068 157.5682763 106.8110348 162 110 C160.40207486 113.86241334 157.77851934 116.58221026 154.9375 119.5625 C151.36822999 123.37363617 147.94298165 127.22478996 144.6875 131.3125 C140.42890854 136.61089118 135.82265174 141.51596849 131.15527344 146.45019531 C126.9984323 150.86754081 123.13332515 155.43875636 119.34765625 160.1796875 C115.4274265 164.88918148 111.19880954 169.30970509 107.0078125 173.77734375 C104.15453222 176.82137013 101.38811991 179.92966877 98.6640625 183.08984375 C96.68459874 185.36204511 94.6541683 187.58459872 92.625 189.8125 C89.57141133 193.18940982 86.65570795 196.63217132 83.8125 200.1875 C79.50529118 205.52059394 74.86272838 210.47355721 70.15576172 215.44970703 C65.9999732 219.86586362 62.1353885 224.43537002 58.3515625 229.17578125 C54.95564169 233.25427086 51.33398386 237.10919349 47.69116211 240.96704102 C47.17046143 241.51932373 46.64976074 242.07160645 46.11328125 242.640625 C45.58814941 243.18267578 45.06301758 243.72472656 44.52197266 244.28320312 C42.9427685 245.9786715 42.9427685 245.9786715 41.69287109 248.01367188 C40.24925787 250.14087997 39.09729939 251.50404326 37 253 C34.54774475 253.15731812 34.54774475 253.15731812 31.67993164 252.83349609 C30.07351555 252.6544574 30.07351555 252.6544574 28.43464661 252.47180176 C22.52270224 251.65970489 16.64473207 250.70118532 10.765625 249.6796875 C9.43443468 249.45375808 8.1031124 249.22860501 6.77166748 249.00418091 C1.18136179 248.06096774 -4.40717272 247.1077098 -9.99365234 246.14208984 C-13.43587771 245.54764523 -16.87985464 244.96442387 -20.32514191 244.3880043 C-22.25186925 244.06229562 -24.17648103 243.72414982 -26.10101318 243.38571167 C-27.2829425 243.18865631 -28.46487183 242.99160095 -29.68261719 242.78857422 C-31.22716583 242.52329422 -31.22716583 242.52329422 -32.80291748 242.25265503 C-39.69940057 241.70764841 -46.20167164 243.41003193 -52.82763672 245.1171875 C-54.09276596 245.43686493 -54.09276596 245.43686493 -55.38345337 245.76300049 C-57.20197247 246.22307982 -59.01994975 246.68530515 -60.83742905 247.1494751 C-63.72122946 247.88560415 -66.60659481 248.6152807 -69.49246216 249.34326172 C-77.69306108 251.41320606 -85.89060286 253.49514531 -94.08740234 255.58007812 C-99.11366657 256.85808473 -104.14166393 258.12908057 -109.17071915 259.39605713 C-111.07784521 259.87809638 -112.98428134 260.36287436 -114.88998032 260.8505249 C-117.56290628 261.5344782 -120.23794539 262.20952264 -122.91357422 262.8828125 C-123.68791809 263.08336243 -124.46226196 263.28391235 -125.2600708 263.49053955 C-133.64394679 265.57954482 -142.76425636 267.48093481 -151 264 C-156.75772037 260.26553452 -159.70407498 256.52205248 -162 250 C-163.52674543 240.82102141 -163.15950494 233.22695203 -157.6875 225.5 C-156.29766333 223.61841711 -154.88188854 221.761662 -153.4453125 219.91552734 C-150.99924329 216.67365927 -148.86120835 213.24019442 -146.6875 209.8125 C-145.76551128 208.38074446 -144.8423088 206.9497699 -143.91796875 205.51953125 C-143.44536621 204.78686035 -142.97276367 204.05418945 -142.48583984 203.29931641 C-139.83279274 199.19376306 -137.16571965 195.09733165 -134.5 191 C-130.49236277 184.8382504 -126.49069244 178.67273772 -122.5 172.5 C-118.50930733 166.32726192 -114.50751303 160.16183064 -110.5 154 C-104.65277062 145.00896018 -98.82273792 136.00691451 -93 127 C-86.62507479 117.13893341 -80.23842272 107.28565524 -73.83642578 97.44213867 C-70.38396656 92.13258967 -66.93859521 86.81853664 -63.5 81.5 C-58.34084334 73.52296787 -53.18143464 65.5461573 -47.984375 57.59375 C-46.25514563 54.94499268 -44.54753145 52.28828176 -42.890625 49.59375 C-38.17729245 42.10075979 -32.47410901 35.9542044 -26.37890625 29.58984375 C-23.59718451 26.67145448 -21.01034625 23.65787482 -18.5 20.5 C-12.75282936 13.29149944 -6.34052759 6.68325881 0 0 Z " fill="#3EA69A" transform="translate(162,229)"/>
<path d="M0 0 C0.66 0 1.32 0 2 0 C2.36125977 0.76328613 2.72251953 1.52657227 3.09472656 2.31298828 C10.51665573 17.95155097 18.14247607 33.38725816 26.60546875 48.49707031 C29.10318447 52.98001526 31.5493917 57.49118011 34 62 C46.04827784 43.28460936 56.27050143 23.46120565 65 3 C71.78197443 3.68583136 78.1072423 5.66405398 84.62109375 7.61328125 C86.47726822 8.16245964 86.47726822 8.16245964 88.37094116 8.72273254 C91.70664974 9.70984455 95.04051438 10.70305002 98.37402725 11.69754791 C101.81888483 12.72417759 105.26539094 13.74524414 108.71166992 14.76708984 C116.81023138 17.16985477 124.90560417 19.58324356 133 22 C134.15286499 22.34419983 135.30572998 22.68839966 136.49353027 23.04302979 C148.66725917 26.67907156 160.83659715 30.32956277 173 34 C173.17484394 40.15220088 173.30090575 46.30291306 173.38452148 52.45703125 C173.41942562 54.54420201 173.46696813 56.63120547 173.52807617 58.71777344 C173.94184995 73.22419521 173.57471699 84.50738205 163.49975586 95.80322266 C155.02599621 104.31187584 144.24987125 106.65290365 132.83984375 109.1875 C131.5284343 109.48550297 130.21719576 109.78425892 128.90611267 110.08369446 C124.5858065 111.06733138 120.26191174 112.03459792 115.9375 113 C114.42408065 113.33827452 112.91067337 113.67660309 111.39727783 114.01498413 C110.63473568 114.185468 109.87219353 114.35595186 109.08654404 114.53160191 C105.89460507 115.24554543 102.70286376 115.96036817 99.51124573 116.67574501 C97.85007103 117.04790161 96.1887841 117.4195576 94.52738953 117.79073143 C82.49581521 120.48121414 70.50274273 123.30691663 58.5247345 126.22634888 C51.57963715 127.91797177 44.62541574 129.57062196 37.66891384 131.21464729 C32.82502146 132.36187298 27.98756876 133.52818426 23.15988159 134.74194336 C1.72046029 140.11747433 -15.68282306 143.69589183 -37.51379395 137.85525513 C-43.31794987 136.43134787 -49.21060338 135.58888311 -55.11592865 134.70683098 C-58.53168859 134.19285728 -61.94214164 133.64569411 -65.35351562 133.10351562 C-69.50920763 132.44778849 -73.66550428 131.79602867 -77.82250977 131.14868164 C-81.27281066 130.6110574 -84.72191922 130.0662896 -88.17036247 129.51688194 C-90.08787211 129.21352304 -92.00664343 128.91817357 -93.9254303 128.6230011 C-95.07611496 128.4390831 -96.22679962 128.2551651 -97.41235352 128.06567383 C-98.92781517 127.82848381 -98.92781517 127.82848381 -100.47389221 127.58650208 C-103 127 -103 127 -106 125 C-104.74896484 123.67548828 -104.74896484 123.67548828 -103.47265625 122.32421875 C-98.32071013 116.84028565 -93.20244944 111.38025921 -88.5 105.5 C-83.94355216 99.80864357 -78.99207779 94.53587718 -74.0078125 89.22265625 C-71.15453222 86.17862987 -68.38811991 83.07033123 -65.6640625 79.91015625 C-63.68459874 77.63795489 -61.6541683 75.41540128 -59.625 73.1875 C-56.55253227 69.78916448 -53.61557378 66.32409477 -50.75 62.75 C-46.09057504 56.98702702 -41.06467348 51.61419847 -36 46.2109375 C-31.57138989 41.48508693 -27.33571757 36.61813522 -23.20703125 31.62890625 C-22.70961426 31.03150635 -22.21219727 30.43410645 -21.69970703 29.81860352 C-20.70445188 28.62169431 -19.71438246 27.42045083 -18.72998047 26.21459961 C-17.53012472 24.77242841 -16.26958944 23.38117856 -15 22 C-14.34 22 -13.68 22 -13 22 C-12.77441406 21.33355469 -12.54882812 20.66710937 -12.31640625 19.98046875 C-10.60665744 16.1094351 -8.32509015 12.79426159 -5.9375 9.3125 C-2.75797383 4.78254162 -2.75797383 4.78254162 0 0 Z " fill="#44C3A0" transform="translate(339,362)"/>
<path d="M0 0 C0.70726105 0.09440005 1.4145221 0.1888001 2.1432153 0.28606075 C9.47420387 1.28118585 16.77978193 2.43741422 24.08126831 3.62770081 C25.53845475 3.86305945 26.99568054 4.09817452 28.45294189 4.33306885 C32.35326986 4.96253837 36.25300769 5.59559127 40.15260839 6.22954869 C43.41874495 6.76016108 46.68517987 7.28892379 49.95161545 7.81769174 C57.64824774 9.06363063 65.34440716 10.31245896 73.04025269 11.56324768 C80.97655565 12.85307377 88.91358361 14.13836505 96.8509835 15.42142206 C103.68649065 16.52649777 110.52158177 17.63411927 117.35633385 18.74385542 C121.43041379 19.40533822 125.50463774 20.06589797 129.57925034 20.72409248 C133.39656019 21.34085517 137.21334014 21.9607967 141.02972794 22.5832386 C142.43163953 22.81134151 143.83373544 23.03831486 145.23602295 23.26409531 C147.14422923 23.57151688 149.05172083 23.88336497 150.95916748 24.19546509 C152.02794569 24.36892991 153.0967239 24.54239473 154.19788933 24.72111607 C156.71066284 25.21339417 156.71066284 25.21339417 158.71066284 26.21339417 C157.0498561 30.36037828 154.05068551 33.28034175 151.02316284 36.46339417 C149.92480635 37.63591569 148.8271456 38.80908936 147.73019409 39.98292542 C147.20377319 40.54447327 146.67735229 41.10602112 146.13497925 41.68458557 C142.29575414 45.80546792 138.65665373 50.10058825 135.00753784 54.38917542 C129.18252317 61.22665798 123.26561414 67.94635336 117.16769409 74.54151917 C114.54217245 77.39661743 111.98398444 80.30104661 109.44503784 83.23292542 C107.43801746 85.52472572 105.38663433 87.77336169 103.33566284 90.02589417 C100.26319511 93.42422969 97.32623662 96.8892994 94.46066284 100.46339417 C89.80407472 106.22285842 84.78232108 111.59288115 79.71847534 116.99073792 C76.86519506 120.03476429 74.09878275 123.14306294 71.37472534 126.30323792 C69.39526158 128.57543927 67.36483114 130.79799289 65.33566284 133.02589417 C62.26319511 136.42422969 59.32623662 139.8892994 56.46066284 143.46339417 C52.22296666 148.71363722 47.68891519 153.63556369 43.05148315 158.53077698 C42.25049194 159.37914124 42.25049194 159.37914124 41.43331909 160.24464417 C40.95644653 160.74544495 40.47957397 161.24624573 39.98825073 161.76222229 C38.49232256 163.39631328 38.49232256 163.39631328 36.71066284 166.21339417 C34.04447921 164.93034141 31.575299 163.53588299 29.12081909 161.88526917 C28.43100952 161.42225403 27.74119995 160.95923889 27.03048706 160.48219299 C26.28557007 159.98098938 25.54065308 159.47978577 24.77316284 158.96339417 C23.97668335 158.4383429 23.18020386 157.91329163 22.35958862 157.37232971 C18.1311652 154.57351612 14.00527074 151.70863409 9.98019409 148.62355042 C-4.8699547 137.54667716 -20.50659615 133.33774977 -38.28933716 129.21339417 C-36.95379726 124.91797653 -35.29856766 121.0029973 -33.27761841 116.98683167 C-32.68067155 115.788233 -32.08451038 114.58924279 -31.48904419 113.38990784 C-31.025737 112.45916946 -31.025737 112.45916946 -30.55307007 111.5096283 C-16.26089224 84.42956782 -16.26089224 84.42956782 -16.25418091 54.76808167 C-18.44824076 49.0621241 -21.16974978 44.68608903 -25.28933716 40.21339417 C-25.28933716 39.55339417 -25.28933716 38.89339417 -25.28933716 38.21339417 C-25.87199341 37.9336676 -26.45464966 37.65394104 -27.05496216 37.36573792 C-29.8093129 35.94522486 -32.3266463 34.25351682 -34.89871216 32.52980042 C-41.32456029 28.99138404 -46.97842276 27.7261105 -54.28933716 27.83839417 C-55.04472778 27.8267926 -55.80011841 27.81519104 -56.57839966 27.80323792 C-66.46719784 27.8542111 -74.79988208 32.13207137 -82.03933716 38.71339417 C-89.77742004 47.31126403 -94.16970189 55.98092244 -94.01223755 67.81202698 C-93.0337013 84.13240925 -83.33457569 99.89033072 -76.1880188 114.17652893 C-75.28933716 116.21339417 -75.28933716 116.21339417 -75.28933716 118.21339417 C-81.54881128 117.59665253 -87.33067392 116.25138693 -93.37136841 114.52589417 C-94.30736374 114.26332825 -95.24335907 114.00076233 -96.2077179 113.73023987 C-99.17396993 112.896669 -102.13787739 112.05507486 -105.10183716 111.21339417 C-107.11145877 110.64777809 -109.12122313 110.08266889 -111.13113403 109.51808167 C-114.79775625 108.48591617 -118.46404882 107.45264422 -122.12844849 106.41261292 C-122.86154739 106.20467102 -123.5946463 105.99672913 -124.34996033 105.78248596 C-126.00760434 105.296066 -127.65045057 104.7596897 -129.28933716 104.21339417 C-129.39126794 96.8486064 -129.46102475 89.48400248 -129.50906372 82.1186676 C-129.52910319 79.6163198 -129.55634238 77.11401838 -129.59109497 74.61183167 C-129.63994956 71.00233979 -129.66238361 67.39347038 -129.67996216 63.78370667 C-129.7006073 62.67600922 -129.72125244 61.56831177 -129.74252319 60.42704773 C-129.74555738 49.77815497 -126.60710197 41.05269233 -119.28933716 33.21339417 C-108.3028263 22.9016786 -94.18266806 20.49412392 -79.98464966 17.04542542 C-78.01296659 16.56092684 -76.04144191 16.0757833 -74.07006836 15.59002686 C-68.9078725 14.31984365 -63.7436005 13.05831479 -58.5788269 11.79866028 C-53.31438243 10.51308674 -48.05194298 9.21936037 -42.78933716 7.92628479 C-34.3022315 5.84185565 -25.81394283 3.76233211 -17.32398987 1.68952942 C-13.38330295 0.76357767 -13.38330295 0.76357767 -9.50788879 -0.39380264 C-6.22709985 -0.97467908 -3.29471806 -0.44467283 0 0 Z " fill="#3EA69A" transform="translate(129.28933715820313,11.786605834960938)"/>
<path d="M0 0 C0.33 0 0.66 0 1 0 C1 82.83 1 165.66 1 251 C-11.54 247.37 -24.08 243.74 -37 240 C-43.06375 238.28296875 -49.1275 236.5659375 -55.375 234.796875 C-64.21875 232.265625 -64.21875 232.265625 -68.58984375 231.00976562 C-71.58416291 230.15145861 -74.58168388 229.30573424 -77.58203125 228.46875 C-81.31500216 227.42688927 -85.04049868 226.36146106 -88.76202393 225.27945709 C-90.15016197 224.88030074 -91.54072879 224.48947851 -92.93377686 224.10781097 C-100.99855703 221.89256443 -106.32621652 220.08874977 -111 213 C-117.38613211 207.35118668 -124.87953732 205.13366098 -133 203 C-129.01365159 195.38602557 -124.30535288 188.29831712 -119.5 181.1875 C-118.00905566 178.9735534 -116.51894768 176.75909358 -115.03125 174.54296875 C-114.64253723 173.96405884 -114.25382446 173.38514893 -113.85333252 172.78869629 C-109.85410622 166.8140976 -105.94504813 160.78161991 -102.0335083 154.74940491 C-96.69710886 146.52273817 -91.30974538 138.33024843 -85.91131592 130.14419556 C-83.58196171 126.61199635 -81.25404181 123.07885253 -78.92599487 119.54579163 C-77.72076313 117.71675572 -76.51546128 115.887766 -75.31008911 114.05882263 C-69.84056339 105.75952181 -64.37652656 97.45661723 -58.91427612 89.15252686 C-57.3721228 86.80812604 -55.82976258 84.46386147 -54.28735352 82.11962891 C-49.58724129 74.97581127 -44.8884593 67.83112664 -40.19360352 60.68385315 C-30.09853193 45.31557482 -20.00138942 29.94836512 -9.83047485 14.63012695 C-8.94940477 13.30228723 -8.06948516 11.97368335 -7.19076538 10.64428711 C-5.99509643 8.83613618 -4.7951003 7.03094183 -3.59375 5.2265625 C-2.92021484 4.21158691 -2.24667969 3.19661133 -1.55273438 2.15087891 C-1.04033203 1.44108887 -0.52792969 0.73129883 0 0 Z " fill="#44C3A0" transform="translate(511,93)"/>
<path d="M0 0 C27.225 7.425 27.225 7.425 55 15 C61.44402344 16.73636719 67.88804688 18.47273438 74.52734375 20.26171875 C82.90429687 22.52148437 82.90429687 22.52148437 86.90795898 23.60229492 C89.67748745 24.34915783 92.44811485 25.09177859 95.21948242 25.83178711 C98.72789028 26.76883678 102.23395905 27.71421266 105.73858833 28.66529274 C107.63802602 29.17846486 109.53978912 29.6830061 111.44163513 30.18717957 C119.59162549 32.40892521 126.77701249 34.96765267 133.5 40.25 C134.50546875 41.03117187 134.50546875 41.03117187 135.53125 41.828125 C136.0159375 42.21484375 136.500625 42.6015625 137 43 C136.0415034 46.51448753 134.60769956 48.52000912 132 50.9375 C123.39104973 59.22694283 117.2428849 70.05617122 110.95214844 80.12817383 C106.57841637 87.12380845 102.08690682 94.03858002 97.5625 100.9375 C96.82918021 102.05623193 96.09586315 103.17496566 95.36254883 104.29370117 C93.92269708 106.48985824 92.48267735 108.68590519 91.04248047 110.88183594 C88.05976064 115.4354216 85.09040007 119.99762186 82.125 124.5625 C81.59914307 125.37195068 81.07328613 126.18140137 80.53149414 127.01538086 C76.73518472 132.86213845 72.94746148 138.71443207 69.16259766 144.56860352 C65.06442711 150.90557572 60.95047963 157.23224377 56.8359375 163.55859375 C53.38365615 168.86790796 49.93833272 174.18164325 46.5 179.5 C42.50930733 185.67273808 38.50751303 191.83816936 34.5 198 C29.55735427 205.60009942 24.62503112 213.20676713 19.703125 220.8203125 C17.81998506 223.73325151 15.93424008 226.64448433 14.046875 229.5546875 C13.55783691 230.30919189 13.06879883 231.06369629 12.56494141 231.84106445 C11.64063968 233.26700909 10.71587522 234.69265395 9.79052734 236.11791992 C7.13387673 240.21818255 4.54189195 244.34959653 2.01123047 248.52905273 C1.51067139 249.25717163 1.51067139 249.25717163 1 250 C0.67 250 0.34 250 0 250 C0 167.5 0 85 0 0 Z " fill="#44C3A0" transform="translate(0,168)"/>
<path d="M0 0 C0 80.19 0 160.38 0 243 C-5.87093084 239.73837175 -11.20007428 236.59796653 -16.5625 232.6875 C-24.69436577 226.84685116 -32.99941421 221.2887552 -41.36157227 215.78393555 C-46.14719548 212.62093833 -50.8642677 209.40357891 -55.48828125 206.0078125 C-61.14152659 201.85671521 -66.95585554 197.98153799 -72.8125 194.125 C-80.37842061 189.11482251 -87.83698945 184.02252977 -95.1796875 178.69140625 C-100.3971328 174.96403536 -105.77761789 171.47424877 -111.125 167.9375 C-119.28756452 162.53617407 -127.31548315 157.06672383 -135 151 C-130.44278977 144.54395217 -125.27445851 138.86472411 -119.890625 133.10546875 C-117.09080701 130.11016797 -114.37974261 127.04771058 -111.69921875 123.9453125 C-109.70593572 121.6633471 -107.66506973 119.42771426 -105.625 117.1875 C-102.57141133 113.81059018 -99.65570795 110.36782868 -96.8125 106.8125 C-92.50464496 101.47860593 -87.86140135 96.52484514 -83.15356445 91.5480957 C-79.78588086 87.96961956 -76.56654594 84.34462476 -73.5 80.5 C-69.87289072 75.95257941 -65.99400084 71.72201833 -62 67.5 C-57.21104408 62.43735325 -52.69833775 57.26882952 -48.34765625 51.8203125 C-44.4274265 47.11081852 -40.19880954 42.69029491 -36.0078125 38.22265625 C-33.15453222 35.17862987 -30.38811991 32.07033123 -27.6640625 28.91015625 C-25.68459874 26.63795489 -23.6541683 24.41540128 -21.625 22.1875 C-18.40453083 18.62687906 -15.32823456 14.98545609 -12.3125 11.25 C-3.18484043 0 -3.18484043 0 0 0 Z " fill="#3EA69A" transform="translate(325,44)"/>
<path d="M0 0 C0.33 0 0.66 0 1 0 C1 65.01 1 130.02 1 197 C-19.92503609 202.81251002 -19.92503609 202.81251002 -30.37023926 205.43768311 C-31.12994522 205.62879417 -31.88965118 205.81990524 -32.67237854 206.01680756 C-33.45080612 206.21235481 -34.2292337 206.40790207 -35.03125 206.609375 C-35.84073593 206.81316017 -36.65022186 207.01694534 -37.48423767 207.22690582 C-41.74863724 208.30040122 -46.01366844 209.37133982 -50.27929688 210.43994141 C-54.64911589 211.53516109 -59.01667337 212.63914043 -63.38379669 213.74505234 C-66.78342561 214.60430233 -70.18463075 215.45717816 -73.58628845 216.30835724 C-75.19745281 216.71264906 -76.80803579 217.11926591 -78.41798401 217.52837372 C-103.05321204 223.78146613 -103.05321204 223.78146613 -112 220 C-117.75772037 216.26553452 -120.70407498 212.52205248 -123 206 C-124.52674543 196.82102141 -124.15950494 189.22695203 -118.6875 181.5 C-117.29766333 179.61841711 -115.88188854 177.761662 -114.4453125 175.91552734 C-111.99924329 172.67365927 -109.86120835 169.24019442 -107.6875 165.8125 C-106.76551128 164.38074446 -105.8423088 162.9497699 -104.91796875 161.51953125 C-104.44536621 160.78686035 -103.97276367 160.05418945 -103.48583984 159.29931641 C-100.83279274 155.19376306 -98.16571965 151.09733165 -95.5 147 C-91.49236277 140.8382504 -87.49069244 134.67273772 -83.5 128.5 C-79.50930733 122.32726192 -75.50751303 116.16183064 -71.5 110 C-65.65277062 101.00896018 -59.82273792 92.00691451 -54 83 C-47.62507479 73.13893341 -41.23842272 63.28565524 -34.83642578 53.44213867 C-31.38396661 48.13258975 -27.93856839 42.81855393 -24.5 37.5 C-20.4018044 31.16278654 -16.29766104 24.82946032 -12.1875 18.5 C-11.66027344 17.68724609 -11.13304688 16.87449219 -10.58984375 16.03710938 C-9.06403609 13.68867561 -7.53279748 11.34387636 -6 9 C-5.44393066 8.1440625 -4.88786133 7.288125 -4.31494141 6.40625 C-3.77401855 5.58125 -3.2330957 4.75625 -2.67578125 3.90625 C-2.18634033 3.15666016 -1.69689941 2.40707031 -1.19262695 1.63476562 C-0.79906006 1.09529297 -0.40549316 0.55582031 0 0 Z " fill="#44C3A0" transform="translate(123,273)"/>
<path d="M0 0 C0.79921875 0.45890625 1.5984375 0.9178125 2.421875 1.390625 C6.00267699 3.61399879 8.5416684 5.31141956 10.91137695 8.87158203 C14.68562008 13.42003438 20.0164869 14.31982528 25.5234375 15.8125 C26.67780807 16.14378906 27.83217865 16.47507812 29.02153015 16.81640625 C32.15240752 17.71137125 35.2877344 18.58797158 38.42586136 19.45709229 C41.6874748 20.36557312 44.9420436 21.29854543 48.19702148 22.23046875 C52.18427414 23.37063398 56.17198948 24.50899544 60.16264343 25.63720703 C72.12960032 29.02058301 84.05952961 32.52328249 95.97613525 36.08007812 C99.02949132 36.99016143 102.08464305 37.89399802 105.14013672 38.796875 C106.9802191 39.34349466 108.82023005 39.89035488 110.66015625 40.4375 C111.49898849 40.68459717 112.33782074 40.93169434 113.20207214 41.1862793 C118.88566646 42.88566646 118.88566646 42.88566646 120 44 C120.09340434 45.62674778 120.11745171 47.25754051 120.11352539 48.88696289 C120.11344986 49.92796646 120.11337433 50.96897003 120.11329651 52.04151917 C120.10813522 53.1737944 120.10297394 54.30606964 120.09765625 55.47265625 C120.09553383 57.20182533 120.09553383 57.20182533 120.09336853 58.96592712 C120.08775005 62.66481064 120.07519442 66.36363464 120.0625 70.0625 C120.05748738 72.56315017 120.05292406 75.06380129 120.04882812 77.56445312 C120.03777462 83.70965588 120.02101852 89.85482369 120 96 C112.22767996 94.63301624 104.775714 92.55884436 97.234375 90.25390625 C95.37098335 89.6910459 93.50759063 89.1281891 91.64414978 88.56549168 C89.68400778 87.97272259 87.72454083 87.37777046 85.76525879 86.78216553 C79.69787153 84.93804229 73.62627314 83.10787115 67.55461884 81.27785492 C66.20527321 80.8711336 64.8559741 80.46425789 63.5067215 80.05722809 C51.44354084 76.41871978 39.35836241 72.86030535 27.25 69.375 C26.04482727 69.02793503 26.04482727 69.02793503 24.81530762 68.67385864 C20.54477582 67.44489548 16.27308579 66.22005896 12 65 C11.82331787 65.56702637 11.64663574 66.13405273 11.46459961 66.71826172 C9.85044303 71.74837518 7.97257577 76.40850763 5.5625 81.125 C5.05795288 82.1154834 5.05795288 82.1154834 4.54321289 83.12597656 C3.36972205 85.4212902 2.18508492 87.71065204 1 90 C0.52788086 90.91813477 0.05576172 91.83626953 -0.43066406 92.78222656 C-11.68724592 114.66397659 -11.68724592 114.66397659 -18 125 C-20.86432114 122.47866626 -22.40859163 119.67583651 -24.1875 116.3203125 C-24.79843506 115.17425537 -25.40937012 114.02819824 -26.03881836 112.84741211 C-26.692863 111.60677536 -27.34658298 110.36596742 -28 109.125 C-28.67488558 107.85082011 -29.35010009 106.57681439 -30.02563477 105.30297852 C-31.38347897 102.74047623 -32.73790373 100.17620408 -34.09033203 97.61083984 C-35.76067996 94.44615107 -37.45283372 91.29367203 -39.15234375 88.14453125 C-45.12346173 77.02448725 -50.48121494 65.7909021 -55 54 C-55.45503906 52.81792969 -55.91007812 51.63585937 -56.37890625 50.41796875 C-60.27299565 39.19702126 -60.70696482 28.61710246 -55.54296875 17.75390625 C-49.88870054 7.66211109 -41.44609018 -0.24739346 -30.08056641 -3.55932617 C-20.27864397 -5.63541981 -8.70324263 -5.07167376 0 0 Z " fill="#CD422E" transform="translate(392,300)"/>
<path d="M0 0 C0 45.87 0 91.74 0 139 C-30 131 -30 131 -33 130 C-31.66446011 125.70458237 -30.0092305 121.78960313 -27.98828125 117.7734375 C-27.39133439 116.57483884 -26.79517322 115.37584862 -26.19970703 114.17651367 C-25.73639984 113.2457753 -25.73639984 113.2457753 -25.26373291 112.29623413 C-10.97155508 85.21617365 -10.97155508 85.21617365 -10.96484375 55.5546875 C-13.1589036 49.84872994 -15.88041262 45.47269487 -20 41 C-20 40.34 -20 39.68 -20 39 C-20.58265625 38.72027344 -21.1653125 38.44054688 -21.765625 38.15234375 C-24.51997574 36.73183069 -27.03730914 35.04012265 -29.609375 33.31640625 C-36.03522313 29.77798988 -41.6890856 28.51271633 -49 28.625 C-49.75539063 28.61339844 -50.51078125 28.60179688 -51.2890625 28.58984375 C-61.17786068 28.64081694 -69.51054492 32.9186772 -76.75 39.5 C-84.48808288 48.09786986 -88.88036473 56.76752827 -88.72290039 68.59863281 C-87.74436415 84.91901508 -78.04523854 100.67693655 -70.89868164 114.96313477 C-70 117 -70 117 -70 119 C-76.25947412 118.38325836 -82.04133676 117.03799277 -88.08203125 115.3125 C-89.01802658 115.04993408 -89.95402191 114.78736816 -90.91838074 114.5168457 C-93.88463277 113.68327483 -96.84854023 112.8416807 -99.8125 112 C-101.82212162 111.43438392 -103.83188597 110.86927473 -105.84179688 110.3046875 C-109.5084191 109.27252201 -113.17471166 108.23925006 -116.83911133 107.19921875 C-117.57221024 106.99127686 -118.30530914 106.78333496 -119.06062317 106.5690918 C-120.71826718 106.08267183 -122.36111341 105.54629553 -124 105 C-124.10193078 97.63521223 -124.17168759 90.27060832 -124.21972656 82.90527344 C-124.23976603 80.40292564 -124.26700522 77.90062422 -124.30175781 75.3984375 C-124.3506124 71.78894563 -124.37304645 68.18007621 -124.390625 64.5703125 C-124.41127014 63.46261505 -124.43191528 62.3549176 -124.45318604 61.21365356 C-124.45622022 50.5647608 -121.31776482 41.83929817 -114 34 C-103.01348914 23.68828443 -88.8933309 21.28072976 -74.6953125 17.83203125 C-72.72362943 17.34753267 -70.75210475 16.86238914 -68.7807312 16.37663269 C-63.61853534 15.10644949 -58.45426335 13.84492063 -53.28948975 12.58526611 C-48.02504527 11.29969257 -42.76260582 10.00596621 -37.5 8.71289062 C-29.01289434 6.62846148 -20.52460567 4.54893795 -12.03465271 2.47613525 C-7.95488047 1.48453154 -7.95488047 1.48453154 -3.88796806 0.44196606 C-2 0 -2 0 0 0 Z " fill="#44C3A0" transform="translate(124,11)"/>
<path d="M0 0 C9.10740951 5.19533484 15.67139302 13.84910463 19.18359375 23.76953125 C26.78503722 56.11986045 -3.85602713 97.98118644 -19.14453125 124.62890625 C-19.80453125 124.62890625 -20.46453125 124.62890625 -21.14453125 124.62890625 C-21.510625 123.87351563 -21.87671875 123.118125 -22.25390625 122.33984375 C-25.9485699 114.82736099 -29.85361702 107.46095444 -33.89453125 100.12890625 C-64.78509888 43.72467706 -64.78509888 43.72467706 -59.2421875 23.3046875 C-55.00140239 11.92453353 -47.98714927 3.98193249 -37.12109375 -1.3671875 C-24.89777637 -6.75679369 -11.81756057 -5.86118366 0 0 Z " fill="#CD422E" transform="translate(95.14453125,43.37109375)"/>
<path d="M0 0 C0.99 0.495 0.99 0.495 2 1 C1.67 39.61 1.34 78.22 1 118 C-2.9484517 119.31615057 -6.18092003 118.52746146 -10.1875 117.86010742 C-11.4391394 117.66032036 -11.4391394 117.66032036 -12.71606445 117.45649719 C-15.47861065 117.0134587 -18.23929161 116.55980834 -21 116.10546875 C-22.91659831 115.79452567 -24.83326599 115.48400988 -26.75 115.17390442 C-30.76901611 114.52194705 -34.78712831 113.86473154 -38.8046875 113.20385742 C-43.95819875 112.35656696 -49.1137338 111.52241243 -54.27001953 110.69219494 C-58.22907303 110.05324702 -62.18696101 109.4073069 -66.14453125 108.7592411 C-68.04521389 108.44887673 -69.94625701 108.14071182 -71.84765625 107.8347683 C-74.50382809 107.40631035 -77.15828389 106.96846475 -79.8125 106.52807617 C-80.60116455 106.40278534 -81.3898291 106.27749451 -82.20239258 106.14840698 C-85.74178517 105.55153606 -87.96983139 105.02011241 -91 103 C-89.74896484 101.67548828 -89.74896484 101.67548828 -88.47265625 100.32421875 C-83.32071013 94.84028565 -78.20244944 89.38025921 -73.5 83.5 C-68.94355216 77.80864357 -63.99207779 72.53587718 -59.0078125 67.22265625 C-56.15453222 64.17862987 -53.38811991 61.07033123 -50.6640625 57.91015625 C-48.68459874 55.63795489 -46.6541683 53.41540128 -44.625 51.1875 C-41.55253227 47.78916448 -38.61557378 44.32409477 -35.75 40.75 C-31.09057504 34.98702702 -26.06467348 29.61419847 -21 24.2109375 C-13.6922122 16.41266395 -6.8862621 8.16887511 0 0 Z " fill="#3EA69A" transform="translate(324,384)"/>
<path d="M0 0 C8.42394187 1.44515031 16.51303584 3.81719313 24.68359375 6.2890625 C26.10665276 6.71585478 27.52983785 7.1422269 28.95314026 7.56820679 C32.69380486 8.68889899 36.4328369 9.81494132 40.17150879 10.94226074 C43.87972101 12.05953871 47.58928556 13.17230472 51.29882812 14.28515625 C55.66073931 15.59375568 60.02249623 16.9028468 64.38314819 18.21563721 C71.29794355 20.29640741 78.2160912 22.36419666 85.14501953 24.39746094 C86.40629166 24.76817719 87.66756378 25.13889343 88.96705627 25.52084351 C91.33417473 26.21527519 93.7020905 26.90699651 96.07090759 27.59561157 C97.10719803 27.8996994 98.14348846 28.20378723 99.21118164 28.51708984 C100.11711563 28.78097504 101.02304962 29.04486023 101.95643616 29.31674194 C104 30 104 30 105 31 C105.09340434 32.62674778 105.11745171 34.25754051 105.11352539 35.88696289 C105.11341209 37.44846825 105.11341209 37.44846825 105.11329651 39.04151917 C105.10813522 40.1737944 105.10297394 41.30606964 105.09765625 42.47265625 C105.0962413 43.62543564 105.09482635 44.77821503 105.09336853 45.96592712 C105.08775005 49.66481064 105.07519442 53.36363464 105.0625 57.0625 C105.05748738 59.56315017 105.05292406 62.06380129 105.04882812 64.56445312 C105.03777462 70.70965588 105.02101852 76.85482369 105 83 C97.21778401 81.6303021 89.75220007 79.55598863 82.19921875 77.25390625 C80.33178804 76.69109091 78.46435713 76.12827624 76.59691715 75.56549168 C74.63345213 74.97280397 72.67068781 74.37784954 70.70812988 73.78216553 C66.66452516 72.55485433 62.61908274 71.33368716 58.57324219 70.11376953 C54.52628207 68.89328831 50.47938801 67.67259514 46.43313599 66.44976807 C35.21479238 63.05987052 23.98568515 59.70694585 12.75 56.375 C11.20401137 55.91612669 9.65803122 55.45722482 8.11206055 54.99829102 C4.74163192 53.99798857 1.37092789 52.99861887 -2 52 C0.65455712 42.963543 0.65455712 42.963543 2.16796875 38.7421875 C5.63394207 28.9949675 7.4471578 17.51509869 3.0625 7.75 C2.52302734 6.78320312 2.52302734 6.78320312 1.97265625 5.796875 C0.93433663 3.87869417 0.49220456 2.1154673 0 0 Z " fill="#F5C258" transform="translate(407,313)"/>
<path d="M0 0 C6.42828728 3.74983425 10.44094375 7.66257262 13 14.75 C13.95107995 21.51422282 13.80530145 28.86446708 10 34.75 C5.17965533 40.13488955 -0.26341695 44.10836242 -7.56640625 45.09765625 C-14.55125537 45.47652846 -19.44562316 44.00536935 -25 39.75 C-29.61358756 35.55163532 -32.55616496 30.36563176 -33.3203125 24.140625 C-33.6510807 16.15808577 -31.78542328 11.06239525 -26.6875 5 C-18.8456517 -1.56526834 -10.00535271 -3.97142289 0 0 Z " fill="#FEFDFC" transform="translate(383,314.25)"/>
<path d="M0 0 C5.7111608 2.5343276 9.47854485 6.90957524 12.625 12.1875 C14.58816886 19.11633126 14.72689305 26.40422003 11.7890625 33.08984375 C8.53379007 38.54992836 4.02906947 42.60629629 -2.078125 44.5 C-8.86275625 45.82845927 -15.3704135 45.86994525 -21.4609375 42.3359375 C-26.6773689 38.39610112 -31.13173159 33.4973245 -32.3125 26.9375 C-33.03315122 19.03702735 -32.22091106 12.51069073 -27.125 6.25 C-26.196875 5.486875 -25.26875 4.72375 -24.3125 3.9375 C-23.48105469 3.23753906 -23.48105469 3.23753906 -22.6328125 2.5234375 C-15.8927121 -2.48269517 -7.8673459 -2.42894757 0 0 Z " fill="#FEFDFD" transform="translate(84.3125,57.0625)"/>
<path d="M0 0 C3.9132706 1.56530824 6.13199262 2.64528238 9.3125 5.125 C10.00988281 5.66382813 10.70726562 6.20265625 11.42578125 6.7578125 C11.94527344 7.16773438 12.46476563 7.57765625 13 8 C11.53815199 13.36010937 7.90369352 16.31866877 4 20 C2.68 21.32 1.36 22.64 0 24 C0 16.08 0 8.16 0 0 Z " fill="#41A699" transform="translate(124,203)"/>
</svg>
