<?xml version="1.0" encoding="UTF-8"?>
<svg version="1.1" xmlns="http://www.w3.org/2000/svg" width="512" height="512">
<path d="M0 0 C4.53861925 2.14987228 6.85253931 4.47903012 9 9 C10.20269424 13.07454052 10.12602548 17.05081468 10.09765625 21.265625 C10.09553383 22.45572174 10.09553383 22.45572174 10.09336853 23.66986084 C10.08778415 26.19661272 10.07523454 28.72327504 10.0625 31.25 C10.05748298 32.96614455 10.05292043 34.68229049 10.04882812 36.3984375 C10.03781984 40.59899269 10.02056596 44.79948117 10 49 C10.80139404 49.04825928 11.60278809 49.09651855 12.4284668 49.14624023 C61.10801514 52.43005068 105.08426601 74.67586642 140 108 C140.80179687 108.76054688 141.60359375 109.52109375 142.4296875 110.3046875 C177.08938803 144.00494996 197.80813573 192.10604998 201 240 C202.07894531 239.97905273 203.15789062 239.95810547 204.26953125 239.93652344 C208.30243468 239.86369576 212.3352809 239.81804616 216.36865234 239.78027344 C218.10866089 239.76025478 219.84860299 239.73303114 221.58837891 239.69824219 C224.10075346 239.64929048 226.61223275 239.62693413 229.125 239.609375 C229.89303955 239.58872986 230.6610791 239.56808472 231.45239258 239.54681396 C237.07958406 239.54451703 241.28347626 240.90054567 246 244 C249.70802596 247.70802596 250.31524771 250.85931835 250.5625 255.9375 C250.38508399 260.70407682 249.64791167 263.799228 246.77734375 267.59765625 C241.31618077 271.90657385 235.90758378 272.42683883 229.22265625 272.29296875 C228.00563271 272.28660149 228.00563271 272.28660149 226.76402283 272.28010559 C224.19649744 272.26343867 221.62978436 272.22581048 219.0625 272.1875 C217.31186037 272.1724376 215.56120832 272.15875193 213.81054688 272.14648438 C209.54005608 272.11357468 205.27016531 272.06187726 201 272 C200.86259399 273.78688232 200.86259399 273.78688232 200.72241211 275.60986328 C196.52438447 328.25972852 170.30799355 378.98669522 130.27246094 413.48876953 C126.28583657 416.7998269 122.17499803 419.93134068 118 423 C116.94039063 423.78117187 115.88078125 424.56234375 114.7890625 425.3671875 C106.55175677 431.24516616 97.95301019 436.29860886 89 441 C88.34580078 441.34417969 87.69160156 441.68835938 87.01757812 442.04296875 C63.17904752 454.37568726 36.74884372 461.38920706 10 463 C10.01571045 464.05388916 10.0314209 465.10777832 10.04760742 466.19360352 C10.10217256 470.12776965 10.13644612 474.06190274 10.16479492 477.99633789 C10.17982126 479.69463742 10.20024823 481.39289855 10.22631836 483.09106445 C10.26297449 485.54127518 10.27978789 487.99097 10.29296875 490.44140625 C10.30845261 491.19273331 10.32393646 491.94406036 10.33988953 492.71815491 C10.34194922 499.26483349 8.89605686 503.87271669 4.4375 508.875 C0.10332349 512.65351286 -3.40906572 512.34050161 -9.015625 512.2734375 C-13.07753773 511.90127272 -15.08460596 510.84250919 -18 508 C-21.80536987 502.48413119 -22.56252827 498.62415277 -22.390625 492.00390625 C-22.38496521 491.17036118 -22.37930542 490.3368161 -22.37347412 489.47801208 C-22.35124195 486.83890168 -22.30107305 484.2011938 -22.25 481.5625 C-22.22991787 479.76369161 -22.21167011 477.96486174 -22.1953125 476.16601562 C-22.15142071 471.77681067 -22.08248731 467.38864239 -22 463 C-22.88083252 462.95101563 -23.76166504 462.90203125 -24.66918945 462.8515625 C-32.31123823 462.37480141 -39.69744342 461.5879077 -47.1875 460 C-48.19361328 459.78706299 -49.19972656 459.57412598 -50.23632812 459.35473633 C-67.82607327 455.42835752 -85.39302519 449.84637234 -101.16845703 441.02246094 C-103.10826877 439.93955883 -105.06595708 438.89482337 -107.02734375 437.8515625 C-153.57654135 412.77041151 -189.1251802 368.57313984 -204.88427734 318.171875 C-209.26026251 303.22332786 -213.13410588 287.65039113 -213 272 C-214.07894531 272.02094727 -215.15789062 272.04189453 -216.26953125 272.06347656 C-220.30243468 272.13630424 -224.3352809 272.18195384 -228.36865234 272.21972656 C-230.10866089 272.23974522 -231.84860299 272.26696886 -233.58837891 272.30175781 C-236.10075346 272.35070952 -238.61223275 272.37306587 -241.125 272.390625 C-241.89303955 272.41127014 -242.6610791 272.43191528 -243.45239258 272.45318604 C-249.07958406 272.45548297 -253.28347626 271.09945433 -258 268 C-261.70802596 264.29197404 -262.31524771 261.14068165 -262.5625 256.0625 C-262.38508399 251.29592318 -261.64791167 248.200772 -258.77734375 244.40234375 C-253.31618077 240.09342615 -247.90758378 239.57316117 -241.22265625 239.70703125 C-240.41130722 239.71127609 -239.59995819 239.71552094 -238.76402283 239.71989441 C-236.19649744 239.73656133 -233.62978436 239.77418952 -231.0625 239.8125 C-229.31186037 239.8275624 -227.56120832 239.84124807 -225.81054688 239.85351562 C-221.54005608 239.88642532 -217.27016531 239.93812274 -213 240 C-212.95246582 239.05205566 -212.90493164 238.10411133 -212.85595703 237.12744141 C-212.39418594 229.05503598 -211.59277945 221.29420828 -209.875 213.375 C-209.65618164 212.3550293 -209.43736328 211.33505859 -209.21191406 210.28417969 C-197.58077351 158.22635644 -165.30462769 111.14002128 -120.49609375 82.0390625 C-97.37919227 67.39744984 -72.44070378 57.21560478 -45.625 51.6875 C-44.86614502 51.52813965 -44.10729004 51.3687793 -43.32543945 51.20458984 C-36.27022165 49.83799453 -29.16532679 49.41933665 -22 49 C-22.02094727 47.8855249 -22.04189453 46.7710498 -22.06347656 45.62280273 C-22.13619407 41.46505721 -22.18191446 37.30736727 -22.21972656 33.14916992 C-22.23977001 31.35382618 -22.26701251 29.55854713 -22.30175781 27.76342773 C-22.35059849 25.1741535 -22.3730412 22.5857466 -22.390625 19.99609375 C-22.41127014 19.20101913 -22.43191528 18.40594452 -22.45318604 17.58677673 C-22.45544319 11.90690506 -21.23394575 8.68759178 -18 4 C-12.81834962 -1.05210912 -6.84411596 -0.92944785 0 0 Z M-132 133 C-132.61875 133.57363281 -133.2375 134.14726562 -133.875 134.73828125 C-162.3331749 161.72272924 -180.67440419 204.35506197 -182.1262207 243.39404297 C-182.20701714 247.36717564 -182.24659395 251.33867856 -182.25 255.3125 C-182.25067474 256.02175629 -182.25134949 256.73101257 -182.25204468 257.46176147 C-182.23436799 269.19726786 -181.52215003 280.51379116 -179 292 C-178.75056641 293.16281494 -178.75056641 293.16281494 -178.49609375 294.34912109 C-171.55570326 325.69012519 -155.70309864 356.98997984 -132 379 C-127 384 -127 384 -125.47509766 385.57543945 C-97.25766784 414.45070394 -53.72627006 431.26047315 -13.63671875 432.203125 C38.33964885 432.78830175 83.35014263 414.74252893 120.6875 378.625 C153.28925897 345.25726725 170.48035154 299.65671778 170.30053711 253.2902832 C169.45531407 205.12015044 149.09169652 161.62934895 115.25415039 127.88354492 C88.71095935 102.26056939 53.43071357 85.88246677 17 81 C16.34322266 80.9071875 15.68644531 80.814375 15.00976562 80.71875 C-39.49222717 73.71206589 -93.9327624 93.95667938 -132 133 Z " fill="#000000" transform="translate(262,0)"/>
<path d="M0 0 C21.53038137 19.01954972 32.35661986 44.97449192 34.22265625 73.390625 C34.98924715 102.05445864 24.38182525 127.45555756 5.6328125 148.6796875 C-12.412973 167.67213716 -37.87338157 179.18266223 -64.0859375 180.203125 C-94.53944089 180.76570279 -120.14880745 170.8168916 -142.4597168 149.92651367 C-161.56590837 131.45628663 -171.57516756 106.17499887 -172.46875 79.78173828 C-172.79220422 50.9892586 -162.89692485 25.77888074 -143 5 C-142.37609375 4.31292969 -141.7521875 3.62585938 -141.109375 2.91796875 C-103.72898875 -36.89685442 -39.57387976 -33.78762058 0 0 Z " fill="#000000" transform="translate(325,179)"/>
</svg>
