<?xml version="1.0" encoding="UTF-8"?>
<svg version="1.1" xmlns="http://www.w3.org/2000/svg" width="512" height="512">
<path d="M0 0 C1.01790619 0.00215515 2.03581238 0.0043103 3.08456421 0.00653076 C17.69363523 0.05620146 32.02575853 0.30709809 46.375 3.3125 C47.34985352 3.51117676 48.32470703 3.70985352 49.32910156 3.91455078 C97.7109774 14.03517194 141.69928269 35.9516877 177.375 70.3125 C178.3640332 71.26068604 178.3640332 71.26068604 179.37304688 72.22802734 C188.86130305 81.37247479 197.6012044 90.66984009 205.375 101.3125 C206.23306152 102.46355017 207.09113451 103.61459177 207.94921875 104.765625 C213.98736829 112.95680614 219.34595521 121.47054105 224.375 130.3125 C224.73948242 130.94430176 225.10396484 131.57610352 225.47949219 132.22705078 C247.08534998 169.97532572 256.85198095 212.74189997 256.6875 255.9375 C256.68534485 256.95540619 256.6831897 257.97331238 256.68096924 259.02206421 C256.63129854 273.63113523 256.38040191 287.96325853 253.375 302.3125 C253.07698486 303.77478027 253.07698486 303.77478027 252.77294922 305.26660156 C242.65232806 353.6484774 220.7358123 397.63678269 186.375 433.3125 C185.74287598 433.97185547 185.11075195 434.63121094 184.45947266 435.31054688 C175.31502521 444.79880305 166.01765991 453.5387044 155.375 461.3125 C154.22394983 462.17056152 153.07290823 463.02863451 151.921875 463.88671875 C143.73224019 469.92427396 135.22961724 475.30707302 126.375 480.3125 C125.66778809 480.7146875 124.96057617 481.116875 124.23193359 481.53125 C101.09654164 494.5566741 75.92537591 503.30551461 49.9375 508.625 C49.21860596 508.77235596 48.49971191 508.91971191 47.7590332 509.0715332 C33.08339502 511.86090125 18.55831162 512.66142619 3.64770508 512.62817383 C0.70811513 512.6250221 -2.2304558 512.64854926 -5.16992188 512.67382812 C-18.54306192 512.71848737 -31.43916711 511.51301542 -44.625 509.3125 C-46.33055054 509.03031616 -46.33055054 509.03031616 -48.07055664 508.74243164 C-91.33802759 500.97044532 -132.38793216 480.98345309 -165.625 452.3125 C-166.37007813 451.67828125 -167.11515625 451.0440625 -167.8828125 450.390625 C-181.38779833 438.57948485 -194.05918743 425.82889772 -204.625 411.3125 C-205.48149066 410.16255169 -206.33826433 409.01281411 -207.1953125 407.86328125 C-213.23534209 399.67315742 -218.61867614 391.16870382 -223.625 382.3125 C-224.0271875 381.60528809 -224.429375 380.89807617 -224.84375 380.16943359 C-237.8691741 357.03404164 -246.61801461 331.86287591 -251.9375 305.875 C-252.08485596 305.15610596 -252.23221191 304.43721191 -252.3840332 303.6965332 C-255.35789088 288.05024391 -255.99800362 272.57681954 -255.9375 256.6875 C-255.93534485 255.66959381 -255.9331897 254.65168762 -255.93096924 253.60293579 C-255.88129854 238.99386477 -255.63040191 224.66174147 -252.625 210.3125 C-252.42632324 209.33764648 -252.22764648 208.36279297 -252.02294922 207.35839844 C-241.90232806 158.9765226 -219.9858123 114.98821731 -185.625 79.3125 C-184.99287598 78.65314453 -184.36075195 77.99378906 -183.70947266 77.31445312 C-174.56502521 67.82619695 -165.26765991 59.0862956 -154.625 51.3125 C-153.47394983 50.45443848 -152.32290823 49.59636549 -151.171875 48.73828125 C-142.98224019 42.70072604 -134.47961724 37.31792698 -125.625 32.3125 C-124.91778809 31.9103125 -124.21057617 31.508125 -123.48193359 31.09375 C-100.34654164 18.0683259 -75.17537591 9.31948539 -49.1875 4 C-48.46860596 3.85264404 -47.74971191 3.70528809 -47.0090332 3.5534668 C-31.36274391 0.57960912 -15.88931954 -0.06050362 0 0 Z " fill="#FEFEFE" transform="translate(255.625,-0.3125)"/>
<path d="M0 0 C1.01790619 0.00215515 2.03581238 0.0043103 3.08456421 0.00653076 C17.69363523 0.05620146 32.02575853 0.30709809 46.375 3.3125 C47.34985352 3.51117676 48.32470703 3.70985352 49.32910156 3.91455078 C97.7109774 14.03517194 141.69928269 35.9516877 177.375 70.3125 C178.3640332 71.26068604 178.3640332 71.26068604 179.37304688 72.22802734 C188.86130305 81.37247479 197.6012044 90.66984009 205.375 101.3125 C206.23306152 102.46355017 207.09113451 103.61459177 207.94921875 104.765625 C213.98736829 112.95680614 219.34595521 121.47054105 224.375 130.3125 C224.73948242 130.94430176 225.10396484 131.57610352 225.47949219 132.22705078 C247.08534998 169.97532572 256.85198095 212.74189997 256.6875 255.9375 C256.68534485 256.95540619 256.6831897 257.97331238 256.68096924 259.02206421 C256.63129854 273.63113523 256.38040191 287.96325853 253.375 302.3125 C253.07698486 303.77478027 253.07698486 303.77478027 252.77294922 305.26660156 C242.65232806 353.6484774 220.7358123 397.63678269 186.375 433.3125 C185.74287598 433.97185547 185.11075195 434.63121094 184.45947266 435.31054688 C175.31502521 444.79880305 166.01765991 453.5387044 155.375 461.3125 C154.22394983 462.17056152 153.07290823 463.02863451 151.921875 463.88671875 C143.73224019 469.92427396 135.22961724 475.30707302 126.375 480.3125 C125.66778809 480.7146875 124.96057617 481.116875 124.23193359 481.53125 C101.09654164 494.5566741 75.92537591 503.30551461 49.9375 508.625 C49.21860596 508.77235596 48.49971191 508.91971191 47.7590332 509.0715332 C33.08339502 511.86090125 18.55831162 512.66142619 3.64770508 512.62817383 C0.70811513 512.6250221 -2.2304558 512.64854926 -5.16992188 512.67382812 C-18.54306192 512.71848737 -31.43916711 511.51301542 -44.625 509.3125 C-46.33055054 509.03031616 -46.33055054 509.03031616 -48.07055664 508.74243164 C-91.33802759 500.97044532 -132.38793216 480.98345309 -165.625 452.3125 C-166.37007813 451.67828125 -167.11515625 451.0440625 -167.8828125 450.390625 C-181.38779833 438.57948485 -194.05918743 425.82889772 -204.625 411.3125 C-205.48149066 410.16255169 -206.33826433 409.01281411 -207.1953125 407.86328125 C-213.23534209 399.67315742 -218.61867614 391.16870382 -223.625 382.3125 C-224.0271875 381.60528809 -224.429375 380.89807617 -224.84375 380.16943359 C-237.8691741 357.03404164 -246.61801461 331.86287591 -251.9375 305.875 C-252.08485596 305.15610596 -252.23221191 304.43721191 -252.3840332 303.6965332 C-255.35789088 288.05024391 -255.99800362 272.57681954 -255.9375 256.6875 C-255.93534485 255.66959381 -255.9331897 254.65168762 -255.93096924 253.60293579 C-255.88129854 238.99386477 -255.63040191 224.66174147 -252.625 210.3125 C-252.42632324 209.33764648 -252.22764648 208.36279297 -252.02294922 207.35839844 C-241.90232806 158.9765226 -219.9858123 114.98821731 -185.625 79.3125 C-184.99287598 78.65314453 -184.36075195 77.99378906 -183.70947266 77.31445312 C-174.56502521 67.82619695 -165.26765991 59.0862956 -154.625 51.3125 C-153.47394983 50.45443848 -152.32290823 49.59636549 -151.171875 48.73828125 C-142.98224019 42.70072604 -134.47961724 37.31792698 -125.625 32.3125 C-124.91778809 31.9103125 -124.21057617 31.508125 -123.48193359 31.09375 C-100.34654164 18.0683259 -75.17537591 9.31948539 -49.1875 4 C-48.46860596 3.85264404 -47.74971191 3.70528809 -47.0090332 3.5534668 C-31.36274391 0.57960912 -15.88931954 -0.06050362 0 0 Z M-31.625 25.3125 C-33.50058594 25.5290625 -33.50058594 25.5290625 -35.4140625 25.75 C-90.64707679 32.15382774 -145.28218382 65.0853689 -179.74609375 108.18359375 C-201.06253969 135.29262095 -217.21318525 165.7354695 -225.625 199.3125 C-225.80901367 200.0432373 -225.99302734 200.77397461 -226.18261719 201.52685547 C-235.81861756 240.81920254 -233.93228105 283.63123318 -222.625 322.3125 C-222.40779297 323.07530273 -222.19058594 323.83810547 -221.96679688 324.62402344 C-215.37962322 347.3037937 -204.69349811 370.29500453 -190.625 389.3125 C-189.86960938 390.33859375 -189.11421875 391.3646875 -188.3359375 392.421875 C-175.3908206 409.72978281 -160.89851373 426.21451758 -143.625 439.3125 C-143.00206055 439.79009766 -142.37912109 440.26769531 -141.73730469 440.75976562 C-113.89970129 461.97817619 -83.02638742 476.21585333 -48.93603516 483.78173828 C-46.84521537 484.26192444 -44.77916911 484.79747822 -42.70703125 485.3515625 C-16.18046704 492.02374634 12.61878599 490.51190579 39.375 486.3125 C40.22932617 486.18391602 41.08365234 486.05533203 41.96386719 485.92285156 C95.64475562 477.56776675 147.94167511 445.98090414 181.375 403.3125 C182.15359375 402.35085938 182.9321875 401.38921875 183.734375 400.3984375 C223.01608551 350.98354689 238.75160524 288.09524952 231.68701172 225.87548828 C228.33372143 198.33022895 219.49899395 171.71852384 206.375 147.3125 C205.86332275 146.34135254 205.86332275 146.34135254 205.34130859 145.35058594 C196.8729555 129.32895098 186.43934146 114.81367102 174.375 101.3125 C173.8903125 100.76609863 173.405625 100.21969727 172.90625 99.65673828 C137.6426732 60.06556758 87.86434709 33.23175607 35.375 25.3125 C34.22813721 25.13895996 34.22813721 25.13895996 33.05810547 24.96191406 C11.78695944 21.93408884 -10.40429991 22.05473794 -31.625 25.3125 Z " fill="#050505" transform="translate(255.625,-0.3125)"/>
<path d="M0 0 C14.27544396 11.99488149 22.33335593 28.58824869 24.41796875 47.01171875 C25.01601132 58.54987601 25.30991328 70.00856694 21.41796875 81.01171875 C21.13566406 81.96949219 20.85335937 82.92726563 20.5625 83.9140625 C18.21428443 91.04867915 14.71392654 96.92006865 10.58203125 103.14453125 C10.00990906 104.01530304 9.43778687 104.88607483 8.84832764 105.78323364 C7.0427898 108.52911094 5.23044503 111.27041791 3.41796875 114.01171875 C2.2919157 115.72326137 1.16641603 117.43516822 0.04150391 119.14746094 C-2.81165747 123.48813377 -5.67089152 127.8247655 -8.53234863 132.15997314 C-11.02341772 135.93425624 -13.51270495 139.70971344 -16.00213623 143.4850769 C-17.92314973 146.39835297 -19.8443687 149.31149343 -21.765625 152.22460938 C-27.23743377 160.52168097 -32.70826501 168.81939265 -38.17443848 177.12017822 C-39.27550094 178.79180008 -40.37697908 180.46314823 -41.47888184 182.13421631 C-42.99865815 184.43906916 -44.51707814 186.74480966 -46.03515625 189.05078125 C-46.48475708 189.73195007 -46.93435791 190.4131189 -47.39758301 191.1149292 C-49.62758588 194.48221187 -49.62758588 194.48221187 -51.58203125 198.01171875 C-70.06203125 198.01171875 -88.54203125 198.01171875 -107.58203125 198.01171875 C-105.5741634 193.99598305 -103.20205182 190.43151281 -100.64453125 186.76171875 C-99.64576562 185.31905729 -98.64706963 183.87634762 -97.6484375 182.43359375 C-96.88297607 181.33047852 -96.88297607 181.33047852 -96.10205078 180.20507812 C-93.75208847 176.81412705 -91.41730085 173.41279698 -89.08203125 170.01171875 C-86.32397882 165.99746039 -83.56413274 161.9844822 -80.796875 157.9765625 C-74.63593416 149.04659884 -68.57296941 140.05660587 -62.58203125 131.01171875 C-63.98001953 130.88216797 -63.98001953 130.88216797 -65.40625 130.75 C-74.47091434 129.75096217 -82.22180978 127.84393295 -90.58203125 124.01171875 C-91.98388672 123.38136719 -91.98388672 123.38136719 -93.4140625 122.73828125 C-101.36822934 118.80102556 -107.35470593 113.21153012 -113.58203125 107.01171875 C-114.17886719 106.4496875 -114.77570313 105.88765625 -115.390625 105.30859375 C-129.13284862 91.15671035 -131.94143582 70.61656709 -131.73046875 51.9296875 C-131.26949386 32.02086231 -122.88425269 14.77111661 -108.58203125 1.01171875 C-78.1373978 -24.53081271 -31.02808453 -23.89303332 0 0 Z " fill="#010101" transform="translate(309.58203125,165.98828125)"/>
<path d="M0 0 C6.36010827 4.36750604 10.83827761 9.49872368 13 17 C14.21662925 27.0883328 13.24925849 34.85728955 7.4921875 43.1796875 C2.63225439 49.35067233 -3.34494007 52.46612095 -11 54 C-21.51167122 54.79103749 -29.87640692 53.41645302 -38.2109375 46.7421875 C-44.39011206 40.72491271 -47.28732578 33.33709519 -47.4375 24.8125 C-47.41396374 16.76309975 -45.60144542 10.89725203 -40.09765625 4.94140625 C-29.45382776 -4.88523771 -12.65274108 -8.37715863 0 0 Z " fill="#FCFCFC" transform="translate(273,198)"/>
</svg>
