<?xml version="1.0" encoding="UTF-8"?>
<svg version="1.1" xmlns="http://www.w3.org/2000/svg" width="512" height="512">
<path d="M0 0 C37.62248592 21.9330661 83.50849135 25.4444349 125.21386719 14.64331055 C138.79469907 10.92911698 151.25861515 4.94108851 163.52246094 -1.8762207 C166.47931686 -3.50270603 169.45972399 -5.0692531 172.46386719 -6.60668945 C173.39714844 -7.0862207 174.33042969 -7.56575195 175.29199219 -8.05981445 C181.76275451 -10.93186404 187.54787104 -11.71650601 194.52636719 -11.66918945 C195.36723877 -11.665 196.20811035 -11.66081055 197.07446289 -11.65649414 C203.2108651 -11.54482599 208.54943221 -10.84298725 214.21386719 -8.35668945 C215.19613281 -7.97383789 215.19613281 -7.97383789 216.19824219 -7.58325195 C230.92761079 -1.16124724 242.52487993 13.32397967 252.21386719 25.64331055 C253.00535156 26.6178418 253.79683594 27.59237305 254.61230469 28.59643555 C287.56324615 69.9670182 301.33696768 120.81759814 301.45410156 173.02026367 C301.46385383 175.63972191 301.49502206 178.25840837 301.52636719 180.87768555 C301.63897905 198.78867568 299.30737899 213.93871163 286.53027344 227.3894043 C277.4437162 236.23079304 266.83083957 241.7600199 254.00430775 241.77473831 C252.74649709 241.77857946 251.48868642 241.7824206 250.19276029 241.78637815 C248.79947136 241.78559795 247.40618249 241.78471917 246.01289368 241.78375244 C244.53077641 241.78633684 243.04865984 241.7893502 241.56654423 241.79275584 C237.49257704 241.80082037 233.41862748 241.80261511 229.34465325 241.80335331 C224.95118432 241.80520482 220.55772451 241.81275265 216.16426086 241.81948853 C206.55675515 241.8330685 196.94925361 241.83909605 187.34173989 241.84349918 C181.34227361 241.84626218 175.34280893 241.85049964 169.34334373 241.85500336 C152.73116946 241.86719559 136.11899647 241.87749499 119.50681782 241.88087845 C118.44366899 241.88109801 117.38052017 241.88131758 116.28515471 241.8815438 C114.68662544 241.88187122 114.68662544 241.88187122 113.05580264 241.88220525 C110.89633262 241.88264871 108.7368626 241.88309528 106.57739258 241.88354492 C105.50622187 241.88376635 104.43505117 241.88398778 103.33142074 241.88421592 C85.97585133 241.88816367 68.62032391 241.9056172 51.26477072 241.92890444 C33.44426691 241.95262246 15.62378417 241.96508051 -2.19673568 241.96624637 C-12.20155583 241.96716287 -22.20632126 241.97290909 -32.21112633 241.99106598 C-40.73070762 242.00647302 -49.25021729 242.01158385 -57.76980986 242.00332788 C-62.11533425 241.99942352 -66.46071441 242.00034049 -70.80622101 242.01438522 C-74.78812232 242.0271369 -78.76977122 242.02591558 -82.75167225 242.01379451 C-84.18843655 242.0118397 -85.62521882 242.01490594 -87.06195792 242.02363887 C-102.36959774 242.11075619 -114.92235887 238.6235655 -126.16113281 227.76831055 C-137.20420819 216.02630634 -140.92962412 202.67943539 -140.95410156 186.72924805 C-140.95838165 185.88580841 -140.96266174 185.04236877 -140.96707153 184.17337036 C-140.97703159 181.45496262 -140.97713039 178.73673303 -140.97363281 176.01831055 C-140.97269623 175.09058838 -140.97175964 174.16286621 -140.97079468 173.20703125 C-140.82592062 107.27006716 -118.13395606 51.41571015 -72.29003906 4.06518555 C-50.44554977 -17.0260455 -24.33901907 -14.35775228 0 0 Z " fill="#000000" transform="translate(175.7861328125,270.356689453125)"/>
<path d="M0 0 C1.05631622 0.00031723 1.05631622 0.00031723 2.13397217 0.00064087 C13.64481065 0.03507319 24.45201981 0.9942125 35.5 4.375 C37.32724609 4.91833984 37.32724609 4.91833984 39.19140625 5.47265625 C69.82743485 15.57056512 95.75114391 36.77158448 110.578125 65.53027344 C125.09498489 94.57937126 129.1649314 126.8283375 120.5 158.375 C120.32339844 159.04241211 120.14679688 159.70982422 119.96484375 160.39746094 C114.61513911 180.06257893 103.35123932 196.68501782 89.5 211.375 C88.83742188 212.11363281 88.17484375 212.85226563 87.4921875 213.61328125 C67.29011898 235.23640782 35.87212501 247.51419477 6.6640625 248.65625 C-29.07580539 249.4801171 -61.06839807 237.9637852 -87.09277344 213.25317383 C-103.41468056 197.19733615 -114.55190108 177.45236048 -120.5 155.375 C-120.76683594 154.38741699 -120.76683594 154.38741699 -121.0390625 153.37988281 C-125.85248064 134.46047541 -125.57078429 112.21331094 -120.5 93.375 C-120.31195801 92.66794922 -120.12391602 91.96089844 -119.93017578 91.23242188 C-115.17920771 74.07299863 -106.99667482 57.99354433 -95.5 44.375 C-94.25476563 42.88613281 -94.25476563 42.88613281 -92.984375 41.3671875 C-69.7251575 14.38873622 -35.36604235 -0.09812652 0 0 Z " fill="#000000" transform="translate(255.5,-0.375)"/>
</svg>
