<?xml version="1.0" encoding="UTF-8"?>
<svg version="1.1" xmlns="http://www.w3.org/2000/svg" width="512" height="512">
<path d="M0 0 C1.19367188 -0.01675781 2.38734375 -0.03351562 3.6171875 -0.05078125 C9.16056165 0.52330984 13.08753291 2.71416791 16.8125 6.8125 C23.73606058 15.40505394 24.26923377 27.95152456 26.078125 38.56640625 C26.34518078 40.11858224 26.61233352 41.67074156 26.87957764 43.22288513 C27.43481842 46.45707939 27.98536847 49.69203374 28.53320312 52.92749023 C29.23220619 57.05040632 29.94837271 61.17014135 30.66875076 65.28936863 C31.22503662 68.48710608 31.7693698 71.68679672 32.31050873 74.88712883 C32.56935973 76.4063336 32.83245261 77.92482258 33.10007477 79.44250679 C36.81719896 100.59432912 36.81719896 100.59432912 31.39453125 108.71875 C22.65278932 119.69299833 8.16327224 119.77635275 -4.90625 122.01171875 C-6.31384542 122.25403837 -7.72143814 122.49637371 -9.12902832 122.73872375 C-12.05639761 123.24155375 -14.98432594 123.74097965 -17.91259766 124.23852539 C-21.62885612 124.87070759 -25.34263372 125.51638941 -29.05600739 126.16527081 C-31.95474921 126.66934113 -34.85510696 127.16358977 -37.75596619 127.65531349 C-39.12463722 127.88895912 -40.49272065 128.12607929 -41.86012268 128.36704063 C-66.24731547 132.65187917 -66.24731547 132.65187917 -73.875 127.3125 C-74.74125 126.755625 -75.6075 126.19875 -76.5 125.625 C-81.60253373 120.65674347 -83.13644962 115.91143015 -83.375 108.8125 C-83.1310763 102.21893747 -82.07785039 97.38763519 -77.22802734 92.73120117 C-72.02302235 88.6027927 -67.50991221 87.07936224 -61 86.0625 C-60.16597656 85.91554688 -59.33195313 85.76859375 -58.47265625 85.6171875 C-56.7985667 85.32221654 -55.12309105 85.03499874 -53.44628906 84.75585938 C-49.23830345 84.03028951 -45.05755371 83.17108874 -40.875 82.3125 C-51.63004237 76.94828951 -62.21205334 72.29617897 -73.875 69.3125 C-75.10476563 68.9928125 -76.33453125 68.673125 -77.6015625 68.34375 C-98.47539684 63.82596622 -121.30616903 64.7836601 -141.875 70.3125 C-142.63103516 70.51085449 -143.38707031 70.70920898 -144.16601562 70.91357422 C-162.44070171 75.88571283 -179.53776634 84.96878619 -193.875 97.3125 C-194.7515625 98.05113281 -195.628125 98.78976563 -196.53125 99.55078125 C-222.89335728 122.45489606 -239.2536838 154.60006365 -242.875 189.3125 C-243.85581907 204.47303368 -243.38710173 219.50769504 -239.875 234.3125 C-239.64949463 235.31821045 -239.64949463 235.31821045 -239.41943359 236.34423828 C-233.96416044 259.94976604 -221.52254756 280.9449028 -204.875 298.3125 C-203.75738281 299.52486328 -203.75738281 299.52486328 -202.6171875 300.76171875 C-178.57365432 326.03520165 -144.48994692 338.64899191 -110.13671875 340.515625 C-73.40531912 340.99734827 -38.88905496 328.20294762 -11.875 303.3125 C-10.93011719 302.45011719 -9.98523438 301.58773438 -9.01171875 300.69921875 C11.79091714 280.83814488 24.93636682 254.10666171 29.57006836 225.85498047 C30.86366331 218.66450665 33.78032503 212.77333683 39.75 208.375 C45.75999974 204.70222238 51.22973455 204.69919812 58.125 205.3125 C64.36811341 207.03116804 68.58526265 211.00289398 72.125 216.3125 C76.03715265 224.49245554 73.96505854 233.6420658 72.0625 242.125 C71.72859253 243.6246228 71.72859253 243.6246228 71.38793945 245.15454102 C67.69259429 261.0887484 62.05617386 276.01435602 54.125 290.3125 C53.77179688 290.95026367 53.41859375 291.58802734 53.0546875 292.24511719 C45.60719295 305.5126412 36.60045885 317.26899394 26.125 328.3125 C25.66818848 328.80186035 25.21137695 329.2912207 24.74072266 329.79541016 C-4.57095216 361.03330854 -48.40161303 383.02822791 -91.62695312 384.43457031 C-127.09747745 385.20684465 -127.09747745 385.20684465 -143.875 381.3125 C-145.18283447 381.01448486 -145.18283447 381.01448486 -146.51708984 380.71044922 C-177.01692629 373.5482185 -205.60528814 359.40940121 -228.36328125 337.70703125 C-230.41628787 335.74981032 -232.49530615 333.92037289 -234.6875 332.125 C-266.58821548 305.15529354 -283.46210571 259.72258334 -287.625 219.25 C-287.7378504 217.27229681 -287.81697596 215.29257029 -287.875 213.3125 C-287.90078125 212.60432129 -287.9265625 211.89614258 -287.953125 211.16650391 C-289.33132652 168.88155849 -277.45264702 125.72320138 -250.875 92.3125 C-250.45959961 91.78575684 -250.04419922 91.25901367 -249.61621094 90.71630859 C-234.045231 71.12490401 -215.75837338 55.43049671 -193.875 43.3125 C-193.27316895 42.9726709 -192.67133789 42.6328418 -192.05126953 42.28271484 C-152.13691671 19.9967571 -101.68462021 15.26922774 -57.85864258 27.19628906 C-44.41467846 31.06860429 -31.43311061 36.15744758 -18.875 42.3125 C-19.21724609 40.53746094 -19.21724609 40.53746094 -19.56640625 38.7265625 C-23.37623346 18.17698081 -23.37623346 18.17698081 -18.625 9.9375 C-13.73390357 2.94619213 -8.4395122 0.02722423 0 0 Z " fill="#000000" transform="translate(362.875,63.6875)"/>
</svg>
