<?xml version="1.0" encoding="UTF-8"?>
<svg version="1.1" xmlns="http://www.w3.org/2000/svg" width="512" height="512">
<path d="M0 0 C4.86075159 2.92049316 8.6110806 6.4005642 10.43988037 11.87826538 C12.4979929 20.45918347 14.0913018 29.09547222 15.578125 37.7890625 C15.84525471 39.33979653 16.11240601 40.89052685 16.37957764 42.44125366 C16.93432389 45.66955165 17.48490144 48.89853134 18.03320312 52.12792969 C18.73277249 56.24286971 19.44882564 60.3547605 20.16875076 64.4661808 C20.72497102 67.65963573 21.2693126 70.85503534 21.81050873 74.05106735 C22.06931063 75.56749079 22.33240074 77.08318952 22.60007477 78.59807205 C26.05248042 98.19953739 26.05248042 98.19953739 21.9375 106.25 C13.97717849 117.22233506 2.24278855 118.26508553 -10.23046875 120.35546875 C-11.77979522 120.61983744 -13.32905455 120.88459987 -14.87825012 121.1497345 C-18.11757613 121.70211663 -21.35784846 122.24847135 -24.59887695 122.79077148 C-28.71819792 123.48070352 -32.83442186 124.18746322 -36.95003796 124.89911938 C-40.14813649 125.44980553 -43.34788906 125.99035644 -46.54818153 126.52813148 C-48.06472882 126.78436601 -49.58073268 127.0438418 -51.09612083 127.30684471 C-76.43728917 131.68867957 -76.43728917 131.68867957 -84.73046875 126.6953125 C-89.97931085 122.68075868 -92.77703043 117.7187496 -94.375 111.4375 C-95.18651027 105.17727792 -93.43200887 99.86324381 -90.375 94.4375 C-85.28557875 88.56416316 -79.51232601 86.50488573 -71.98046875 85.1484375 C-70.77841797 84.92929688 -69.57636719 84.71015625 -68.33789062 84.484375 C-67.09201172 84.26265625 -65.84613281 84.0409375 -64.5625 83.8125 C-63.29728516 83.58304687 -62.03207031 83.35359375 -60.72851562 83.1171875 C-57.611493 82.55259472 -54.49367567 81.99287625 -51.375 81.4375 C-62.13004237 76.07328951 -72.71205334 71.42117897 -84.375 68.4375 C-85.60476563 68.1178125 -86.83453125 67.798125 -88.1015625 67.46875 C-108.97539684 62.95096622 -131.80616903 63.9086601 -152.375 69.4375 C-153.13103516 69.63585449 -153.88707031 69.83420898 -154.66601562 70.03857422 C-172.94070171 75.01071283 -190.03776634 84.09378619 -204.375 96.4375 C-205.2515625 97.17613281 -206.128125 97.91476563 -207.03125 98.67578125 C-232.96901264 121.21121391 -250.4966141 153.97205098 -253.375 188.4375 C-254.0408184 203.63648232 -253.8958156 218.59596284 -250.375 233.4375 C-250.14949463 234.44321045 -250.14949463 234.44321045 -249.91943359 235.46923828 C-244.46416044 259.07476604 -232.02254756 280.0699028 -215.375 297.4375 C-214.25738281 298.64986328 -214.25738281 298.64986328 -213.1171875 299.88671875 C-191.04242952 323.09071353 -157.46014541 338.28301201 -125.375 339.4375 C-124.17488281 339.4890625 -122.97476563 339.540625 -121.73828125 339.59375 C-84.74491493 340.66159061 -49.52473172 327.45295868 -22.375 302.4375 C-21.43011719 301.57511719 -20.48523438 300.71273438 -19.51171875 299.82421875 C1.29091714 279.96314488 14.43636682 253.23166171 19.07006836 224.97998047 C20.36366331 217.78950665 23.28032503 211.89833683 29.25 207.5 C35.25999974 203.82722238 40.72973455 203.82419812 47.625 204.4375 C53.86811341 206.15616804 58.08526265 210.12789398 61.625 215.4375 C65.53715265 223.61745554 63.46505854 232.7670658 61.5625 241.25 C61.22859253 242.7496228 61.22859253 242.7496228 60.88793945 244.27954102 C57.18060724 260.26543616 51.44730289 275.04036763 43.625 289.4375 C43.30418457 290.04287598 42.98336914 290.64825195 42.65283203 291.27197266 C35.55571592 304.63358232 26.50817312 316.01172726 16.08886719 326.90625 C15.09756414 327.94318341 14.11136667 328.98501769 13.12988281 330.03125 C-15.81593032 360.80814013 -59.69565225 382.21486289 -102.23681641 383.55957031 C-138.45295592 384.3228837 -138.45295592 384.3228837 -154.375 380.4375 C-155.65721436 380.13948486 -155.65721436 380.13948486 -156.96533203 379.83544922 C-187.5015485 372.6164216 -216.05962225 358.5779489 -238.86328125 336.83203125 C-240.91628787 334.87481032 -242.99530615 333.04537289 -245.1875 331.25 C-277.08821548 304.28029354 -293.96210571 258.84758334 -298.125 218.375 C-298.2378504 216.39729681 -298.31697596 214.41757029 -298.375 212.4375 C-298.40078125 211.72932129 -298.4265625 211.02114258 -298.453125 210.29150391 C-299.83132652 168.00655849 -287.95264702 124.84820138 -261.375 91.4375 C-260.95959961 90.91075684 -260.54419922 90.38401367 -260.11621094 89.84130859 C-231.07500425 53.30166677 -191.9649234 31.15560467 -146.375 22.4375 C-145.34874512 22.23833984 -145.34874512 22.23833984 -144.30175781 22.03515625 C-105.1652785 14.82740321 -64.56536855 24.18979692 -29.375 41.4375 C-29.5915625 40.21933594 -29.808125 39.00117187 -30.03125 37.74609375 C-30.31280689 36.12244902 -30.59403969 34.49874807 -30.875 32.875 C-31.01808594 32.07513672 -31.16117187 31.27527344 -31.30859375 30.45117188 C-32.8340899 21.55244436 -32.9032749 14.47452592 -28.375 6.4375 C-21.2722354 -1.75929233 -10.10473179 -4.53642101 0 0 Z " fill="#FFFFFF" transform="translate(373.375,64.5625)"/>
</svg>
