<?xml version="1.0" encoding="UTF-8"?>
<svg version="1.1" xmlns="http://www.w3.org/2000/svg" width="512" height="512">
<path d="M0 0 C10.21272399 7.72751077 19.10814198 16.65701905 28.13357353 25.7175827 C29.90674395 27.48668077 31.68055035 29.25514158 33.45493889 31.02301788 C37.74529224 35.30118083 42.02865158 39.58622808 46.30853729 43.87485421 C49.78948442 47.36261216 53.273392 50.84738761 56.7593708 54.33011627 C57.50720774 55.07726366 57.50720774 55.07726366 58.27015249 55.83950493 C59.28334278 56.85173593 60.29653974 57.86396025 61.3097433 58.87617797 C70.77826467 68.33617366 80.2376199 77.80529167 89.69379283 87.2776286 C97.79140201 95.38865081 105.89686126 103.4917585 114.00808525 111.58916473 C123.45415159 121.01914664 132.89529429 130.45401398 142.32872307 139.89663935 C143.33604578 140.9049176 144.3433747 141.91318963 145.35070992 142.92145538 C145.84619405 143.41740234 146.34167818 143.9133493 146.85217699 144.42432496 C150.32881532 147.90354367 153.80890192 151.37928969 157.29036903 154.85367584 C161.98104111 159.53501585 166.66363524 164.22433139 171.34099197 168.91898155 C173.05443976 170.6363827 174.77042073 172.35126095 176.48916245 174.06336403 C178.84241829 176.40836946 181.18615721 178.76250777 183.52783012 181.11907196 C184.20283432 181.78738399 184.87783851 182.45569602 185.57329738 183.14425993 C197.05415733 194.76625038 204.05030041 207.48735916 204.46609306 223.93828583 C204.20703127 238.11048987 199.7275136 249.55044458 190.0072155 259.88610077 C189.48825295 260.44259819 188.96929041 260.99909562 188.43460172 261.5724566 C181.09889842 269.3829195 173.50293033 276.94107447 165.93313408 284.52324677 C164.22816163 286.23449915 162.52337359 287.94593529 160.8187542 289.65753937 C155.74700396 294.74833373 150.67110576 299.83498033 145.5942947 304.92072666 C143.67548306 306.84306234 141.75698179 308.76570761 139.83849426 310.68836676 C131.35792139 319.18737002 122.87600827 327.68503311 114.39007473 336.17868423 C112.32482827 338.24583988 110.25958745 340.31300117 108.19436455 342.38018036 C107.68120302 342.89382563 107.16804149 343.4074709 106.6393296 343.93668118 C98.31634114 352.26798039 90.00191888 360.60777425 81.69100691 368.95111868 C73.1246894 377.55058864 64.55078197 386.1424323 55.96946663 394.72693658 C51.16481816 399.53374032 46.36344759 404.34371693 41.57058716 409.16227722 C37.06407905 413.69214546 32.54804594 418.21230024 28.02472496 422.72537804 C26.37379487 424.3758148 24.72623661 426.02963294 23.08246231 427.68719673 C8.23115945 442.65602154 -5.05482184 455.32917773 -27.22140694 455.68828583 C-42.39681922 455.5369068 -53.83999353 450.46879898 -64.84640694 440.12578583 C-74.60031474 428.93446004 -78.36017527 416.32384735 -78.09250069 401.68047333 C-77.19974514 388.78511544 -72.3043208 378.51374407 -63.49490547 369.1563797 C-62.70874395 368.31375429 -62.70874395 368.31375429 -61.90670037 367.45410615 C-55.71317436 360.85616495 -49.31570618 354.46247963 -42.90793037 348.07378387 C-41.55620862 346.72234503 -40.20470868 345.37068431 -38.85341072 344.01882172 C-35.22630598 340.39143303 -31.59615229 336.76711023 -27.96539402 333.14337897 C-24.15595435 329.3402406 -20.3493944 325.534222 -16.54251289 321.72852325 C-9.35193922 314.54104308 -2.15882296 307.35611321 5.03523707 300.17212278 C13.23324329 291.98533961 21.42837021 283.79567675 29.62327051 275.60578477 C46.46353596 258.7759388 63.30736857 241.94966681 80.15359306 225.12578583 C78.53208516 221.03872962 75.60303124 218.31060015 72.5313549 215.28322601 C71.95063703 214.70291598 71.36991915 214.12260596 70.77160376 213.52471077 C68.82266109 211.57950131 66.86666837 209.64153827 64.91067314 207.70342255 C63.5124362 206.31066075 62.11466093 204.91743533 60.71731377 203.52378082 C57.7053541 200.52153879 54.6903649 197.52238398 51.67307281 194.52550125 C46.89739691 189.78163717 42.12988672 185.02962415 37.36372185 180.27620697 C25.51928307 168.46586171 13.66565407 156.66475165 1.80703545 144.86864471 C-7.40012013 135.71000679 -16.6040314 126.54816636 -25.79741555 117.37570202 C-30.52921579 112.65539251 -35.26786311 107.94210231 -40.01183641 103.23402858 C-42.9712974 100.29384423 -45.92440582 97.34734173 -48.87583351 94.39909554 C-50.23930117 93.03962626 -51.6053355 91.68272526 -52.9742012 90.32869148 C-66.79496339 76.65222716 -77.64777375 63.53638157 -78.15890694 43.31328583 C-77.91916556 30.1980224 -73.82126983 17.66790228 -64.78781319 7.87969208 C-47.105554 -8.09482377 -20.88842953 -13.75396826 0 0 Z " fill="#FEF8F7" transform="translate(192.8464069366455,31.87421417236328)"/>
<path d="M0 0 C10.21272399 7.72751077 19.10814198 16.65701905 28.13357353 25.7175827 C29.90674395 27.48668077 31.68055035 29.25514158 33.45493889 31.02301788 C37.74529224 35.30118083 42.02865158 39.58622808 46.30853729 43.87485421 C49.78948442 47.36261216 53.273392 50.84738761 56.7593708 54.33011627 C57.50720774 55.07726366 57.50720774 55.07726366 58.27015249 55.83950493 C59.28334278 56.85173593 60.29653974 57.86396025 61.3097433 58.87617797 C70.77826467 68.33617366 80.2376199 77.80529167 89.69379283 87.2776286 C97.79140201 95.38865081 105.89686126 103.4917585 114.00808525 111.58916473 C123.45415159 121.01914664 132.89529429 130.45401398 142.32872307 139.89663935 C143.33604578 140.9049176 144.3433747 141.91318963 145.35070992 142.92145538 C145.84619405 143.41740234 146.34167818 143.9133493 146.85217699 144.42432496 C150.32881532 147.90354367 153.80890192 151.37928969 157.29036903 154.85367584 C161.98104111 159.53501585 166.66363524 164.22433139 171.34099197 168.91898155 C173.05443976 170.6363827 174.77042073 172.35126095 176.48916245 174.06336403 C178.84241829 176.40836946 181.18615721 178.76250777 183.52783012 181.11907196 C184.20283432 181.78738399 184.87783851 182.45569602 185.57329738 183.14425993 C197.05415733 194.76625038 204.05030041 207.48735916 204.46609306 223.93828583 C204.20703127 238.11048987 199.7275136 249.55044458 190.0072155 259.88610077 C189.48825295 260.44259819 188.96929041 260.99909562 188.43460172 261.5724566 C181.09889842 269.3829195 173.50293033 276.94107447 165.93313408 284.52324677 C164.22816163 286.23449915 162.52337359 287.94593529 160.8187542 289.65753937 C155.74700396 294.74833373 150.67110576 299.83498033 145.5942947 304.92072666 C143.67548306 306.84306234 141.75698179 308.76570761 139.83849426 310.68836676 C131.35792139 319.18737002 122.87600827 327.68503311 114.39007473 336.17868423 C112.32482827 338.24583988 110.25958745 340.31300117 108.19436455 342.38018036 C107.68120302 342.89382563 107.16804149 343.4074709 106.6393296 343.93668118 C98.31634114 352.26798039 90.00191888 360.60777425 81.69100691 368.95111868 C73.1246894 377.55058864 64.55078197 386.1424323 55.96946663 394.72693658 C51.16481816 399.53374032 46.36344759 404.34371693 41.57058716 409.16227722 C37.06407905 413.69214546 32.54804594 418.21230024 28.02472496 422.72537804 C26.37379487 424.3758148 24.72623661 426.02963294 23.08246231 427.68719673 C8.23115945 442.65602154 -5.05482184 455.32917773 -27.22140694 455.68828583 C-42.39681922 455.5369068 -53.83999353 450.46879898 -64.84640694 440.12578583 C-74.60031474 428.93446004 -78.36017527 416.32384735 -78.09250069 401.68047333 C-77.19974514 388.78511544 -72.3043208 378.51374407 -63.49490547 369.1563797 C-62.70874395 368.31375429 -62.70874395 368.31375429 -61.90670037 367.45410615 C-55.71317436 360.85616495 -49.31570618 354.46247963 -42.90793037 348.07378387 C-41.55620862 346.72234503 -40.20470868 345.37068431 -38.85341072 344.01882172 C-35.22630598 340.39143303 -31.59615229 336.76711023 -27.96539402 333.14337897 C-24.15595435 329.3402406 -20.3493944 325.534222 -16.54251289 321.72852325 C-9.35193922 314.54104308 -2.15882296 307.35611321 5.03523707 300.17212278 C13.23324329 291.98533961 21.42837021 283.79567675 29.62327051 275.60578477 C46.46353596 258.7759388 63.30736857 241.94966681 80.15359306 225.12578583 C78.53208516 221.03872962 75.60303124 218.31060015 72.5313549 215.28322601 C71.95063703 214.70291598 71.36991915 214.12260596 70.77160376 213.52471077 C68.82266109 211.57950131 66.86666837 209.64153827 64.91067314 207.70342255 C63.5124362 206.31066075 62.11466093 204.91743533 60.71731377 203.52378082 C57.7053541 200.52153879 54.6903649 197.52238398 51.67307281 194.52550125 C46.89739691 189.78163717 42.12988672 185.02962415 37.36372185 180.27620697 C25.51928307 168.46586171 13.66565407 156.66475165 1.80703545 144.86864471 C-7.40012013 135.71000679 -16.6040314 126.54816636 -25.79741555 117.37570202 C-30.52921579 112.65539251 -35.26786311 107.94210231 -40.01183641 103.23402858 C-42.9712974 100.29384423 -45.92440582 97.34734173 -48.87583351 94.39909554 C-50.23930117 93.03962626 -51.6053355 91.68272526 -52.9742012 90.32869148 C-66.79496339 76.65222716 -77.64777375 63.53638157 -78.15890694 43.31328583 C-77.91916556 30.1980224 -73.82126983 17.66790228 -64.78781319 7.87969208 C-47.105554 -8.09482377 -20.88842953 -13.75396826 0 0 Z M-63.15890694 16.86016083 C-65.56409275 20.08934549 -67.3828482 23.3799449 -68.84640694 27.12578583 C-69.20218819 28.00492645 -69.55796944 28.88406708 -69.92453194 29.78984833 C-72.81682984 40.25604498 -72.16123987 53.60456106 -66.84640694 63.12578583 C-66.53491644 63.68714957 -66.22342594 64.24851332 -65.90249634 64.82688808 C-60.70427785 73.35680351 -53.34534675 80.02339802 -46.30392647 87.00884247 C-44.81473085 88.49719091 -43.32619742 89.98620216 -41.838274 91.47582245 C-37.81445426 95.50050001 -33.78147748 99.51588535 -29.74675035 103.52962422 C-25.52530655 107.73226575 -21.31240331 111.94345122 -17.09857368 116.15372467 C-9.12556092 124.11742741 -1.14493431 132.07345428 6.83847916 140.02672905 C15.93023407 149.08490753 25.01343316 158.15164486 34.09593558 167.21909916 C52.77233947 185.86417765 71.4594233 204.49852122 90.15359306 223.12578583 C88.51232581 227.34226803 85.39035264 230.14054279 82.22764397 233.24514008 C81.61425767 233.85529626 81.00087138 234.46545244 80.36889762 235.09409821 C78.30936921 237.14051517 76.24280923 239.17968389 74.17629814 241.21904755 C72.69921677 242.68410617 71.22262542 244.14965897 69.74648857 245.61566925 C66.56404605 248.77482472 63.37877951 251.93109605 60.19150543 255.08537674 C55.14530357 260.08066945 50.10940533 265.08626118 45.07563591 270.09407806 C30.75904101 284.33454302 16.43625078 298.56867656 2.08596611 312.77519989 C-5.8374908 320.61944777 -13.74825218 328.47626679 -21.64515191 336.34725201 C-25.82161242 340.50891275 -30.00431505 344.66383504 -34.20284271 348.80324173 C-38.1586239 352.7033812 -42.09755306 356.61979193 -46.02462196 360.54883385 C-47.46198768 361.98111572 -48.90529994 363.40746086 -50.35519791 364.82705498 C-61.85752234 376.09929948 -71.00928643 387.19268359 -71.22140694 404.00078583 C-71.28373868 417.17148371 -67.2260769 427.52297249 -58.03781319 436.98906708 C-48.14202199 446.28752681 -36.80842497 449.66698079 -23.44406319 449.43828583 C-9.8220603 448.25504996 -0.00022187 440.7425754 9.33271599 431.34780121 C10.10388026 430.58343361 10.87504453 429.819066 11.66957742 429.03153574 C14.23282324 426.48716899 16.78533968 423.93231456 19.33791924 421.37725067 C21.18110917 419.5430439 23.02491087 417.70945172 24.86927605 415.8764267 C29.34645483 411.42407067 33.81536117 406.96350163 38.28098293 402.49955694 C41.9132156 398.86875405 45.54781642 395.24033877 49.1840744 391.61356735 C59.51082794 381.31320449 69.83129861 371.00660541 80.14373847 360.69191186 C80.69862867 360.13690179 81.25351887 359.58189173 81.82522392 359.01006317 C82.38079612 358.45436833 82.93636832 357.89867349 83.50877605 357.32613941 C92.51275452 348.32094158 101.5316062 339.33080514 110.55731257 330.34738962 C119.84189124 321.10596982 129.11516869 311.85334046 138.37689954 302.58902133 C143.57004331 297.39488414 148.76765094 292.20540825 153.97746658 287.02798843 C158.8776473 282.15808568 163.76195903 277.27273643 168.63611603 272.37678909 C170.42313757 270.58663755 172.21525536 268.80155608 174.01290703 267.02207947 C186.86544411 254.66304166 186.86544411 254.66304166 195.15359306 239.12578583 C195.7013831 237.54851998 195.7013831 237.54851998 196.2602396 235.93939018 C199.36184982 226.17091175 198.07913484 214.00791665 193.83328056 204.86406708 C189.52393942 197.83883884 184.26070985 191.93969296 178.43807793 186.14284515 C177.30166048 184.99963104 177.30166048 184.99963104 176.14228511 183.83332169 C173.61854822 181.2969889 171.08778294 178.7677928 168.55691338 176.2385788 C166.73936536 174.41504265 164.92222701 172.5910981 163.10546684 170.76677704 C158.69169148 166.33644734 154.2724286 161.91163183 149.85092786 157.4890133 C146.25514673 153.89227931 142.6609546 150.29396506 139.06786156 146.69454575 C128.86575892 136.47484806 118.65949235 126.25933527 108.44783726 116.0491824 C107.89827574 115.49970079 107.34871422 114.95021918 106.78249931 114.38408661 C105.95714196 113.5588519 105.95714196 113.5588519 105.11511073 112.71694578 C96.19672911 103.79937719 87.28836945 94.87187107 78.38450208 85.93981265 C69.2274393 76.75398765 60.06290415 67.57567617 50.89058566 58.40508378 C45.74696286 53.26212359 40.60643372 48.11615832 35.47394371 42.96208572 C30.64704823 38.11502175 25.80983112 33.27846909 20.96557808 28.44875336 C19.19246121 26.67772504 17.42273473 24.90329461 15.65672493 23.12517929 C13.23934381 20.69230807 10.80985202 18.272189 8.37704277 15.85475922 C7.3412999 14.80358565 7.3412999 14.80358565 6.28463292 13.73117626 C-3.22844601 4.34984636 -13.79618895 -0.81089377 -27.22140694 -1.31171417 C-42.1599725 -0.88641693 -53.65148168 5.58926153 -63.15890694 16.86016083 Z " fill="#3D464C" transform="translate(192.8464069366455,31.87421417236328)"/>
<path d="M0 0 C0.66 0.33 1.32 0.66 2 1 C-0.97 3.97 -3.94 6.94 -7 10 C-7.66 9.67 -8.32 9.34 -9 9 C-6.31941902 5.42589203 -3.57410797 2.68058098 0 0 Z " fill="#5A6268" transform="translate(135,34)"/>
<path d="M0 0 C1.65 0.33 3.3 0.66 5 1 C4.67 1.99 4.34 2.98 4 4 C2.68 3.67 1.36 3.34 0 3 C0 2.01 0 1.02 0 0 Z " fill="#F6AC99" transform="translate(127,53)"/>
</svg>
