<?xml version="1.0" encoding="UTF-8"?>
<svg version="1.1" xmlns="http://www.w3.org/2000/svg" width="512" height="512">
<path d="M0 0 C0.65677734 -0.03287109 1.31355469 -0.06574219 1.99023438 -0.09960938 C12.53585042 -0.21168839 21.59857617 7.35855551 30.0625 12.875 C31.72093825 13.94625118 33.3793815 15.0174948 35.03825378 16.08807373 C36.7179553 17.1727456 38.39633344 18.2594659 40.07470703 19.34619141 C44.86798896 22.44219902 49.68290337 25.5037286 54.5 28.5625 C56.30213654 29.70824965 58.10421996 30.85408286 59.90625 32 C60.79441406 32.56460938 61.68257813 33.12921875 62.59765625 33.7109375 C65.36794949 35.47276428 68.13724226 37.23615362 70.90625 39 C79.53227099 44.49413727 88.16258167 49.98104784 96.8125 55.4375 C105.60981068 60.98727497 114.39162934 66.5611022 123.16015625 72.15625 C126.34764925 74.18984347 129.54162906 76.21201725 132.74609375 78.21875 C133.72678833 78.83713745 133.72678833 78.83713745 134.72729492 79.46801758 C136.42519918 80.53844039 138.12651584 81.60344531 139.828125 82.66796875 C142.3125 84.4375 142.3125 84.4375 144.3125 87.4375 C144.73107482 91.27443587 144.85894269 93.54953064 142.8125 96.875 C140.00293002 98.63098124 137.80310178 98.91538499 134.5078125 98.96875 C132.3125 98.4375 132.3125 98.4375 126.3125 94.4375 C125.9825 101.3675 125.6525 108.2975 125.3125 115.4375 C127.48199219 115.41655273 129.65148437 115.39560547 131.88671875 115.37402344 C139.0750847 115.3075821 146.26346463 115.26349642 153.45205688 115.23025131 C157.80821041 115.20942508 162.16404787 115.18119901 166.52001953 115.13574219 C170.72810957 115.09210613 174.93589663 115.0683256 179.14419556 115.05799103 C180.74529791 115.05063137 182.3463847 115.0362598 183.94735718 115.01457977 C193.35805587 114.89227362 200.57494512 114.90607159 208.30078125 121.0078125 C215.0373984 128.91687924 216.21605619 139.9112211 218.44921875 149.78515625 C218.73352249 151.03703232 219.01782623 152.28890839 219.31074524 153.57872009 C219.90751742 156.21114328 220.50114155 158.84425515 221.09301758 161.4777832 C221.84721971 164.83052855 222.61363823 168.18035491 223.38296795 171.52965641 C224.12192243 174.75874066 224.84712926 177.99088001 225.57421875 181.22265625 C225.84916672 182.41351334 226.12411469 183.60437042 226.40739441 184.83131409 C228.41781551 193.88307703 230.20184525 202.99694609 225.3125 211.4375 C222.01605413 215.57230124 218.57767654 219.12120586 213.3125 220.4375 C212.3225 220.4375 211.3325 220.4375 210.3125 220.4375 C210.3125 241.8875 210.3125 263.3375 210.3125 285.4375 C218.5625 285.4375 226.8125 285.4375 235.3125 285.4375 C244.46045009 288.86798128 244.46045009 288.86798128 248.0625 292.0625 C248.77921875 292.67351562 249.4959375 293.28453125 250.234375 293.9140625 C255.84404171 300.72580065 256.90372745 307.70771502 256.84594727 316.30639648 C256.85456284 317.35478699 256.86317841 318.40317749 256.87205505 319.4833374 C256.89463076 322.92534559 256.88799115 326.36653403 256.87890625 329.80859375 C256.88414556 332.2155837 256.89042316 334.62257159 256.89768982 337.02955627 C256.90807863 342.06545701 256.90355415 347.10107491 256.88891602 352.13696289 C256.87173196 358.57396945 256.89522812 365.01008305 256.93040562 371.44699001 C256.95241988 376.41516477 256.95092825 381.3831272 256.9426403 386.35133553 C256.94182299 388.72387738 256.94864415 391.09643516 256.96341133 393.4689312 C256.98093065 396.79290721 256.96625149 400.11529532 256.94360352 403.43920898 C256.95529572 404.40834732 256.96698792 405.37748566 256.97903442 406.37599182 C256.86716179 414.49091996 254.33540336 420.91768102 249.03125 427.09375 C248.2990625 427.7021875 247.566875 428.310625 246.8125 428.9375 C246.0803125 429.5665625 245.348125 430.195625 244.59375 430.84375 C240.4808988 433.7171118 236.4017094 434.73570564 231.5 435.5625 C230.52417969 435.73007812 229.54835938 435.89765625 228.54296875 436.0703125 C227.80691406 436.19148438 227.07085937 436.31265625 226.3125 436.4375 C226.69921875 436.95957031 227.0859375 437.48164063 227.484375 438.01953125 C236.64653007 450.96901279 237.49068917 463.57196013 237.5 479 C237.51224609 480.07185547 237.52449219 481.14371094 237.53710938 482.24804688 C237.56671885 498.38520893 237.56671885 498.38520893 232.6875 504.75 C232.24148438 505.36488281 231.79546875 505.97976563 231.3359375 506.61328125 C225.17203878 512.17030963 218.86081967 513.02125005 210.81323242 512.93920898 C209.79275818 512.94461197 208.77228394 512.95001495 207.72088623 512.95558167 C204.36961298 512.9680243 201.01920595 512.95161286 197.66796875 512.93359375 C195.33246312 512.93374878 192.99695724 512.93523844 190.66145325 512.93800354 C185.77849896 512.93938533 180.89583921 512.92686114 176.01293945 512.90405273 C169.74690861 512.87559025 163.48136403 512.87842982 157.21529675 512.89114285 C152.39840011 512.89808641 147.58161648 512.89032716 142.76473427 512.87788582 C140.45340724 512.873364 138.14206812 512.87304087 135.83073997 512.87695122 C132.60850346 512.87985241 129.38694577 512.86341114 126.16479492 512.84155273 C125.20632156 512.84605438 124.24784821 512.85055603 123.2603302 512.85519409 C122.38428131 512.84528946 121.50823242 512.83538483 120.6056366 512.82518005 C119.84448642 512.82275016 119.08333624 512.82032026 118.2991209 512.81781673 C115.74975054 512.3297678 114.89078824 511.4659053 113.3125 509.4375 C112.9825 508.4475 112.6525 507.4575 112.3125 506.4375 C106.0425 506.1075 99.7725 505.7775 93.3125 505.4375 C92.9825 507.0875 92.6525 508.7375 92.3125 510.4375 C88.99462481 512.64941679 87.98545136 512.68895863 84.12431812 512.69476891 C83.04342594 512.7012178 81.96253376 512.70766669 80.84888726 512.714311 C79.65688878 512.7112138 78.46489029 512.7081166 77.23677063 512.70492554 C75.34254066 512.71172221 75.34254066 512.71172221 73.41004342 512.71865618 C69.89775236 512.73092141 66.3855563 512.73062158 62.8732487 512.72826743 C59.08782195 512.72786014 55.30242602 512.73889018 51.51701355 512.74838257 C44.09717129 512.76501396 36.6773608 512.77049312 29.25750146 512.77160732 C23.22598114 512.772557 17.19447133 512.77666327 11.16295433 512.78300858 C-5.93343506 512.80062856 -23.02979931 512.80984652 -40.12619784 512.80834763 C-41.50945378 512.80822776 -41.50945378 512.80822776 -42.9206543 512.80810547 C-43.84394989 512.80802371 -44.76724548 512.80794195 -45.71851972 512.80785771 C-60.67651 512.80704509 -75.63439951 512.82617464 -90.59236064 512.8543822 C-105.94710993 512.88310967 -121.30181009 512.8969225 -136.65658695 512.89519465 C-145.27864097 512.89453059 -153.90058942 512.90002948 -162.52261925 512.92155075 C-169.86534764 512.93976099 -177.20792265 512.9441114 -184.55066385 512.9305319 C-188.29650106 512.92400076 -192.042044 512.92388988 -195.78785324 512.9412384 C-199.85107577 512.95986316 -203.9136167 512.94741813 -207.97685242 512.93197632 C-209.1576973 512.94226344 -210.33854218 512.95255057 -211.55517024 512.96314943 C-219.24007596 512.898536 -224.81331885 511.93024633 -230.7109375 506.61328125 C-231.37996094 505.69095703 -231.37996094 505.69095703 -232.0625 504.75 C-232.75472656 503.84701172 -232.75472656 503.84701172 -233.4609375 502.92578125 C-237.13096317 495.4805381 -237.01093317 487.3838033 -236.9375 479.25 C-236.92855713 478.14229248 -236.91961426 477.03458496 -236.91040039 475.89331055 C-236.71605723 462.15536396 -236.09146403 446.84146403 -225.6875 436.4375 C-226.6053125 436.29054688 -227.523125 436.14359375 -228.46875 435.9921875 C-236.26357589 434.56750294 -242.00829238 433.08913866 -247.6875 427.4375 C-248.17734375 426.95023437 -248.6671875 426.46296875 -249.171875 425.9609375 C-255.38914323 419.12194245 -256.13386206 412.62245049 -256.10742188 403.7956543 C-256.11589142 402.74755585 -256.12436096 401.6994574 -256.13308716 400.61959839 C-256.1564188 397.16684719 -256.15748009 393.71454271 -256.15625 390.26171875 C-256.16335451 387.85187096 -256.17105394 385.44202486 -256.17932129 383.03218079 C-256.19275781 377.98437803 -256.1943388 372.93673164 -256.18847656 367.88891602 C-256.18258533 361.43618902 -256.21315325 354.98421567 -256.25359344 348.53163433 C-256.27950802 343.55489596 -256.28234432 338.57833806 -256.27870178 333.60154152 C-256.28038989 331.22340821 -256.2900024 328.84526629 -256.30784607 326.46719933 C-256.3301061 323.1334708 -256.32029624 319.80125489 -256.30273438 316.4675293 C-256.32262924 315.00910866 -256.32262924 315.00910866 -256.34292603 313.52122498 C-256.24759953 305.69040607 -254.06454166 299.14818659 -248.72701263 293.28332043 C-237.52072399 282.49267944 -225.46646204 285.4375 -209.6875 285.4375 C-209.6875 263.9875 -209.6875 242.5375 -209.6875 220.4375 C-211.6675 220.1075 -213.6475 219.7775 -215.6875 219.4375 C-221.6856189 215.52979382 -226.17124525 210.51756446 -227.6875 203.4375 C-228.2029976 195.3379236 -226.53790577 187.92881292 -224.765625 180.05859375 C-224.46080069 178.67826184 -224.1565095 177.29781209 -223.85272217 175.91725159 C-223.21664966 173.03723592 -222.5736799 170.1588716 -221.92578125 167.28149414 C-221.1006821 163.61422855 -220.29378699 159.94323661 -219.49214554 156.27078152 C-218.86831366 153.42330037 -218.23439769 150.57813488 -217.59755707 147.73353767 C-217.29621113 146.38160306 -216.99800745 145.02896367 -216.70316315 143.67559624 C-212.66003457 125.18460615 -212.66003457 125.18460615 -206.25 120.0625 C-205.41662109 119.37027344 -205.41662109 119.37027344 -204.56640625 118.6640625 C-199.90810936 115.6230953 -195.9337683 115.1913989 -190.41870117 115.21044922 C-189.70596039 115.21015717 -188.9932196 115.20986511 -188.25888062 115.20956421 C-185.91595044 115.21095143 -183.57334299 115.22648364 -181.23046875 115.2421875 C-179.60093866 115.2459198 -177.97140631 115.24876575 -176.34187317 115.25076294 C-172.06256871 115.25838233 -167.783401 115.2780162 -163.50415039 115.3001709 C-159.13364512 115.32066589 -154.76311765 115.32977246 -150.39257812 115.33984375 C-141.82414914 115.36126377 -133.25585736 115.39643203 -124.6875 115.4375 C-125.0175 108.5075 -125.3475 101.5775 -125.6875 94.4375 C-128.6575 96.4175 -128.6575 96.4175 -131.6875 98.4375 C-134.70723626 99.16825468 -136.49495297 98.84944155 -139.6875 98.4375 C-142.1875 96.875 -142.1875 96.875 -143.6875 94.4375 C-144.25 91 -144.25 91 -143.6875 87.4375 C-139.86725994 82.90375207 -135.24677596 80.05436 -130.25 77 C-128.53872035 75.93674841 -126.8277969 74.87292335 -125.1171875 73.80859375 C-124.22612305 73.25671387 -123.33505859 72.70483398 -122.41699219 72.13623047 C-117.88085037 69.31311108 -113.37903977 66.43645274 -108.875 63.5625 C-107.014405 62.37747527 -105.15372733 61.19258034 -103.29296875 60.0078125 C-102.36661621 59.41774414 -101.44026367 58.82767578 -100.48583984 58.21972656 C-95.88726238 55.29095187 -91.28731973 52.36432309 -86.6875 49.4375 C-84.85415996 48.27084387 -83.02082663 47.1041772 -81.1875 45.9375 C-77.52083333 43.60416667 -73.85416667 41.27083333 -70.1875 38.9375 C-69.2797583 38.35983887 -68.3720166 37.78217773 -67.43676758 37.18701172 C-65.60590247 36.02193052 -63.7750106 34.85689136 -61.9440918 33.69189453 C-57.32277287 30.75131679 -52.7019408 27.80997908 -48.08203125 24.8671875 C-44.40752992 22.52662656 -40.7316637 20.18823333 -37.0546875 17.8515625 C-33.45127634 15.56158094 -29.85305796 13.26371497 -26.2578125 10.9609375 C-24.54695145 9.8696718 -22.83601723 8.7785208 -21.125 7.6875 C-20.34552002 7.18589355 -19.56604004 6.68428711 -18.76293945 6.16748047 C-12.43205325 2.14134817 -7.63341923 0.06549168 0 0 Z " fill="#010101" transform="translate(255.6875,-0.4375)"/>
<path d="M0 0 C0.78568866 -0.00436032 1.57137732 -0.00872064 2.38087472 -0.0132131 C5.02370611 -0.0241948 7.66601856 -0.01373383 10.30884647 -0.00342751 C12.21867089 -0.00688292 14.12849331 -0.0116467 16.03831154 -0.01760924 C21.29441381 -0.03016495 26.55035325 -0.02392807 31.80645621 -0.01465058 C37.47185073 -0.00787908 43.13721672 -0.01833191 48.80260563 -0.02659035 C59.90456461 -0.03995044 71.00646285 -0.03703973 82.10842424 -0.02835242 C91.12952204 -0.0215849 100.15060278 -0.02065512 109.17170238 -0.02392387 C111.09557609 -0.02461342 111.09557609 -0.02461342 113.05831592 -0.0253169 C115.66364487 -0.02627605 118.26897381 -0.02724869 120.87430275 -0.02823468 C144.62417372 -0.03655115 168.37400786 -0.02791756 192.12387297 -0.01220688 C213.80851916 0.00202856 235.49311249 0.00075783 257.17775822 -0.01358986 C281.53426243 -0.02965147 305.89073067 -0.0359696 330.2472406 -0.02675307 C332.84343977 -0.0257974 335.43963895 -0.02485428 338.03583813 -0.02392387 C339.95203389 -0.02322963 339.95203389 -0.02322963 341.90694068 -0.02252137 C350.91910494 -0.01992861 359.93125047 -0.02430866 368.94341183 -0.03136253 C379.92358153 -0.03976763 390.90368688 -0.03751831 401.8838492 -0.0215203 C407.48857577 -0.01362402 413.09319496 -0.0105691 418.6979208 -0.02046776 C423.82563249 -0.02938712 428.95313694 -0.02452735 434.08082975 -0.0085351 C435.93878074 -0.00517557 437.79674914 -0.00690756 439.65468901 -0.01416247 C442.17521521 -0.02325193 444.69502656 -0.01396208 447.21551514 0 C447.94113576 -0.0070235 448.66675638 -0.014047 449.4143655 -0.02128333 C454.06209066 0.03036381 457.22065694 0.93655757 461.17067814 3.37752342 C465.73081749 8.3829601 465.7452448 12.80597882 465.68825626 19.2349453 C465.69877018 20.69946884 465.69877018 20.69946884 465.7094965 22.19357872 C465.7270591 25.41143546 465.71545948 28.62840819 465.70192814 31.84627342 C465.70462354 34.0877709 465.70850636 36.32926724 465.71352482 38.57076073 C465.71941754 43.2647625 465.71086389 47.95845947 465.69216251 52.65242577 C465.66937347 58.66496862 465.68249771 64.67679723 465.70645237 70.68931389 C465.72091624 75.31676666 465.71630157 79.9440505 465.7059412 84.57150841 C465.70327556 86.78825528 465.70653792 89.00501757 465.71585941 91.22174644 C465.72603433 94.3216106 465.71050979 97.42032302 465.68825626 100.52010155 C465.69635319 101.43352821 465.70445011 102.34695488 465.7127924 103.28806114 C465.639791 108.78555502 464.96182581 112.1021058 461.17067814 116.37752342 C457.01100835 119.5424266 453.36818394 119.8052655 448.31012154 119.76063347 C447.12652343 119.76807274 447.12652343 119.76807274 445.91901425 119.7756623 C443.26470776 119.78865565 440.61090126 119.78022197 437.95658207 119.7719326 C436.03850714 119.77681973 434.12043515 119.7830087 432.2023682 119.79039049 C426.92347277 119.80683561 421.64472623 119.80446279 416.36581409 119.79901552 C410.67587206 119.79635097 404.98597023 119.81086625 399.29604435 119.82311058 C388.14596641 119.84419067 376.99594044 119.84870397 365.84584493 119.8469227 C356.78565348 119.84561644 347.72547827 119.84941223 338.66528988 119.85684776 C336.05817109 119.85894689 333.45105231 119.86104449 330.84393352 119.86314058 C329.54641102 119.86418411 328.24888851 119.86522764 326.91204714 119.86630279 C309.33652349 119.87984074 291.7610086 119.88742718 274.18548012 119.88297844 C273.49803149 119.88280648 272.81058286 119.88263453 272.10230245 119.88245736 C268.61794893 119.88156846 265.13359543 119.88062365 261.64924193 119.87965935 C260.95722387 119.87946832 260.26520581 119.87927729 259.5522175 119.87908047 C258.15278882 119.87869338 256.75336014 119.87830305 255.35393147 119.87790949 C233.57527433 119.87193849 211.79672343 119.88738122 190.01809025 119.91951561 C165.5561044 119.95557858 141.0941974 119.97488344 116.63218158 119.9699769 C103.67752438 119.96772934 90.7229725 119.97301734 77.7683363 119.99786949 C66.74056121 120.01884457 55.7129492 120.02251226 44.6851675 120.0035699 C39.05606451 119.99438894 33.42726589 119.99334132 27.7981863 120.01392555 C22.64815252 120.03255018 17.4986742 120.02822793 12.34866213 120.00537974 C10.48263297 120.00117241 8.61656192 120.00546504 6.75057692 120.01897568 C4.21873312 120.03606331 1.68884477 120.02249792 -0.84292412 120.0011425 C-1.57175343 120.01342003 -2.30058274 120.02569755 -3.05149779 120.03834713 C-8.70593368 119.93833513 -10.98660228 118.22486907 -14.82932186 114.37752342 C-16.69336493 111.57063918 -17.08148543 109.44175418 -17.0967474 106.10252953 C-17.10527737 105.25587227 -17.11380733 104.40921501 -17.12259579 103.53690147 C-17.12168941 102.61628426 -17.12078304 101.69566704 -17.11984921 100.74715233 C-17.12656643 99.77109535 -17.13328365 98.79503838 -17.14020443 97.78940392 C-17.1592113 94.56091288 -17.16310998 91.33262943 -17.16525936 88.10408592 C-17.17168533 85.8597308 -17.17841354 83.61537653 -17.18543148 81.37102318 C-17.19741092 76.66516236 -17.2011116 71.95937498 -17.19992733 67.25349998 C-17.19972409 61.22525815 -17.22702906 55.19748746 -17.26147175 49.1693573 C-17.28371552 44.53335471 -17.28776564 39.89746597 -17.28670788 35.26141548 C-17.28906753 33.03907077 -17.29791144 30.8167231 -17.31337261 28.59443092 C-17.33298127 25.48484671 -17.32721424 22.37628446 -17.31516171 19.26668358 C-17.32640072 18.35011482 -17.33763973 17.43354607 -17.34921932 16.4892025 C-17.29497824 10.97845821 -16.63453792 7.66176896 -12.82932186 3.37752342 C-8.67583064 0.21993385 -5.04974782 -0.04872082 0 0 Z " fill="#E6EBF0" transform="translate(31.82932186126709,299.6224765777588)"/>
<path d="M0 0 C8.25789542 3.50078301 15.73115563 8.97933759 23.21484375 13.87890625 C28.40709973 17.27563821 33.63829716 20.60982625 38.875 23.9375 C40.27552612 24.82791992 40.27552612 24.82791992 41.7043457 25.73632812 C47.62990304 29.50093267 53.56290525 33.25362481 59.5 37 C61.83074777 38.47155558 64.16132348 39.94338267 66.49169922 41.41552734 C68.26133445 42.53339114 70.03121441 43.65086759 71.80126953 44.76806641 C74.72328873 46.61368074 77.64309426 48.46275506 80.5625 50.3125 C81.45453125 50.87517578 82.3465625 51.43785156 83.265625 52.01757812 C102.66283739 64.32567477 102.66283739 64.32567477 106 71 C106.09232636 72.52052367 106.1219285 74.04506669 106.12025452 75.56838989 C106.12231651 77.01133423 106.12231651 77.01133423 106.12442017 78.48342896 C106.12082489 79.5422226 106.11722961 80.60101624 106.11352539 81.69189453 C106.11367142 82.80409363 106.11381744 83.91629272 106.1139679 85.06219482 C106.1132691 88.7524203 106.10547824 92.4425958 106.09765625 96.1328125 C106.09579195 98.68586194 106.0943681 101.23891174 106.09336853 103.79196167 C106.08993553 109.83386916 106.08204747 115.87575508 106.07201904 121.91765392 C106.06085045 128.79543876 106.05534557 135.67322445 106.05032361 142.55101609 C106.03986466 156.70068923 106.02152216 170.85033959 106 185 C94.12 185 82.24 185 70 185 C69.97421875 180.06546875 69.9484375 175.1309375 69.921875 170.046875 C69.89670798 166.92052093 69.87037649 163.79426376 69.83984375 160.66796875 C69.79149305 155.70588817 69.74745473 150.74403185 69.72900391 145.78173828 C69.71385815 141.78089877 69.67945067 137.78064591 69.63169098 133.78006744 C69.6168555 132.2539098 69.60895774 130.72766842 69.60811615 129.2014389 C69.60575105 127.06301864 69.57871322 124.92622574 69.54589844 122.78808594 C69.53701599 121.5711908 69.52813354 120.35429565 69.51898193 119.1005249 C68.88518242 115.31405171 67.97373171 114.35725005 65 112 C62.34429661 111.40205917 62.34429661 111.40205917 59.3828125 111.49206543 C57.66674805 111.47514648 57.66674805 111.47514648 55.91601562 111.45788574 C54.03946289 111.47003113 54.03946289 111.47003113 52.125 111.48242188 C50.79100785 111.47700032 49.4570217 111.46987746 48.12304688 111.46118164 C44.50314652 111.44294887 40.88370226 111.45001526 37.26379395 111.46269798 C33.4753293 111.47282605 29.68690368 111.46343285 25.8984375 111.45715332 C19.53638702 111.44987632 13.17452228 111.45946587 6.8125 111.47851562 C-0.54260137 111.50028464 -7.89725923 111.49323329 -15.25234985 111.47121 C-21.56755367 111.45305738 -27.88262398 111.45049695 -34.19784546 111.46096468 C-37.96953603 111.46720044 -41.74101814 111.46803318 -45.51269531 111.45481873 C-49.05872353 111.44326265 -52.60418003 111.45128056 -56.15014648 111.47439575 C-58.07209487 111.48220686 -59.99409162 111.47032478 -61.91601562 111.45788574 C-63.06005859 111.46916504 -64.20410156 111.48044434 -65.3828125 111.49206543 C-66.37684082 111.49357353 -67.37086914 111.49508163 -68.39501953 111.49663544 C-71.74133505 112.14324936 -72.93073274 113.33916209 -75 116 C-75.61662263 119.18277223 -75.61662263 119.18277223 -75.54589844 122.78808594 C-75.56140495 123.79845665 -75.56140495 123.79845665 -75.57722473 124.82923889 C-75.60664006 127.04786197 -75.60815151 129.2655723 -75.609375 131.484375 C-75.62435766 133.0256728 -75.64108499 134.56695454 -75.65948486 136.10821533 C-75.7031617 140.15896341 -75.72315798 144.20949493 -75.73822021 148.26043701 C-75.76123283 153.1239678 -75.81366279 157.98725974 -75.86116028 162.8506012 C-75.92997479 170.23379649 -75.96142271 177.61630587 -76 185 C-87.88 185 -99.76 185 -112 185 C-112.25 172.25 -112.25 172.25 -112.29785156 168.24707031 C-112.3284668 167.20131836 -112.35908203 166.15556641 -112.390625 165.078125 C-112.4220459 163.47565918 -112.4220459 163.47565918 -112.45410156 161.84082031 C-113.12558609 158.34645807 -114.20200324 157.14068958 -117 155 C-120.04253508 154.41654524 -120.04253508 154.41654524 -123 155 C-130.13364485 162.13364485 -126.62660796 174.918415 -127 185 C-150.1 185 -173.2 185 -197 185 C-197 163.55 -197 142.1 -197 120 C-173.9 120 -150.8 120 -127 120 C-126.505 124.455 -126.505 124.455 -126 129 C-125.01919106 131.61982146 -125.01919106 131.61982146 -123 133 C-120.04279372 133.66680368 -120.04279372 133.66680368 -117 133 C-114.31411672 130.91709411 -113.13716016 129.73659362 -112.50793457 126.35745239 C-112.51111694 125.3540683 -112.51429932 124.3506842 -112.51757812 123.31689453 C-112.50736633 121.60459152 -112.50736633 121.60459152 -112.49694824 119.85769653 C-112.51392761 118.01387894 -112.51392761 118.01387894 -112.53125 116.1328125 C-112.52420044 114.86533173 -112.51715088 113.59785095 -112.5098877 112.29196167 C-112.4840631 107.54960963 -112.49340112 102.80780289 -112.50506592 98.06542969 C-112.51459682 93.42098107 -112.49454268 88.77722714 -112.46875 84.1328125 C-112.48572937 82.2950676 -112.48572937 82.2950676 -112.50305176 80.42019653 C-112.43994112 69.77942539 -112.43994112 69.77942539 -108 65 C-106.21533203 63.33007812 -106.21533203 63.33007812 -104.3828125 62.03125 C-103.68446289 61.53496094 -102.98611328 61.03867188 -102.26660156 60.52734375 C-98.18264638 57.77538085 -94.04555662 55.11858225 -89.875 52.5 C-87.91400702 51.26050444 -85.95307112 50.02091857 -83.9921875 48.78125 C-82.99670898 48.15347656 -82.00123047 47.52570313 -80.97558594 46.87890625 C-76.30885652 43.93214308 -71.65481295 40.96553597 -67 38 C-65.17063324 36.8358427 -63.34120598 35.67178048 -61.51171875 34.5078125 C-57.80542555 32.14932214 -54.09976197 29.78984664 -50.39453125 27.4296875 C-41.47986292 21.75212411 -32.56086092 16.08166623 -23.625 10.4375 C-22.87065674 9.96103027 -22.11631348 9.48456055 -21.33911133 8.99365234 C-19.91847772 8.0971654 -18.49680887 7.2023163 -17.07397461 6.30932617 C-15.64463065 5.40696341 -14.22127412 4.49506995 -12.80297852 3.57543945 C-12.09842529 3.12257568 -11.39387207 2.66971191 -10.66796875 2.203125 C-10.04172607 1.79610352 -9.4154834 1.38908203 -8.77026367 0.96972656 C-5.55746699 -0.79020013 -3.57873406 -0.66722161 0 0 Z " fill="#F4F7F8" transform="translate(259,100)"/>
<path d="M0 0 C58.88132295 -0.06862516 117.76264454 -0.12151402 176.64399917 -0.15319599 C183.5911167 -0.15693805 190.53823415 -0.1608277 197.48535156 -0.16479492 C198.17667918 -0.1651872 198.86800679 -0.16557948 199.58028372 -0.16598364 C221.99469494 -0.17877135 244.4090835 -0.20130802 266.82348099 -0.22889166 C290.50672455 -0.25798389 314.18994902 -0.27598589 337.87321079 -0.28226548 C352.06406566 -0.2863875 366.25485547 -0.29941949 380.44569032 -0.3237494 C390.16900251 -0.33957344 399.89228093 -0.34440793 409.61560507 -0.34050413 C415.23043185 -0.33857739 420.84514473 -0.34158823 426.4599514 -0.35761642 C431.5971001 -0.37217441 436.73405787 -0.37297906 441.87121521 -0.36269668 C443.73268629 -0.36142513 445.5941691 -0.36526532 447.45561697 -0.37464955 C449.98093662 -0.38664348 452.505562 -0.38022768 455.03087044 -0.36914349 C455.7579203 -0.37702453 456.48497015 -0.38490557 457.23405182 -0.39302543 C461.88727424 -0.34669715 465.04591124 0.55493319 469 3 C473.56013935 8.00543668 473.57456666 12.4284554 473.51757812 18.85742188 C473.52809204 20.32194542 473.52809204 20.32194542 473.53881836 21.8160553 C473.55638096 25.03391204 473.54478134 28.25088477 473.53125 31.46875 C473.5339454 33.71024748 473.53782822 35.95174382 473.54284668 38.1932373 C473.5487394 42.88723908 473.54018575 47.58093604 473.52148438 52.27490234 C473.49869533 58.2874452 473.51181957 64.29927381 473.53577423 70.31179047 C473.5502381 74.93924324 473.54562343 79.56652708 473.53526306 84.19398499 C473.53259742 86.41073186 473.53585978 88.62749414 473.54518127 90.84422302 C473.55535619 93.94408718 473.53983165 97.0427996 473.51757812 100.14257812 C473.52567505 101.05600479 473.53377197 101.96943146 473.54211426 102.91053772 C473.46911286 108.4080316 472.79114767 111.72458238 469 116 C464.84033021 119.16490318 461.1975058 119.42774208 456.1394434 119.38311005 C454.95584529 119.39054932 454.95584529 119.39054932 453.74833611 119.39813888 C451.09402963 119.41113223 448.44022312 119.40269855 445.78590393 119.39440918 C443.867829 119.39929631 441.94975701 119.40548528 440.03169006 119.41286707 C434.75279463 119.42931218 429.47404809 119.42693937 424.19513595 119.4214921 C418.50519392 119.41882755 412.81529209 119.43334283 407.12536621 119.44558716 C395.97528827 119.46666725 384.8252623 119.47118055 373.67516679 119.46939927 C364.61497534 119.46809302 355.55480014 119.47188881 346.49461174 119.47932434 C343.88749296 119.48142347 341.28037417 119.48352107 338.67325538 119.48561716 C337.37573288 119.48666069 336.07821037 119.48770422 334.741369 119.48877937 C317.16584535 119.50231732 299.59033046 119.50990375 282.01480198 119.50545502 C281.32735335 119.50528306 280.63990472 119.50511111 279.93162431 119.50493394 C276.44727079 119.50404504 272.96291729 119.50310022 269.47856379 119.50213593 C268.78654573 119.5019449 268.09452767 119.50175387 267.38153936 119.50155704 C265.98211068 119.50116995 264.58268201 119.50077963 263.18325333 119.50038607 C241.40459619 119.49441507 219.62604529 119.5098578 197.84741211 119.54199219 C173.38542627 119.57805516 148.92351926 119.59736002 124.46150345 119.59245348 C111.50684624 119.59020592 98.55229436 119.59549391 85.59765816 119.62034607 C74.56988307 119.64132114 63.54227106 119.64498884 52.51448936 119.62604648 C46.88538637 119.61686551 41.25658775 119.61581789 35.62750816 119.63640213 C30.47747438 119.65502676 25.32799607 119.65070451 20.17798399 119.62785631 C18.31195483 119.62364899 16.44588378 119.62794161 14.57989878 119.64145225 C12.04805498 119.65853989 9.51816663 119.6449745 6.98639774 119.62361908 C6.25756843 119.63589661 5.52873912 119.64817413 4.77782407 119.6608237 C-0.89323858 119.56051762 -3.19482344 117.92860358 -7 114 C-9.47209615 110.58144418 -9.20767136 107.38356786 -9.125 103.25 C-9.09792969 101.49429688 -9.09792969 101.49429688 -9.0703125 99.703125 C-9.04710937 98.81109375 -9.02390625 97.9190625 -9 97 C-7.59532085 96.99910437 -7.59532085 96.99910437 -6.16226435 96.99819064 C49.31866041 96.96246346 104.79953112 96.90569132 160.28040537 96.82207905 C166.93954086 96.81206139 173.59867659 96.80221267 180.2578125 96.79248047 C180.92047658 96.79150866 181.58314067 96.79053686 182.26588548 96.7895356 C203.74476849 96.75812837 225.22363893 96.73966244 246.70254093 96.72790753 C269.40061248 96.71541512 292.09862484 96.68817673 314.79665995 96.64538693 C328.39481115 96.62022881 341.9928692 96.60688441 355.59104401 96.60857043 C364.91119877 96.60860014 374.23125853 96.59400464 383.55137628 96.56783572 C388.93153468 96.55316354 394.31149824 96.54500935 399.69167328 96.55419731 C404.61683413 96.56246605 409.541603 96.55237929 414.46670562 96.52766338 C416.24879252 96.52196564 418.0309164 96.52301698 419.81299227 96.53148755 C432.02618786 96.79238392 432.02618786 96.79238392 443 92 C463.59515915 71.40484085 450.93330817 6.26865471 451 1 C302.17 1 153.34 1 0 1 C0 0.67 0 0.34 0 0 Z " fill="#CCD9DD" transform="translate(24,300)"/>
<path d="M0 0 C3.03800992 1.28034029 5.69663315 2.9916444 8.4375 4.8125 C9.21681885 5.30951416 9.9961377 5.80652832 10.79907227 6.31860352 C13.21083015 7.86211882 15.60585711 9.42933921 18 11 C19.42614198 11.92073055 20.85319059 12.84005871 22.28125 13.7578125 C25.08358767 15.56203929 27.87955397 17.37562647 30.671875 19.1953125 C35.15188994 22.10793368 39.66608642 24.96469408 44.1875 27.8125 C51.99297957 32.72993612 59.78337761 37.67042964 67.56347656 42.62792969 C72.38455878 45.69990494 77.2086516 48.76692778 82.0390625 51.82421875 C83.52055786 52.76322021 83.52055786 52.76322021 85.03198242 53.72119141 C86.91395735 54.9138521 88.79687378 56.10502893 90.6809082 57.29443359 C92.37112886 58.36657544 94.05031339 59.45638402 95.71606445 60.56616211 C97.91839646 62.03262767 97.91839646 62.03262767 100.16479492 62.92016602 C102.52878694 64.05701583 103.57962066 64.76965923 105 67 C105.87011356 72.62673436 105.65743591 78.13981348 105.4375 83.8125 C105.40236864 85.3794882 105.37043278 86.94655152 105.34179688 88.51367188 C105.26484327 92.34430607 105.14417319 96.17133034 105 100 C97.47934544 100.28206161 89.96008222 100.47282129 82.43530273 100.60424805 C79.88335218 100.65910622 77.33173976 100.73382534 74.78100586 100.82983398 C58.65339564 101.42106377 47.28056823 100.94215954 34.6390686 90.34573364 C32.3994441 88.50692224 29.9994674 86.99558095 27.53515625 85.4765625 C26.77783203 84.99316406 26.02050781 84.50976562 25.24023438 84.01171875 C24.52158203 83.55410156 23.80292969 83.09648438 23.0625 82.625 C21.94391602 81.90376953 21.94391602 81.90376953 20.80273438 81.16796875 C11.07874894 74.98683072 1.86843134 69.33145525 -10 71 C-20.3963292 74.66853013 -29.6355298 81.46301104 -38.75 87.5234375 C-39.59353027 88.06137939 -40.43706055 88.59932129 -41.30615234 89.15356445 C-44.09132929 90.98526471 -44.09132929 90.98526471 -46.74462891 93.39916992 C-58.54282464 102.81566168 -71.94725736 101.00230274 -86.375 100.5625 C-88.96086748 100.51728459 -91.54681128 100.47623254 -94.1328125 100.43945312 C-100.42355976 100.34100335 -106.71141822 100.19101665 -113 100 C-113.24857661 95.42886736 -113.42922838 90.86171502 -113.54931641 86.28540039 C-113.59939063 84.73196883 -113.66748156 83.17900369 -113.75439453 81.62719727 C-114.45253748 68.83475443 -114.45253748 68.83475443 -111.1184082 64.62329102 C-108.5051871 62.77067481 -105.88392351 61.39004528 -103 60 C-101.20574297 58.88449584 -99.42318889 57.74996494 -97.65234375 56.59765625 C-95.74881667 55.41697703 -93.84380593 54.23868725 -91.9375 53.0625 C-83.37766466 47.74712914 -74.85548126 42.37861906 -66.375 36.9375 C-65.33770752 36.27210205 -64.30041504 35.6067041 -63.23168945 34.92114258 C-61.16285933 33.5938495 -59.09409226 32.26645815 -57.02539062 30.93896484 C-45.19023493 23.35384489 -33.31885569 15.82499899 -21.4375 8.3125 C-20.26791748 7.57241699 -20.26791748 7.57241699 -19.07470703 6.81738281 C-17.65610475 5.92152274 -16.23414394 5.03094775 -14.80810547 4.14697266 C-13.32745733 3.20772273 -11.89232798 2.19706619 -10.47265625 1.16796875 C-6.92643948 -0.50710047 -3.79434834 -0.71465015 0 0 Z " fill="#FDD1A3" transform="translate(260,15)"/>
<path d="M0 0 C0.65694333 -0.00235223 1.31388667 -0.00470446 1.99073738 -0.00712797 C4.20754578 -0.01382212 6.42429562 -0.01335962 8.64111328 -0.01294994 C10.24041108 -0.01624833 11.83970805 -0.01997384 13.43900394 -0.02409142 C17.84620261 -0.03412275 22.25338766 -0.03783005 26.66059613 -0.04048073 C31.40927031 -0.04438052 36.15793367 -0.05395918 40.90660095 -0.0626936 C52.38195774 -0.08246885 63.85731542 -0.09252628 75.33268499 -0.10142139 C80.73563539 -0.10580318 86.1385848 -0.11117033 91.54153442 -0.11641026 C109.50128476 -0.13342479 127.46103447 -0.1479186 145.42079163 -0.155159 C150.08293661 -0.15706892 154.74508159 -0.15898925 159.40722656 -0.16094494 C161.1453774 -0.16167055 161.1453774 -0.16167055 162.9186424 -0.16241082 C181.68661056 -0.17070969 200.45451495 -0.1960432 219.22245526 -0.22852562 C238.48818606 -0.26159783 257.75388445 -0.27960797 277.01964378 -0.28280324 C287.83776171 -0.28496835 298.65578669 -0.29371708 309.47387695 -0.31926441 C318.68811525 -0.34097372 327.90223804 -0.34902072 337.11649901 -0.33929763 C341.81659136 -0.33475341 346.51644539 -0.33664625 351.21650505 -0.35605907 C355.52364779 -0.37369505 359.83037842 -0.37268953 364.13752556 -0.35716178 C365.69146213 -0.35478635 367.24542728 -0.35910593 368.79932022 -0.37099043 C381.90601876 -0.46498248 391.77241434 1.36165904 401.41455078 10.69672108 C406.53402011 16.44231255 408.58642578 20.3582825 408.58642578 28.13422108 C263.38642578 28.13422108 118.18642578 28.13422108 -31.41357422 28.13422108 C-31.41357422 20.1097905 -28.60666015 15.23656454 -23.22607422 9.38422108 C-16.78303027 3.29519053 -8.77361317 0.01335977 0 0 Z " fill="#90DCB5" transform="translate(67.41357421875,433.86577892303467)"/>
<path d="M0 0 C145.86 0 291.72 0 442 0 C442 5.28 442 10.56 442 16 C438 20 438 20 435.95445156 20.49942875 C435.2246008 20.49921947 434.49475004 20.49901018 433.74278259 20.49879456 C432.90020401 20.50837189 432.05762543 20.51794922 431.18951416 20.52781677 C430.27353455 20.51807327 429.35755493 20.50832977 428.41381836 20.49829102 C426.95713493 20.50656921 426.95713493 20.50656921 425.47102356 20.51501465 C423.36376403 20.52433715 421.25644817 20.52443778 419.14918327 20.51642036 C415.81666182 20.50381859 412.48497199 20.51505365 409.15248108 20.53245544 C403.28293991 20.55918524 397.41360181 20.56474986 391.54400635 20.56335449 C382.14491383 20.56112756 372.74607211 20.5751285 363.34707832 20.61894035 C360.05920984 20.62881059 356.77173214 20.62004549 353.48387146 20.61024475 C351.4748407 20.61638654 349.46581209 20.62329746 347.45678711 20.63110352 C346.07978134 20.61952461 346.07978134 20.61952461 344.67495728 20.60771179 C343.83519852 20.6144693 342.99543976 20.62122681 342.13023376 20.62818909 C341.03602316 20.62730962 341.03602316 20.62730962 339.9197073 20.62641239 C337.38901649 21.11890139 336.54280658 21.95757405 335 24 C334.67 25.32 334.34 26.64 334 28 C327.4 28 320.8 28 314 28 C313.01 26.02 312.02 24.04 311 22 C308.49514612 20.74757306 306.80588907 20.87399498 304.00177956 20.87250805 C302.9378286 20.8695004 301.87387765 20.86649275 300.77768576 20.86339396 C299.59950069 20.86514433 298.42131562 20.86689471 297.20742798 20.86869812 C295.34087289 20.86552455 295.34087289 20.86552455 293.43660963 20.86228687 C290.69635591 20.85835497 287.95617114 20.85627086 285.2159214 20.85725212 C280.75803866 20.85884148 276.30017846 20.85365019 271.84230042 20.84762573 C265.37021517 20.83950454 258.89813387 20.83456611 252.42604446 20.83133507 C242.20046575 20.82584506 231.97492052 20.80895459 221.74935913 20.78999329 C218.25317579 20.78363624 214.75699237 20.77732786 211.26080894 20.77101612 C210.38702642 20.76943236 209.5132439 20.7678486 208.61298312 20.76621684 C198.6615875 20.74827209 188.71018952 20.73204937 178.75878906 20.71704102 C177.8488318 20.71566514 176.93887454 20.71428927 176.00134282 20.71287171 C161.25079374 20.6909353 146.50025323 20.68018418 131.74969073 20.67267027 C116.61644341 20.66460587 101.48326985 20.64133754 86.35006464 20.6047166 C77.00961729 20.58266177 67.6693215 20.57303602 58.32884942 20.57921693 C51.93024063 20.58238585 45.53176147 20.57109912 39.13319279 20.54832252 C35.43850475 20.53562511 31.74410542 20.52952022 28.04940605 20.54073906 C24.04819057 20.55273283 20.04771304 20.53404915 16.04653931 20.51225281 C14.28595387 20.52491661 14.28595387 20.52491661 12.48980105 20.53783625 C11.4206346 20.52700536 10.35146816 20.51617447 9.24990273 20.50501537 C8.32598815 20.50403856 7.40207357 20.50306176 6.45016158 20.50205535 C4 20 4 20 0 16 C0 10.72 0 5.44 0 0 Z " fill="#FBD599" transform="translate(35,477)"/>
<path d="M0 0 C1.11263718 -0.00073013 2.22527435 -0.00146027 3.37162781 -0.00221252 C7.04601946 0.00126842 10.71914057 0.04015662 14.39331055 0.0793457 C16.94206551 0.08867194 19.49082943 0.09578895 22.03959656 0.1007843 C28.06039873 0.11791853 34.08065628 0.15731646 40.10124034 0.20753175 C46.95726778 0.26347057 53.81331727 0.29092299 60.66951621 0.31600893 C74.76910579 0.36823435 88.8682926 0.45614806 102.9675293 0.56762695 C100.17338698 3.4264121 97.51454085 5.65929936 94.1159668 7.7746582 C93.18139648 8.36182617 92.24682617 8.94899414 91.28393555 9.55395508 C90.31327148 10.1565918 89.34260742 10.75922852 88.3425293 11.38012695 C74.0453455 19.17878851 74.0453455 19.17878851 63.4050293 30.81762695 C62.94999023 31.6477832 62.49495117 32.47793945 62.02612305 33.33325195 C59.8704142 37.883309 59.75514344 42.01336128 59.65112305 46.9543457 C59.6199514 48.17985893 59.6199514 48.17985893 59.58815002 49.43013 C59.5227985 52.03837729 59.46383656 54.64672471 59.4050293 57.25512695 C59.36183038 59.02401749 59.31821564 60.79289792 59.27416992 62.56176758 C59.16713186 66.89695158 59.06582386 71.23223624 58.9675293 75.56762695 C47.93675836 75.63706889 36.90603923 75.69040867 25.87509441 75.72306347 C20.75323974 75.73873437 15.63153436 75.75999863 10.50976562 75.79394531 C5.56903931 75.82648796 0.6284568 75.84446923 -4.31236839 75.85225868 C-6.19947766 75.85781136 -8.08657887 75.86865411 -9.97362709 75.88481712 C-12.61231255 75.90652378 -15.25040011 75.90959673 -17.88916016 75.90820312 C-18.6731871 75.91898895 -19.45721405 75.92977478 -20.26499939 75.94088745 C-25.49131166 75.91092434 -25.49131166 75.91092434 -28.02256775 74.30516052 C-31.23690718 68.77490374 -28.64289147 60.65578636 -27.2043457 54.82543945 C-27.01406799 54.01759003 -26.82379028 53.2097406 -26.62774658 52.37741089 C-26.02204654 49.81347401 -25.40292439 47.25302926 -24.7824707 44.69262695 C-24.18166598 42.17849029 -23.58379849 39.66368394 -22.98791504 37.14837646 C-22.59092709 35.47640111 -22.19062281 33.80520967 -21.7869873 32.13482666 C-20.76250103 27.85467426 -19.82374195 23.57745807 -19.01879883 19.25024414 C-18.85462463 18.38970428 -18.69045044 17.52916443 -18.52130127 16.64254761 C-18.21497635 15.01109971 -17.92432373 13.37659836 -17.65252686 11.73904419 C-17.44276215 10.63301346 -17.44276215 10.63301346 -17.22875977 9.50463867 C-17.11759827 8.86291718 -17.00643677 8.22119568 -16.89190674 7.56002808 C-13.43857802 -0.44570561 -7.64017049 -0.13105113 0 0 Z " fill="#FCC143" transform="translate(73.032470703125,129.432373046875)"/>
<path d="M0 0 C14.77729833 -0.11684014 29.55453546 -0.2049913 44.33220196 -0.25906086 C51.19387446 -0.28483453 58.05525984 -0.31996832 64.91674805 -0.37719727 C71.53678051 -0.43238596 78.15659281 -0.46141107 84.77686501 -0.47438622 C87.30429598 -0.48363443 89.83171037 -0.50169379 92.35901451 -0.52865028 C95.89554693 -0.56487572 99.4308416 -0.56994779 102.9675293 -0.56762695 C104.01553711 -0.58560333 105.06354492 -0.60357971 106.14331055 -0.62210083 C113.22906904 -0.57168849 113.22906904 -0.57168849 117.1131134 2.30854797 C119.46911808 5.66914928 120.32527117 8.87975297 121.0625 12.84375 C121.21968506 13.60177917 121.37687012 14.35980835 121.53881836 15.14080811 C122.0432898 17.59069602 122.52176656 20.04486907 123 22.5 C123.5122039 25.02570775 124.03051127 27.55011471 124.54907227 30.07452393 C124.89036152 31.73873505 125.22940532 33.40340829 125.56616211 35.06854248 C127.03573595 42.30730474 128.73364985 49.47955674 130.62890625 56.61914062 C131.89023324 61.60711555 132.95306542 66.87343035 132 72 C130.98625183 73.60084534 130.98625183 73.60084534 129 75 C126.20989569 75.28056139 123.64570789 75.37894459 120.85668945 75.34057617 C120.02719788 75.34101425 119.1977063 75.34145233 118.34307861 75.34190369 C115.59957391 75.33981259 112.85667928 75.3164666 110.11328125 75.29296875 C108.21185134 75.28737393 106.3104171 75.2831033 104.40898132 75.28010559 C99.40294467 75.26864782 94.39716889 75.23917258 89.39123535 75.20599365 C84.28364593 75.17531288 79.17601438 75.16160452 74.06835938 75.14648438 C64.04545826 75.11430381 54.02275082 75.06309616 44 75 C43.99589111 73.93152832 43.99178223 72.86305664 43.98754883 71.76220703 C43.96558921 67.75473395 43.91112912 63.74821946 43.84741211 59.74121094 C43.82437754 58.01506823 43.8098709 56.28878787 43.80444336 54.5625 C43.76150566 43.14767775 43.29545614 34.50584611 35.8125 25.3125 C27.29240506 18.3070886 17.76789266 12.62504521 8.41992188 6.81054688 C7.47568359 6.21693359 6.53144531 5.62332031 5.55859375 5.01171875 C4.27940063 4.21447388 4.27940063 4.21447388 2.97436523 3.40112305 C1 2 1 2 0 0 Z " fill="#FCC143" transform="translate(336,130)"/>
<path d="M0 0 C23.1 0 46.2 0 70 0 C70.495 4.455 70.495 4.455 71 9 C72.79256264 12.25920481 73.43158667 12.81052889 77 14 C77.14510162 17.27036728 77.23399373 20.53991007 77.3125 23.8125 C77.35439453 24.74126953 77.39628906 25.67003906 77.43945312 26.62695312 C77.48548641 29.17719714 77.48332865 31.4944289 77 34 C74.54296875 36.07421875 74.54296875 36.07421875 72 37 C65.38352225 43.61647775 70.34632227 55.64929861 70 65 C46.9 65 23.8 65 0 65 C0 43.55 0 22.1 0 0 Z " fill="#FDD1A3" transform="translate(62,220)"/>
<path d="M0 0 C23.1 0 46.2 0 70 0 C70 21.45 70 42.9 70 65 C46.9 65 23.8 65 0 65 C0 43.55 0 22.1 0 0 Z " fill="#FED1A3" transform="translate(380,220)"/>
<path d="M0 0 C7.17994866 5.0710673 11.66559753 12.04541426 14.92578125 20.125 C16.7776862 31.44219694 14.88294442 41.14536482 8.1484375 50.52734375 C2.51636926 57.43159681 -4.16553548 60.78043891 -12.51171875 63.5625 C-23.11782145 64.6007678 -30.4029415 63.45143041 -39.51171875 57.5625 C-40.12660156 57.17964844 -40.74148438 56.79679687 -41.375 56.40234375 C-47.62247986 51.89834664 -51.53732844 43.82287163 -53.51171875 36.5625 C-54.83719634 24.60771177 -53.23213531 15.88414427 -45.68359375 6.22265625 C-33.36170893 -7.22623023 -15.58918021 -8.92195695 0 0 Z " fill="#040404" transform="translate(394.51171875,330.4375)"/>
<path d="M0 0 C8.61393137 4.94637516 13.95861991 11.44954075 17.7890625 20.6015625 C20.23058467 30.11301389 19.52332016 39.95365185 14.7890625 48.6015625 C8.50476095 57.05615415 1.29377508 63.47615486 -9.2109375 65.6015625 C-19.34832033 66.58565931 -27.68998963 65.81828645 -35.90625 59.54296875 C-43.92486906 52.61142195 -49.43824705 45.43288467 -50.5 34.671875 C-50.82234645 23.15531535 -47.30886594 14.49691236 -39.6875 5.87890625 C-28.65919514 -4.63833082 -13.51611555 -6.38360075 0 0 Z " fill="#030303" transform="translate(307.2109375,328.3984375)"/>
<path d="M0 0 C16.83 0 33.66 0 51 0 C51 19.47 51 38.94 51 59 C34.17 59 17.34 59 0 59 C0 39.53 0 20.06 0 0 Z " fill="#D77F4A" transform="translate(263,226)"/>
<path d="M0 0 C16.83 0 33.66 0 51 0 C51 19.47 51 38.94 51 59 C34.17 59 17.34 59 0 59 C0 39.53 0 20.06 0 0 Z " fill="#D77F4A" transform="translate(198,226)"/>
<path d="M0 0 C4.27452164 0.78511622 5.47340896 2.06983356 8.0625 5.5625 C8.67362907 9.19166075 8.53384173 12.70814561 8.375 16.375 C8.271875 19.736875 8.16875 23.09875 8.0625 26.5625 C15.3225 26.5625 22.5825 26.5625 30.0625 26.5625 C29.86541549 19.87554605 29.86541549 19.87554605 29.61206055 13.19067383 C29.54289038 8.53663752 29.55806105 6.26029289 32.35546875 2.390625 C35.0625 0.5625 35.0625 0.5625 38.6875 0.5 C42.4524535 1.68526314 43.15478029 2.23308649 45.0625 5.5625 C45.45690918 8.2497406 45.45690918 8.2497406 45.48242188 11.35327148 C45.49833374 12.51805527 45.51424561 13.68283905 45.53063965 14.88291931 C45.53084106 16.13714188 45.53104248 17.39136444 45.53125 18.68359375 C45.54267029 20.62166649 45.54267029 20.62166649 45.55432129 22.59889221 C45.56775443 25.33172288 45.56934033 28.06426473 45.56347656 30.79711914 C45.55758104 34.29235129 45.5881677 37.78619404 45.62859344 41.28115749 C45.66072119 44.62368017 45.65635414 47.96591716 45.65625 51.30859375 C45.67264526 52.56079208 45.68904053 53.81299042 45.70593262 55.10313416 C45.62901174 64.75757835 45.62901174 64.75757835 42.71679688 67.85180664 C39.44335648 69.96153777 37.87871148 70.37445989 34.0625 69.5625 C31.35317149 67.31204875 30.18059177 65.51374957 29.74389648 61.99609375 C29.6685057 58.9048162 29.71432672 55.84057042 29.8125 52.75 C29.83054688 51.67556641 29.84859375 50.60113281 29.8671875 49.49414062 C29.91419663 46.84987679 29.98593634 44.20607317 30.0625 41.5625 C22.8025 41.5625 15.5425 41.5625 8.0625 41.5625 C8.14951172 43.96595703 8.14951172 43.96595703 8.23828125 46.41796875 C8.28518454 48.52861669 8.33068408 50.63929615 8.375 52.75 C8.41689453 53.80509766 8.45878906 54.86019531 8.50195312 55.94726562 C8.62561988 63.78773775 8.62561988 63.78773775 5.734375 67.765625 C2.47017109 69.96084985 0.91854921 70.3008924 -2.9375 69.5625 C-5.6924773 67.43565065 -6.81075644 66.25366515 -7.44543457 62.79260254 C-7.44861694 61.72989136 -7.45179932 60.66718018 -7.45507812 59.57226562 C-7.46768677 58.36421265 -7.48029541 57.15615967 -7.49328613 55.91149902 C-7.48518921 54.61039185 -7.47709229 53.30928467 -7.46875 51.96875 C-7.47144584 50.61641155 -7.47532903 49.26407499 -7.48034668 47.91174316 C-7.48623759 45.08045966 -7.47769293 42.24968167 -7.45898438 39.41845703 C-7.43619382 35.79323337 -7.44931927 32.1691942 -7.47327423 28.54401398 C-7.48774396 25.75237132 -7.48312111 22.96100848 -7.47276306 20.1693573 C-7.46880545 18.18406402 -7.48093166 16.19875976 -7.49328613 14.21350098 C-7.48067749 13.005448 -7.46806885 11.79739502 -7.45507812 10.55273438 C-7.45189575 9.49002319 -7.44871338 8.42731201 -7.44543457 7.33239746 C-6.620367 2.83309242 -4.43318115 0.84890703 0 0 Z " fill="#030304" transform="translate(196.9375,324.4375)"/>
<path d="M0 0 C18.73770492 9.73770492 18.73770492 9.73770492 24 15 C24.08843793 17.44830426 24.11528752 19.86820599 24.09765625 22.31640625 C24.0962413 23.04746078 24.09482635 23.77851532 24.09336853 24.53172302 C24.08775408 26.87535632 24.07519922 29.21889539 24.0625 31.5625 C24.05748686 33.14778508 24.05292363 34.73307166 24.04882812 36.31835938 C24.03777997 40.2122761 24.02050572 44.10612205 24 48 C16.47934544 48.28206161 8.96008222 48.47282129 1.43530273 48.60424805 C-1.11664782 48.65910622 -3.66826024 48.73382534 -6.21899414 48.82983398 C-22.36835594 49.42186117 -33.73356711 48.92678832 -46.39303589 38.31570435 C-48.52079601 36.57359746 -50.79554321 35.17105223 -53.16015625 33.7734375 C-54.16079102 33.15662109 -54.16079102 33.15662109 -55.18164062 32.52734375 C-56.50123088 31.71887205 -57.82161278 30.91169173 -59.14257812 30.10546875 C-60.77780172 29.09591013 -62.39173524 28.05197399 -64 27 C-64 26.67 -64 26.34 -64 26 C-62.91170898 25.99589111 -61.82341797 25.99178223 -60.70214844 25.98754883 C-56.60891332 25.96554065 -52.51661022 25.91103243 -48.42382812 25.84741211 C-46.66285228 25.82441909 -44.90174256 25.80988094 -43.140625 25.80444336 C-29.76133618 25.75503121 -17.91649416 24.73139029 -7.6875 15.03515625 C-4.01702105 10.60849067 -1.80554791 5.41664372 0 0 Z " fill="#FEBC85" transform="translate(341,67)"/>
<path d="M0 0 C3.85980039 2.19910042 5.72278668 4.18295022 7.1875 8.5 C7 12 7 12 5 15 C2 17 2 17 -1.3125 17.0625 C-4.26061748 16.21304242 -6.35204785 15.36135048 -9 13.9375 C-12.78127619 11.91444367 -15.6709683 11.4805162 -20 12 C-20.66 12.66 -21.32 13.32 -22 14 C-22 15.32 -22 16.64 -22 18 C-21.39526855 18.24645264 -20.79053711 18.49290527 -20.16748047 18.74682617 C-17.39862099 19.88262579 -14.63689843 21.03488234 -11.875 22.1875 C-10.44800781 22.76854492 -10.44800781 22.76854492 -8.9921875 23.36132812 C-1.76700469 26.3969084 4.64029467 29.46059346 8 37 C8.79065707 42.62719896 9.08548255 48.85121725 6.375 54 C2.29885385 59.14881618 -2.45480914 63.5176397 -9 65 C-21.24823355 66.21006645 -28.88385713 63.70799831 -38.46875 56.3671875 C-40.92321976 54.17569664 -41.0028313 52.96942195 -41.3125 49.625 C-41 46 -41 46 -39.375 43.5625 C-36.15577836 41.44459103 -34.80569211 41.26813613 -31 42 C-28.77609853 43.39823656 -26.7654066 44.92487017 -24.734375 46.58984375 C-21.94603482 48.85694015 -20.15460752 49.15818432 -16.625 49.1875 C-15.85414062 49.20167969 -15.08328125 49.21585937 -14.2890625 49.23046875 C-11.78165112 48.97801607 -10.16738098 48.25193467 -8 47 C-7.66574265 44.62625139 -7.66574265 44.62625139 -8 42 C-11.42381718 38.65663805 -15.92839219 37.35777104 -20.3125 35.6875 C-33.9498626 30.27052842 -33.9498626 30.27052842 -37.12890625 23.6484375 C-38.89779425 18.27038341 -39.08510214 12.77683619 -37.0078125 7.4609375 C-28.71364085 -6.55012083 -13.33211423 -6.48589341 0 0 Z " fill="#040404" transform="translate(94,329)"/>
<path d="M0 0 C2.34952441 2.52995533 3.80314281 4.12507915 4.5625 7.5 C3.70956484 11.29082295 2.11459264 12.74689043 -1 15 C-4.95324467 15 -7.40757161 14.32197195 -10.875 12.4375 C-15.68274381 10.22593785 -20.12052755 10.08661895 -25.1796875 11.69140625 C-30.05921596 13.89179739 -32.97849709 16.60508668 -36 21 C-37.68042013 26.10589193 -38.34806964 33.01540914 -36.10546875 37.98046875 C-35.13566587 39.36834919 -34.07398808 40.69107703 -33 42 C-33 42.66 -33 43.32 -33 44 C-27.17312228 47.13754954 -21.61788149 48.87181672 -15 48 C-11.9298406 46.78352175 -9.723253 45.88762868 -7.625 43.3125 C-5.25436498 41.39775633 -2.90547415 41.46578334 0.0546875 41.5859375 C2 42 2 42 4.5625 44.125 C6 47 6 47 6.3125 49.8125 C3.96432445 55.51521206 -0.78711283 59.20579028 -6.10546875 62.17578125 C-13.66310687 65.16764175 -22.71091952 65.49793265 -30.35546875 62.828125 C-33.37065287 61.37484371 -36.17896849 59.7987311 -39 58 C-39.61617187 57.61714844 -40.23234375 57.23429687 -40.8671875 56.83984375 C-47.11029963 52.32733524 -51.02485394 44.26315074 -53 37 C-54.32547759 25.04521177 -52.72041656 16.32164427 -45.171875 6.66015625 C-33.11882046 -6.49531182 -15.45188718 -8.69168654 0 0 Z " fill="#040405" transform="translate(170,330)"/>
<path d="M0 0 C23.1 0 46.2 0 70 0 C70.495 4.455 70.495 4.455 71 9 C72.79256264 12.25920481 73.43158667 12.81052889 77 14 C77 16.97 77 19.94 77 23 C51.59 23 26.18 23 0 23 C0 15.41 0 7.82 0 0 Z " fill="#FDBB85" transform="translate(62,220)"/>
<path d="M0 0 C23.1 0 46.2 0 70 0 C70 7.59 70 15.18 70 23 C47.23 23 24.46 23 1 23 C1 36.86 1 50.72 1 65 C0.67 65 0.34 65 0 65 C0 43.55 0 22.1 0 0 Z " fill="#FBBB84" transform="translate(380,220)"/>
<path d="M0 0 C29.04 0 58.08 0 88 0 C84.40194998 2.87844002 81.00844476 5.36800687 77.1484375 7.8203125 C76.05015625 8.52027344 74.951875 9.22023438 73.8203125 9.94140625 C72.67193539 10.6693661 71.52349727 11.39722973 70.375 12.125 C69.21857679 12.86040478 68.06232521 13.59607953 66.90625 14.33203125 C64.79045713 15.67867118 62.67384461 17.02402478 60.55615234 18.36767578 C58.69125746 19.55857236 56.84108263 20.77261158 55 22 C52.55122375 22.24050903 52.55122375 22.24050903 49.6105957 22.22705078 C48.50968094 22.22689972 47.40876617 22.22674866 46.27449036 22.22659302 C44.49312935 22.21110916 44.49312935 22.21110916 42.67578125 22.1953125 C41.45924362 22.1924826 40.24270599 22.18965271 38.98930359 22.18673706 C35.09693642 22.17552603 31.20479784 22.15041948 27.3125 22.125 C24.67643561 22.11497141 22.04036762 22.10584535 19.40429688 22.09765625 C12.9361096 22.07558363 6.46809358 22.04104721 0 22 C0 14.74 0 7.48 0 0 Z " fill="#FEBC85" transform="translate(147,93)"/>
<path d="M0 0 C3.4100935 0.9300255 4.4039983 1.21428119 6.4375 3.9375 C6.79826355 6.19645691 6.79826355 6.19645691 6.77807617 8.86791992 C6.77784958 9.86873093 6.77762299 10.86954193 6.77738953 11.90068054 C6.76190567 12.97888565 6.74642181 14.05709076 6.73046875 15.16796875 C6.72622391 16.27352615 6.72197906 17.37908356 6.71760559 18.5181427 C6.70079437 22.05400812 6.66313685 25.58930645 6.625 29.125 C6.60995636 31.52017407 6.5962674 33.91535706 6.58398438 36.31054688 C6.55088285 42.18639185 6.50065893 48.06190542 6.4375 53.9375 C7.39011719 53.89109375 8.34273438 53.8446875 9.32421875 53.796875 C10.57847656 53.76078125 11.83273437 53.7246875 13.125 53.6875 C14.36636719 53.64109375 15.60773438 53.5946875 16.88671875 53.546875 C21.02447586 54.0020738 22.60526286 54.93490273 25.4375 57.9375 C26 61.4375 26 61.4375 25.4375 64.9375 C23.34522202 67.66306352 22.15938427 68.79837321 18.75195312 69.45507812 C17.75099609 69.45958984 16.75003906 69.46410156 15.71875 69.46875 C14.62175781 69.47390625 13.52476562 69.4790625 12.39453125 69.484375 C11.25371094 69.46890625 10.11289062 69.4534375 8.9375 69.4375 C7.22626953 69.46070313 7.22626953 69.46070313 5.48046875 69.484375 C4.38347656 69.47921875 3.28648437 69.4740625 2.15625 69.46875 C0.65481445 69.46198242 0.65481445 69.46198242 -0.87695312 69.45507812 C-4.35247302 68.78525066 -5.37248804 67.68842114 -7.5625 64.9375 C-8.07043457 62.16760254 -8.07043457 62.16760254 -8.08007812 58.94726562 C-8.09268677 57.73921265 -8.10529541 56.53115967 -8.11828613 55.28649902 C-8.11018921 53.98539185 -8.10209229 52.68428467 -8.09375 51.34375 C-8.09644584 49.99141155 -8.10032903 48.63907499 -8.10534668 47.28674316 C-8.11123759 44.45545966 -8.10269293 41.62468167 -8.08398438 38.79345703 C-8.06119382 35.16823337 -8.07431927 31.5441942 -8.09827423 27.91901398 C-8.11274396 25.12737132 -8.10812111 22.33600848 -8.09776306 19.5443573 C-8.09380545 17.55906402 -8.10593166 15.57375976 -8.11828613 13.58850098 C-8.10567749 12.380448 -8.09306885 11.17239502 -8.08007812 9.92773438 C-8.07689575 8.86502319 -8.07371338 7.80231201 -8.07043457 6.70739746 C-7.16101314 1.74808918 -4.96942592 -0.08718291 0 0 Z " fill="#010101" transform="translate(433.5625,325.0625)"/>
<path d="M0 0 C5.28394267 2.94844001 8.91543295 7.80879886 10.8125 13.5 C11.59523567 20.00568825 10.63747152 25.12626701 6.8125 30.5 C3.32019201 34.17906243 -0.62231706 37.12159568 -5.703125 37.87109375 C-12.56519679 38.03774406 -16.94378209 37.02472113 -22.1875 32.5 C-27.17874237 27.24606067 -28.78248505 22.29571333 -28.6328125 15.1328125 C-27.73241405 9.80940412 -24.58810559 5.58397896 -20.55859375 2.0859375 C-14.30970462 -2.2679251 -6.99225211 -3.05238698 0 0 Z " fill="#E4E9EE" transform="translate(300.1875,341.5)"/>
<path d="M0 0 C4.54137931 2.86321638 7.52598526 5.85270241 9.25 11 C10.17334192 17.10473998 10.31823728 22.98969631 7.25 28.5 C3.7408488 33.13955005 -0.41073178 36.45566788 -6.2421875 37.40625 C-11.68911654 37.60492218 -16.01917836 36.85634514 -20.75 34 C-25.82763812 29.02411815 -28.89037466 25.5327049 -29.0625 18.3125 C-28.99275093 11.83358613 -27.93731804 8.26590944 -23.32421875 3.5390625 C-16.39273762 -2.65807566 -8.40642952 -4.16118261 0 0 Z " fill="#E4E9EE" transform="translate(384.75,342)"/>
<path d="M0 0 C0.33 0 0.66 0 1 0 C1 13.2 1 26.4 1 40 C17.17 40 33.34 40 50 40 C50 26.8 50 13.6 50 0 C50.33 0 50.66 0 51 0 C51 19.47 51 38.94 51 59 C34.17 59 17.34 59 0 59 C0 39.53 0 20.06 0 0 Z " fill="#C16935" transform="translate(263,226)"/>
<path d="M0 0 C0.33 0 0.66 0 1 0 C1 13.2 1 26.4 1 40 C17.17 40 33.34 40 50 40 C50 26.8 50 13.6 50 0 C50.33 0 50.66 0 51 0 C51 19.47 51 38.94 51 59 C34.17 59 17.34 59 0 59 C0 39.53 0 20.06 0 0 Z " fill="#C16935" transform="translate(198,226)"/>
<path d="M0 0 C11.88 0 23.76 0 36 0 C36 6.27 36 12.54 36 19 C24.12 19 12.24 19 0 19 C0 12.73 0 6.46 0 0 Z " fill="#E8EDF2" transform="translate(329,266)"/>
<path d="M0 0 C11.88 0 23.76 0 36 0 C36 6.27 36 12.54 36 19 C24.12 19 12.24 19 0 19 C0 12.73 0 6.46 0 0 Z " fill="#E8EDF2" transform="translate(147,266)"/>
</svg>
