<svg width="21" height="22" viewBox="0 0 21 22" fill="none" xmlns="http://www.w3.org/2000/svg">
<path d="M17.3685 3.92349C15.4716 2.03434 12.9618 0.988281 10.3037 0.988281C7.64955 0.988281 5.1476 2.03824 3.25455 3.92739C1.3654 5.81654 0.323242 8.3302 0.323242 10.9844C0.323242 13.6425 1.36149 16.1522 3.25064 18.0531C5.1476 19.9578 7.64955 21.0117 10.3037 21.0117C11.6464 21.0117 12.9501 20.7385 14.1874 20.2115C15.3779 19.7041 16.4474 18.9703 17.3724 18.0492C18.2975 17.128 19.0196 16.0546 19.527 14.8642C20.0539 13.6268 20.3232 12.3193 20.3232 10.9805C20.3232 8.32239 19.2733 5.81654 17.3685 3.92349ZM16.2678 16.9446C14.6597 18.5527 12.5442 19.4387 10.3037 19.4387C5.66282 19.4387 1.88452 15.6448 1.88452 10.9805C1.88452 8.74393 2.76274 6.6323 4.35915 5.03589C5.95556 3.43948 8.06329 2.56126 10.3037 2.56126C14.9681 2.56126 18.762 6.33566 18.762 10.9805C18.762 13.217 17.8759 15.3364 16.2678 16.9446Z" fill="black"/>
<path d="M11.1234 8.96641V4.22793C11.1234 3.79858 10.7721 3.44729 10.3428 3.44729C9.91341 3.44729 9.56212 3.79858 9.56212 4.22793V8.9508C8.74245 9.25916 8.16087 10.0476 8.16087 10.9727C8.16087 12.1631 9.12886 13.135 10.3232 13.135C11.5176 13.135 12.4856 12.167 12.4856 10.9727C12.4856 10.0632 11.9197 9.28648 11.1234 8.96641ZM10.3232 11.5738C9.99147 11.5738 9.72215 11.3044 9.72215 10.9727C9.72215 10.6409 9.99147 10.3716 10.3232 10.3716C10.655 10.3716 10.9243 10.6409 10.9243 10.9727C10.9243 11.3044 10.655 11.5738 10.3232 11.5738Z" fill="black"/>
<path d="M4.99537 10.1998H4.1757C3.74635 10.1998 3.39506 10.5511 3.39506 10.9805C3.39506 11.4098 3.74635 11.7611 4.1757 11.7611H4.99537C5.42473 11.7611 5.77601 11.4098 5.77601 10.9805C5.77601 10.5511 5.42473 10.1998 4.99537 10.1998Z" fill="black"/>
<path d="M15.3779 10.1998C14.9485 10.1998 14.5972 10.5511 14.5972 10.9805C14.5972 11.4098 14.9485 11.7611 15.3779 11.7611H16.1976C16.6269 11.7611 16.9782 11.4098 16.9782 10.9805C16.9782 10.5511 16.6269 10.1998 16.1976 10.1998H15.3779Z" fill="black"/>
<path d="M15.0149 5.72286C14.6831 5.44573 14.1913 5.49257 13.9142 5.82434L13.3912 6.45666C13.114 6.78843 13.1609 7.28023 13.4926 7.55736C13.6371 7.67836 13.8166 7.73691 13.9923 7.73691C14.2147 7.73691 14.4411 7.63933 14.5933 7.45588L15.1164 6.82356C15.3935 6.49179 15.3467 5.99998 15.0149 5.72286Z" fill="black"/>
<path d="M6.55275 5.86729C6.27562 5.53552 5.78382 5.48868 5.45205 5.76581C5.12028 6.04293 5.07344 6.53474 5.35056 6.86651L5.87359 7.49883C6.02972 7.68618 6.2522 7.77986 6.47469 7.77986C6.65033 7.77986 6.82597 7.72131 6.9743 7.60031C7.30607 7.32318 7.35291 6.83138 7.07578 6.49961L6.55275 5.86729Z" fill="black"/>
</svg>
