<svg width="21" height="20" viewBox="0 0 21 20" fill="none" xmlns="http://www.w3.org/2000/svg">
<path d="M10.3232 0C8.34543 0 6.41204 0.58649 4.76754 1.6853C3.12305 2.78412 1.84133 4.3459 1.08445 6.17317C0.327575 8.00043 0.129542 10.0111 0.515394 11.9509C0.901246 13.8907 1.85365 15.6725 3.25218 17.0711C4.6507 18.4696 6.43253 19.422 8.37234 19.8079C10.3122 20.1937 12.3228 19.9957 14.1501 19.2388C15.9773 18.4819 17.5391 17.2002 18.6379 15.5557C19.7368 13.9112 20.3232 11.9778 20.3232 10C20.3202 7.34877 19.2657 4.80699 17.391 2.93228C15.5163 1.05758 12.9745 0.0030331 10.3232 0ZM10.3232 18C8.741 18 7.19428 17.5308 5.87868 16.6518C4.56309 15.7727 3.53771 14.5233 2.93221 13.0615C2.32671 11.5997 2.16828 9.99113 2.47696 8.43928C2.78565 6.88743 3.54757 5.46197 4.66639 4.34315C5.78521 3.22433 7.21068 2.4624 8.76252 2.15372C10.3144 1.84504 11.9229 2.00346 13.3847 2.60896C14.8465 3.21447 16.096 4.23984 16.975 5.55544C17.8541 6.87103 18.3232 8.41775 18.3232 10C18.3208 12.121 17.4772 14.1544 15.9774 15.6542C14.4777 17.1539 12.4442 17.9976 10.3232 18ZM11.3232 9.749V5C11.3232 4.73478 11.2179 4.48043 11.0304 4.29289C10.8428 4.10536 10.5885 4 10.3232 4C10.058 4 9.80368 4.10536 9.61614 4.29289C9.4286 4.48043 9.32325 4.73478 9.32325 5V10C9.32339 10.1647 9.36396 10.3268 9.44141 10.4722L10.9414 13.271C11.0666 13.5049 11.2796 13.6794 11.5336 13.7563C11.7875 13.8331 12.0615 13.8059 12.2954 13.6807C12.5293 13.5554 12.7038 13.3424 12.7807 13.0885C12.8575 12.8346 12.8303 12.5605 12.7051 12.3267L11.3232 9.749Z" fill="black"/>
</svg>
