<?xml version="1.0" encoding="UTF-8"?>
<svg version="1.1" xmlns="http://www.w3.org/2000/svg" width="512" height="512">
<path d="M0 0 C0.92555191 -0.0066568 1.85110382 -0.0133136 2.80470276 -0.02017212 C4.75365219 -0.0302545 6.70263584 -0.03499051 8.65161133 -0.03466797 C11.61663108 -0.03904438 14.58016457 -0.07541968 17.54492188 -0.11328125 C19.44660954 -0.11914988 21.34830421 -0.12311896 23.25 -0.125 C24.12732285 -0.13937103 25.00464569 -0.15374207 25.90855408 -0.16854858 C31.81186425 -0.12518599 36.25209513 1.01906288 41.19140625 4.3359375 C43.25 6.5546875 43.25 6.5546875 44.62890625 8.8359375 C45.10199219 9.58875 45.57507813 10.3415625 46.0625 11.1171875 C49.75764095 18.37960984 48.19140625 24.59870599 48.19140625 33.3359375 C64.36140625 33.3359375 80.53140625 33.3359375 97.19140625 33.3359375 C98.18140625 30.3659375 99.17140625 27.3959375 100.19140625 24.3359375 C104.9835548 16.76589221 112.05253224 11.78914592 120.765625 9.7265625 C129.06782396 8.38965446 137.43417283 9.49042076 144.71875 13.84765625 C152.18686851 19.37729475 155.7167031 24.43807061 158.19140625 33.3359375 C158.80411566 33.33479834 159.41682507 33.33365918 160.04810143 33.3324855 C196.36469565 33.26534682 232.68128069 33.21387557 268.99792427 33.18274151 C273.35880509 33.17898941 277.71968578 33.17510644 282.08056641 33.17114258 C282.94873682 33.17035565 283.81690724 33.16956872 284.71138585 33.16875794 C298.76746265 33.15570511 312.82350264 33.13205194 326.87955761 33.10447911 C341.30307222 33.0764215 355.72656755 33.05976049 370.15010834 33.05367202 C379.04973353 33.04955631 387.94925465 33.03655857 396.84884781 33.0121881 C402.95217825 32.99632653 409.05545492 32.9915381 415.15880448 32.99543337 C418.67978024 32.99735426 422.20057416 32.9944159 425.72151756 32.97832108 C429.541707 32.96098618 433.36166031 32.96698059 437.18188477 32.97517395 C438.29084799 32.96643543 439.39981121 32.9576969 440.54237938 32.94869357 C447.61634006 32.98973275 453.78256119 33.49721286 459.43359375 38.203125 C460.24183594 39.19699219 460.24183594 39.19699219 461.06640625 40.2109375 C461.62070312 40.86835937 462.175 41.52578125 462.74609375 42.203125 C465.58617817 46.39416849 466.44154934 50.01700294 466.45146847 55.04574108 C466.45853406 56.19208308 466.46559965 57.33842509 466.47287935 58.51950473 C466.47046427 59.77435036 466.46804918 61.029196 466.46556091 62.32206726 C466.47001424 63.67219315 466.4753286 65.02231642 466.48142964 66.37243587 C466.49560897 70.08156936 466.49727294 73.79061905 466.49683273 77.49977577 C466.49848101 81.50061582 466.5115478 85.50142136 466.52302551 89.50224304 C466.5458744 98.2502728 466.55379609 106.99827829 466.55885196 115.74633384 C466.56210929 121.20977181 466.56863201 126.67320274 466.57585335 132.13663673 C466.59541959 147.26646924 466.6118235 162.3962952 466.61472988 177.52614117 C466.61491745 178.49432643 466.61510502 179.4625117 466.61529827 180.46003591 C466.61566452 182.42274813 466.61602822 184.38546035 466.61638939 186.34817257 C466.6165722 187.32245287 466.61675501 188.29673317 466.61694336 189.30053711 C466.61721418 190.76374366 466.61721418 190.76374366 466.61749048 192.25650994 C466.62103159 208.06015479 466.6480499 223.86366333 466.68544125 239.66726091 C466.72353252 255.89671289 466.74288742 272.12609726 466.74318939 288.35559493 C466.7437738 297.46619829 466.75225491 306.57663906 466.78118706 315.68720055 C466.80571198 323.44559197 466.81297641 331.20376152 466.79793953 338.96218123 C466.79077496 342.91896286 466.791608 346.87530648 466.81435013 350.83203888 C466.83499568 354.45883511 466.83228887 358.08485817 466.81147528 361.71164653 C466.80634817 363.63567663 466.82571731 365.55972468 466.84613699 367.48365325 C466.77205772 375.15983827 465.52937847 380.90872735 461.19140625 387.3359375 C458.83984375 389.58984375 458.83984375 389.58984375 456.56640625 390.8984375 C455.81101562 391.35347656 455.055625 391.80851562 454.27734375 392.27734375 C450.63980631 394.12335994 447.81102253 394.4628023 443.78902531 394.47015858 C442.66038219 394.47461642 441.53173906 394.47907426 440.36889464 394.48366719 C438.50093069 394.48339065 438.50093069 394.48339065 436.5952301 394.48310852 C435.27650168 394.48678521 433.95777326 394.4904619 432.59908336 394.49425 C428.930874 394.50427483 425.26268101 394.50798755 421.59445989 394.51063931 C417.64142687 394.51454078 413.68840682 394.52411904 409.73538208 394.53285217 C400.18666549 394.55261816 390.63794784 394.5626817 381.0892159 394.57157996 C376.59539003 394.57596152 372.10156534 394.58132856 367.6077404 394.58656883 C352.67527924 394.60357913 337.74281882 394.61807512 322.81034946 394.62531757 C318.93500836 394.62722753 315.05966726 394.62914786 311.18432617 394.63110352 C310.22110335 394.63158726 309.25788052 394.632071 308.26546913 394.6325694 C292.64843085 394.64087659 277.031469 394.666226 261.41446412 394.69868419 C245.39077244 394.73171701 229.36711966 394.7497628 213.34339374 394.75296181 C204.34251887 394.75513012 195.34175553 394.76392576 186.34091377 394.78942299 C178.67858188 394.81107823 171.01638862 394.81920594 163.3540296 394.80945621 C159.44261515 394.80489676 155.53148705 394.80689252 151.62011147 394.82621765 C148.04175647 394.84374532 144.46389892 394.84293736 140.88553941 394.82732036 C138.97289116 394.82379228 137.06023831 394.84004776 135.14766127 394.85692483 C134.0164104 394.84834394 132.88515953 394.83976305 131.71962833 394.83092213 C130.7415761 394.83189894 129.76352387 394.83287574 128.75583369 394.83388215 C125.43896821 394.18983374 124.22581423 392.98771551 122.19140625 390.3359375 C122.19140625 389.3459375 122.19140625 388.3559375 122.19140625 387.3359375 C116.58140625 387.3359375 110.97140625 387.3359375 105.19140625 387.3359375 C104.86140625 388.9859375 104.53140625 390.6359375 104.19140625 392.3359375 C101.03888135 394.43762077 100.29490811 394.58829468 96.69740295 394.60336304 C95.31627319 394.61615799 95.31627319 394.61615799 93.90724182 394.62921143 C92.89894821 394.62830505 91.8906546 394.62739868 90.85180664 394.62646484 C89.78799774 394.63318207 88.72418884 394.63989929 87.62814331 394.64682007 C84.09840257 394.66587117 80.56885151 394.66972883 77.0390625 394.671875 C74.58344952 394.67830141 72.12783731 394.68502965 69.67222595 394.69204712 C64.514783 394.70404009 59.35740709 394.70772621 54.19995117 394.70654297 C47.6129066 394.70634045 41.02629675 394.73356421 34.4393549 394.76808739 C29.36132361 394.790411 24.28339568 394.79437872 19.20532036 394.79332352 C16.77860463 394.79567426 14.35188582 394.80446789 11.92521858 394.81998825 C8.51503012 394.83974399 5.10576225 394.83377044 1.69555664 394.82177734 C0.70548111 394.83301636 -0.28459442 394.84425537 -1.30467224 394.85583496 C-13.56585514 394.74711987 -23.69838517 390.4546565 -32.80859375 382.3359375 C-43.19797007 371.27067239 -46.11355138 360.18679796 -46.07601929 345.35054016 C-46.0805504 344.03812212 -46.08508151 342.72570407 -46.08974993 341.37351578 C-46.10195659 337.74116638 -46.10172223 334.10890924 -46.09936118 330.47654402 C-46.09895242 326.55477781 -46.10999792 322.63304093 -46.11947632 318.71128845 C-46.136075 311.03130162 -46.14158537 303.3513455 -46.14270107 295.67134223 C-46.14365218 289.42637467 -46.14776563 283.18141722 -46.15410233 276.93645287 C-46.17171246 259.21990858 -46.18094167 241.50338851 -46.17944138 223.78683541 C-46.17936147 222.83213334 -46.17928155 221.87743127 -46.17919922 220.89379883 C-46.17911746 219.93792711 -46.1790357 218.98205539 -46.17895146 217.99721786 C-46.17813885 202.51193045 -46.19727065 187.02674038 -46.22547595 171.54148111 C-46.25422708 155.63062003 -46.26801499 139.71980637 -46.2662884 123.80891865 C-46.26562522 114.88051345 -46.27108586 105.95221027 -46.2926445 97.02382851 C-46.31088575 89.4207367 -46.3151796 81.81779313 -46.30162565 74.21468887 C-46.29511051 70.33871479 -46.29492573 66.46302487 -46.31233215 62.58707809 C-46.32813319 59.03189381 -46.32512858 55.47721733 -46.30776389 51.9220449 C-46.30327327 50.04135508 -46.31829614 48.16064906 -46.33424318 46.28002149 C-46.22990226 33.33349239 -42.44163049 23.0232743 -33.80859375 13.3359375 C-23.96658332 4.095097 -13.35621825 0.03380488 0 0 Z " fill="#010101" transform="translate(45.80859375,58.6640625)"/>
<path d="M0 0 C16.83 0 33.66 0 51 0 C52.98 3.96 54.96 7.92 57 12 C62.16941474 17.41954771 66.05039163 19.55530478 73 22 C73.0093457 22.76666992 73.01869141 23.53333984 73.02832031 24.32324219 C73.08202773 27.79948103 73.16567576 31.27437474 73.25 34.75 C73.26417969 35.9565625 73.27835937 37.163125 73.29296875 38.40625 C73.32519531 39.56640625 73.35742188 40.7265625 73.390625 41.921875 C73.4220459 43.52434082 73.4220459 43.52434082 73.45410156 45.15917969 C74.12741665 48.66306804 75.15493026 49.89381049 78 52 C81.63239813 52.1716367 81.63239813 52.1716367 85 51 C87.20263899 47.84714963 87.29856194 44.91364328 87.4140625 41.140625 C87.45273438 40.02558594 87.49140625 38.91054687 87.53125 37.76171875 C87.5621875 36.60285156 87.593125 35.44398438 87.625 34.25 C87.66367188 33.07566406 87.70234375 31.90132812 87.7421875 30.69140625 C87.8363982 27.79442732 87.92201602 24.89745374 88 22 C88.79664063 21.64808594 89.59328125 21.29617187 90.4140625 20.93359375 C101.65314724 15.69689125 104.79370716 11.71415888 110 0 C160.82 0 211.64 0 264 0 C264 19.8 264 39.6 264 60 C256.72388672 60.02126953 256.72388672 60.02126953 249.30078125 60.04296875 C246.22453676 60.06303005 243.14844108 60.08455103 240.07226562 60.11132812 C235.19142855 60.15367525 230.31096869 60.19066398 225.42993164 60.19555664 C221.49383916 60.1998407 217.55859144 60.22831076 213.62276268 60.27343178 C212.12254955 60.28640361 210.62223531 60.29071551 209.12197304 60.28615379 C207.01699685 60.28124482 204.91448702 60.30734475 202.80981445 60.34057617 C201.01445 60.35056892 201.01445 60.35056892 199.18281555 60.36076355 C195.09960231 61.18083581 193.61610641 62.83677218 191 66 C189.84708316 68.30583369 189.84602662 69.69866887 189.79467773 72.26611328 C189.77473251 73.14687531 189.75478729 74.02763733 189.73423767 74.93508911 C189.71752518 75.88721283 189.70081268 76.83933655 189.68359375 77.8203125 C189.6524221 79.28100662 189.6524221 79.28100662 189.62062073 80.77120972 C189.55511402 83.88906647 189.49623503 87.00700903 189.4375 90.125 C189.39431585 92.23568604 189.3507016 94.34636333 189.30664062 96.45703125 C189.19943153 101.6379295 189.09766722 106.81891356 189 112 C187.84155075 112.00586624 186.6831015 112.01173248 185.48954773 112.01777649 C174.58568122 112.07492686 163.68201563 112.14764799 152.77835369 112.23571491 C147.1723187 112.28049067 141.56635759 112.31973085 135.96020508 112.34643555 C130.55250348 112.37239668 125.14508514 112.41274786 119.73755836 112.46318626 C117.67187834 112.47990374 115.60614928 112.49138751 113.540411 112.49761391 C110.65253194 112.50720201 107.7653856 112.53519745 104.87768555 112.56762695 C104.01885269 112.56619186 103.16001984 112.56475677 102.27516174 112.5632782 C98.00438246 112.51103901 98.00438246 112.51103901 94.2802248 114.30617046 C92.15785045 117.11422446 92.63770109 119.61854355 93 123 C94.02727276 124.82748224 94.02727276 124.82748224 96 126 C99.15555118 126.45821709 99.15555118 126.45821709 102.84344482 126.38768005 C103.54344014 126.39306559 104.24343546 126.39845113 104.96464276 126.40399987 C107.31612428 126.41833593 109.66704731 126.41116202 112.01855469 126.40405273 C113.70220392 126.40975354 115.38584929 126.41671667 117.06948853 126.42485046 C121.64820272 126.44283351 126.2267258 126.44160333 130.80546474 126.43590808 C134.6274044 126.43282226 138.44930703 126.43890222 142.27124143 126.44494683 C151.2902338 126.45900864 160.3091315 126.45741829 169.328125 126.44604492 C178.6297669 126.43457422 187.93112012 126.44861795 197.23272395 126.4754414 C205.21841104 126.49760718 213.20400759 126.50423343 221.18972325 126.49836498 C225.9591813 126.49499483 230.72845449 126.4974138 235.49788666 126.51461601 C239.98609828 126.53009601 244.47388327 126.52611795 248.96207809 126.50731087 C250.6071731 126.50362725 252.25229976 126.50672686 253.89736557 126.51719666 C256.14827327 126.5304254 258.39777267 126.51884416 260.64862061 126.50120544 C262.53567781 126.50089152 262.53567781 126.50089152 264.46085739 126.50057125 C268.92625342 125.86899205 271.26885421 124.51212548 275 122 C278.93485773 116.76464829 278.44084951 110.94977769 278.43237305 104.67041016 C278.4425647 103.53811981 278.45275635 102.40582947 278.46325684 101.23922729 C278.49339172 97.50578872 278.50265386 93.77260673 278.51171875 90.0390625 C278.528565 87.44688056 278.54671517 84.8547068 278.56611633 82.26254272 C278.6087748 76.14287488 278.63830598 70.02327336 278.66143972 63.90350473 C278.68852229 56.93364933 278.73243182 49.96393136 278.77772844 42.99417424 C278.87049247 28.66284636 278.93998978 14.33150157 279 0 C288.24 0 297.48 0 307 0 C307.02187378 5.22384521 307.02187378 5.22384521 307.04418945 10.55322266 C307.09451452 22.05646602 307.16095594 33.55958481 307.23571491 45.06269264 C307.28064978 52.03738518 307.32006969 59.01202692 307.34643555 65.98681641 C307.37189315 72.71721531 307.41281329 79.44735763 307.46318626 86.17762375 C307.47987792 88.7460181 307.49137784 91.31445159 307.49761391 93.88289261 C307.50722962 97.47897326 307.53526022 101.07447233 307.56762695 104.67041016 C307.56547432 106.26508118 307.56547432 106.26508118 307.5632782 107.89196777 C307.63184258 113.2745198 307.72409749 117.49398067 311 122 C315.76920174 126.21959686 319.59959581 126.58444122 325.66748047 126.54589844 C326.94163567 126.56140495 326.94163567 126.56140495 328.24153137 126.57722473 C331.03361166 126.60659116 333.82496509 126.60815059 336.6171875 126.609375 C338.5591876 126.62436081 340.50117497 126.64108881 342.44314575 126.65948486 C347.54273065 126.70312548 352.64214363 126.72315024 357.74188232 126.73822021 C362.95042065 126.75780309 368.15877364 126.79977182 373.3671875 126.83984375 C383.57809916 126.91511053 393.78887662 126.96335343 404 127 C404 136.24 404 145.48 404 155 C400.57841019 155.00808685 397.15682037 155.01617371 393.63154602 155.02450562 C362.26679336 155.09955427 330.9020813 155.18443176 299.53738459 155.28005161 C295.42799946 155.29257073 291.31861407 155.30500346 287.20922852 155.31738281 C286.39111162 155.31984881 285.57299472 155.3223148 284.73008641 155.32485552 C271.47709614 155.36459703 258.22409733 155.39733821 244.97108219 155.42749982 C231.37585315 155.45859579 217.78066042 155.49719723 204.18547219 155.54279006 C195.79412776 155.57069399 187.40280994 155.59271876 179.01143154 155.60726251 C173.25991898 155.61779128 167.50845789 155.63559953 161.75698409 155.65916704 C158.43693354 155.67255537 155.11696924 155.68162288 151.79689026 155.68421364 C148.19894984 155.68752493 144.60126151 155.70297202 141.00337219 155.7215271 C139.42603875 155.718625 139.42603875 155.718625 137.81683999 155.71566427 C136.85243436 155.72312976 135.88802873 155.73059525 134.89439869 155.73828697 C133.64872615 155.74170446 133.64872615 155.74170446 132.3778885 155.74519098 C129.64753222 156.03776963 127.49584872 156.88107932 125 158 C124.74715552 159.37084355 124.52395003 160.74716429 124.3125 162.125 C124.18488281 162.89070312 124.05726563 163.65640625 123.92578125 164.4453125 C124.0946555 170.2581418 128.10420089 174.67162585 131.5625 179.0625 C132.45977222 180.20952841 133.3569037 181.35666694 134.25390625 182.50390625 C134.93864014 183.37426514 134.93864014 183.37426514 135.63720703 184.26220703 C137.77840064 186.99259329 139.88824544 189.74682661 142 192.5 C142.83316795 193.58346053 143.66650169 194.66679359 144.5 195.75 C169.5 228.25 169.5 228.25 170.74902344 229.8737793 C171.5855491 230.96123001 172.42213803 232.04863207 173.25878906 233.13598633 C175.29379288 235.78093787 177.32756533 238.42681112 179.359375 241.07421875 C184.15375095 247.31787502 188.97411088 253.54038067 193.8125 259.75 C200.09694941 267.8175508 206.31645938 275.93317278 212.52001953 284.06298828 C216.33253539 289.05284325 220.1685218 294.02470368 224 299 C224.82950659 300.07806383 225.65893273 301.15618956 226.48828125 302.234375 C227.11029419 303.04297974 227.11029419 303.04297974 227.74487305 303.86791992 C228.57598615 304.94864179 229.40688114 306.02953144 230.23754883 307.1105957 C232.38943966 309.91038589 234.54625469 312.70617865 236.7109375 315.49609375 C237.15695312 316.07230469 237.60296875 316.64851563 238.0625 317.2421875 C239.29816649 318.83825671 240.53573917 320.43284965 241.7734375 322.02734375 C243.96422744 324.95224049 245.98488618 327.95247743 248 331 C214.06454938 333.59384324 214.06454938 333.59384324 207.359375 328.22265625 C204.68062874 325.20043833 202.84158674 321.78025278 201.10449219 318.15087891 C199.22919025 314.4989315 196.65078888 311.4066506 194.125 308.1875 C193.12706263 306.85391068 192.13231175 305.51793145 191.140625 304.1796875 C186.0623301 297.388194 180.81088968 290.72954023 175.59277344 284.04541016 C173.38227123 281.20672416 171.19017352 278.35440647 169 275.5 C165.08468658 270.39919888 161.14000512 265.32202258 157.1875 260.25 C150.90299498 252.18249308 144.68354012 244.06682656 138.47998047 235.93701172 C134.66746461 230.94715675 130.8314782 225.97529632 127 221 C125.33304708 218.83355349 123.66652587 216.66677503 122 214.5 C121.16667453 213.41666062 120.3333412 212.33332728 119.5 211.25 C104.5 191.75 104.5 191.75 103.24951172 190.12426758 C102.41793189 189.04327879 101.58622658 187.96238651 100.75439453 186.8815918 C98.64318208 184.13817334 96.53432109 181.39300081 94.4296875 178.64453125 C92.75305582 176.45520527 91.07057779 174.27059661 89.3828125 172.08984375 C87.84272755 170.09278277 86.31569176 168.08555962 84.8046875 166.06640625 C84.12664062 165.17824219 83.44859375 164.29007813 82.75 163.375 C82.16734375 162.59898437 81.5846875 161.82296875 80.984375 161.0234375 C77.63056834 157.60361103 74.25648728 156.14343309 69.5071106 155.60127258 C68.22359711 155.59016953 66.94008362 155.57906647 65.61767578 155.56762695 C64.90478897 155.5574353 64.19190216 155.54724365 63.45741272 155.53674316 C61.11996469 155.50674301 58.78292732 155.49736751 56.4453125 155.48828125 C54.81719617 155.47142487 53.18909277 155.45327333 51.56100464 155.43388367 C47.2900395 155.38648148 43.01912684 155.35660906 38.74798584 155.33044434 C34.38396851 155.30058928 30.02013179 155.25407599 25.65625 155.20898438 C17.10424062 155.12306247 8.55224971 155.05720885 0 155 C0 145.76 0 136.52 0 127 C1.9480957 126.9906543 3.89619141 126.98130859 5.90332031 126.97167969 C12.34161189 126.93615128 18.77954819 126.882353 25.21759415 126.81609726 C29.12082851 126.77659653 33.02383641 126.7444211 36.92724609 126.72900391 C40.6946841 126.71385392 44.46149963 126.67943927 48.22866058 126.63169098 C49.66550026 126.6168598 51.10242881 126.60895798 52.53934479 126.60811615 C54.55270247 126.60575036 56.56597368 126.57640935 58.57910156 126.54589844 C59.72493713 126.53701599 60.87077271 126.52813354 62.05133057 126.51898193 C65.63647072 125.88797767 66.8309157 124.87775551 69 122 C69.44281175 118.90031772 69.66836253 116.98207726 67.87260437 114.34342957 C65.12787219 112.37432471 62.95632421 112.59958404 59.60083008 112.56762695 C58.94626422 112.55735316 58.29169836 112.54707937 57.61729717 112.53649426 C55.50128095 112.50663631 53.38572892 112.49706971 51.26953125 112.48828125 C49.97511108 112.47164429 48.68069092 112.45500732 47.3470459 112.43786621 C42.50236329 112.37994358 37.65740037 112.34778422 32.8125 112.3125 C21.984375 112.209375 11.15625 112.10625 0 112 C0 75.04 0 38.08 0 0 Z " fill="#BAEA69" transform="translate(93,107)"/>
<path d="M0 0 C86.13 0 172.26 0 261 0 C261.061875 38.23875 261.061875 38.23875 261.125 77.25 C261.14320801 85.30567383 261.16141602 93.36134766 261.18017578 101.66113281 C261.18920898 111.48193359 261.18920898 111.48193359 261.19088745 116.07635498 C261.19275422 119.29204048 261.20026295 122.50766025 261.21115112 125.72332764 C261.22484805 129.82269041 261.22898624 133.92195731 261.22614455 138.02134085 C261.22673895 139.52732043 261.23071741 141.0333033 261.23843026 142.53926325 C261.24835417 144.57101222 261.24479184 146.60281382 261.24050903 148.63458252 C261.24327441 150.34358671 261.24327441 150.34358671 261.24609566 152.08711624 C261.00046786 154.99446226 260.62689873 156.60341753 259 159 C255.66352767 161.22431489 254.57112421 161.25971163 250.67510986 161.29434204 C249.57043365 161.30865265 248.46575745 161.32296326 247.3276062 161.33770752 C246.11509186 161.34308533 244.90257751 161.34846313 243.65332031 161.35400391 C242.37665497 161.3671463 241.09998962 161.3802887 239.78463745 161.39382935 C235.54918429 161.43587526 231.31372998 161.45663141 227.078125 161.4765625 C225.61872024 161.48465911 224.15931624 161.492893 222.69991302 161.50126266 C215.84258328 161.53935937 208.98529649 161.56782206 202.12788129 161.5844866 C194.21838546 161.60402642 186.31000985 161.65665079 178.40090871 161.73748839 C172.28358247 161.79786145 166.16657686 161.82742894 160.04895854 161.83404863 C156.39689205 161.83874462 152.74602266 161.85659028 149.09427643 161.90697098 C145.01688986 161.9623155 140.94199634 161.95385751 136.86425781 161.93994141 C135.65984039 161.96556152 134.45542297 161.99118164 133.21450806 162.01757812 C125.20318102 161.91788026 125.20318102 161.91788026 121.75095367 159.28425217 C119.9626098 157.27126247 118.47073478 155.25194156 117 153 C116.06822197 151.77846419 115.13052625 150.56138847 114.18359375 149.3515625 C113.26545238 148.111426 112.35017549 146.8691646 111.4375 145.625 C106.98995931 139.62872396 102.46875724 133.69752949 97.875 127.8125 C97.28291748 127.05380615 96.69083496 126.2951123 96.08081055 125.51342773 C94.9240613 124.0313578 93.76724373 122.54934119 92.61035156 121.06738281 C90.31177731 118.11645395 88.02847088 115.15396548 85.75 112.1875 C84.9559375 111.15367187 84.161875 110.11984375 83.34375 109.0546875 C81.78125 107.01822917 80.21875 104.98177083 78.65625 102.9453125 C73.85601162 96.69565149 69.03101226 90.46619441 64.1875 84.25 C57.90305059 76.1824492 51.68354062 68.06682722 45.47998047 59.93701172 C41.66746461 54.94715675 37.8314782 49.97529632 34 45 C32.33304708 42.83355349 30.66652587 40.66677503 29 38.5 C28.16667453 37.41666062 27.3333412 36.33332728 26.5 35.25 C24.83333333 33.08333333 23.16666667 30.91666667 21.5 28.75 C21.0870166 28.21318604 20.6740332 27.67637207 20.24853516 27.12329102 C19.41983262 26.04584808 18.59137982 24.96821302 17.76318359 23.89038086 C15.61106457 21.09025278 13.45399476 18.29414285 11.2890625 15.50390625 C10.84304687 14.92769531 10.39703125 14.35148437 9.9375 13.7578125 C8.70183351 12.16174329 7.46426083 10.56715035 6.2265625 8.97265625 C4.04410557 6.0588848 2.01938165 3.02907247 0 0 Z " fill="#74DA39" transform="translate(236,277)"/>
<path d="M0 0 C8.8836347 -0.41978672 17.76379236 -0.73816377 26.65522957 -0.93261909 C30.78595618 -1.02603287 34.90983779 -1.15227086 39.03662109 -1.35791016 C67.90560102 -2.75902014 67.90560102 -2.75902014 75.12890625 3.77709961 C78.27497256 7.42093839 80.58520266 11.32042233 82.72114563 15.61991882 C84.91621234 19.70516659 87.85767618 23.20548074 90.75 26.8125 C91.82770773 28.2173825 92.90240118 29.62458797 93.97265625 31.03515625 C98.29786807 36.70338114 102.64971025 42.35101037 107 48 C108.66695292 50.16644651 110.33347413 52.33322497 112 54.5 C112.83332547 55.58333938 113.6666588 56.66667272 114.5 57.75 C119.5 64.25 119.5 64.25 120.74902344 65.8737793 C121.5855491 66.96123001 122.42213803 68.04863207 123.25878906 69.13598633 C125.29379288 71.78093787 127.32756533 74.42681112 129.359375 77.07421875 C134.15375095 83.31787502 138.97411088 89.54038067 143.8125 95.75 C150.09694941 103.8175508 156.31645938 111.93317278 162.52001953 120.06298828 C164.7361892 122.96353103 166.96088632 125.85747082 169.1875 128.75 C169.98414063 129.78511719 170.78078125 130.82023438 171.6015625 131.88671875 C173.24122466 134.015075 174.8817902 136.1427084 176.5234375 138.26953125 C180.74755238 143.74508572 184.9563984 149.23202447 189.125 154.75 C189.87007813 155.73484375 190.61515625 156.7196875 191.3828125 157.734375 C193 160 193 160 193 161 C192.42131542 161.00146656 191.84263084 161.00293312 191.24641037 161.00444412 C177.16650904 161.04149385 163.08684267 161.10048393 149.0071373 161.18390274 C142.19827631 161.22371432 135.38953124 161.25609592 128.58056641 161.27099609 C122.01224727 161.28539051 115.44425069 161.32047731 108.87607574 161.36830902 C106.36743538 161.38317157 103.85874375 161.39104379 101.35005951 161.39188385 C97.84203068 161.39424052 94.33500511 161.42121696 90.82714844 161.45410156 C89.78489609 161.4490712 88.74264374 161.44404083 87.66880798 161.43885803 C82.17074339 161.4403366 82.17074339 161.4403366 77.38580322 163.84661865 C75.84974326 166.03830873 75.84974326 166.03830873 75 169 C69.39 169 63.78 169 58 169 C57.01 167.02 56.02 165.04 55 163 C52.6781245 161.83906225 51.34283285 161.87288878 48.75791931 161.86869812 C47.86786194 161.86468994 46.97780457 161.86068176 46.06077576 161.85655212 C45.08157669 161.85708084 44.10237762 161.85760956 43.09350586 161.8581543 C41.54930466 161.85294266 41.54930466 161.85294266 39.97390747 161.84762573 C37.73183167 161.84025936 35.48974853 161.83491869 33.2476635 161.83133507 C29.69544924 161.82417968 26.14337393 161.80851834 22.59120178 161.78999329 C12.48896229 161.73749177 2.3867967 161.68957562 -7.71557617 161.67407227 C-13.89071419 161.66397338 -20.06550604 161.63459512 -26.24050713 161.59275246 C-28.59151016 161.5804599 -30.94256215 161.575318 -33.29359627 161.57755089 C-36.59201895 161.57991181 -39.88945508 161.5576742 -43.18774414 161.5300293 C-44.15277359 161.53663071 -45.11780304 161.54323212 -46.11207581 161.55003357 C-55.26538174 161.42459863 -63.15082583 158.11288794 -70 152 C-76.0327051 145.75418304 -78.04104324 137.3723898 -78.4375 128.875 C-78.2539865 123.61149909 -76.57498797 119.54011037 -74 115 C-73.649375 114.3709375 -73.29875 113.741875 -72.9375 113.09375 C-68.5964275 106.22038522 -61.7234986 102.13542177 -54 100 C-51.14856044 99.73700173 -48.31502691 99.74633077 -45.453125 99.76171875 C-43.78645024 99.74629424 -42.11978342 99.72999025 -40.453125 99.71289062 C-37.85528851 99.69649509 -35.25803986 99.68747802 -32.66015625 99.69458008 C-18.52290606 99.94813234 -18.52290606 99.94813234 -6 94 C-1.10990531 88.1557405 -0.84977801 83.21695118 -0.79467773 75.83496094 C-0.78477814 75.0150769 -0.77487854 74.19519287 -0.76467896 73.35046387 C-0.73313517 70.64513011 -0.70833471 67.93977881 -0.68359375 65.234375 C-0.66301807 63.35678658 -0.64202144 61.47920273 -0.62062073 59.60162354 C-0.56546345 54.6631643 -0.5160262 49.7246637 -0.46777344 44.78613281 C-0.41751208 39.74540532 -0.36185021 34.70473779 -0.30664062 29.6640625 C-0.19913665 19.77609291 -0.09767445 9.88807123 0 0 Z " fill="#BAEA69" transform="translate(93,277)"/>
<path d="M0 0 C9.24 0 18.48 0 28 0 C28.02187378 5.22384521 28.02187378 5.22384521 28.04418945 10.55322266 C28.09451452 22.05646602 28.16095594 33.55958481 28.23571491 45.06269264 C28.28064978 52.03738518 28.32006969 59.01202692 28.34643555 65.98681641 C28.37189315 72.71721531 28.41281329 79.44735763 28.46318626 86.17762375 C28.47987792 88.7460181 28.49137784 91.31445159 28.49761391 93.88289261 C28.50722962 97.47897326 28.53526022 101.07447233 28.56762695 104.67041016 C28.56547432 106.26508118 28.56547432 106.26508118 28.5632782 107.89196777 C28.63184258 113.2745198 28.72409749 117.49398067 32 122 C36.76920174 126.21959686 40.59959581 126.58444122 46.66748047 126.54589844 C47.94163567 126.56140495 47.94163567 126.56140495 49.24153137 126.57722473 C52.03361166 126.60659116 54.82496509 126.60815059 57.6171875 126.609375 C59.5591876 126.62436081 61.50117497 126.64108881 63.44314575 126.65948486 C68.54273065 126.70312548 73.64214363 126.72315024 78.74188232 126.73822021 C83.95042065 126.75780309 89.15877364 126.79977182 94.3671875 126.83984375 C104.57809916 126.91511053 114.78887662 126.96335343 125 127 C125 136.24 125 145.48 125 155 C121.57841019 155.00808685 118.15682037 155.01617371 114.63154602 155.02450562 C83.26679336 155.09955427 51.9020813 155.18443176 20.53738459 155.28005161 C16.42799946 155.29257073 12.31861407 155.30500346 8.20922852 155.31738281 C7.39111162 155.31984881 6.57299472 155.3223148 5.73008641 155.32485552 C-7.52290386 155.36459703 -20.77590267 155.39733821 -34.02891781 155.42749982 C-47.62414685 155.45859579 -61.21933958 155.49719723 -74.81452781 155.54279006 C-83.20587224 155.57069399 -91.59719006 155.59271876 -99.98856846 155.60726251 C-105.74008102 155.61779128 -111.49154211 155.63559953 -117.24301591 155.65916704 C-120.56306646 155.67255537 -123.88303076 155.68162288 -127.20310974 155.68421364 C-130.80105016 155.68752493 -134.39873849 155.70297202 -137.99662781 155.7215271 C-139.57396125 155.718625 -139.57396125 155.718625 -141.18316001 155.71566427 C-142.14756564 155.72312976 -143.11197127 155.73059525 -144.10560131 155.73828697 C-145.35127385 155.74170446 -145.35127385 155.74170446 -146.6221115 155.74519098 C-149.35246778 156.03776963 -151.50415128 156.88107932 -154 158 C-154.25284448 159.37084355 -154.47604997 160.74716429 -154.6875 162.125 C-154.81511719 162.89070312 -154.94273437 163.65640625 -155.07421875 164.4453125 C-154.9053445 170.2581418 -150.89579911 174.67162585 -147.4375 179.0625 C-146.54022778 180.20952841 -145.6430963 181.35666694 -144.74609375 182.50390625 C-144.06135986 183.37426514 -144.06135986 183.37426514 -143.36279297 184.26220703 C-141.22159936 186.99259329 -139.11175456 189.74682661 -137 192.5 C-136.16683205 193.58346053 -135.33349831 194.66679359 -134.5 195.75 C-109.5 228.25 -109.5 228.25 -108.25097656 229.8737793 C-107.4144509 230.96123001 -106.57786197 232.04863207 -105.74121094 233.13598633 C-103.70620712 235.78093787 -101.67243467 238.42681112 -99.640625 241.07421875 C-94.84624905 247.31787502 -90.02588912 253.54038067 -85.1875 259.75 C-78.90305059 267.8175508 -72.68354062 275.93317278 -66.47998047 284.06298828 C-62.66746461 289.05284325 -58.8314782 294.02470368 -55 299 C-54.17049341 300.07806383 -53.34106727 301.15618956 -52.51171875 302.234375 C-51.88970581 303.04297974 -51.88970581 303.04297974 -51.25512695 303.86791992 C-50.42401385 304.94864179 -49.59311886 306.02953144 -48.76245117 307.1105957 C-46.61056034 309.91038589 -44.45374531 312.70617865 -42.2890625 315.49609375 C-41.84304688 316.07230469 -41.39703125 316.64851563 -40.9375 317.2421875 C-39.70183351 318.83825671 -38.46426083 320.43284965 -37.2265625 322.02734375 C-35.03577256 324.95224049 -33.01511382 327.95247743 -31 331 C-64.93545062 333.59384324 -64.93545062 333.59384324 -71.640625 328.22265625 C-74.31937126 325.20043833 -76.15841326 321.78025278 -77.89550781 318.15087891 C-79.77080975 314.4989315 -82.34921112 311.4066506 -84.875 308.1875 C-85.87293737 306.85391068 -86.86768825 305.51793145 -87.859375 304.1796875 C-92.9376699 297.388194 -98.18911032 290.72954023 -103.40722656 284.04541016 C-105.61772877 281.20672416 -107.80982648 278.35440647 -110 275.5 C-113.91531342 270.39919888 -117.85999488 265.32202258 -121.8125 260.25 C-128.09700502 252.18249308 -134.31645988 244.06682656 -140.52001953 235.93701172 C-144.33253539 230.94715675 -148.1685218 225.97529632 -152 221 C-153.66695292 218.83355349 -155.33347413 216.66677503 -157 214.5 C-157.83332547 213.41666062 -158.6666588 212.33332728 -159.5 211.25 C-174.5 191.75 -174.5 191.75 -175.75048828 190.12426758 C-176.58206811 189.04327879 -177.41377342 187.96238651 -178.24560547 186.8815918 C-180.35681792 184.13817334 -182.46567891 181.39300081 -184.5703125 178.64453125 C-186.24694418 176.45520527 -187.92942221 174.27059661 -189.6171875 172.08984375 C-191.15727245 170.09278277 -192.68430824 168.08555962 -194.1953125 166.06640625 C-194.87335938 165.17824219 -195.55140625 164.29007813 -196.25 163.375 C-196.83265625 162.59898437 -197.4153125 161.82296875 -198.015625 161.0234375 C-201.36943166 157.60361103 -204.74351272 156.14343309 -209.4928894 155.60127258 C-210.77640289 155.59016953 -212.05991638 155.57906647 -213.38232422 155.56762695 C-214.09521103 155.5574353 -214.80809784 155.54724365 -215.54258728 155.53674316 C-217.88003531 155.50674301 -220.21707268 155.49736751 -222.5546875 155.48828125 C-224.18280383 155.47142487 -225.81090723 155.45327333 -227.43899536 155.43388367 C-231.7099605 155.38648148 -235.98087316 155.35660906 -240.25201416 155.33044434 C-244.61603149 155.30058928 -248.97986821 155.25407599 -253.34375 155.20898438 C-261.89575938 155.12306247 -270.44775029 155.05720885 -279 155 C-279 145.76 -279 136.52 -279 127 C-277.0519043 126.9906543 -275.10380859 126.98130859 -273.09667969 126.97167969 C-266.65838811 126.93615128 -260.22045181 126.882353 -253.78240585 126.81609726 C-249.87917149 126.77659653 -245.97616359 126.7444211 -242.07275391 126.72900391 C-238.3053159 126.71385392 -234.53850037 126.67943927 -230.77133942 126.63169098 C-229.33449974 126.6168598 -227.89757119 126.60895798 -226.46065521 126.60811615 C-224.44729753 126.60575036 -222.43402632 126.57640935 -220.42089844 126.54589844 C-219.27506287 126.53701599 -218.12922729 126.52813354 -216.94866943 126.51898193 C-213.35951309 125.8872708 -212.20057 124.85256678 -210 122 C-209.505 120.515 -209.505 120.515 -209 119 C-205.58397985 118.82553066 -202.16910363 118.71910377 -198.75 118.625 C-197.78191406 118.57472656 -196.81382812 118.52445312 -195.81640625 118.47265625 C-193.08687238 118.41618314 -190.67130431 118.42822721 -188 119 C-185.390625 121.9609375 -185.390625 121.9609375 -184 125 C-182.12119073 126.87880927 -178.89762942 126.13867901 -176.39706421 126.14717102 C-175.69877774 126.15084771 -175.00049127 126.1545244 -174.2810446 126.1583125 C-171.92352116 126.16939173 -169.56604173 126.17320036 -167.20849609 126.17700195 C-165.52514504 126.18326358 -163.84179539 126.1899101 -162.15844727 126.19691467 C-157.57141073 126.21435638 -152.98438465 126.22488576 -148.39732313 126.2331202 C-145.53234264 126.23826526 -142.66736542 126.24434131 -139.80238724 126.25063133 C-130.84133144 126.26969506 -121.88028393 126.28392182 -112.91921175 126.2922433 C-102.57070237 126.30201115 -92.22240716 126.32831389 -81.87397325 126.36874419 C-73.87985278 126.39890541 -65.88579368 126.41371232 -57.89161742 126.41702431 C-53.11539642 126.41937546 -48.33940389 126.42834368 -43.56324387 126.45348549 C-39.06688743 126.47677031 -34.57090978 126.48099781 -30.07450867 126.47072411 C-28.42617661 126.47022868 -26.77782589 126.47655121 -25.12955093 126.49028015 C-22.87419459 126.50801064 -20.62019583 126.50088856 -18.36483765 126.48774719 C-17.10420187 126.49013555 -15.84356609 126.4925239 -14.54472923 126.49498463 C-10.07171379 125.87037447 -7.73550313 124.51672348 -4 122 C-0.06514227 116.76464829 -0.55915049 110.94977769 -0.56762695 104.67041016 C-0.5574353 103.53811981 -0.54724365 102.40582947 -0.53674316 101.23922729 C-0.50660828 97.50578872 -0.49734614 93.77260673 -0.48828125 90.0390625 C-0.471435 87.44688056 -0.45328483 84.8547068 -0.43388367 82.26254272 C-0.3912252 76.14287488 -0.36169402 70.02327336 -0.33856028 63.90350473 C-0.31147771 56.93364933 -0.26756818 49.96393136 -0.22227156 42.99417424 C-0.12950753 28.66284636 -0.06001022 14.33150157 0 0 Z " fill="#F6F1EE" transform="translate(372,107)"/>
<path d="M0 0 C0.78345291 -0.00428513 1.56690582 -0.00857025 2.37409973 -0.01298523 C4.0204675 -0.01870082 5.6668605 -0.01924934 7.31323242 -0.01489258 C9.83490539 -0.01171513 12.35542345 -0.03528498 14.87695312 -0.06054688 C16.48046727 -0.06281838 18.08398457 -0.06352406 19.6875 -0.0625 C20.44064987 -0.07170975 21.19379974 -0.08091949 21.96977234 -0.09040833 C27.16638675 -0.04424357 27.16638675 -0.04424357 29.34281409 1.52624702 C31.03900337 3.83853576 31.02042605 5.21042699 31.02205467 8.06564331 C31.02987791 9.05208391 31.03770116 10.03852451 31.04576147 11.05485725 C31.0390693 12.14131979 31.03237714 13.22778233 31.02548218 14.34716797 C31.03250214 16.07518048 31.03250214 16.07518048 31.03966391 17.83810234 C31.04958135 21.0408921 31.04598263 24.24334261 31.03670526 27.44612408 C31.02993408 30.8981224 31.04038636 34.35007389 31.04864502 37.80206299 C31.06200528 44.56653019 31.05909445 51.3308977 31.0504071 58.09536886 C31.04363995 63.59156203 31.04270962 69.0877272 31.04597855 74.58392334 C31.04643825 75.36530257 31.04689794 76.1466818 31.04737157 76.95173919 C31.04833072 78.53895141 31.04930336 80.12616361 31.05028935 81.71337581 C31.05884996 96.60686995 31.04899861 111.50030875 31.03288825 126.39379382 C31.01948445 139.18117673 31.02181236 151.96847794 31.03564453 164.75585938 C31.05168852 179.59499775 31.05802592 194.43408758 31.04880774 209.27323341 C31.04785206 210.85470199 31.04690895 212.43617057 31.04597855 214.01763916 C31.04551572 214.79581116 31.04505289 215.57398315 31.04457604 216.37573612 C31.0419826 221.86718144 31.04636476 227.35859605 31.05341721 232.85003662 C31.06181931 239.53962962 31.05957937 246.22911698 31.04357497 252.91869783 C31.03567475 256.33374886 31.03263019 259.74862357 31.04252243 263.1636734 C31.05066751 266.86075878 31.04050126 270.55734156 31.02548218 274.25439453 C31.03552043 275.88408834 31.03552043 275.88408834 31.04576147 277.54670525 C31.0340266 279.02636615 31.0340266 279.02636615 31.02205467 280.53591919 C31.02156762 281.38980288 31.02108056 282.24368656 31.02057874 283.12344551 C30.55383639 285.8259095 29.85701951 286.71064831 27.64453125 288.30078125 C24.83450805 288.58444941 22.23534266 288.69402277 19.42578125 288.671875 C17.75390443 288.68927917 16.08202948 288.70686327 14.41015625 288.72460938 C11.78837273 288.73461432 9.16672355 288.73829584 6.54492188 288.73657227 C-5.56693813 288.7538158 -16.25953184 289.03163916 -26.41796875 296.55078125 C-30.18220142 299.30078125 -30.18220142 299.30078125 -32.35546875 299.30078125 C-32.44705247 264.42062473 -32.51752178 229.5404957 -32.55973007 194.66024489 C-32.56473281 190.54099314 -32.56991011 186.42174163 -32.57519531 182.30249023 C-32.57624455 181.48243197 -32.5772938 180.6623737 -32.57837483 179.81746518 C-32.59577336 166.54449634 -32.627308 153.2715969 -32.66407993 139.99866921 C-32.70150474 126.3763306 -32.72370786 112.75402829 -32.73182273 99.13164037 C-32.73730732 90.7279358 -32.75462103 82.3244274 -32.78713462 73.92078321 C-32.80830153 68.15570077 -32.81466388 62.39071953 -32.80947426 56.62560106 C-32.80691577 53.30081293 -32.81299456 49.97664291 -32.83229065 46.65186882 C-32.85221341 43.04201857 -32.84739848 39.4330053 -32.83648682 35.82313538 C-32.84813818 34.77934017 -32.85978955 33.73554496 -32.87179399 32.66011959 C-32.79671692 23.46092136 -29.76858345 15.0701801 -23.35546875 8.30078125 C-16.03001143 2.41328407 -9.43582655 -0.01151137 0 0 Z " fill="#979AA2" transform="translate(47.35546875,73.69921875)"/>
<path d="M0 0 C52.47 0 104.94 0 159 0 C159.66620676 10.65930814 160.1622961 21.16332076 160.16796875 31.8203125 C160.17120255 33.29499337 160.17456797 34.76967396 160.17805481 36.24435425 C160.18398546 39.31834654 160.18590141 42.392311 160.18530273 45.46630859 C160.18522214 48.54709834 160.19206891 51.62773729 160.20581055 54.70849609 C160.29596835 75.23538348 159.71040095 95.53446711 158 116 C157.92438843 116.90774673 157.84877686 117.81549347 157.77087402 118.75074768 C155.02573996 150.94852009 155.02573996 150.94852009 150 161 C145.81344935 161.23355931 141.62858126 161.37482637 137.4375 161.5 C136.25607422 161.56703125 135.07464844 161.6340625 133.85742188 161.703125 C125.26895415 161.89558366 125.26895415 161.89558366 121.79370117 159.44287109 C119.97432999 157.39194357 118.48411626 155.30305258 117 153 C116.06841235 151.77831899 115.12986133 150.56190861 114.18359375 149.3515625 C113.26545238 148.111426 112.35017549 146.8691646 111.4375 145.625 C106.98995931 139.62872396 102.46875724 133.69752949 97.875 127.8125 C97.28291748 127.05380615 96.69083496 126.2951123 96.08081055 125.51342773 C94.9240613 124.0313578 93.76724373 122.54934119 92.61035156 121.06738281 C90.31177731 118.11645395 88.02847088 115.15396548 85.75 112.1875 C84.9559375 111.15367187 84.161875 110.11984375 83.34375 109.0546875 C81.78125 107.01822917 80.21875 104.98177083 78.65625 102.9453125 C73.85601162 96.69565149 69.03101226 90.46619441 64.1875 84.25 C57.90305059 76.1824492 51.68354062 68.06682722 45.47998047 59.93701172 C41.66746461 54.94715675 37.8314782 49.97529632 34 45 C32.33304708 42.83355349 30.66652587 40.66677503 29 38.5 C28.16667453 37.41666062 27.3333412 36.33332728 26.5 35.25 C24.83333333 33.08333333 23.16666667 30.91666667 21.5 28.75 C21.0870166 28.21318604 20.6740332 27.67637207 20.24853516 27.12329102 C19.41983262 26.04584808 18.59137982 24.96821302 17.76318359 23.89038086 C15.61106457 21.09025278 13.45399476 18.29414285 11.2890625 15.50390625 C10.84304687 14.92769531 10.39703125 14.35148437 9.9375 13.7578125 C8.70183351 12.16174329 7.46426083 10.56715035 6.2265625 8.97265625 C4.04410557 6.0588848 2.01938165 3.02907247 0 0 Z " fill="#B9EA69" transform="translate(236,277)"/>
<path d="M0 0 C12.601875 -0.103125 25.20375 -0.20625 38.1875 -0.3125 C44.14913208 -0.38078003 44.14913208 -0.38078003 50.23120117 -0.45043945 C55.09631348 -0.47302246 55.09631348 -0.47302246 57.37617493 -0.47721863 C58.96352653 -0.48488087 60.55084958 -0.50243444 62.13801575 -0.52787781 C64.54719331 -0.5645574 66.95459814 -0.56952799 69.36401367 -0.56762695 C70.06738704 -0.58561749 70.7707604 -0.60360804 71.49544811 -0.62214375 C75.01425086 -0.58505323 76.966704 -0.02134763 79.94177246 1.8861084 C82.91263076 6.3807187 82.66421042 10.11083491 82.56762695 15.38989258 C82.56835709 16.43425476 82.56908722 17.47861694 82.56983948 18.55462646 C82.56635994 22.00179226 82.52747912 25.4476019 82.48828125 28.89453125 C82.47895449 31.28634401 82.47183773 33.67816633 82.46684265 36.06999207 C82.44776239 42.36174952 82.39865152 48.65292881 82.34332275 54.94445801 C82.28315483 62.49511517 82.26021905 70.04596578 82.23105621 77.59679413 C82.18258847 89.06493139 82.08677804 100.53180035 82 112 C54.94 112 27.88 112 0 112 C0 75.04 0 38.08 0 0 Z " fill="#74D939" transform="translate(415,107)"/>
<path d="M0 0 C9.24 0 18.48 0 28 0 C31.28232516 3.28232516 31.37507577 3.4737566 31.37752342 7.76486206 C31.38534666 8.75130266 31.39316991 9.73774326 31.40123022 10.754076 C31.39453805 11.84053854 31.38784589 12.92700108 31.38095093 14.04638672 C31.3856309 15.19839506 31.39031087 16.3504034 31.39513266 17.53732109 C31.4050501 20.74011085 31.40145138 23.94256136 31.39217401 27.14534283 C31.38540283 30.59734115 31.39585511 34.04929264 31.40411377 37.50128174 C31.41747403 44.26574894 31.4145632 51.03011645 31.40587585 57.79458761 C31.3991087 63.29078078 31.39817837 68.78694595 31.4014473 74.28314209 C31.40213684 75.45521094 31.40213684 75.45521094 31.40284032 76.65095794 C31.40379947 78.23817016 31.40477211 79.82538236 31.4057581 81.41259456 C31.41431871 96.3060887 31.40446736 111.1995275 31.388357 126.09301257 C31.3749532 138.88039548 31.37728111 151.66769669 31.39111328 164.45507812 C31.40715727 179.2942165 31.41349467 194.13330633 31.40427649 208.97245216 C31.40332081 210.55392074 31.4023777 212.13538932 31.4014473 213.71685791 C31.40098447 214.49502991 31.40052164 215.2732019 31.40004479 216.07495487 C31.39745135 221.56640019 31.40183351 227.0578148 31.40888596 232.54925537 C31.41728806 239.23884837 31.41504812 245.92833573 31.39904372 252.61791658 C31.3911435 256.03296761 31.38809894 259.44784232 31.39799118 262.86289215 C31.40613626 266.55997753 31.39597001 270.25656031 31.38095093 273.95361328 C31.38764309 275.04007582 31.39433526 276.12653835 31.40123022 277.245924 C31.39340697 278.2323646 31.38558373 279.2188052 31.37752342 280.23513794 C31.37703637 281.08902163 31.37654931 281.94290531 31.37604749 282.82266426 C31 285 31 285 28 288 C19.09 288 10.18 288 1 288 C0.505 145.44 0.505 145.44 0 0 Z " fill="#848791" transform="translate(47,74)"/>
<path d="M0 0 C8.91 0 17.82 0 27 0 C27.01458252 3.48256348 27.02916504 6.96512695 27.04418945 10.55322266 C27.09451452 22.05646602 27.16095594 33.55958481 27.23571491 45.06269264 C27.28064978 52.03738518 27.32006969 59.01202692 27.34643555 65.98681641 C27.37189315 72.71721531 27.41281329 79.44735763 27.46318626 86.17762375 C27.47987792 88.7460181 27.49137784 91.31445159 27.49761391 93.88289261 C27.50722962 97.47897326 27.53526022 101.07447233 27.56762695 104.67041016 C27.56547432 106.26508118 27.56547432 106.26508118 27.5632782 107.89196777 C27.63184258 113.2745198 27.72409749 117.49398067 31 122 C35.76920174 126.21959686 39.59959581 126.58444122 45.66748047 126.54589844 C46.94163567 126.56140495 46.94163567 126.56140495 48.24153137 126.57722473 C51.03361166 126.60659116 53.82496509 126.60815059 56.6171875 126.609375 C58.5591876 126.62436081 60.50117497 126.64108881 62.44314575 126.65948486 C67.54273065 126.70312548 72.64214363 126.72315024 77.74188232 126.73822021 C82.95042065 126.75780309 88.15877364 126.79977182 93.3671875 126.83984375 C103.57809916 126.91511053 113.78887662 126.96335343 124 127 C124 136.24 124 145.48 124 155 C90.01 155 56.02 155 21 155 C20.34 144.44 19.68 133.88 19 123 C18.46325018 116.32478403 17.9113494 109.66230974 17.25 103 C17.16829559 102.1659967 17.08659119 101.33199341 17.00241089 100.47271729 C14.37519655 73.95866297 10.73732302 47.45439176 4.58349609 21.51269531 C3.54595487 17.0447563 2.6218726 12.55292767 1.6875 8.0625 C1.130625 5.401875 0.57375 2.74125 0 0 Z " fill="#DFD1CD" transform="translate(373,107)"/>
<path d="M0 0 C5.0329483 4.21143516 9.16058858 10.66402277 10.41748047 17.15649414 C10.60656735 19.39118006 10.65760577 21.57018941 10.625 23.8125 C10.61351929 24.99054199 10.61351929 24.99054199 10.60180664 26.19238281 C10.2706373 34.91945771 7.03740074 41.42883224 0.6875 47.4375 C-1.98119262 49.44818583 -4.66543634 50.83936003 -7.73046875 52.16015625 C-8.93352661 52.68234741 -8.93352661 52.68234741 -10.16088867 53.21508789 C-10.76779541 53.47410889 -11.37470215 53.73312988 -12 54 C-12.0093457 54.76666992 -12.01869141 55.53333984 -12.02832031 56.32324219 C-12.08202773 59.79948103 -12.16567576 63.27437474 -12.25 66.75 C-12.26417969 67.9565625 -12.27835938 69.163125 -12.29296875 70.40625 C-12.32519531 71.56640625 -12.35742188 72.7265625 -12.390625 73.921875 C-12.41157227 74.99018555 -12.43251953 76.05849609 -12.45410156 77.15917969 C-13.12753884 80.66370391 -14.18381214 81.86232046 -17 84 C-20.5 84.5625 -20.5 84.5625 -24 84 C-26.60871004 81.4287314 -27.87566519 79.78377722 -28.45410156 76.13745117 C-28.42268066 74.60568237 -28.42268066 74.60568237 -28.390625 73.04296875 C-28.37773437 71.93115234 -28.36484375 70.81933594 -28.3515625 69.67382812 C-28.31804687 68.52333984 -28.28453125 67.37285156 -28.25 66.1875 C-28.23195312 65.01767578 -28.21390625 63.84785156 -28.1953125 62.64257812 C-28.1482644 59.7608822 -28.08253709 56.88086203 -28 54 C-28.92941406 53.70351563 -29.85882813 53.40703125 -30.81640625 53.1015625 C-38.64045198 50.39434668 -44.216514 44.77518859 -48.33203125 37.71484375 C-51.73156846 30.32715688 -52.38581007 22.34643885 -50.33984375 14.453125 C-46.86953131 5.7397864 -40.35418598 -0.88126959 -32 -5 C-20.10325576 -9.71380432 -10.29028589 -6.58475007 0 0 Z " fill="#020302" transform="translate(163,325)"/>
<path d="M0 0 C8.24504488 4.88865493 13.18243111 11.13544514 16.20703125 20.30859375 C17.64592024 29.59496191 15.96800351 38.43346549 10.88671875 46.37109375 C6.23875341 52.26359626 0.55528671 55.94341019 -6.79296875 57.30859375 C-6.77202148 58.03973389 -6.75107422 58.77087402 -6.72949219 59.52416992 C-6.64616561 62.84800376 -6.59425543 66.17161759 -6.54296875 69.49609375 C-6.49269531 71.22182617 -6.49269531 71.22182617 -6.44140625 72.98242188 C-6.42851562 74.09423828 -6.415625 75.20605469 -6.40234375 76.3515625 C-6.38139648 77.3727417 -6.36044922 78.3939209 -6.33886719 79.44604492 C-6.91182991 83.05786636 -8.27276502 84.711435 -10.79296875 87.30859375 C-13.78583757 88.23345341 -15.58270276 87.76720318 -18.79296875 87.30859375 C-21.13832072 85.06166901 -21.74535101 83.70578372 -22.13354492 80.46777344 C-22.11783447 79.39946289 -22.10212402 78.33115234 -22.0859375 77.23046875 C-22.07626953 76.0703125 -22.06660156 74.91015625 -22.05664062 73.71484375 C-22.03150391 72.50828125 -22.00636719 71.30171875 -21.98046875 70.05859375 C-21.96693359 68.8365625 -21.95339844 67.61453125 -21.93945312 66.35546875 C-21.90410855 63.33939877 -21.85476435 60.32421888 -21.79296875 57.30859375 C-22.57164307 57.16760254 -23.35031738 57.02661133 -24.15258789 56.88134766 C-30.80373524 55.4385745 -36.18233013 50.35433881 -40.50390625 45.3125 C-44.18138979 39.59568468 -45.35273157 34.68801707 -45.29296875 27.99609375 C-45.28724854 27.2498877 -45.28152832 26.50368164 -45.27563477 25.73486328 C-45.00796438 17.42716774 -42.13789571 11.64469148 -36.60546875 5.49609375 C-26.361934 -3.76037663 -12.69860476 -6.08606431 0 0 Z " fill="#020302" transform="translate(367.79296875,293.69140625)"/>
<path d="M0 0 C19.8 0 39.6 0 60 0 C60 12.54 60 25.08 60 38 C40.2 38 20.4 38 0 38 C0 25.46 0 12.92 0 0 Z " fill="#93B6DE" transform="translate(297,181)"/>
<path d="M0 0 C3.8957689 2.18616935 5.98575793 4.1887161 7.8125 8.375 C8.55910539 13.52346634 8.61060221 18.55214542 6.3125 23.3125 C2.35205592 28.164044 -1.62888727 30.06620191 -7.8125 30.8125 C-13.09735436 30.12742629 -16.528234 28.37399694 -20 24.375 C-23.50934494 19.56218408 -23.90167005 15.16771265 -23.1875 9.375 C-18.42777393 0.03183402 -9.99010381 -4.49181906 0 0 Z " fill="#95B8E0" transform="translate(150.1875,334.625)"/>
<path d="M0 0 C4.32178502 2.24023413 6.87765855 4.95391737 8.93359375 9.3125 C9.92675196 14.83118323 9.09040856 19.71249396 6.3203125 24.58203125 C3.25724869 28.40438975 -0.62902919 29.91658088 -5.375 30.6875 C-10.73049528 30.97649806 -13.95171967 29.94873465 -18.06640625 26.3125 C-21.64263146 22.54805241 -22.41394782 19.42600465 -22.69140625 14.375 C-22.52194761 9.12829994 -21.43055052 6.33367676 -17.76953125 2.6171875 C-12.4995882 -1.41987896 -6.32043781 -2.10282997 0 0 Z " fill="#96B9E2" transform="translate(360.06640625,306.6875)"/>
<path d="M0 0 C4.33810166 2.23449633 6.90826213 4.92543995 8.9375 9.30859375 C9.73792959 14.3009639 9.59642831 18.73413279 7.1875 23.24609375 C4.36994451 27.08109983 2.42211891 28.81372078 -2.0625 30.30859375 C-7.08763073 30.83618923 -10.94300512 30.87851841 -15.5 28.55859375 C-19.12965833 25.37157668 -20.88508158 23.73912966 -21.49609375 18.8125 C-21.49738281 17.51183594 -21.49867188 16.21117187 -21.5 14.87109375 C-21.51933594 13.57300781 -21.53867188 12.27492188 -21.55859375 10.9375 C-20.8726214 5.9196393 -18.68804773 3.69509034 -14.9375 0.49609375 C-10.09512895 -1.50401603 -4.99848497 -1.67562848 0 0 Z " fill="#95B8E1" transform="translate(180.0625,84.69140625)"/>
</svg>
