<?xml version="1.0" encoding="UTF-8"?>
<svg version="1.1" xmlns="http://www.w3.org/2000/svg" width="512" height="512">
<path d="M0 0 C0.92555191 -0.0066568 1.85110382 -0.0133136 2.80470276 -0.02017212 C4.75365219 -0.0302545 6.70263584 -0.03499051 8.65161133 -0.03466797 C11.61663108 -0.03904438 14.58016457 -0.07541968 17.54492188 -0.11328125 C19.44660954 -0.11914988 21.34830421 -0.12311896 23.25 -0.125 C24.12732285 -0.13937103 25.00464569 -0.15374207 25.90855408 -0.16854858 C31.81186425 -0.12518599 36.25209513 1.01906288 41.19140625 4.3359375 C43.25 6.5546875 43.25 6.5546875 44.62890625 8.8359375 C45.10199219 9.58875 45.57507813 10.3415625 46.0625 11.1171875 C49.75764095 18.37960984 48.19140625 24.59870599 48.19140625 33.3359375 C64.36140625 33.3359375 80.53140625 33.3359375 97.19140625 33.3359375 C98.18140625 30.3659375 99.17140625 27.3959375 100.19140625 24.3359375 C104.9835548 16.76589221 112.05253224 11.78914592 120.765625 9.7265625 C129.06782396 8.38965446 137.43417283 9.49042076 144.71875 13.84765625 C152.18686851 19.37729475 155.7167031 24.43807061 158.19140625 33.3359375 C158.80411566 33.33479834 159.41682507 33.33365918 160.04810143 33.3324855 C196.36469565 33.26534682 232.68128069 33.21387557 268.99792427 33.18274151 C273.35880509 33.17898941 277.71968578 33.17510644 282.08056641 33.17114258 C282.94873682 33.17035565 283.81690724 33.16956872 284.71138585 33.16875794 C298.76746265 33.15570511 312.82350264 33.13205194 326.87955761 33.10447911 C341.30307222 33.0764215 355.72656755 33.05976049 370.15010834 33.05367202 C379.04973353 33.04955631 387.94925465 33.03655857 396.84884781 33.0121881 C402.95217825 32.99632653 409.05545492 32.9915381 415.15880448 32.99543337 C418.67978024 32.99735426 422.20057416 32.9944159 425.72151756 32.97832108 C429.541707 32.96098618 433.36166031 32.96698059 437.18188477 32.97517395 C438.29084799 32.96643543 439.39981121 32.9576969 440.54237938 32.94869357 C447.61634006 32.98973275 453.78256119 33.49721286 459.43359375 38.203125 C460.24183594 39.19699219 460.24183594 39.19699219 461.06640625 40.2109375 C461.62070312 40.86835937 462.175 41.52578125 462.74609375 42.203125 C465.58617817 46.39416849 466.44154934 50.01700294 466.45146847 55.04574108 C466.45853406 56.19208308 466.46559965 57.33842509 466.47287935 58.51950473 C466.47046427 59.77435036 466.46804918 61.029196 466.46556091 62.32206726 C466.47001424 63.67219315 466.4753286 65.02231642 466.48142964 66.37243587 C466.49560897 70.08156936 466.49727294 73.79061905 466.49683273 77.49977577 C466.49848101 81.50061582 466.5115478 85.50142136 466.52302551 89.50224304 C466.5458744 98.2502728 466.55379609 106.99827829 466.55885196 115.74633384 C466.56210929 121.20977181 466.56863201 126.67320274 466.57585335 132.13663673 C466.59541959 147.26646924 466.6118235 162.3962952 466.61472988 177.52614117 C466.61491745 178.49432643 466.61510502 179.4625117 466.61529827 180.46003591 C466.61566452 182.42274813 466.61602822 184.38546035 466.61638939 186.34817257 C466.6165722 187.32245287 466.61675501 188.29673317 466.61694336 189.30053711 C466.61721418 190.76374366 466.61721418 190.76374366 466.61749048 192.25650994 C466.62103159 208.06015479 466.6480499 223.86366333 466.68544125 239.66726091 C466.72353252 255.89671289 466.74288742 272.12609726 466.74318939 288.35559493 C466.7437738 297.46619829 466.75225491 306.57663906 466.78118706 315.68720055 C466.80571198 323.44559197 466.81297641 331.20376152 466.79793953 338.96218123 C466.79077496 342.91896286 466.791608 346.87530648 466.81435013 350.83203888 C466.83499568 354.45883511 466.83228887 358.08485817 466.81147528 361.71164653 C466.80634817 363.63567663 466.82571731 365.55972468 466.84613699 367.48365325 C466.77205772 375.15983827 465.52937847 380.90872735 461.19140625 387.3359375 C458.83984375 389.58984375 458.83984375 389.58984375 456.56640625 390.8984375 C455.81101562 391.35347656 455.055625 391.80851562 454.27734375 392.27734375 C450.64922346 394.11858083 447.82610253 394.46308488 443.81467342 394.47180939 C442.6917637 394.47666713 441.56885397 394.48152488 440.41191667 394.48652983 C438.55357921 394.48697381 438.55357921 394.48697381 436.65769958 394.48742676 C435.34572713 394.49165917 434.03375468 394.49589158 432.68202549 394.50025225 C429.03276038 394.51190811 425.38350776 394.51738012 421.73422778 394.52188706 C417.80168077 394.52782978 413.86915045 394.5394989 409.93661499 394.55052185 C403.12023291 394.56888333 396.30385047 394.58372393 389.48745537 394.59629822 C379.62984819 394.61457448 369.77226486 394.63923919 359.91467655 394.66567212 C343.91944375 394.7084813 327.92420438 394.74759324 311.92895508 394.78369141 C310.97118886 394.78585421 310.01342265 394.78801701 309.02663321 394.79024535 C301.25430131 394.80776892 293.48196901 394.8251139 285.70963669 394.84244823 C278.91425305 394.85761065 272.11886957 394.87284329 265.32348633 394.88818359 C264.36657972 394.89034246 263.40967312 394.89250133 262.42376935 394.89472562 C246.48822034 394.93079816 230.55268333 394.97074779 214.61715084 395.01348639 C204.77995279 395.03967992 194.94275845 395.06232979 185.10554219 395.08046997 C178.37014064 395.09311044 171.63475333 395.1092265 164.89936643 395.12811911 C161.00856035 395.13890508 157.11776814 395.14801369 153.22694969 395.15281487 C149.01731727 395.15803912 144.80774295 395.1708519 140.59812927 395.18444824 C139.35700691 395.18474423 138.11588455 395.18504022 136.83715242 395.18534517 C135.71685044 395.19020292 134.59654846 395.19506066 133.44229794 395.20006561 C131.98319371 395.20323957 131.98319371 395.20323957 130.49461263 395.20647764 C128.16319927 395.18491033 128.16319927 395.18491033 126.19140625 396.3359375 C124.17112273 396.43312823 122.14761894 396.46670267 120.125 396.46875 C118.91779297 396.47003906 117.71058594 396.47132813 116.46679688 396.47265625 C115.20029297 396.46878906 113.93378906 396.46492188 112.62890625 396.4609375 C111.35853516 396.46480469 110.08816406 396.46867187 108.77929688 396.47265625 C107.57337891 396.47136719 106.36746094 396.47007812 105.125 396.46875 C104.01181396 396.46762207 102.89862793 396.46649414 101.75170898 396.46533203 C99.19140625 396.3359375 99.19140625 396.3359375 98.19140625 395.3359375 C96.81438743 395.23709817 95.43236329 395.20686116 94.05180359 395.20463562 C93.15904221 395.20062744 92.26628082 395.19661926 91.34646606 395.19248962 C90.35903412 395.19301834 89.37160217 395.19354706 88.35424805 395.1940918 C87.31999191 395.19061737 86.28573578 395.18714294 85.22013855 395.18356323 C82.96386444 395.17618849 80.70758299 395.17085232 78.45129967 395.16727257 C74.87313815 395.1601213 71.29511491 395.14446134 67.71699524 395.12593079 C57.53945909 395.07342254 47.36199461 395.02554992 37.18432617 395.01000977 C30.96494221 394.99988955 24.74589996 394.97045294 18.52665138 394.92868996 C16.16138108 394.91642274 13.79606239 394.91125083 11.43076134 394.91348839 C-5.92441914 394.92585676 -19.24926927 394.41956263 -32.80859375 382.3359375 C-43.19797007 371.27067239 -46.11355138 360.18679796 -46.07601929 345.35054016 C-46.0805504 344.03812212 -46.08508151 342.72570407 -46.08974993 341.37351578 C-46.10195659 337.74116638 -46.10172223 334.10890924 -46.09936118 330.47654402 C-46.09895242 326.55477781 -46.10999792 322.63304093 -46.11947632 318.71128845 C-46.136075 311.03130162 -46.14158537 303.3513455 -46.14270107 295.67134223 C-46.14365218 289.42637467 -46.14776563 283.18141722 -46.15410233 276.93645287 C-46.17171246 259.21990858 -46.18094167 241.50338851 -46.17944138 223.78683541 C-46.17936147 222.83213334 -46.17928155 221.87743127 -46.17919922 220.89379883 C-46.17911746 219.93792711 -46.1790357 218.98205539 -46.17895146 217.99721786 C-46.17813885 202.51193045 -46.19727065 187.02674038 -46.22547595 171.54148111 C-46.25422708 155.63062003 -46.26801499 139.71980637 -46.2662884 123.80891865 C-46.26562522 114.88051345 -46.27108586 105.95221027 -46.2926445 97.02382851 C-46.31088575 89.4207367 -46.3151796 81.81779313 -46.30162565 74.21468887 C-46.29511051 70.33871479 -46.29492573 66.46302487 -46.31233215 62.58707809 C-46.32813319 59.03189381 -46.32512858 55.47721733 -46.30776389 51.9220449 C-46.30327327 50.04135508 -46.31829614 48.16064906 -46.33424318 46.28002149 C-46.22990226 33.33349239 -42.44163049 23.0232743 -33.80859375 13.3359375 C-23.96658332 4.095097 -13.35621825 0.03380488 0 0 Z " fill="#000000" transform="translate(45.80859375,58.6640625)"/>
<path d="M0 0 C16.83 0 33.66 0 51 0 C52.32 2.97 53.64 5.94 55 9 C59.59037617 15.96207052 65.23220735 19.41073578 73 22 C73.029729 23.15786011 73.029729 23.15786011 73.06005859 24.33911133 C73.15521143 27.83058958 73.26493047 31.32146152 73.375 34.8125 C73.4059375 36.02744141 73.436875 37.24238281 73.46875 38.49414062 C73.50742188 39.65751953 73.54609375 40.82089844 73.5859375 42.01953125 C73.6173584 43.09307861 73.6487793 44.16662598 73.68115234 45.27270508 C73.81592307 48.2160765 73.81592307 48.2160765 76 51 C79.16912098 51.89562115 81.17702854 52.28915213 84.3125 51.1875 C86.15097822 50.09312675 86.15097822 50.09312675 87 48 C87.15378852 46.04225931 87.24971463 44.07982648 87.31640625 42.1171875 C87.35830078 40.95058594 87.40019531 39.78398437 87.44335938 38.58203125 C87.48267578 37.35871094 87.52199219 36.13539063 87.5625 34.875 C87.62727539 33.02841797 87.62727539 33.02841797 87.69335938 31.14453125 C87.79968704 28.09647147 87.90171781 25.0483281 88 22 C88.85964355 21.61166992 89.71928711 21.22333984 90.60498047 20.82324219 C101.76127509 15.7041534 104.85841761 11.56856038 110 0 C160.82 0 211.64 0 264 0 C264 19.47 264 38.94 264 59 C262.18126784 60.81873216 259.33788012 60.15349155 256.89135742 60.17358398 C254.92878242 60.19381874 254.92878242 60.19381874 252.92655945 60.21446228 C252.22268286 60.21952223 251.51880627 60.22458218 250.79360008 60.22979546 C248.595412 60.24616866 246.39739754 60.26940615 244.19929504 60.29469299 C237.94797385 60.36555999 231.69658026 60.4255317 225.44506836 60.47680664 C221.62478795 60.50862335 217.80470405 60.54991036 213.9845829 60.59700203 C212.52818659 60.61301173 211.07174495 60.62533809 209.61528587 60.63390923 C207.57572713 60.64608124 205.53625863 60.67126704 203.49682617 60.69702148 C202.33624191 60.70732895 201.17565765 60.71763641 199.97990417 60.72825623 C196.96409998 61.0032738 195.39778605 61.17477114 193 63 C189.47870621 68.12506622 189.53037844 72.99965682 189.48828125 78.9921875 C189.47033005 79.93812775 189.45237885 80.88406799 189.43388367 81.8586731 C189.37993363 84.86407079 189.34593396 87.86931104 189.3125 90.875 C189.27931343 92.91929267 189.24482253 94.9635646 189.20898438 97.0078125 C189.12421585 102.00509448 189.05733161 107.00233099 189 112 C187.84155075 112.00586624 186.6831015 112.01173248 185.48954773 112.01777649 C174.58568122 112.07492686 163.68201563 112.14764799 152.77835369 112.23571491 C147.1723187 112.28049067 141.56635759 112.31973085 135.96020508 112.34643555 C130.55250348 112.37239668 125.14508514 112.41274786 119.73755836 112.46318626 C117.67187834 112.47990374 115.60614928 112.49138751 113.540411 112.49761391 C110.65253194 112.50720201 107.7653856 112.53519745 104.87768555 112.56762695 C104.01885269 112.56619186 103.16001984 112.56475677 102.27516174 112.5632782 C98.00563596 112.50995884 98.00563596 112.50995884 94.28413105 114.30617046 C92.13260878 117.14413001 92.57325166 119.58601329 93 123 C95.32447623 125.47030907 96.75775165 125.97068884 100.1432085 126.38031673 C102.01555935 126.38396158 102.01555935 126.38396158 103.92573547 126.38768005 C104.62250167 126.39306559 105.31926786 126.39845113 106.03714818 126.40399987 C108.37170623 126.4183063 110.7056994 126.41116932 113.0402832 126.40405273 C114.71422787 126.40975503 116.38816864 126.41671874 118.06210327 126.42485046 C122.60976796 126.44281555 127.15724005 126.44160686 131.70492959 126.43590808 C135.50206621 126.43282014 139.29916563 126.43890449 143.09629697 126.44494683 C152.05633549 126.45900231 161.0162787 126.45742311 169.97631836 126.44604492 C179.21606575 126.4345707 188.45552264 126.44862531 197.69523174 126.4754414 C205.62998413 126.49760692 213.56464539 126.50423361 221.49942654 126.49836498 C226.23757102 126.49499527 230.97552942 126.49741107 235.71364784 126.51461601 C240.17150501 126.53009596 244.62893265 126.52611803 249.08677292 126.50731087 C250.72058086 126.50362745 252.35442069 126.50672627 253.98819923 126.51719666 C256.22372998 126.5304266 258.457843 126.51884326 260.6933136 126.50120544 C261.94267858 126.50099616 263.19204355 126.50078688 264.47926807 126.50057125 C268.94728171 125.86531721 271.27882822 124.53986521 275 122 C278.66027891 116.17462979 278.44157571 110.38299426 278.43237305 103.64868164 C278.4425647 102.52599884 278.45275635 101.40331604 278.46325684 100.24661255 C278.49335111 96.55107611 278.50264765 92.85579906 278.51171875 89.16015625 C278.52856801 86.59182374 278.54671859 84.02349946 278.56611633 81.45518494 C278.60874748 75.39575765 278.6382942 69.33639714 278.66143972 63.27686828 C278.68853866 56.37470244 278.73244711 49.47267503 278.77772844 42.57060826 C278.87044893 28.38046955 278.93996852 14.19031376 279 0 C288.24 0 297.48 0 307 0 C307.02187378 5.22384521 307.02187378 5.22384521 307.04418945 10.55322266 C307.09451452 22.05646602 307.16095594 33.55958481 307.23571491 45.06269264 C307.28064978 52.03738518 307.32006969 59.01202692 307.34643555 65.98681641 C307.37189315 72.71721531 307.41281329 79.44735763 307.46318626 86.17762375 C307.47987792 88.7460181 307.49137784 91.31445159 307.49761391 93.88289261 C307.50722962 97.47897326 307.53526022 101.07447233 307.56762695 104.67041016 C307.56547432 106.26508118 307.56547432 106.26508118 307.5632782 107.89196777 C307.63260939 113.33471669 307.89111028 117.3206794 311 122 C315.64416582 126.20877528 320.23743795 126.1618129 326.23510742 126.20532227 C327.07435257 126.21522186 327.91359772 126.22512146 328.77827454 126.23532104 C331.55397718 126.26692396 334.32969695 126.29168874 337.10546875 126.31640625 C339.02932685 126.33697682 340.95318043 126.35797332 342.87702942 126.37937927 C347.94209136 126.43458932 353.00719402 126.48400334 358.07232666 126.53222656 C363.24031195 126.58244935 368.40823808 126.63813136 373.57617188 126.69335938 C383.71739926 126.80092793 393.85867687 126.9018714 404 127 C404 136.24 404 145.48 404 155 C398.88973831 155.01213028 398.88973831 155.01213028 393.67623901 155.02450562 C362.44100447 155.09956679 331.20581063 155.18444818 299.97063219 155.28005161 C295.8775571 155.29257061 291.78448176 155.30500336 287.69140625 155.31738281 C286.87654228 155.31984881 286.06167831 155.3223148 285.22212149 155.32485552 C272.02477229 155.36458848 258.82741453 155.39733345 245.63004039 155.42749982 C232.09017707 155.45860445 218.55035014 155.49720962 205.01052773 155.54279006 C196.65450211 155.57068299 188.29850313 155.59271254 179.94244345 155.60726251 C174.21381724 155.61779768 168.48524262 155.63561277 162.75665526 155.65916704 C159.4506577 155.67254489 156.14474637 155.68162056 152.83872032 155.68421364 C149.25426683 155.68752926 145.67006519 155.70298828 142.08566284 155.7215271 C141.04091101 155.71959237 139.99615917 155.71765763 138.91974819 155.71566427 C133.88219605 155.75472054 129.71619027 155.9914115 125 158 C124.66255942 159.46940033 124.38274972 160.95204769 124.125 162.4375 C123.96257812 163.26121094 123.80015625 164.08492187 123.6328125 164.93359375 C124.55478034 172.63300604 131.87083142 179.56606613 136.5625 185.5 C137.79878526 187.07634613 139.03444738 188.65318114 140.26953125 190.23046875 C141.20079834 191.41842041 141.20079834 191.41842041 142.15087891 192.63037109 C145.04374696 196.33755057 147.89849566 200.07346387 150.75 203.8125 C151.8241971 205.22006861 152.89841538 206.62762105 153.97265625 208.03515625 C154.48328613 208.70434082 154.99391602 209.37352539 155.52001953 210.06298828 C159.33253539 215.05284325 163.1685218 220.02470368 167 225 C168.24766396 226.62151985 169.49508752 228.24322434 170.74243164 229.86499023 C171.58136716 230.95572042 172.42039724 232.04637788 173.25952148 233.13696289 C175.29429649 235.78157716 177.32781303 238.42713386 179.359375 241.07421875 C184.15375095 247.31787502 188.97411088 253.54038067 193.8125 259.75 C200.09694941 267.8175508 206.31645938 275.93317278 212.52001953 284.06298828 C216.33253539 289.05284325 220.1685218 294.02470368 224 299 C224.82950659 300.07806383 225.65893273 301.15618956 226.48828125 302.234375 C227.11029419 303.04297974 227.11029419 303.04297974 227.74487305 303.86791992 C228.57598615 304.94864179 229.40688114 306.02953144 230.23754883 307.1105957 C232.38943966 309.91038589 234.54625469 312.70617865 236.7109375 315.49609375 C237.15695312 316.07230469 237.60296875 316.64851563 238.0625 317.2421875 C239.29816649 318.83825671 240.53573917 320.43284965 241.7734375 322.02734375 C243.96422744 324.95224049 245.98488618 327.95247743 248 331 C214.06454938 333.59384324 214.06454938 333.59384324 207.359375 328.22265625 C204.68062874 325.20043833 202.84158674 321.78025278 201.10449219 318.15087891 C199.22919025 314.4989315 196.65078888 311.4066506 194.125 308.1875 C193.12706263 306.85391068 192.13231175 305.51793145 191.140625 304.1796875 C186.0623301 297.388194 180.81088968 290.72954023 175.59277344 284.04541016 C173.38227123 281.20672416 171.19017352 278.35440647 169 275.5 C165.08468658 270.39919888 161.14000512 265.32202258 157.1875 260.25 C150.90299498 252.18249308 144.68354012 244.06682656 138.47998047 235.93701172 C134.66746461 230.94715675 130.8314782 225.97529632 127 221 C125.33304708 218.83355349 123.66652587 216.66677503 122 214.5 C121.16667453 213.41666062 120.3333412 212.33332728 119.5 211.25 C104.5 191.75 104.5 191.75 103.24951172 190.12426758 C102.41793189 189.04327879 101.58622658 187.96238651 100.75439453 186.8815918 C98.64318208 184.13817334 96.53432109 181.39300081 94.4296875 178.64453125 C92.75305582 176.45520527 91.07057779 174.27059661 89.3828125 172.08984375 C87.84272755 170.09278277 86.31569176 168.08555962 84.8046875 166.06640625 C84.12664062 165.17824219 83.44859375 164.29007813 82.75 163.375 C82.16734375 162.59898437 81.5846875 161.82296875 80.984375 161.0234375 C77.63056834 157.60361103 74.25648728 156.14343309 69.5071106 155.60127258 C68.22359711 155.59016953 66.94008362 155.57906647 65.61767578 155.56762695 C64.90478897 155.5574353 64.19190216 155.54724365 63.45741272 155.53674316 C61.11996469 155.50674301 58.78292732 155.49736751 56.4453125 155.48828125 C54.81719617 155.47142487 53.18909277 155.45327333 51.56100464 155.43388367 C47.2900395 155.38648148 43.01912684 155.35660906 38.74798584 155.33044434 C34.38396851 155.30058928 30.02013179 155.25407599 25.65625 155.20898438 C17.10424062 155.12306247 8.55224971 155.05720885 0 155 C0 145.76 0 136.52 0 127 C1.9480957 126.9906543 3.89619141 126.98130859 5.90332031 126.97167969 C12.34161189 126.93615128 18.77954819 126.882353 25.21759415 126.81609726 C29.12082851 126.77659653 33.02383641 126.7444211 36.92724609 126.72900391 C40.6946841 126.71385392 44.46149963 126.67943927 48.22866058 126.63169098 C49.66550026 126.6168598 51.10242881 126.60895798 52.53934479 126.60811615 C54.55270247 126.60575036 56.56597368 126.57640935 58.57910156 126.54589844 C59.72493713 126.53701599 60.87077271 126.52813354 62.05133057 126.51898193 C65.63647072 125.88797767 66.8309157 124.87775551 69 122 C69.44281175 118.90031772 69.66836253 116.98207726 67.87260437 114.34342957 C65.12787219 112.37432471 62.95632421 112.59958404 59.60083008 112.56762695 C58.94626422 112.55735316 58.29169836 112.54707937 57.61729717 112.53649426 C55.50128095 112.50663631 53.38572892 112.49706971 51.26953125 112.48828125 C49.97511108 112.47164429 48.68069092 112.45500732 47.3470459 112.43786621 C42.50236329 112.37994358 37.65740037 112.34778422 32.8125 112.3125 C21.984375 112.209375 11.15625 112.10625 0 112 C0 75.04 0 38.08 0 0 Z " fill="#FCFCFC" transform="translate(93,107)"/>
<path d="M0 0 C86.13 0 172.26 0 261 0 C261.061875 38.23875 261.061875 38.23875 261.125 77.25 C261.14320801 85.30567383 261.16141602 93.36134766 261.18017578 101.66113281 C261.18920898 111.48193359 261.18920898 111.48193359 261.19088745 116.07635498 C261.19275422 119.29204048 261.20026295 122.50766025 261.21115112 125.72332764 C261.22484805 129.82269041 261.22898624 133.92195731 261.22614455 138.02134085 C261.22673895 139.52732043 261.23071741 141.0333033 261.23843026 142.53926325 C261.24835417 144.57101222 261.24479184 146.60281382 261.24050903 148.63458252 C261.24327441 150.34358671 261.24327441 150.34358671 261.24609566 152.08711624 C260.99886844 155.0133936 260.69948005 156.62319678 259 159 C255.92213588 161.12120872 253.27242254 161.26135059 249.59281921 161.29434204 C248.4951825 161.30865265 247.39754578 161.32296326 246.26664734 161.33770752 C245.06707901 161.34308533 243.86751068 161.34846313 242.6315918 161.35400391 C241.364534 161.3671463 240.0974762 161.3802887 238.79202271 161.39382935 C234.5944725 161.43581628 230.3969216 161.45662289 226.19921875 161.4765625 C224.75188433 161.4846607 223.30455067 161.49289464 221.85721779 161.50126266 C215.05755669 161.53934296 208.25793874 161.56781154 201.45819157 161.5844866 C193.61775241 161.6040334 185.77844227 161.65668282 177.93840092 161.73748839 C171.87200946 161.79786098 165.80594124 161.82742871 159.73925525 161.83404863 C156.1184983 161.83874378 152.49894902 161.85657902 148.87851524 161.90697098 C144.83715408 161.96231598 140.79830807 161.95385773 136.7565918 161.93994141 C135.56309616 161.96556152 134.36960052 161.99118164 133.13993835 162.01757812 C125.19966625 161.91788373 125.19966625 161.91788373 121.75753212 159.28425217 C119.96917171 157.27108241 118.47373032 155.2502378 117 153 C116.06805717 151.77858991 115.13033817 150.56153566 114.18359375 149.3515625 C113.26545238 148.111426 112.35017549 146.8691646 111.4375 145.625 C106.98995931 139.62872396 102.46875724 133.69752949 97.875 127.8125 C97.28291748 127.05380615 96.69083496 126.2951123 96.08081055 125.51342773 C94.9240613 124.0313578 93.76724373 122.54934119 92.61035156 121.06738281 C90.31177731 118.11645395 88.02847088 115.15396548 85.75 112.1875 C84.9559375 111.15367187 84.161875 110.11984375 83.34375 109.0546875 C81.78125 107.01822917 80.21875 104.98177083 78.65625 102.9453125 C73.85601162 96.69565149 69.03101226 90.46619441 64.1875 84.25 C57.90305059 76.1824492 51.68354062 68.06682722 45.47998047 59.93701172 C41.66746461 54.94715675 37.8314782 49.97529632 34 45 C32.33304708 42.83355349 30.66652587 40.66677503 29 38.5 C28.16667453 37.41666062 27.3333412 36.33332728 26.5 35.25 C24.83333333 33.08333333 23.16666667 30.91666667 21.5 28.75 C21.0870166 28.21318604 20.6740332 27.67637207 20.24853516 27.12329102 C19.41983262 26.04584808 18.59137982 24.96821302 17.76318359 23.89038086 C15.61106457 21.09025278 13.45399476 18.29414285 11.2890625 15.50390625 C10.84304687 14.92769531 10.39703125 14.35148437 9.9375 13.7578125 C8.70183351 12.16174329 7.46426083 10.56715035 6.2265625 8.97265625 C4.04410557 6.0588848 2.01938165 3.02907247 0 0 Z " fill="#FCFCFC" transform="translate(236,277)"/>
<path d="M0 0 C8.8836347 -0.41978672 17.76379236 -0.73816377 26.65522957 -0.93261909 C30.78595618 -1.02603287 34.90983779 -1.15227086 39.03662109 -1.35791016 C67.90560102 -2.75902014 67.90560102 -2.75902014 75.12890625 3.77709961 C78.27497256 7.42093839 80.58520266 11.32042233 82.72114563 15.61991882 C84.91621234 19.70516659 87.85767618 23.20548074 90.75 26.8125 C91.82770773 28.2173825 92.90240118 29.62458797 93.97265625 31.03515625 C98.29786807 36.70338114 102.64971025 42.35101037 107 48 C108.24766396 49.62151985 109.49508752 51.24322434 110.74243164 52.86499023 C111.58136716 53.95572042 112.42039724 55.04637788 113.25952148 56.13696289 C115.29429649 58.78157716 117.32781303 61.42713386 119.359375 64.07421875 C124.15375095 70.31787502 128.97411088 76.54038067 133.8125 82.75 C140.09694941 90.8175508 146.31645938 98.93317278 152.52001953 107.06298828 C156.33253539 112.05284325 160.1685218 117.02470368 164 122 C166.08331292 124.70756657 168.166131 127.41551374 170.24853516 130.1237793 C172.34187637 132.84594218 174.4368568 135.56681294 176.53515625 138.28515625 C180.75560103 143.75532072 184.96032249 149.23721879 189.125 154.75 C189.87007813 155.73484375 190.61515625 156.7196875 191.3828125 157.734375 C193 160 193 160 193 161 C192.42131542 161.00146656 191.84263084 161.00293312 191.24641037 161.00444412 C177.16650904 161.04149385 163.08684267 161.10048393 149.0071373 161.18390274 C142.19827631 161.22371432 135.38953124 161.25609592 128.58056641 161.27099609 C122.01224727 161.28539051 115.44425069 161.32047731 108.87607574 161.36830902 C106.36743538 161.38317157 103.85874375 161.39104379 101.35005951 161.39188385 C97.84203068 161.39424052 94.33500511 161.42121696 90.82714844 161.45410156 C89.78489609 161.4490712 88.74264374 161.44404083 87.66880798 161.43885803 C82.16059914 161.45873568 82.16059914 161.45873568 77.32330322 163.81536865 C75.6977769 166.07324411 75.6977769 166.07324411 76 169.5 C77.05473924 173.19158734 78.05527558 174.62522224 81 177 C78.23382437 178.38308781 75.98982 178.11210196 72.8984375 178.09765625 C71.68671875 178.09443359 70.475 178.09121094 69.2265625 178.08789062 C67.95554688 178.07951172 66.68453125 178.07113281 65.375 178.0625 C64.09625 178.05798828 62.8175 178.05347656 61.5 178.04882812 C58.33328708 178.03701203 55.16666644 178.02053815 52 178 C52.3125 176.0625 52.3125 176.0625 53 174 C53.99 173.67 54.98 173.34 56 173 C56.98388172 168.8150658 56.98388172 168.8150658 56.1875 164.6875 C55.09312675 162.84902178 55.09312675 162.84902178 53 162 C51.6012403 161.90287889 50.1980028 161.8666347 48.79588318 161.86196899 C47.91423996 161.85651566 47.03259674 161.85106232 46.12423706 161.84544373 C44.66946457 161.84388023 44.66946457 161.84388023 43.18530273 161.84228516 C42.16558884 161.83720444 41.14587494 161.83212372 40.09526062 161.82688904 C37.87446903 161.81616787 35.65366652 161.80755458 33.43285942 161.80076981 C29.9142528 161.78899779 26.39576986 161.76954703 22.87721252 161.74765015 C12.87057637 161.68599262 2.86395105 161.63206355 -7.14282227 161.59863281 C-13.25956113 161.57764576 -19.37607761 161.54230369 -25.49268913 161.49787521 C-27.82136345 161.48374041 -30.15007714 161.47499849 -32.47879219 161.47182083 C-35.74594359 161.46689283 -39.01250932 161.44368334 -42.27954102 161.41650391 C-43.71305908 161.42101311 -43.71305908 161.42101311 -45.17553711 161.4256134 C-54.84443749 161.30662169 -62.96865487 158.82410549 -70 152 C-76.77902108 143.74793221 -78.94064505 135.58598958 -78 125 C-76.33470737 116.30969139 -71.76154336 109.69008502 -64.5625 104.625 C-58.291213 100.49033933 -51.84673248 99.71678245 -44.5390625 99.7265625 C-42.91665977 99.70627342 -41.29426398 99.68542263 -39.671875 99.6640625 C-37.14870288 99.64151667 -34.62580718 99.62500187 -32.10253906 99.61914062 C-18.88334681 99.99613284 -18.88334681 99.99613284 -7 95 C-1.75177738 89.3975585 -0.84907804 84.26726695 -0.79467773 76.85668945 C-0.78477814 76.02719788 -0.77487854 75.1977063 -0.76467896 74.34307861 C-0.73307795 71.59984191 -0.70831202 68.85658789 -0.68359375 66.11328125 C-0.66302302 64.21184335 -0.64202651 62.31041001 -0.62062073 60.40898132 C-0.56541239 55.40310356 -0.51599762 50.39718462 -0.46777344 45.39123535 C-0.4175494 40.28357272 -0.36186804 35.17596993 -0.30664062 30.06835938 C-0.19907418 20.04562404 -0.09762581 10.02283675 0 0 Z " fill="#FCFCFC" transform="translate(93,277)"/>
<path d="M0 0 C0.75984192 -0.00428513 1.51968384 -0.00857025 2.30255127 -0.01298523 C3.89586393 -0.01869129 5.48920263 -0.0192565 7.08251953 -0.01489258 C9.52290581 -0.01170925 11.96210491 -0.03531654 14.40234375 -0.06054688 C15.95572764 -0.0628179 17.50911478 -0.06352428 19.0625 -0.0625 C19.79063904 -0.07170975 20.51877808 -0.08091949 21.26898193 -0.09040833 C26.28932476 -0.04428 26.28932476 -0.04428 28.45717871 1.52624702 C30.16203418 3.83839724 30.14151715 5.20577606 30.14314842 8.06564331 C30.15097166 9.05208391 30.15879491 10.03852451 30.16685522 11.05485725 C30.16016305 12.14131979 30.15347089 13.22778233 30.14657593 14.34716797 C30.15359589 16.07518048 30.15359589 16.07518048 30.16075766 17.83810234 C30.1706751 21.0408921 30.16707638 24.24334261 30.15779901 27.44612408 C30.15102783 30.8981224 30.16148011 34.35007389 30.16973877 37.80206299 C30.18309903 44.56653019 30.1801882 51.3308977 30.17150085 58.09536886 C30.1647337 63.59156203 30.16380337 69.0877272 30.1670723 74.58392334 C30.167532 75.36530257 30.16799169 76.1466818 30.16846532 76.95173919 C30.16942447 78.53895141 30.17039711 80.12616361 30.1713831 81.71337581 C30.17994371 96.60686995 30.17009236 111.50030875 30.153982 126.39379382 C30.1405782 139.18117673 30.14290611 151.96847794 30.15673828 164.75585938 C30.17278227 179.59499775 30.17911967 194.43408758 30.16990149 209.27323341 C30.16894581 210.85470199 30.1680027 212.43617057 30.1670723 214.01763916 C30.16660947 214.79581116 30.16614664 215.57398315 30.16566979 216.37573612 C30.16307635 221.86718144 30.16745851 227.35859605 30.17451096 232.85003662 C30.18291306 239.53962962 30.18067312 246.22911698 30.16466872 252.91869783 C30.1567685 256.33374886 30.15372394 259.74862357 30.16361618 263.1636734 C30.17176126 266.86075878 30.16159501 270.55734156 30.14657593 274.25439453 C30.15661418 275.88408834 30.15661418 275.88408834 30.16685522 277.54670525 C30.15512035 279.02636615 30.15512035 279.02636615 30.14314842 280.53591919 C30.14266137 281.38980288 30.14217431 282.24368656 30.14167249 283.12344551 C29.67585967 285.82052745 28.96637485 286.706499 26.765625 288.30078125 C24.12037042 288.58453673 21.69921093 288.69414793 19.0546875 288.671875 C17.48307107 288.68928768 15.91145654 288.70687165 14.33984375 288.72460938 C11.88065558 288.73458629 9.42160969 288.73830306 6.96240234 288.73657227 C-6.50893722 288.75709533 -18.3513616 289.75210331 -29.52734375 298.12890625 C-31.234375 299.30078125 -31.234375 299.30078125 -33.234375 299.30078125 C-33.30306319 264.54800913 -33.35591499 229.79525252 -33.38757099 195.04242716 C-33.39132304 190.93819677 -33.39520602 186.83396652 -33.39916992 182.72973633 C-33.39995685 181.91266867 -33.40074378 181.09560102 -33.40155456 180.25377374 C-33.41460335 167.0293199 -33.43825429 153.80490523 -33.46583339 140.58047462 C-33.49390225 127.00785467 -33.51055439 113.43525521 -33.51664048 99.86260742 C-33.52075385 91.48964955 -33.53373891 83.11680243 -33.5581244 74.74387866 C-33.57399987 68.99983045 -33.57877126 63.25583939 -33.57487913 57.51177085 C-33.57296039 54.19925863 -33.57751953 50.88698011 -33.59199142 47.57449341 C-33.60693363 43.97789897 -33.60332178 40.38177706 -33.59513855 36.78517151 C-33.60387707 35.74526725 -33.6126156 34.70536299 -33.62161893 33.63394648 C-33.56078305 23.73045939 -31.24041842 15.51958955 -24.234375 8.30078125 C-16.80623078 2.19860813 -9.62052488 -0.01217737 0 0 Z " fill="#FCFCFC" transform="translate(48.234375,73.69921875)"/>
<path d="M0 0 C18.6553125 -0.0928125 18.6553125 -0.0928125 37.6875 -0.1875 C41.60971436 -0.21481201 45.53192871 -0.24212402 49.57299805 -0.27026367 C54.37463379 -0.28381348 54.37463379 -0.28381348 56.62483215 -0.28633118 C58.19130511 -0.29092804 59.75776767 -0.30145889 61.32417297 -0.31672668 C63.70157215 -0.33873431 66.07832454 -0.34171648 68.45581055 -0.34057617 C69.49681805 -0.35676766 69.49681805 -0.35676766 70.55885601 -0.37328625 C74.86996701 -0.34566614 77.56762246 0.36748778 81 3 C82.16963529 5.33927057 82.12330589 6.69676648 82.12025452 9.30264282 C82.12231651 10.65723854 82.12231651 10.65723854 82.12442017 12.03919983 C82.11902725 13.52920753 82.11902725 13.52920753 82.11352539 15.04931641 C82.11367142 16.09324051 82.11381744 17.13716461 82.1139679 18.21272278 C82.11326922 21.67569023 82.10547891 25.1386044 82.09765625 28.6015625 C82.09579191 30.99767019 82.09436808 33.39377827 82.09336853 35.78988647 C82.08954461 42.10608975 82.07971538 48.42227014 82.06866455 54.73846436 C82.05665243 62.31169156 82.05204759 69.8849264 82.04621124 77.4581604 C82.03650358 88.97212286 82.01734611 100.48603509 82 112 C54.94 112 27.88 112 0 112 C0 75.04 0 38.08 0 0 Z " fill="#FCFCFC" transform="translate(415,107)"/>
<path d="M0 0 C7.95751187 5.66104871 12.29906611 12.56723448 14.078125 22.15625 C15.20114059 32.14640951 12.75674911 39.62726871 6.578125 47.59375 C1.64404304 52.45606349 -2.67823846 54.88940444 -9.421875 56.59375 C-9.40092773 57.36041992 -9.37998047 58.12708984 -9.35839844 58.91699219 C-9.27522342 62.3924446 -9.22320925 65.86768763 -9.171875 69.34375 C-9.12160156 71.15359375 -9.12160156 71.15359375 -9.0703125 73 C-9.05742187 74.16015625 -9.04453125 75.3203125 -9.03125 76.515625 C-9.01030273 77.58393555 -8.98935547 78.65224609 -8.96777344 79.75292969 C-9.53381458 83.29403441 -10.60932593 84.43758959 -13.421875 86.59375 C-17.23325415 87.32358856 -18.81460945 86.99260489 -22.0625 84.859375 C-26.11166506 80.59737603 -25.20663189 74.28363378 -25.234375 68.78125 C-25.25951172 67.61142578 -25.28464844 66.44160156 -25.31054688 65.23632812 C-25.36934682 62.3551307 -25.40568032 59.47545017 -25.421875 56.59375 C-26.09879395 56.27124268 -26.77571289 55.94873535 -27.47314453 55.61645508 C-28.36630371 55.18228271 -29.25946289 54.74811035 -30.1796875 54.30078125 C-31.06285645 53.87514893 -31.94602539 53.4495166 -32.85595703 53.01098633 C-40.12149215 48.99800523 -44.58525298 42.54736367 -47.00390625 34.70703125 C-48.68853714 26.18941153 -47.73016385 18.13007829 -43.421875 10.59375 C-33.31355474 -3.96734931 -15.69901108 -9.11555482 0 0 Z " fill="#000000" transform="translate(159.421875,322.40625)"/>
<path d="M0 0 C7.07311719 4.98526935 11.57818138 11.37227794 13.59375 19.828125 C14.70352045 29.12960307 13.46836052 36.97035584 8.2734375 44.82421875 C3.60324242 50.75766332 -2.00282568 54.45269199 -9.40625 55.828125 C-9.38530273 56.55926514 -9.36435547 57.29040527 -9.34277344 58.04370117 C-9.25944686 61.36753501 -9.20753668 64.69114884 -9.15625 68.015625 C-9.10597656 69.74135742 -9.10597656 69.74135742 -9.0546875 71.50195312 C-9.04179687 72.61376953 -9.02890625 73.72558594 -9.015625 74.87109375 C-8.99467773 75.89227295 -8.97373047 76.91345215 -8.95214844 77.96557617 C-9.52481737 81.57554564 -10.90358524 83.21851125 -13.40625 85.828125 C-16.08835104 87.12591583 -17.14914708 86.90158298 -20.03125 86.078125 C-22.40625 84.828125 -22.40625 84.828125 -24.40625 81.828125 C-24.63330078 79.10083008 -24.63330078 79.10083008 -24.6015625 75.84765625 C-24.59511719 74.68427734 -24.58867187 73.52089844 -24.58203125 72.32226562 C-24.56527344 71.10732422 -24.54851562 69.89238281 -24.53125 68.640625 C-24.52222656 67.41408203 -24.51320313 66.18753906 -24.50390625 64.92382812 C-24.48031017 61.89173205 -24.44738841 58.86002562 -24.40625 55.828125 C-25.18492432 55.68713379 -25.96359863 55.54614258 -26.76586914 55.40087891 C-34.00656078 53.83022125 -40.41386111 47.90015055 -44.40625 41.828125 C-48.86905564 33.13002931 -49.27588238 24.09822774 -46.40625 14.828125 C-42.73385835 7.25456977 -36.54441748 0.48204259 -28.84375 -3.109375 C-18.97266149 -6.17348499 -8.88201617 -5.10954694 0 0 Z " fill="#000000" transform="translate(370.40625,295.171875)"/>
<path d="M0 0 C19.8 0 39.6 0 60 0 C60 12.21 60 24.42 60 37 C40.2 37 20.4 37 0 37 C0 24.79 0 12.58 0 0 Z " fill="#FCFCFC" transform="translate(297,182)"/>
<path d="M0 0 C4.45460523 3.81823305 6.15238612 7.27952143 6.6875 13.19921875 C6.53917742 18.0660534 4.30128787 21.44913279 1.25 25.0625 C-2.44232758 28.13943965 -4.98792212 29.09588024 -9.75 29.625 C-15.43988018 29.03639171 -18.89389399 26.84803543 -22.75 22.6875 C-25.60940207 18.39839689 -25.89112199 14.27741047 -25.375 9.25 C-23.51731853 3.98656918 -20.80708258 1.41577327 -16.375 -1.75 C-10.74921329 -3.65199714 -5.17226319 -2.68191425 0 0 Z " fill="#FAFAFA" transform="translate(152.375,335.75)"/>
<path d="M0 0 C4.09181323 1.70431 6.41163342 4.16489905 8.9375 7.75 C10.74706582 13.28514252 11.08643908 18.49178615 8.4375 23.8125 C6.01213493 27.45902791 3.16086904 29.62936079 -1 31 C-6.66910639 31.86913129 -11.16611912 31.2600592 -16 28 C-20.14972213 24.08081799 -21.69077412 19.61291828 -22 14 C-21.27556648 9.34530647 -19.5068427 6.12318944 -15.9375 3.0625 C-10.70328706 -0.61258568 -6.31327615 -0.76630111 0 0 Z " fill="#FBFBFB" transform="translate(359,306)"/>
<path d="M0 0 C3.9136062 1.9484048 6.40867953 4.43554612 8.34765625 8.35546875 C9.80321328 12.73936536 9.8400625 16.96388905 8.3125 21.33203125 C6.07167627 25.72894168 3.45788646 28.32098911 -0.9921875 30.34375 C-6.37428013 31.12178724 -10.59120467 31.04424141 -15.4921875 28.59375 C-19.05868523 25.38390205 -20.81830152 23.74580359 -21.42578125 18.84765625 C-21.42707031 17.54699219 -21.42835938 16.24632812 -21.4296875 14.90625 C-21.44902344 13.60816406 -21.46835938 12.31007813 -21.48828125 10.97265625 C-20.9225707 6.83450586 -19.91060552 5.26216802 -16.9921875 2.34375 C-11.72471621 -1.20873064 -6.04495065 -1.99127786 0 0 Z " fill="#FAFAFA" transform="translate(179.9921875,84.65625)"/>
<path d="M0 0 C0.99 0 1.98 0 3 0 C3 36.96 3 73.92 3 112 C2.01 112 1.02 112 0 112 C0 75.04 0 38.08 0 0 Z " fill="#E6E6E6" transform="translate(93,107)"/>
<path d="M0 0 C0.33 0 0.66 0 1 0 C1 89.43 1 178.86 1 271 C1.99 271.33 2.98 271.66 4 272 C2.68 272.66 1.36 273.32 0 274 C0 183.58 0 93.16 0 0 Z " fill="#EAEAEA" transform="translate(15,99)"/>
<path d="M0 0 C0.99 0 1.98 0 3 0 C3 28.05 3 56.1 3 85 C2.01 85 1.02 85 0 85 C0 56.95 0 28.9 0 0 Z " fill="#E7E7E7" transform="translate(93,277)"/>
<path d="M0 0 C0.99 0 1.98 0 3 0 C3 12.21 3 24.42 3 37 C2.01 37 1.02 37 0 37 C0 24.79 0 12.58 0 0 Z " fill="#E8E8E8" transform="translate(297,182)"/>
<path d="M0 0 C0.99 0 1.98 0 3 0 C2.67 15.18 2.34 30.36 2 46 C1.34 46 0.68 46 0 46 C0 30.82 0 15.64 0 0 Z " fill="#EAEAEA" transform="translate(280,173)"/>
<path d="M0 0 C0.99 0 1.98 0 3 0 C3 9.24 3 18.48 3 28 C2.01 28 1.02 28 0 28 C0 18.76 0 9.52 0 0 Z " fill="#E7E7E7" transform="translate(93,234)"/>
<path d="M0 0 C0 8.58 0 17.16 0 26 C-1.98 26.99 -1.98 26.99 -4 28 C-3.67 19.09 -3.34 10.18 -3 1 C-1 0 -1 0 0 0 Z " fill="#F5F5F5" transform="translate(364,350)"/>
<path d="M0 0 C0.99 0 1.98 0 3 0 C3 8.58 3 17.16 3 26 C2.01 26 1.02 26 0 26 C0 17.42 0 8.84 0 0 Z " fill="#EAEAEA" transform="translate(181,129)"/>
<path d="M0 0 C0.99 0.33 1.98 0.66 3 1 C3 9.25 3 17.5 3 26 C2.01 26 1.02 26 0 26 C0 17.42 0 8.84 0 0 Z " fill="#EFEFEF" transform="translate(132,378)"/>
<path d="M0 0 C0.66 0 1.32 0 2 0 C2.33 9.24 2.66 18.48 3 28 C2.01 28 1.02 28 0 28 C0 18.76 0 9.52 0 0 Z " fill="#F3F3F3" transform="translate(344,351)"/>
<path d="M0 0 C0.66 0 1.32 0 2 0 C2.33 9.24 2.66 18.48 3 28 C2.01 28 1.02 28 0 28 C0 18.76 0 9.52 0 0 Z " fill="#EAEAEA" transform="translate(164,129)"/>
<path d="M0 0 C2.87592677 2.87592677 2.96378971 6.08928908 3 10 C2.0625 13.5 2.0625 13.5 1 16 C0.67 16 0.34 16 0 16 C0 10.72 0 5.44 0 0 Z " fill="#E3E3E3" transform="translate(156,341)"/>
<path d="M0 0 C0.33 0 0.66 0 1 0 C1 3.96 1 7.92 1 12 C-1.8086289 9.1913711 -1.72711179 6.88865706 -2 3 C-1.34 2.01 -0.68 1.02 0 0 Z " fill="#EBEBEB" transform="translate(339,317)"/>
</svg>
