<?xml version="1.0" encoding="UTF-8"?>
<svg version="1.1" xmlns="http://www.w3.org/2000/svg" width="512" height="512">
<path d="M0 0 C1.01790619 0.00215515 2.03581238 0.0043103 3.08456421 0.00653076 C17.69363523 0.05620146 32.02575853 0.30709809 46.375 3.3125 C47.34985352 3.51117676 48.32470703 3.70985352 49.32910156 3.91455078 C97.7109774 14.03517194 141.69928269 35.9516877 177.375 70.3125 C178.3640332 71.26068604 178.3640332 71.26068604 179.37304688 72.22802734 C188.86130305 81.37247479 197.6012044 90.66984009 205.375 101.3125 C206.23306152 102.46355017 207.09113451 103.61459177 207.94921875 104.765625 C213.98736829 112.95680614 219.34595521 121.47054105 224.375 130.3125 C224.73948242 130.94430176 225.10396484 131.57610352 225.47949219 132.22705078 C247.08534998 169.97532572 256.85198095 212.74189997 256.6875 255.9375 C256.68534485 256.95540619 256.6831897 257.97331238 256.68096924 259.02206421 C256.63129854 273.63113523 256.38040191 287.96325853 253.375 302.3125 C253.07698486 303.77478027 253.07698486 303.77478027 252.77294922 305.26660156 C242.65232806 353.6484774 220.7358123 397.63678269 186.375 433.3125 C185.74287598 433.97185547 185.11075195 434.63121094 184.45947266 435.31054688 C175.31502521 444.79880305 166.01765991 453.5387044 155.375 461.3125 C154.22394983 462.17056152 153.07290823 463.02863451 151.921875 463.88671875 C143.73224019 469.92427396 135.22961724 475.30707302 126.375 480.3125 C125.66778809 480.7146875 124.96057617 481.116875 124.23193359 481.53125 C101.09654164 494.5566741 75.92537591 503.30551461 49.9375 508.625 C49.21860596 508.77235596 48.49971191 508.91971191 47.7590332 509.0715332 C33.08339502 511.86090125 18.55831162 512.66142619 3.64770508 512.62817383 C0.70811513 512.6250221 -2.2304558 512.64854926 -5.16992188 512.67382812 C-18.54306192 512.71848737 -31.43916711 511.51301542 -44.625 509.3125 C-46.33055054 509.03031616 -46.33055054 509.03031616 -48.07055664 508.74243164 C-91.33802759 500.97044532 -132.38793216 480.98345309 -165.625 452.3125 C-166.37007813 451.67828125 -167.11515625 451.0440625 -167.8828125 450.390625 C-181.38779833 438.57948485 -194.05918743 425.82889772 -204.625 411.3125 C-205.48149066 410.16255169 -206.33826433 409.01281411 -207.1953125 407.86328125 C-213.23534209 399.67315742 -218.61867614 391.16870382 -223.625 382.3125 C-224.0271875 381.60528809 -224.429375 380.89807617 -224.84375 380.16943359 C-237.8691741 357.03404164 -246.61801461 331.86287591 -251.9375 305.875 C-252.08485596 305.15610596 -252.23221191 304.43721191 -252.3840332 303.6965332 C-255.35789088 288.05024391 -255.99800362 272.57681954 -255.9375 256.6875 C-255.93534485 255.66959381 -255.9331897 254.65168762 -255.93096924 253.60293579 C-255.88129854 238.99386477 -255.63040191 224.66174147 -252.625 210.3125 C-252.42632324 209.33764648 -252.22764648 208.36279297 -252.02294922 207.35839844 C-241.90232806 158.9765226 -219.9858123 114.98821731 -185.625 79.3125 C-184.99287598 78.65314453 -184.36075195 77.99378906 -183.70947266 77.31445312 C-174.56502521 67.82619695 -165.26765991 59.0862956 -154.625 51.3125 C-153.47394983 50.45443848 -152.32290823 49.59636549 -151.171875 48.73828125 C-142.98224019 42.70072604 -134.47961724 37.31792698 -125.625 32.3125 C-124.91778809 31.9103125 -124.21057617 31.508125 -123.48193359 31.09375 C-100.34654164 18.0683259 -75.17537591 9.31948539 -49.1875 4 C-48.46860596 3.85264404 -47.74971191 3.70528809 -47.0090332 3.5534668 C-31.36274391 0.57960912 -15.88931954 -0.06050362 0 0 Z " fill="#FEFEFE" transform="translate(255.625,-0.3125)"/>
<path d="M0 0 C1.01790619 0.00215515 2.03581238 0.0043103 3.08456421 0.00653076 C17.69363523 0.05620146 32.02575853 0.30709809 46.375 3.3125 C47.34985352 3.51117676 48.32470703 3.70985352 49.32910156 3.91455078 C97.7109774 14.03517194 141.69928269 35.9516877 177.375 70.3125 C178.3640332 71.26068604 178.3640332 71.26068604 179.37304688 72.22802734 C188.86130305 81.37247479 197.6012044 90.66984009 205.375 101.3125 C206.23306152 102.46355017 207.09113451 103.61459177 207.94921875 104.765625 C213.98736829 112.95680614 219.34595521 121.47054105 224.375 130.3125 C224.73948242 130.94430176 225.10396484 131.57610352 225.47949219 132.22705078 C247.08534998 169.97532572 256.85198095 212.74189997 256.6875 255.9375 C256.68534485 256.95540619 256.6831897 257.97331238 256.68096924 259.02206421 C256.63129854 273.63113523 256.38040191 287.96325853 253.375 302.3125 C253.07698486 303.77478027 253.07698486 303.77478027 252.77294922 305.26660156 C242.65232806 353.6484774 220.7358123 397.63678269 186.375 433.3125 C185.74287598 433.97185547 185.11075195 434.63121094 184.45947266 435.31054688 C175.31502521 444.79880305 166.01765991 453.5387044 155.375 461.3125 C154.22394983 462.17056152 153.07290823 463.02863451 151.921875 463.88671875 C143.73224019 469.92427396 135.22961724 475.30707302 126.375 480.3125 C125.66778809 480.7146875 124.96057617 481.116875 124.23193359 481.53125 C101.09654164 494.5566741 75.92537591 503.30551461 49.9375 508.625 C49.21860596 508.77235596 48.49971191 508.91971191 47.7590332 509.0715332 C33.08339502 511.86090125 18.55831162 512.66142619 3.64770508 512.62817383 C0.70811513 512.6250221 -2.2304558 512.64854926 -5.16992188 512.67382812 C-18.54306192 512.71848737 -31.43916711 511.51301542 -44.625 509.3125 C-46.33055054 509.03031616 -46.33055054 509.03031616 -48.07055664 508.74243164 C-91.33802759 500.97044532 -132.38793216 480.98345309 -165.625 452.3125 C-166.37007813 451.67828125 -167.11515625 451.0440625 -167.8828125 450.390625 C-181.38779833 438.57948485 -194.05918743 425.82889772 -204.625 411.3125 C-205.48149066 410.16255169 -206.33826433 409.01281411 -207.1953125 407.86328125 C-213.23534209 399.67315742 -218.61867614 391.16870382 -223.625 382.3125 C-224.0271875 381.60528809 -224.429375 380.89807617 -224.84375 380.16943359 C-237.8691741 357.03404164 -246.61801461 331.86287591 -251.9375 305.875 C-252.08485596 305.15610596 -252.23221191 304.43721191 -252.3840332 303.6965332 C-255.35789088 288.05024391 -255.99800362 272.57681954 -255.9375 256.6875 C-255.93534485 255.66959381 -255.9331897 254.65168762 -255.93096924 253.60293579 C-255.88129854 238.99386477 -255.63040191 224.66174147 -252.625 210.3125 C-252.42632324 209.33764648 -252.22764648 208.36279297 -252.02294922 207.35839844 C-241.90232806 158.9765226 -219.9858123 114.98821731 -185.625 79.3125 C-184.99287598 78.65314453 -184.36075195 77.99378906 -183.70947266 77.31445312 C-174.56502521 67.82619695 -165.26765991 59.0862956 -154.625 51.3125 C-153.47394983 50.45443848 -152.32290823 49.59636549 -151.171875 48.73828125 C-142.98224019 42.70072604 -134.47961724 37.31792698 -125.625 32.3125 C-124.91778809 31.9103125 -124.21057617 31.508125 -123.48193359 31.09375 C-100.34654164 18.0683259 -75.17537591 9.31948539 -49.1875 4 C-48.46860596 3.85264404 -47.74971191 3.70528809 -47.0090332 3.5534668 C-31.36274391 0.57960912 -15.88931954 -0.06050362 0 0 Z M-31.625 25.3125 C-33.50058594 25.5290625 -33.50058594 25.5290625 -35.4140625 25.75 C-90.64707679 32.15382774 -145.28218382 65.0853689 -179.74609375 108.18359375 C-201.06253969 135.29262095 -217.21318525 165.7354695 -225.625 199.3125 C-225.80901367 200.0432373 -225.99302734 200.77397461 -226.18261719 201.52685547 C-235.81861756 240.81920254 -233.93228105 283.63123318 -222.625 322.3125 C-222.40779297 323.07530273 -222.19058594 323.83810547 -221.96679688 324.62402344 C-215.37962322 347.3037937 -204.69349811 370.29500453 -190.625 389.3125 C-189.86960938 390.33859375 -189.11421875 391.3646875 -188.3359375 392.421875 C-175.3908206 409.72978281 -160.89851373 426.21451758 -143.625 439.3125 C-143.00206055 439.79009766 -142.37912109 440.26769531 -141.73730469 440.75976562 C-113.89970129 461.97817619 -83.02638742 476.21585333 -48.93603516 483.78173828 C-46.84521537 484.26192444 -44.77916911 484.79747822 -42.70703125 485.3515625 C-16.18046704 492.02374634 12.61878599 490.51190579 39.375 486.3125 C40.22932617 486.18391602 41.08365234 486.05533203 41.96386719 485.92285156 C95.64475562 477.56776675 147.94167511 445.98090414 181.375 403.3125 C182.15359375 402.35085938 182.9321875 401.38921875 183.734375 400.3984375 C223.01608551 350.98354689 238.75160524 288.09524952 231.68701172 225.87548828 C228.33372143 198.33022895 219.49899395 171.71852384 206.375 147.3125 C205.86332275 146.34135254 205.86332275 146.34135254 205.34130859 145.35058594 C196.8729555 129.32895098 186.43934146 114.81367102 174.375 101.3125 C173.8903125 100.76609863 173.405625 100.21969727 172.90625 99.65673828 C137.6426732 60.06556758 87.86434709 33.23175607 35.375 25.3125 C34.22813721 25.13895996 34.22813721 25.13895996 33.05810547 24.96191406 C11.78695944 21.93408884 -10.40429991 22.05473794 -31.625 25.3125 Z " fill="#050505" transform="translate(255.625,-0.3125)"/>
<path d="M0 0 C1.69902466 -0.0153479 1.69902466 -0.0153479 3.43237305 -0.03100586 C21.93790404 0.16259213 39.42806649 7.8865541 52.875 20.5 C66.67458727 34.95013924 70.87057385 51.76057458 70.5234375 71.39453125 C68.96499011 105.41953196 42.51023869 129.3035538 20 151.6875 C14.781875 156.885 9.56375 162.0825 4.1875 167.4375 C38.3425 167.9325 38.3425 167.9325 73.1875 168.4375 C73.1875 183.6175 73.1875 198.7975 73.1875 214.4375 C25.9975 214.4375 -21.1925 214.4375 -69.8125 214.4375 C-69.8125 179.4375 -69.8125 179.4375 -63.25 170.75 C-59.55859375 168.05078125 -59.55859375 168.05078125 -57.66552734 166.80908203 C-54.91154723 164.77062877 -52.89550229 162.24095743 -50.70336914 159.62573242 C-46.39135644 154.63560074 -41.53736066 150.12721278 -36.83984375 145.50390625 C-33.21951013 141.91843941 -29.66142946 138.33808108 -26.34375 134.46875 C-21.30640761 128.6006264 -15.70077496 123.28266638 -10.1953125 117.859375 C-5.71131918 113.41626916 -1.37653996 108.92557563 2.73046875 104.13085938 C4.4871391 102.08925992 6.33985205 100.14664395 8.1875 98.1875 C16.72628884 88.60212809 21.72419886 78.51649341 21.50390625 65.63671875 C20.92779983 59.81164272 18.89921081 56.10532079 14.75 52.0625 C7.50305995 47.46687948 -0.49214013 47.4472318 -8.8125 48.4375 C-18.2522874 50.97945582 -24.54042217 58.2740057 -29.3125 66.5 C-29.8075 67.469375 -30.3025 68.43875 -30.8125 69.4375 C-34.82841869 67.94882844 -38.43062482 66.04616846 -42.14453125 63.91796875 C-42.73997238 63.57752029 -43.33541351 63.23707184 -43.94889832 62.88630676 C-45.20452237 62.16751768 -46.45925315 61.44716615 -47.71313477 60.7253418 C-49.60679997 59.63547472 -51.50332363 58.55072955 -53.40039062 57.46679688 C-59.6142999 53.90798007 -65.7760992 50.29261669 -71.8125 46.4375 C-67.09541814 30.85062082 -54.36535202 17.76921121 -40.62890625 9.52734375 C-27.35475879 2.43072235 -14.97092161 0.10462073 0 0 Z " fill="#010101" transform="translate(202.8125,148.5625)"/>
<path d="M0 0 C0 69.3 0 138.6 0 210 C-15.84 210 -31.68 210 -48 210 C-48 157.53 -48 105.06 -48 51 C-58.89 53.97 -58.89 53.97 -70 57 C-81 60 -81 60 -86 60 C-87.5716882 54.64463204 -89.13812976 49.28776832 -90.69970703 43.92944336 C-91.23179124 42.10643 -91.76531236 40.28383541 -92.30029297 38.46166992 C-93.06855442 35.84402213 -93.83165326 33.22491698 -94.59375 30.60546875 C-94.83436157 29.78974899 -95.07497314 28.97402924 -95.32287598 28.1335907 C-96.22953669 25.00242293 -97 22.27767201 -97 19 C-90.41672743 16.61449252 -83.8330242 14.2301766 -77.24902344 11.84667969 C-75.01031778 11.03608033 -72.77171003 10.22521053 -70.53320312 9.4140625 C-67.31145659 8.2466801 -64.08935662 7.08027792 -60.8671875 5.9140625 C-59.87008759 5.55253082 -58.87298767 5.19099915 -57.84567261 4.81851196 C-56.90515045 4.47831024 -55.9646283 4.13810852 -54.99560547 3.78759766 C-54.17397919 3.49003571 -53.35235291 3.19247375 -52.50582886 2.88589478 C-33.06498173 -3.98709851 -32.91892466 0 0 0 Z " fill="#000000" transform="translate(381,153)"/>
</svg>
