<?xml version="1.0" encoding="UTF-8"?>
<svg version="1.1" xmlns="http://www.w3.org/2000/svg" width="512" height="512">
<path d="M0 0 C1.01790619 0.00215515 2.03581238 0.0043103 3.08456421 0.00653076 C17.69363523 0.05620146 32.02575853 0.30709809 46.375 3.3125 C47.34985352 3.51117676 48.32470703 3.70985352 49.32910156 3.91455078 C97.7109774 14.03517194 141.69928269 35.9516877 177.375 70.3125 C178.3640332 71.26068604 178.3640332 71.26068604 179.37304688 72.22802734 C188.86130305 81.37247479 197.6012044 90.66984009 205.375 101.3125 C206.23306152 102.46355017 207.09113451 103.61459177 207.94921875 104.765625 C213.98736829 112.95680614 219.34595521 121.47054105 224.375 130.3125 C224.73948242 130.94430176 225.10396484 131.57610352 225.47949219 132.22705078 C247.08534998 169.97532572 256.85198095 212.74189997 256.6875 255.9375 C256.68534485 256.95540619 256.6831897 257.97331238 256.68096924 259.02206421 C256.63129854 273.63113523 256.38040191 287.96325853 253.375 302.3125 C253.07698486 303.77478027 253.07698486 303.77478027 252.77294922 305.26660156 C242.65232806 353.6484774 220.7358123 397.63678269 186.375 433.3125 C185.74287598 433.97185547 185.11075195 434.63121094 184.45947266 435.31054688 C175.31502521 444.79880305 166.01765991 453.5387044 155.375 461.3125 C154.22394983 462.17056152 153.07290823 463.02863451 151.921875 463.88671875 C143.73224019 469.92427396 135.22961724 475.30707302 126.375 480.3125 C125.66778809 480.7146875 124.96057617 481.116875 124.23193359 481.53125 C101.09654164 494.5566741 75.92537591 503.30551461 49.9375 508.625 C49.21860596 508.77235596 48.49971191 508.91971191 47.7590332 509.0715332 C33.08339502 511.86090125 18.55831162 512.66142619 3.64770508 512.62817383 C0.70811513 512.6250221 -2.2304558 512.64854926 -5.16992188 512.67382812 C-18.54306192 512.71848737 -31.43916711 511.51301542 -44.625 509.3125 C-46.33055054 509.03031616 -46.33055054 509.03031616 -48.07055664 508.74243164 C-91.33802759 500.97044532 -132.38793216 480.98345309 -165.625 452.3125 C-166.37007813 451.67828125 -167.11515625 451.0440625 -167.8828125 450.390625 C-181.38779833 438.57948485 -194.05918743 425.82889772 -204.625 411.3125 C-205.48149066 410.16255169 -206.33826433 409.01281411 -207.1953125 407.86328125 C-213.23534209 399.67315742 -218.61867614 391.16870382 -223.625 382.3125 C-224.0271875 381.60528809 -224.429375 380.89807617 -224.84375 380.16943359 C-237.8691741 357.03404164 -246.61801461 331.86287591 -251.9375 305.875 C-252.08485596 305.15610596 -252.23221191 304.43721191 -252.3840332 303.6965332 C-255.35789088 288.05024391 -255.99800362 272.57681954 -255.9375 256.6875 C-255.93534485 255.66959381 -255.9331897 254.65168762 -255.93096924 253.60293579 C-255.88129854 238.99386477 -255.63040191 224.66174147 -252.625 210.3125 C-252.42632324 209.33764648 -252.22764648 208.36279297 -252.02294922 207.35839844 C-241.90232806 158.9765226 -219.9858123 114.98821731 -185.625 79.3125 C-184.99287598 78.65314453 -184.36075195 77.99378906 -183.70947266 77.31445312 C-174.56502521 67.82619695 -165.26765991 59.0862956 -154.625 51.3125 C-153.47394983 50.45443848 -152.32290823 49.59636549 -151.171875 48.73828125 C-142.98224019 42.70072604 -134.47961724 37.31792698 -125.625 32.3125 C-124.91778809 31.9103125 -124.21057617 31.508125 -123.48193359 31.09375 C-100.34654164 18.0683259 -75.17537591 9.31948539 -49.1875 4 C-48.46860596 3.85264404 -47.74971191 3.70528809 -47.0090332 3.5534668 C-31.36274391 0.57960912 -15.88931954 -0.06050362 0 0 Z " fill="#FEFEFE" transform="translate(255.625,-0.3125)"/>
<path d="M0 0 C1.01790619 0.00215515 2.03581238 0.0043103 3.08456421 0.00653076 C17.69363523 0.05620146 32.02575853 0.30709809 46.375 3.3125 C47.34985352 3.51117676 48.32470703 3.70985352 49.32910156 3.91455078 C97.7109774 14.03517194 141.69928269 35.9516877 177.375 70.3125 C178.3640332 71.26068604 178.3640332 71.26068604 179.37304688 72.22802734 C188.86130305 81.37247479 197.6012044 90.66984009 205.375 101.3125 C206.23306152 102.46355017 207.09113451 103.61459177 207.94921875 104.765625 C213.98736829 112.95680614 219.34595521 121.47054105 224.375 130.3125 C224.73948242 130.94430176 225.10396484 131.57610352 225.47949219 132.22705078 C247.08534998 169.97532572 256.85198095 212.74189997 256.6875 255.9375 C256.68534485 256.95540619 256.6831897 257.97331238 256.68096924 259.02206421 C256.63129854 273.63113523 256.38040191 287.96325853 253.375 302.3125 C253.07698486 303.77478027 253.07698486 303.77478027 252.77294922 305.26660156 C242.65232806 353.6484774 220.7358123 397.63678269 186.375 433.3125 C185.74287598 433.97185547 185.11075195 434.63121094 184.45947266 435.31054688 C175.31502521 444.79880305 166.01765991 453.5387044 155.375 461.3125 C154.22394983 462.17056152 153.07290823 463.02863451 151.921875 463.88671875 C143.73224019 469.92427396 135.22961724 475.30707302 126.375 480.3125 C125.66778809 480.7146875 124.96057617 481.116875 124.23193359 481.53125 C101.09654164 494.5566741 75.92537591 503.30551461 49.9375 508.625 C49.21860596 508.77235596 48.49971191 508.91971191 47.7590332 509.0715332 C33.08339502 511.86090125 18.55831162 512.66142619 3.64770508 512.62817383 C0.70811513 512.6250221 -2.2304558 512.64854926 -5.16992188 512.67382812 C-18.54306192 512.71848737 -31.43916711 511.51301542 -44.625 509.3125 C-46.33055054 509.03031616 -46.33055054 509.03031616 -48.07055664 508.74243164 C-91.33802759 500.97044532 -132.38793216 480.98345309 -165.625 452.3125 C-166.37007813 451.67828125 -167.11515625 451.0440625 -167.8828125 450.390625 C-181.38779833 438.57948485 -194.05918743 425.82889772 -204.625 411.3125 C-205.48149066 410.16255169 -206.33826433 409.01281411 -207.1953125 407.86328125 C-213.23534209 399.67315742 -218.61867614 391.16870382 -223.625 382.3125 C-224.0271875 381.60528809 -224.429375 380.89807617 -224.84375 380.16943359 C-237.8691741 357.03404164 -246.61801461 331.86287591 -251.9375 305.875 C-252.08485596 305.15610596 -252.23221191 304.43721191 -252.3840332 303.6965332 C-255.35789088 288.05024391 -255.99800362 272.57681954 -255.9375 256.6875 C-255.93534485 255.66959381 -255.9331897 254.65168762 -255.93096924 253.60293579 C-255.88129854 238.99386477 -255.63040191 224.66174147 -252.625 210.3125 C-252.42632324 209.33764648 -252.22764648 208.36279297 -252.02294922 207.35839844 C-241.90232806 158.9765226 -219.9858123 114.98821731 -185.625 79.3125 C-184.99287598 78.65314453 -184.36075195 77.99378906 -183.70947266 77.31445312 C-174.56502521 67.82619695 -165.26765991 59.0862956 -154.625 51.3125 C-153.47394983 50.45443848 -152.32290823 49.59636549 -151.171875 48.73828125 C-142.98224019 42.70072604 -134.47961724 37.31792698 -125.625 32.3125 C-124.91778809 31.9103125 -124.21057617 31.508125 -123.48193359 31.09375 C-100.34654164 18.0683259 -75.17537591 9.31948539 -49.1875 4 C-48.46860596 3.85264404 -47.74971191 3.70528809 -47.0090332 3.5534668 C-31.36274391 0.57960912 -15.88931954 -0.06050362 0 0 Z M-31.625 25.3125 C-33.50058594 25.5290625 -33.50058594 25.5290625 -35.4140625 25.75 C-90.64707679 32.15382774 -145.28218382 65.0853689 -179.74609375 108.18359375 C-201.06253969 135.29262095 -217.21318525 165.7354695 -225.625 199.3125 C-225.80901367 200.0432373 -225.99302734 200.77397461 -226.18261719 201.52685547 C-235.81861756 240.81920254 -233.93228105 283.63123318 -222.625 322.3125 C-222.40779297 323.07530273 -222.19058594 323.83810547 -221.96679688 324.62402344 C-215.37962322 347.3037937 -204.69349811 370.29500453 -190.625 389.3125 C-189.86960938 390.33859375 -189.11421875 391.3646875 -188.3359375 392.421875 C-175.3908206 409.72978281 -160.89851373 426.21451758 -143.625 439.3125 C-143.00206055 439.79009766 -142.37912109 440.26769531 -141.73730469 440.75976562 C-113.89970129 461.97817619 -83.02638742 476.21585333 -48.93603516 483.78173828 C-46.84521537 484.26192444 -44.77916911 484.79747822 -42.70703125 485.3515625 C-16.18046704 492.02374634 12.61878599 490.51190579 39.375 486.3125 C40.22932617 486.18391602 41.08365234 486.05533203 41.96386719 485.92285156 C95.64475562 477.56776675 147.94167511 445.98090414 181.375 403.3125 C182.15359375 402.35085938 182.9321875 401.38921875 183.734375 400.3984375 C223.01608551 350.98354689 238.75160524 288.09524952 231.68701172 225.87548828 C228.33372143 198.33022895 219.49899395 171.71852384 206.375 147.3125 C205.86332275 146.34135254 205.86332275 146.34135254 205.34130859 145.35058594 C196.8729555 129.32895098 186.43934146 114.81367102 174.375 101.3125 C173.8903125 100.76609863 173.405625 100.21969727 172.90625 99.65673828 C137.6426732 60.06556758 87.86434709 33.23175607 35.375 25.3125 C34.22813721 25.13895996 34.22813721 25.13895996 33.05810547 24.96191406 C11.78695944 21.93408884 -10.40429991 22.05473794 -31.625 25.3125 Z " fill="#050505" transform="translate(255.625,-0.3125)"/>
<path d="M0 0 C1.05735352 -0.00563965 2.11470703 -0.0112793 3.20410156 -0.01708984 C12.73864215 0.07094426 21.40194657 1.62489234 30.3125 5 C30.99892578 5.25982666 31.68535156 5.51965332 32.39257812 5.78735352 C38.3574698 8.14904099 43.34114986 11.24584601 48.3125 15.3125 C49.01761719 15.85648438 49.72273438 16.40046875 50.44921875 16.9609375 C62.80362492 26.98565565 69.48937009 41.9455172 72.3125 57.3125 C74.46903361 83.48376585 64.2118924 104.65654378 47.92367554 124.43466187 C43.14444563 130.00489302 37.81636182 135.0714016 32.5625 140.1875 C30.20967638 142.4934853 27.86137382 144.80400696 25.515625 147.1171875 C24.68266907 147.93712189 24.68266907 147.93712189 23.83288574 148.77362061 C20.37712723 152.19575566 17.07366855 155.69382226 13.96386719 159.43798828 C11.54457657 162.18419073 8.90041373 164.72458627 6.3125 167.3125 C40.4675 167.8075 40.4675 167.8075 75.3125 168.3125 C75.3125 183.8225 75.3125 199.3325 75.3125 215.3125 C27.7925 215.3125 -19.7275 215.3125 -68.6875 215.3125 C-68.6875 179.3125 -68.6875 179.3125 -57.125 165.5625 C-50.62109375 160.078125 -50.62109375 160.078125 -47.47607422 157.60351562 C-44.41010036 155.08459611 -41.95172103 152.40642285 -39.43383789 149.35839844 C-35.00327356 144.16783097 -29.92864975 139.52019976 -25.0703125 134.734375 C-20.65626016 130.36057238 -16.42037519 125.93314606 -12.37695312 121.21582031 C-10.01915125 118.55954525 -7.48906916 116.10404674 -4.94091797 113.63183594 C14.35708321 95.32087385 14.35708321 95.32087385 22.91455078 71.12939453 C22.98467032 64.62319619 22.61675007 59.43106765 18.3125 54.3125 C11.69805171 48.03725419 4.87235435 47.78388885 -3.796875 48 C-8.69079775 48.39308617 -11.7990981 49.38702782 -15.6875 52.3125 C-16.2753125 52.71339844 -16.863125 53.11429688 -17.46875 53.52734375 C-22.98870806 57.70362781 -26.2333334 63.41206951 -29.6875 69.3125 C-33.3569229 67.93698352 -36.65751855 66.27739346 -40.0390625 64.30078125 C-41.56466797 63.41036133 -41.56466797 63.41036133 -43.12109375 62.50195312 C-44.17425781 61.88255859 -45.22742188 61.26316406 -46.3125 60.625 C-47.34246094 60.02494141 -48.37242187 59.42488281 -49.43359375 58.80664062 C-56.28594376 54.79435266 -63.01894544 50.62302591 -69.6875 46.3125 C-67.12077355 32.02009154 -55.59623828 20.81086684 -44.125 12.79614258 C-30.10124537 3.40255426 -16.62758573 0.08485936 0 0 Z " fill="#020202" transform="translate(253.6875,148.6875)"/>
</svg>
