<?xml version="1.0" encoding="UTF-8"?>
<svg version="1.1" xmlns="http://www.w3.org/2000/svg" width="512" height="512">
<path d="M0 0 C1.47518097 0.04737305 1.47518097 0.04737305 2.98016357 0.09570312 C106.76871086 3.48464911 106.76871086 3.48464911 127 14 C127.86882812 14.44085938 128.73765625 14.88171875 129.6328125 15.3359375 C138.99526533 20.51821262 147.34195432 27.87910669 153 37 C153.57492187 37.92554688 154.14984375 38.85109375 154.7421875 39.8046875 C160.73893756 50.53706852 162.9186285 61.97697157 165 74 C165.14920898 74.85013672 165.29841797 75.70027344 165.45214844 76.57617188 C166.59105761 83.35603119 167.32886327 90.15974499 168 97 C168.06680969 97.65141968 168.13361938 98.30283936 168.20245361 98.97399902 C173.69433461 152.72331495 173.81417265 209.27456096 168 263 C167.88401459 264.07368835 167.88401459 264.07368835 167.76568604 265.16906738 C166.77696348 274.15684955 165.54650377 283.09056299 164 292 C163.85481934 292.8549707 163.70963867 293.70994141 163.56005859 294.59082031 C160.18760348 313.59637475 151.65615022 329.35691905 136 340.9375 C100.0931826 364.25140514 41.13277291 358.67908764 0 360 C-0.93833679 360.03029297 -1.87667358 360.06058594 -2.84344482 360.09179688 C-58.4814329 361.85260879 -114.36421651 361.79612807 -170 360 C-170.98345398 359.96841797 -171.96690796 359.93683594 -172.98016357 359.90429688 C-276.76871086 356.51535089 -276.76871086 356.51535089 -297 346 C-298.30324219 345.33871094 -298.30324219 345.33871094 -299.6328125 344.6640625 C-308.99526533 339.48178738 -317.34195432 332.12089331 -323 323 C-323.86238281 321.61167969 -323.86238281 321.61167969 -324.7421875 320.1953125 C-330.73893756 309.46293148 -332.9186285 298.02302843 -335 286 C-335.14920898 285.14986328 -335.29841797 284.29972656 -335.45214844 283.42382812 C-336.59105761 276.64396881 -337.32886327 269.84025501 -338 263 C-338.06680969 262.34858032 -338.13361938 261.69716064 -338.20245361 261.02600098 C-343.69433461 207.27668505 -343.81417265 150.72543904 -338 97 C-337.92267639 96.28420776 -337.84535278 95.56841553 -337.76568604 94.83093262 C-336.77696348 85.84315045 -335.54650377 76.90943701 -334 68 C-333.85481934 67.1450293 -333.70963867 66.29005859 -333.56005859 65.40917969 C-330.18760348 46.40362525 -321.65615022 30.64308095 -306 19.0625 C-270.0931826 -4.25140514 -211.13277291 1.32091236 -170 0 C-168.59249481 -0.04543945 -168.59249481 -0.04543945 -167.15655518 -0.09179688 C-111.5185671 -1.85260879 -55.63578349 -1.79612807 0 0 Z " fill="#FF0000" transform="translate(341,76)"/>
<path d="M0 0 C3.75391778 0.93847944 6.21494587 2.08479809 9.55859375 3.95703125 C10.65550537 4.56861084 11.75241699 5.18019043 12.88256836 5.81030273 C14.06764828 6.47751944 15.25262292 7.14492316 16.4375 7.8125 C17.66593376 8.50037299 18.89453261 9.18795123 20.12329102 9.87524414 C29.83171832 15.31300552 39.50028091 20.82025322 49.14892578 26.36328125 C54.11795152 29.21585434 59.0918421 32.05992406 64.06607056 34.90341187 C65.27168178 35.5926086 66.47722789 36.28191925 67.68270874 36.97134399 C76.60977786 42.07634415 85.55951504 47.14002261 94.52075195 52.18481445 C102.76899114 56.84174633 110.94910902 61.61283425 119.11035156 66.42041016 C123.67653153 69.10232036 128.21641036 71.72517322 133 74 C133 74.66 133 75.32 133 76 C132.3287207 76.37060547 131.65744141 76.74121094 130.96582031 77.12304688 C113.81564988 86.6000095 96.76223126 96.23446565 79.7668457 105.98638916 C74.45076146 109.03614082 69.13216914 112.08150667 63.8125 115.125 C63.23225067 115.45713501 62.65200134 115.78927002 62.0541687 116.13146973 C52.75875589 121.45035226 43.41992445 126.68837022 34.05932617 131.89160156 C25.87742647 136.45916373 17.81230633 141.21028377 9.81298828 146.09057617 C8.53270752 146.86171753 8.53270752 146.86171753 7.2265625 147.6484375 C6.47971191 148.10395996 5.73286133 148.55948242 4.96337891 149.02880859 C3 150 3 150 0 150 C0 100.5 0 51 0 0 Z " fill="#FFFEFE" transform="translate(204,181)"/>
</svg>
